<svg width="381" height="349" viewBox="0 0 381 349" fill="none" xmlns="http://www.w3.org/2000/svg">
<path fill-rule="evenodd" clip-rule="evenodd" d="M211.13 0C309.829 0 330.609 136.784 331.013 137.91C331.429 139.069 331.821 140.263 332.2 141.421C332.97 143.774 333.96 146.039 334.73 148.376C335.201 149.802 336.067 150.983 336.647 152.33C337.773 154.902 339.152 157.357 340.764 159.657C341.429 160.568 341.953 161.574 342.315 162.642C342.57 163.459 343.414 163.678 343.778 164.399C344.367 165.566 345.153 166.633 345.834 167.754C345.988 168.148 346.344 168.429 346.764 168.487L346.631 169.6C346.878 170.001 346.962 169.459 347.219 169.554C347.542 169.989 348.002 170.375 348.049 171.036C348.091 171.657 348.817 171.716 349.065 172.258C349.609 173.435 351.123 174.035 351.101 175.579C352.189 176.263 352.725 177.436 353.546 178.356C353.968 178.78 354.225 179.338 354.274 179.93L354.281 180.067C354.275 180.657 355.412 180.524 355.106 181.328C356.848 182.635 357.3 184.77 358.22 186.539C359.694 189.378 361.394 192.12 362.396 195.228C362.897 196.783 363.87 198.254 364.41 199.829C365.627 203.367 367.087 206.829 367.877 210.515C368.203 212.037 368.869 213.488 369.181 215.015L369.541 216.779C370.077 219.427 370.584 222.081 370.922 224.765C371.094 225.37 371.094 226.011 370.921 226.617C370.631 227.306 371.402 227.747 371.464 228.438C371.541 229.258 371.214 230.034 371.45 230.905C371.58 231.384 371.45 232.154 371.599 232.711C372.084 234.52 371.47 236.386 371.997 238.183C372.081 238.878 372.007 239.582 371.783 240.245C371.419 242.457 372.086 244.716 371.42 246.876C371.108 247.942 371.049 249.063 371.245 250.154L371.327 250.574C371.387 250.886 371.425 251.189 371.272 251.398C370.665 252.228 370.822 253.206 370.701 254.114L370.678 254.264C370.503 255.28 370.683 256.345 370.377 257.38C369.957 258.394 369.723 259.473 369.682 260.569C369.837 262.426 369.211 264.094 368.828 265.818C368.637 266.68 368.795 267.704 367.847 268.345C367.365 268.671 368.503 269.304 367.813 269.781L367.732 269.832C367.225 270.118 367.247 270.579 367.39 271.132C367.52 271.636 366.638 271.985 366.891 272.502C367.143 273.019 367.257 273.772 366.962 273.867C366.225 274.109 366.975 274.91 366.355 275.062C366.295 275.095 366.252 275.155 366.242 275.223C366.03 277.164 364.781 278.756 364.472 280.695C364.238 281.853 363.787 282.957 363.143 283.948C362.609 284.904 362.155 285.903 361.787 286.934C361.094 288.668 359.908 290.117 359.24 291.842C359.058 292.309 357.849 292.153 358.464 293.111C357.758 293.361 357.973 294.092 357.689 294.548C357.376 294.893 357.012 295.188 356.609 295.422C356.349 296.449 355.849 297.401 355.151 298.199C353.932 299.983 352.601 301.686 351.166 303.302L349.982 304.629C348.398 306.398 346.762 308.129 344.675 309.349C344.139 309.662 344.383 310.257 343.941 310.579C341.382 312.468 339.025 314.611 336.113 316.043C334.895 316.643 333.85 317.708 332.604 318.333C330.244 319.518 328.052 320.993 325.527 321.916L325.078 322.073C323.469 322.607 321.886 323.418 320.254 324.007C316.901 325.324 313.401 326.234 309.829 326.716L307.626 326.96C305.668 327.176 303.707 327.376 301.729 327.43C300.793 327.456 299.895 327.159 299.038 327.266C298.203 327.371 297.356 327.303 296.548 327.066C295.911 326.887 295.372 327.435 294.685 327.141C294.158 326.811 293.505 326.762 292.938 327.003L292.825 327.054C292.5 327.243 291.859 326.894 291.363 326.782C290.64 326.682 289.929 326.506 289.243 326.258C288.71 326.012 288.032 326.803 287.661 325.962C286.988 326.485 241.261 315.618 199.257 337.684C195.836 339.95 191.833 340.946 188.178 342.706C186.479 343.526 184.569 343.9 182.74 344.46L182.349 344.583C179.121 345.627 175.81 346.339 172.503 347.083C169.466 347.74 166.388 348.198 163.29 348.452C161.062 348.653 158.825 348.747 156.603 348.99C155.702 349.087 154.818 348.453 153.937 348.998C151.955 348.459 149.876 349.113 147.9 348.504C146.586 348.893 145.352 348.411 144.145 348.055C143.223 347.782 142.354 348.349 141.423 347.946C140.575 347.505 139.626 347.293 138.67 347.335C137.084 347.578 135.703 346.996 134.259 346.689C130.902 345.974 127.556 345.201 124.223 344.37C123.132 344.098 121.906 344.203 120.971 343.368C120.15 342.635 118.856 343.095 118.05 342.23C117.756 341.915 117.38 342.525 116.937 342.287C116.073 341.823 114.962 342.129 114.154 341.292C113.556 340.672 112.427 341.091 111.765 340.343L111.677 340.234C111.286 339.69 110.255 340.97 109.95 339.761C108.717 339.667 107.695 338.995 106.598 338.534C105.689 338.154 104.615 338.369 103.795 337.577C103.095 336.902 101.774 337.399 101.169 336.387C99.6865 336.375 98.5939 335.266 97.1816 334.974C96.1098 334.693 95.0803 334.27 94.1211 333.715C92.6001 332.933 91.0561 332.196 89.5002 331.497C88.9424 331.238 88.3991 330.948 87.8728 330.628C87.5779 330.456 87.5064 330.074 87.0848 329.981C84.4172 329.39 82.174 327.835 79.8954 326.475C78.5956 325.804 77.3527 325.03 76.1774 324.16L75.7879 323.867C75.4439 323.572 74.7296 323.426 74.4273 323.014C73.5841 321.869 72.3232 321.309 71.1794 320.621L70.9902 320.505C70.3457 320.126 69.7603 319.655 69.2514 319.107C69.1552 319.003 69.1163 318.776 69.0139 318.751C67.1158 318.282 65.9827 316.714 64.5315 315.618C63.283 314.677 62.1915 313.528 60.9621 312.569L60.4938 312.218C57.6173 310.16 26.1384 275.522 22.5715 269.545L21.5507 267.834C20.5314 266.12 19.5238 264.394 18.5961 262.633L17.8061 261.134C17.0173 259.632 16.2409 258.119 15.5545 256.58L14.6362 254.526C12.8039 250.415 11.011 246.283 9.48289 242.039C8.12027 238.252 6.99216 234.403 5.85329 230.551C5.12382 228.078 4.50744 225.593 3.9867 223.073C3.15479 219.046 2.41288 215.002 1.76115 210.942C1.15327 207.12 1.3781 203.241 0.566332 199.462C1.09816 197.141 0.120344 194.785 0.727492 192.467C0.277113 191.322 0.673171 190.134 0.715501 189.006C0.758901 187.841 0.497602 186.621 0.962785 185.44C1.1759 184.904 0.683247 184.259 0.950176 183.605C1.24317 183.06 1.277 182.412 1.04238 181.84C1.83332 181.476 0.890565 180.917 1.21902 180.399C1.57314 179.836 1.72957 179.173 1.6636 178.512C1.43326 177.033 2.28521 175.668 2.13565 174.331C1.97967 172.965 2.65448 171.807 2.6524 170.582L2.64367 170.352C2.52721 168.744 3.67649 167.533 3.71482 166.012C3.71842 165.879 4.03303 165.757 4.20545 165.624C4.15017 165.282 3.77178 165.36 3.50339 165.093C3.93187 164.721 4.30677 164.292 4.61744 163.818C4.85256 163.167 5.01958 162.494 5.11572 161.809L4.02627 160.404C4.4283 159.6 4.28814 158.869 4.82492 158.238C5.05853 157.963 4.92827 157.121 4.95709 156.54C4.99514 155.776 5.97623 155.321 5.73953 154.719C5.55698 154.025 5.61614 153.29 5.90727 152.635C7.31087 146.447 8.74059 140.265 10.1964 134.089C10.3495 133.427 10.2163 132.594 11.031 132.206C10.1408 131.287 11.5387 130.966 11.5605 130.238C11.6739 129.557 11.9364 128.909 12.329 128.341C12.8851 127.278 12.9362 125.958 13.2529 124.76C13.3363 123.913 13.6572 123.107 14.1786 122.433C14.7209 121.872 14.6428 120.894 15.0511 120.105C15.628 119.153 16.0751 118.128 16.3805 117.056C16.4726 116.287 16.7793 115.559 17.2657 114.955C17.6977 114.478 17.3429 113.491 18.1825 113.131C18.4179 111.748 19.2442 110.636 19.856 109.423L19.9679 109.195C21.4706 106.075 23.1595 103.047 25.0256 100.129C26.5759 97.6728 28.0844 95.1909 29.6584 92.7502C30.1705 91.9621 30.715 91.1774 31.2781 90.4293C33.2342 87.6784 35.3411 85.0378 37.5892 82.5194C39.6455 80.3404 41.6055 78.0635 43.7643 75.9683C44.912 74.8538 45.851 73.4854 46.9655 72.3016C49.5915 69.5068 52.2878 66.7879 55.1237 64.2076C57.5188 61.8417 60.138 59.7128 62.9447 57.8513C63.708 57.3869 64.335 56.7069 65.0719 56.193C65.9658 55.7004 66.8236 55.1454 67.6393 54.5313C68.5878 53.6391 69.7518 53.0717 70.7099 52.2453C71.4535 51.6042 72.6435 51.9701 73.176 50.8161C73.5638 49.9768 75.0161 50.2847 75.5047 49.3042C76.8456 49.2591 77.4715 47.9611 78.6891 47.5344L78.8512 47.4843C80.134 47.1342 81.2289 46.099 82.4054 45.365C83.5407 44.5611 84.7279 43.8339 85.9607 43.1888C88.2742 42.1468 90.2708 40.5595 92.5325 39.4832C94.6885 38.4587 96.6288 36.9586 98.9806 36.3878C99.5362 36.2532 99.4326 35.763 99.8148 35.5541C100.213 35.3351 100.648 35.4804 101.008 35.2282C102.495 34.2577 112.43 0 211.13 0Z" fill="#DDAB6C"/>
<path fill-rule="evenodd" clip-rule="evenodd" d="M99.7956 73.4302C96.4942 75.2928 91.66 72.9168 91.1179 69.165C93.2237 69.0525 95.4742 68.8881 97.1393 67.594C98.8038 66.2993 99.3864 63.433 97.7179 62.1434C84.1328 60.4749 70.917 55.8597 59.2474 48.7069C67.2159 46.3061 74.072 41.2417 81.557 37.6025C89.0413 33.9633 98.0939 31.8113 105.559 35.491C112.888 39.1043 121.326 34.4953 128.975 31.6183C142.275 26.6157 157.526 27.0351 170.531 32.7609C180.019 36.9388 196.097 30.1581 206.346 28.6028C223.089 26.0624 239.433 37.7967 256.245 35.7646C254.442 36.9574 252.638 38.1496 250.834 39.3424C252.611 39.1803 254.397 39.1144 256.18 39.146C242.228 45.8226 228.276 52.4986 214.323 59.1752C217.858 60.605 221.392 62.0347 224.927 63.4645C224.096 66.1282 221.118 67.9272 218.373 67.4229C220.581 69.1802 222.789 70.9376 224.998 72.695C222.641 74.3691 219.657 75.1386 216.784 74.8127C219.844 76.7879 222.369 79.5827 224.025 82.8262C231.314 80.3978 239.297 80.0989 246.747 81.975C240.016 82.8577 233.285 83.7403 226.555 84.6224C227.571 87.3896 228.587 90.1574 229.604 92.9246C238.397 90.9123 247.741 91.3699 256.295 94.2311C247.813 94.4473 239.33 94.6629 230.848 94.879C230.65 106.133 225.047 117.609 215.21 123.078C205.372 128.547 185.714 133.41 179.203 117.486C174.218 120.758 174.571 128.622 178.125 133.41C181.68 138.197 187.326 140.847 192.433 143.925C209.396 154.148 222.191 171.078 227.395 190.188C232.599 209.298 230.156 230.378 220.719 247.791C233.442 249.769 245.265 257.01 252.81 267.444C269.056 259.885 278.054 242.637 290.498 229.745C304.654 215.079 324.196 205.731 344.498 203.912C356.51 202.837 370.209 205.153 377.215 214.968C386.323 227.727 377.926 247.564 363.389 253.43C351.866 258.079 338.868 255.741 326.473 256.619C301.548 258.385 279.666 273.083 259.113 287.294C258.275 291.895 259.957 296.877 263.414 300.028C270.765 292.429 280.039 286.704 290.127 283.537C293.855 282.366 299.445 282.672 299.859 286.558C300.016 288.029 299.242 289.424 298.459 290.679C291.733 301.461 282.25 310.507 271.163 316.715C265.311 319.993 258.771 322.534 252.074 322.158C245.377 321.783 238.557 317.918 236.282 311.608C235.228 308.683 235.114 305.299 233.118 302.916C229.74 298.885 223.253 300.092 218.519 302.382C213.785 304.672 208.739 307.784 203.659 306.426C190.96 303.03 177.744 301.573 164.609 302.123C147.883 302.823 130.84 306.717 114.635 302.516C109.221 301.113 103.163 298.9 98.3675 301.777C88.9164 307.447 95.2912 325.596 85.5952 330.836C82.1604 332.692 77.9516 332.008 74.1627 331.067C57.4185 326.911 41.713 318.635 28.8183 307.174C27.5756 306.07 26.2953 304.829 25.9469 303.203C24.902 298.326 32.1001 296.298 37.0048 297.201C45.3364 298.734 53.3048 302.207 60.1002 307.267C62.4818 309.04 66.1064 306.971 67.1151 304.178C68.1244 301.385 67.4303 298.31 67.0363 295.366C64.5488 276.775 76.2122 257.228 93.7556 250.589C83.1342 235.089 79.0954 215.23 82.819 196.812C86.5426 178.395 97.9791 161.665 113.788 151.509C120.103 147.451 127.359 144.133 131.383 137.797C135.408 131.462 133.642 120.832 126.279 119.371C119.342 126.884 108.058 130.062 98.22 127.273C88.381 124.484 80.4435 115.858 78.4801 105.823C71.9499 108.028 65.4202 110.233 58.89 112.439C64.6862 107.972 71.5497 104.901 78.743 103.556C79.4331 100.564 80.1232 97.5737 80.8139 94.5824C68.3535 93.7786 55.7174 95.8292 44.1515 100.532C51.2688 95.1746 60.3248 92.4524 69.2164 92.9967C78.2606 93.5506 87.4545 89.1256 92.663 81.711C89.4044 80.5655 86.4756 78.4974 84.3056 75.809C87.6296 74.0049 91.6549 73.5377 95.3031 74.5318M163.717 269.605C163.123 270.183 162.485 270.869 162.527 271.696C162.569 272.522 163.809 273.139 164.237 272.431C166.572 268.562 170.633 265.781 175.083 265.002C179.534 264.223 184.298 265.46 187.808 268.305C189.033 269.297 190.126 270.484 191.526 271.209C192.029 271.47 192.891 271.478 192.912 270.91C192.919 270.725 192.813 270.555 192.708 270.401C190.187 266.686 186.418 263.833 182.158 262.418C178.423 261.177 174.096 261.099 170.756 263.18C169.543 263.935 168.508 264.941 167.484 265.938C166.228 267.16 164.973 268.383 163.717 269.605ZM145.606 262.846C140.77 262.207 135.565 263.829 132.345 267.492C131.778 268.138 131.261 268.865 131.066 269.702C130.871 270.539 131.055 271.508 131.703 272.072C134.194 268.203 138.62 265.651 143.216 265.434C147.813 265.217 152.46 267.341 155.304 270.959C155.748 271.524 156.173 272.143 156.804 272.489C157.435 272.834 158.354 272.79 158.738 272.181C159.197 271.455 158.642 270.525 158.076 269.878C154.863 266.209 150.441 263.485 145.606 262.846ZM179.712 257.895C179.637 258.713 180.717 259.222 181.493 258.954C182.269 258.686 182.784 257.971 183.303 257.336C187.626 252.05 195.857 250.457 201.839 253.749C202.624 253.086 202.669 251.815 202.144 250.933C201.619 250.05 200.66 249.508 199.682 249.195C197.562 248.518 195.261 248.749 193.081 249.19C187.92 250.234 182.707 252.681 179.994 257.193C179.862 257.411 179.735 257.642 179.712 257.895ZM159.422 275.047C157.301 275.195 155.225 275.756 153.239 276.516C150.495 277.566 147.793 279.096 146.187 281.556C148.542 282.223 150.801 280.467 152.953 279.299C157.78 276.679 164.042 276.95 168.626 279.977C170.063 280.927 171.911 282.153 173.313 281.151C170.033 277.039 164.67 274.682 159.422 275.047ZM168.136 273.721C169.745 272.883 171.031 271.521 172.627 270.658C174.824 269.469 177.562 269.332 179.868 270.295C181.12 270.818 182.228 271.636 183.462 272.201C184.696 272.766 186.165 273.059 187.394 272.484C187.53 272.42 187.672 272.336 187.729 272.197C187.822 271.971 187.656 271.727 187.495 271.543C184.745 268.404 180.436 266.703 176.283 267.117C172.13 267.532 168.242 270.051 166.166 273.672C166.6 274.243 167.501 274.052 168.136 273.721ZM135.917 273.871C136.778 273.38 137.453 272.623 138.241 272.021C139.817 270.818 141.87 270.263 143.839 270.493C146.035 270.747 148.014 271.909 149.829 273.169C150.36 273.538 150.902 273.925 151.532 274.072C152.161 274.218 152.911 274.059 153.267 273.52C153.619 272.986 153.478 272.242 153.101 271.726C152.724 271.21 152.158 270.87 151.606 270.547C149.363 269.231 146.992 267.915 144.394 267.781C141.146 267.613 138.129 269.306 135.32 270.945C134.181 271.609 132.874 272.616 133.114 273.912C133.894 274.525 135.055 274.361 135.917 273.871ZM150.54 261.283C151.127 262.042 152.275 261.229 152.921 260.522C154.915 258.344 157.789 256.995 160.738 256.853C163.687 256.712 166.676 257.779 168.87 259.756C169.423 260.255 170.006 260.844 170.751 260.864C171.495 260.884 172.166 259.845 171.575 259.392C168.414 256.963 164.736 254.978 160.757 254.716C156.779 254.453 152.491 256.238 150.649 259.774C150.403 260.248 150.214 260.861 150.54 261.283ZM185.714 260.619C186.24 260.397 186.624 259.945 187.026 259.541C190.087 256.462 195.273 255.773 199.03 257.947C199.97 258.491 201.384 259.091 201.931 258.152C202.386 257.37 201.574 256.459 200.8 255.989C195.745 252.924 188.539 254.092 184.711 258.596C184.321 259.055 183.947 259.684 184.215 260.224C184.468 260.734 185.189 260.84 185.714 260.619ZM188.509 260.908C188.291 261.09 188.075 261.293 187.983 261.561C187.728 262.31 188.638 263.01 189.426 262.947C190.214 262.884 190.884 262.378 191.6 262.041C193.343 261.218 195.439 261.414 197.209 262.178C197.91 262.481 198.588 262.871 199.342 262.985C200.097 263.099 200.976 262.848 201.32 262.167C198.321 258.449 192.175 257.845 188.509 260.908ZM141.079 259.481C141.527 259.692 142.138 259.651 142.425 259.249C142.817 258.702 142.398 257.958 141.982 257.429C140.574 255.639 139.06 253.877 137.125 252.676C135.189 251.475 132.752 250.898 130.597 251.634C130.378 252.43 131.368 252.971 132.148 253.242C135.15 254.289 137.875 256.12 139.977 258.505C140.304 258.876 140.631 259.271 141.079 259.481ZM167.608 261.479C164.065 259.219 159.229 259.18 155.65 261.381C155.028 261.763 154.389 262.301 154.34 263.03C154.292 263.758 155.282 264.435 155.772 263.894C157.749 261.714 161.363 261.262 163.816 262.887C165.021 263.685 166.751 263.576 167.846 262.633C168.363 262.579 168.046 261.759 167.608 261.479ZM193.379 273.704C188.345 273.364 183.661 276.326 180.007 279.805C180.273 280.42 181.181 280.257 181.795 279.991C185.956 278.19 190.117 276.39 194.278 274.588C194.591 274.175 193.897 273.739 193.379 273.704ZM145.47 275.946C146.089 276.297 146.696 276.774 147.407 276.775C148.119 276.775 148.825 275.918 148.373 275.368C146.952 273.635 144.718 272.599 142.477 272.633C140.235 272.668 138.034 273.771 136.666 275.547C136.835 276.193 137.625 276.49 138.285 276.393C138.944 276.297 139.526 275.925 140.138 275.66C141.831 274.927 143.865 275.036 145.47 275.946ZM170.432 275.473C170.375 275.969 170.937 276.347 171.435 276.32C171.933 276.293 172.371 276.002 172.808 275.761C174.642 274.751 176.899 274.544 178.886 275.204C180.16 275.626 181.748 276.318 182.667 275.34C182.748 274.782 182.187 274.36 181.689 274.095C179.905 273.146 177.94 272.43 175.919 272.449C173.897 272.467 171.812 273.315 170.657 274.975C170.553 275.126 170.453 275.29 170.432 275.473ZM166.675 253.723C168.756 254.468 170.694 255.609 172.354 257.068C173.038 257.67 173.694 258.336 174.524 258.712C175.354 259.086 176.432 259.096 177.082 258.458C175.644 257.354 174.463 255.919 173.657 254.296C173.223 253.421 172.066 253.261 171.091 253.214C169.666 253.144 168.241 253.074 166.816 253.004C166.666 253.207 166.612 253.478 166.675 253.723ZM148.088 258.727C148.823 258.039 149.367 257.173 150.046 256.431C151.1 255.279 152.489 254.437 153.997 254.035C154.648 253.861 155.504 253.528 155.405 252.862C153.562 252.542 151.458 252.283 150.004 253.461C147.968 255.111 146.353 257.277 145.354 259.701C146.337 259.918 147.352 259.414 148.088 258.727ZM131.699 257.892C133.02 258.753 134.342 259.614 135.663 260.475C136.222 260.839 136.936 261.213 137.516 260.882C138.055 260.576 138.137 259.787 137.856 259.235C137.576 258.682 137.041 258.312 136.527 257.966C135.451 257.242 134.375 256.518 133.3 255.794C132.398 255.187 130.931 254.703 130.441 255.672C130.018 256.508 130.914 257.381 131.699 257.892ZM159.519 268.242C160.025 268.743 160.733 269.286 161.376 268.978C161.668 268.838 161.857 268.549 162.03 268.275C162.603 267.37 163.176 266.464 163.749 265.559C162.249 263.891 159.305 263.847 157.756 265.468C157.637 265.593 157.521 265.735 157.499 265.907C157.466 266.177 157.675 266.412 157.869 266.604C158.419 267.15 158.969 267.696 159.519 268.242ZM136.397 281.187C137.472 281.564 138.74 281.676 139.687 281.045C138.261 279.404 136.589 277.976 134.744 276.825C134.221 276.499 133.631 276.184 133.02 276.27C132.409 276.357 131.869 277.052 132.164 277.593C133.072 279.254 134.611 280.561 136.397 281.187ZM195.351 267.998C195.859 267.385 196.367 266.771 196.875 266.158C197.05 265.946 197.234 265.707 197.224 265.433C197.209 265.085 196.891 264.835 196.587 264.664C195.532 264.071 194.286 263.823 193.084 263.968C192.625 264.023 192.146 264.149 191.822 264.48C191.499 264.811 191.406 265.4 191.731 265.73C192.468 266.476 193.206 267.223 193.943 267.97C194.184 268.214 194.489 268.479 194.824 268.406C195.046 268.358 195.207 268.173 195.351 267.998ZM142.362 254.742C142.818 255.232 143.39 255.734 144.057 255.679C145.487 255.561 145.949 253.093 147.377 253.228C147.761 252.596 146.714 252.09 145.975 252.078C144.061 252.047 142.147 252.018 140.233 251.987C140.858 252.967 141.571 253.89 142.362 254.742ZM154.182 281.64C158.163 281.623 162.143 281.606 166.125 281.589C165.776 280.802 164.842 280.482 163.999 280.307C161.237 279.735 158.34 279.822 155.617 280.56C155.007 280.726 154.311 281.022 154.182 281.64ZM178.762 277.451C177.445 277.511 176.128 277.571 174.81 277.63C174.385 277.649 173.839 277.773 173.787 278.195C173.764 278.383 173.859 278.565 173.95 278.731C174.299 279.364 174.669 280.021 175.271 280.42C175.874 280.818 176.78 280.857 177.248 280.308C177.607 279.887 177.636 279.23 178.064 278.879C178.34 278.653 178.723 278.609 179.028 278.424C179.333 278.239 179.528 277.76 179.244 277.542C179.112 277.441 178.929 277.444 178.762 277.451ZM144.657 279.654C145.009 279.106 144.676 278.328 144.128 277.975C143.579 277.622 142.894 277.579 142.242 277.547C141.523 277.511 140.576 277.644 140.446 278.352C140.385 278.69 140.557 279.022 140.723 279.322C141.211 280.203 141.93 281.214 142.932 281.114C143.709 281.037 144.235 280.312 144.657 279.654ZM196.689 271.756C197.28 271.805 197.81 271.404 198.224 270.98C199.489 269.686 200.294 267.952 200.464 266.15C200.045 265.883 199.533 266.298 199.212 266.677C198.135 267.951 197.059 269.224 195.981 270.498C195.598 270.951 196.098 271.707 196.689 271.756ZM130.8 262.733C131.401 263.485 132.559 263.72 133.406 263.263C133.839 263.028 134.205 262.564 134.119 262.078C134.042 261.647 133.649 261.354 133.287 261.107C132.763 260.75 132.239 260.392 131.715 260.036C131.555 259.926 131.371 259.812 131.182 259.851C131.051 259.878 130.946 259.974 130.858 260.075C130.226 260.799 130.2 261.981 130.8 262.733ZM177.318 254.799C177.946 255.327 178.878 254.782 179.503 254.248C180.18 253.67 180.857 253.091 181.535 252.512C181.152 252.146 180.538 252.229 180.02 252.336C178.511 252.647 177.003 252.959 175.495 253.271C176.103 253.781 176.71 254.29 177.318 254.799ZM200.999 247.402C201.378 247.875 202.178 247.773 202.613 247.35C203.048 246.928 203.209 246.304 203.334 245.711C203.364 245.568 203.392 245.414 203.332 245.281C203.18 244.943 202.678 245.045 202.343 245.201C201.439 245.623 200.374 246.624 200.999 247.402Z" fill="white"/>
<path fill-rule="evenodd" clip-rule="evenodd" d="M82.8191 196.814C86.5427 178.397 99.2744 162.98 115.083 152.824C107.09 163.781 82.5618 181.749 90.4458 201.767C103.048 233.765 152.072 238.798 150.366 239.146C121.371 245.058 80.0468 210.527 82.8191 196.814Z" fill="#E7EAEE"/>
<path fill-rule="evenodd" clip-rule="evenodd" d="M175.567 36.9906C173.549 37.2355 171.772 38.851 171.337 40.8358C187.665 32.0562 207.388 29.7995 225.278 34.6624C225.293 43.6847 218.964 52.3624 210.368 55.1043L191.734 61.0491C196.65 61.5946 201.701 60.8735 206.268 58.9748C207.891 61.5315 210.563 63.3992 213.522 64.0426L207.794 65.299C208.639 67.8721 210.363 70.1479 212.612 71.6565C210.703 71.0029 208.58 70.9962 206.667 71.6379L207.95 76.2954C199.504 75.1234 190.479 76.2734 183.365 80.9748C176.251 85.6761 171.474 94.3184 172.756 102.748C174.256 93.5827 180.537 85.3367 188.975 81.4555C197.412 77.5737 207.761 78.1704 215.696 82.995L210.313 86.9821C212.381 87.8045 214.831 87.5945 216.728 86.4321C220.871 88.2655 219.724 95.8461 215.223 96.3713L221.177 96.7856C222.209 106.908 215.955 117.347 206.544 121.213C197.132 125.08 185.346 122.052 178.963 114.128C171.041 118.173 171.597 130.435 177.243 137.309C181.184 142.108 186.612 145.225 192.049 148.348C194.401 149.698 196.754 151.05 198.989 152.539C210.864 160.448 219.715 172.782 223.408 186.564C216.959 190.882 211.223 196.261 206.501 202.418C213.488 202.093 220.33 199.243 225.482 194.512L226.582 205.154C220.926 206.896 215.844 210.452 212.268 215.168C217.31 215.682 222.508 214.504 226.836 211.868C225.285 224.114 222.488 236.201 218.5 247.881L205.499 247.775C208.583 239.251 211.708 230.079 209.436 221.304C207.163 212.529 196.971 205.285 188.948 209.506C198.175 202.069 205.162 191.889 208.783 180.605L185.548 210.596L167.719 210.747C167.158 202.346 166.619 193.737 169.007 185.663C171.395 177.59 177.358 170.032 185.574 168.191C186.465 167.991 187.414 167.829 188.375 167.664C192.39 166.976 196.625 166.251 197.803 162.622C184.486 161.847 171.136 170.373 166.237 182.782C162.747 191.623 163.361 201.479 164.03 210.962C151.718 209.186 139.112 209.471 126.893 211.802C124.772 204.572 122.572 197.179 118.122 191.097C113.673 185.016 106.449 180.404 98.9512 181.155C111.026 182.949 117.008 196.367 121.561 207.694C126.114 219.021 134.38 231.958 146.536 230.838C149.998 230.519 151.1 236.205 148.447 238.452C145.793 240.698 141.851 240.27 138.455 239.527C120.96 235.698 104.626 226.715 92.023 213.991C89.5693 211.513 87.1967 208.802 86.0624 205.505C84.6636 201.436 85.3155 196.943 86.5184 192.812C92.6636 171.71 111.575 157.25 129.548 144.599C139.218 137.793 138.871 120.925 128.93 114.522C121.572 121.208 111.76 125.884 101.876 124.793C91.9932 123.703 82.6394 115.61 82.3208 105.672C85.4247 105.399 88.4672 104.446 91.1725 102.9C88.5173 101.956 85.5243 101.996 82.895 103.011C82.1801 100.333 82.7019 97.3502 84.2842 95.0744L89.9195 94.4721C88.7863 93.1915 87.2063 92.3139 85.5204 92.0296C89.5873 85.2534 99.0256 83.3986 106.59 85.6885C114.154 87.9784 120.28 93.4335 126.14 98.7355C120.029 85.3367 103.458 81.0181 88.9901 78.2723L95.3031 74.5318C91.6549 73.5377 87.6296 74.0049 84.3056 75.809C86.4756 78.4974 89.4044 80.5655 92.663 81.711C87.4545 89.1256 78.2606 93.5506 69.2164 92.9967C60.3248 92.4524 51.2688 95.1746 44.1515 100.532C55.7174 95.8292 68.3535 93.7786 80.8139 94.5824L78.743 103.556C71.5497 104.901 64.6862 107.972 58.89 112.439L78.4801 105.823C80.4435 115.858 88.381 124.484 98.22 127.273C108.058 130.062 119.342 126.884 126.279 119.371C133.642 120.832 135.408 131.462 131.383 137.797C128.197 142.814 122.984 145.939 117.817 149.037C116.458 149.852 115.103 150.664 113.788 151.509C97.9791 161.665 86.5426 178.395 82.819 196.812C79.0954 215.23 83.1342 235.089 93.7556 250.589C76.2122 257.228 64.5488 276.775 67.0363 295.366C67.0932 295.792 67.1562 296.221 67.2198 296.651C67.5953 299.193 67.9786 301.789 67.1151 304.178C66.1064 306.971 62.4818 309.04 60.1002 307.267C53.3048 302.207 45.3364 298.734 37.0048 297.201C32.1001 296.298 24.902 298.326 25.9469 303.203C26.2953 304.829 27.5756 306.07 28.8183 307.174C41.713 318.635 57.4185 326.911 74.1627 331.067C77.9516 332.008 82.1604 332.692 85.5952 330.836C90.4846 328.194 91.2873 322.268 92.094 316.316C92.8865 310.465 93.6825 304.588 98.3675 301.777C102.598 299.239 107.811 300.662 112.697 301.996L112.7 301.997C113.352 302.174 113.998 302.351 114.635 302.516C126.254 305.528 138.303 304.379 150.358 303.229C155.117 302.775 159.875 302.321 164.609 302.123C177.744 301.573 190.96 303.03 203.659 306.426C208.082 307.609 212.479 305.402 216.667 303.3C217.289 302.988 217.907 302.678 218.519 302.382C223.253 300.092 229.74 298.885 233.118 302.916C234.453 304.51 234.947 306.552 235.442 308.605V308.606H235.442V308.606V308.607V308.607V308.608H235.443V308.608V308.609V308.61V308.61H235.444V308.611V308.611V308.612V308.612C235.688 309.626 235.934 310.642 236.282 311.608C238.557 317.918 245.377 321.783 252.074 322.158C258.771 322.534 265.311 319.993 271.163 316.715C282.25 310.507 291.733 301.461 298.459 290.679C299.242 289.424 300.016 288.029 299.859 286.558C299.445 282.672 293.855 282.366 290.127 283.537C280.039 286.704 270.765 292.429 263.414 300.028C259.957 296.877 258.275 291.895 259.113 287.294C279.666 273.083 301.548 258.385 326.473 256.619C330.381 256.342 334.349 256.385 338.311 256.427C346.917 256.521 355.498 256.613 363.389 253.43C377.926 247.564 386.323 227.727 377.215 214.968C370.209 205.153 356.51 202.837 344.498 203.912C324.196 205.731 304.654 215.079 290.498 229.745C286.565 233.819 282.976 238.329 279.393 242.831C271.642 252.573 263.921 262.275 252.81 267.444C245.265 257.01 233.442 249.769 220.719 247.791C230.156 230.378 232.599 209.298 227.395 190.188C222.191 171.078 209.396 154.148 192.433 143.925C191.508 143.368 190.567 142.825 189.623 142.281L189.622 142.28C185.35 139.818 181.036 137.33 178.125 133.41C174.571 128.622 174.218 120.758 179.203 117.486C185.832 126.582 199.743 128.547 209.581 123.078C219.418 117.609 225.021 106.133 225.219 94.879L250.666 94.2311C242.112 91.3699 232.768 90.9123 223.975 92.9246L220.926 84.6224L241.118 81.975C233.668 80.0989 225.684 80.3978 218.396 82.8262C216.74 79.5827 214.215 76.7879 211.155 74.8127C214.028 75.1386 217.012 74.3691 219.369 72.695L212.744 67.4229C215.489 67.9272 218.467 66.1282 219.298 63.4645L208.694 59.1752L250.551 39.146C248.767 39.1144 246.982 39.1803 245.205 39.3424L250.616 35.7646C242.355 36.7632 234.207 34.4378 226.07 32.1153C217.646 29.7117 209.233 27.3109 200.717 28.6028C197.372 29.1105 194.005 30.1744 190.657 31.2332C183.749 33.4167 176.922 35.5755 170.531 32.7609C157.526 27.0351 142.275 26.6157 128.975 31.6183C127.799 32.0607 126.604 32.5442 125.398 33.0323C118.758 35.7184 111.761 38.5487 105.559 35.491C98.0939 31.8113 89.0413 33.9633 81.557 37.6025C78.9293 38.8797 76.3794 40.3331 73.8317 41.7849C69.1213 44.4688 64.4188 47.1488 59.2474 48.7069C70.917 55.8597 84.1328 60.4749 97.7179 62.1434C99.3864 63.433 98.8038 66.2993 97.1393 67.594C95.4742 68.8881 93.2237 69.0525 91.1179 69.165C91.66 72.9168 96.4942 75.2928 99.7956 73.4302C98.408 73.688 98.3045 71.4341 98.8809 70.1462L102.478 62.1079C105.272 63.1335 108.748 61.4876 109.725 58.677C102.808 59.5096 95.6301 60.3196 89.0031 58.1676C82.3766 56.0156 76.4554 50.0117 76.7661 43.0508C91.5237 34.5009 111.335 35.6588 124.996 45.8693C123.941 42.7913 121.348 40.283 118.236 39.3312C121.829 35.7939 126.599 33.4725 131.599 32.8274C128.629 35.1775 127.267 39.3796 128.295 43.0255L141.633 30.7581C139.445 34.6804 138.219 39.1353 138.093 43.625C143.04 40.3922 146.98 35.6436 149.246 30.1857L155.179 31.0188C151.547 34.0877 149.523 38.9647 149.915 43.7038C154.437 40.8932 157.941 36.4846 159.661 31.4466C165.233 32.3467 170.643 34.2329 175.567 36.9906ZM339.462 254.154C336.479 254.056 333.494 253.957 330.526 254.041C308.438 254.668 287.902 265.426 269.678 277.923L269.489 278.052L269.284 278.194L268.924 278.441L268.91 278.45C265.451 280.829 261.959 283.231 258.011 284.634L253.373 271.116C253.124 270.391 252.971 269.394 253.645 269.03C260.737 265.195 267.213 260.223 272.751 254.363C276.44 250.458 279.712 246.167 282.981 241.881C287.609 235.812 292.23 229.752 298.017 224.814C307.258 216.928 318.891 212.414 330.563 209.048C339.201 206.557 348.253 204.602 357.139 205.971C366.024 207.339 374.773 212.642 378.031 221.021C380.619 227.676 379.353 235.527 375.366 241.45C371.378 247.374 364.905 251.405 357.967 253.097C351.934 254.567 345.703 254.361 339.462 254.154ZM85.3093 282.79C85.7765 283.901 86.0709 285.384 85.1387 286.147C83.9375 287.13 82.2341 285.863 81.2248 284.684L72.6237 274.633C70.5646 279.985 69.62 285.764 69.8671 291.494C69.9167 292.642 70.0101 293.808 70.1041 294.977V294.978V294.978V294.979H70.1047V294.979V294.98V294.981V294.981V294.982V294.982C70.4644 299.458 70.8286 303.993 68.7554 307.874C67.8463 309.577 66.2995 311.139 64.3732 311.264C63.2817 311.335 62.219 310.936 61.2114 310.51C58.4498 309.342 55.7287 307.907 53.0087 306.472C46.0062 302.778 39.0099 299.088 31.3425 299.968C30.2954 300.089 28.9915 300.605 29.0324 301.658C29.0507 302.13 29.3583 302.535 29.6575 302.901C40.7121 316.401 57.9989 322.948 74.7334 327.891C77.4703 328.7 80.3546 329.487 83.1415 328.873C85.9285 328.259 88.5156 325.746 88.179 322.912C87.2884 315.415 89.6374 307.587 94.5099 301.819C96.4548 299.516 98.9141 297.467 101.865 296.854C105.49 296.101 109.033 297.595 112.522 299.066H112.523C113.419 299.444 114.312 299.82 115.201 300.156C122.022 302.735 129.688 303.016 136.679 300.945C133.946 300.909 132.633 297.632 132.067 294.957C128.397 277.633 126.445 259.945 126.251 242.237C126.23 240.311 124.879 238.609 123.25 237.582C121.871 236.714 120.298 236.23 118.734 235.75C118.451 235.662 118.168 235.576 117.886 235.486C112.192 233.682 106.827 230.847 102.129 227.158C101.537 226.694 100.955 226.215 100.371 225.735C98.573 224.257 96.7734 222.778 94.7092 221.719C91.9757 220.316 88.5927 219.745 85.853 221.135C85.2417 222.592 86.3467 224.284 87.7607 224.987C88.8319 225.519 90.032 225.664 91.2288 225.808C91.6127 225.854 91.996 225.9 92.3743 225.959C94.175 226.239 95.9279 226.825 97.5344 227.686C99.2214 228.589 100.82 230.976 99.316 232.16C98.6991 232.646 97.835 232.611 97.052 232.554L88.2201 231.905C90.3732 237.763 93.1179 243.402 96.3996 248.711C96.694 249.187 97.0875 249.717 97.6476 249.722C106.3 249.8 115.962 251.012 121.445 257.705C122.485 258.974 123.337 260.807 122.446 262.184C117.42 256.115 109.558 252.501 101.679 252.637C93.8001 252.773 86.0675 256.656 81.2541 262.896C85.5029 265.739 88.8803 269.867 90.8274 274.594C91.4151 276.021 91.307 278.356 89.7635 278.324L80.4925 266.973C80.0782 266.466 79.58 265.915 78.9254 265.895C78.4008 265.879 77.9381 266.215 77.5215 266.535C76.6197 267.228 75.6836 267.962 75.213 268.998C74.7425 270.033 74.9175 271.458 75.8981 272.034C80.0776 274.489 83.4314 278.321 85.3093 282.79ZM191.006 300.554C196.959 295.588 198.901 287.41 200.5 279.823L206.358 252.024C206.421 251.727 206.493 251.412 206.707 251.196C206.989 250.911 207.431 250.88 207.831 250.869C218.511 250.546 229.88 251.563 238.482 257.9C234.972 259.641 231.904 262.264 229.639 265.46C229.004 266.357 228.473 267.706 229.291 268.44C229.598 268.715 230.025 268.812 230.437 268.842C232.487 268.987 234.359 267.707 235.858 266.299C236.181 265.996 236.498 265.683 236.816 265.368C237.971 264.225 239.132 263.077 240.598 262.406C242.467 261.55 245.063 261.79 246.095 263.568C242.761 265.267 240.014 268.091 238.411 271.471C237.993 272.351 237.648 273.368 237.986 274.281C238.324 275.195 239.655 275.73 240.309 275.008L246.749 267.899C247.061 267.555 247.494 267.178 247.929 267.336C248.165 267.423 248.318 267.645 248.453 267.856C251.866 273.211 253.222 279.447 254.585 285.71C255.383 289.377 256.183 293.054 257.398 296.569C258.372 299.384 260.254 302.547 263.233 302.549C264.879 302.551 266.336 301.537 267.639 300.531C269.033 299.456 270.419 298.328 271.812 297.194C278.362 291.864 285.06 286.413 293.308 285.76C294.609 285.658 296.277 285.944 296.582 287.213C296.759 287.949 296.363 288.69 295.968 289.336C289.836 299.372 280.64 307.285 270.481 313.207C265.279 316.24 259.576 318.844 253.555 318.891C247.534 318.938 241.159 315.859 238.883 310.285C238.42 309.148 238.135 307.947 237.852 306.748L237.852 306.747C237.524 305.361 237.196 303.975 236.59 302.69C235.029 299.379 231.569 297.048 227.914 296.845C224.434 296.653 221.233 298.203 218.039 299.75C216.917 300.294 215.796 300.836 214.664 301.304C207.148 304.404 198.31 304.123 191.006 300.554ZM151.264 240.706C149.022 242.618 146.008 243.381 143.069 243.597C137.776 243.985 132.374 242.746 127.779 240.09L129.675 247.266C129.757 247.575 129.854 247.908 130.111 248.099C130.334 248.265 130.629 248.285 130.907 248.3L158.149 249.732C162.121 249.94 166.098 250.149 170.073 250.034C181.224 249.712 192.291 246.801 202.157 241.595C202.727 241.295 203.307 240.975 203.717 240.479C204.205 239.888 204.398 239.113 204.562 238.363C205.943 232.025 206.183 225.439 205.263 219.017C205.038 217.44 204.724 215.822 203.837 214.498C202.95 213.174 201.355 212.207 199.79 212.505C183.759 215.558 167.394 214.615 151.031 213.672H151.03H151.029H151.029H151.028H151.028H151.027H151.027C144.859 213.316 138.691 212.961 132.542 212.82C131.444 212.794 130.289 212.789 129.324 213.315C128.36 213.84 127.696 215.087 128.192 216.067C130.996 221.615 136.79 225.155 142.797 226.752C143.229 226.866 143.67 226.979 144.117 227.093C148.003 228.081 152.283 229.169 153.694 232.786C154.764 235.531 153.504 238.793 151.264 240.706ZM194.972 287.726C193.873 292.09 191.563 296.616 187.372 298.252C185.905 298.825 184.317 298.995 182.75 299.141C168.218 300.494 153.53 300.168 139.072 298.172C138.211 298.053 137.304 297.909 136.633 297.356C135.815 296.684 135.538 295.571 135.324 294.534C134.667 291.357 134.159 288.149 133.8 284.925C133.737 284.354 133.895 283.54 134.468 283.584C143.72 284.304 152.998 284.682 162.277 284.717C168.678 284.741 175.13 284.597 181.382 283.222C187.634 281.847 193.73 279.16 198.3 274.678C197.001 277.407 196.441 280.387 195.881 283.373V283.374H195.88V283.374V283.375V283.375H195.88V283.376V283.376V283.377H195.879V283.377C195.606 284.835 195.333 286.294 194.972 287.726ZM163.717 269.605C163.123 270.183 162.485 270.869 162.527 271.696C162.569 272.522 163.809 273.139 164.237 272.431C166.572 268.562 170.633 265.781 175.083 265.002C179.534 264.223 184.298 265.46 187.808 268.305C188.173 268.6 188.526 268.913 188.879 269.226C189.711 269.963 190.543 270.7 191.526 271.209C192.029 271.47 192.891 271.478 192.912 270.91C192.919 270.725 192.813 270.555 192.708 270.401C190.187 266.686 186.418 263.833 182.158 262.418C178.423 261.177 174.096 261.099 170.756 263.18C169.543 263.935 168.508 264.941 167.484 265.938L163.717 269.605ZM132.345 267.492C135.565 263.829 140.77 262.207 145.606 262.846C150.441 263.485 154.863 266.209 158.076 269.878C158.642 270.525 159.197 271.455 158.738 272.181C158.354 272.79 157.435 272.834 156.804 272.489C156.253 272.187 155.86 271.678 155.474 271.177L155.471 271.174C155.438 271.13 155.403 271.086 155.369 271.043C155.347 271.015 155.325 270.987 155.304 270.959C152.46 267.341 147.813 265.217 143.216 265.434C138.62 265.651 134.194 268.203 131.703 272.072C131.055 271.508 130.871 270.539 131.066 269.702C131.261 268.865 131.778 268.138 132.345 267.492ZM179.712 257.895C179.637 258.713 180.717 259.222 181.493 258.954C182.192 258.713 182.679 258.11 183.148 257.528C183.2 257.464 183.252 257.399 183.303 257.336C187.626 252.05 195.857 250.457 201.839 253.749C202.624 253.086 202.669 251.815 202.144 250.933C201.619 250.05 200.66 249.508 199.682 249.195C197.562 248.518 195.261 248.749 193.081 249.19C187.92 250.234 182.707 252.681 179.994 257.193C179.862 257.411 179.735 257.642 179.712 257.895ZM153.239 276.516C155.225 275.756 157.301 275.195 159.422 275.047C164.67 274.682 170.033 277.039 173.313 281.151C171.916 282.15 170.076 280.934 168.639 279.986L168.625 279.977C164.042 276.95 157.78 276.679 152.953 279.299C152.576 279.504 152.196 279.726 151.813 279.951C150.007 281.008 148.13 282.107 146.187 281.556C147.793 279.096 150.495 277.566 153.239 276.516ZM168.136 273.721C168.959 273.292 169.698 272.726 170.436 272.16C171.141 271.62 171.847 271.08 172.627 270.658C174.824 269.469 177.562 269.332 179.868 270.295C180.541 270.576 181.172 270.942 181.803 271.308L181.804 271.309C182.348 271.624 182.891 271.94 183.462 272.201C184.696 272.766 186.165 273.059 187.394 272.484C187.53 272.42 187.672 272.336 187.729 272.197C187.822 271.971 187.656 271.727 187.495 271.543C184.745 268.404 180.436 266.703 176.283 267.117C172.13 267.532 168.242 270.051 166.166 273.672C166.6 274.243 167.501 274.052 168.136 273.721ZM137.394 272.735C136.926 273.149 136.458 273.563 135.917 273.871C135.055 274.361 133.894 274.525 133.114 273.912C132.874 272.616 134.181 271.609 135.32 270.945C138.129 269.306 141.146 267.613 144.394 267.781C146.992 267.915 149.363 269.231 151.606 270.547C152.158 270.87 152.724 271.21 153.101 271.726C153.478 272.242 153.619 272.986 153.267 273.52C152.911 274.059 152.161 274.218 151.532 274.072C150.925 273.931 150.401 273.566 149.889 273.21L149.829 273.169C148.014 271.909 146.035 270.747 143.839 270.493C141.87 270.263 139.817 270.818 138.241 272.021C137.95 272.244 137.675 272.488 137.399 272.731L137.399 272.731L137.398 272.732H137.398V272.732H137.397V272.733H137.396L137.396 272.734L137.395 272.734H137.395V272.735H137.394ZM150.54 261.283C151.127 262.042 152.275 261.229 152.921 260.522C154.915 258.344 157.789 256.995 160.738 256.853C163.687 256.712 166.676 257.779 168.87 259.756C168.915 259.796 168.959 259.837 169.004 259.878C169.518 260.346 170.066 260.846 170.751 260.864C171.495 260.884 172.166 259.845 171.575 259.392C168.414 256.963 164.736 254.978 160.757 254.716C156.779 254.453 152.491 256.238 150.649 259.774C150.403 260.248 150.214 260.861 150.54 261.283ZM186.848 259.723C186.507 260.074 186.162 260.43 185.714 260.619C185.189 260.84 184.468 260.734 184.215 260.224C183.947 259.684 184.321 259.055 184.711 258.596C188.539 254.092 195.745 252.924 200.8 255.989C201.574 256.459 202.386 257.37 201.931 258.152C201.384 259.091 199.97 258.491 199.03 257.947C195.273 255.773 190.087 256.462 187.026 259.541C186.966 259.6 186.907 259.661 186.848 259.723ZM188.509 260.908C188.291 261.09 188.075 261.293 187.983 261.561C187.728 262.31 188.638 263.01 189.426 262.947C189.996 262.902 190.505 262.624 191.014 262.346C191.208 262.24 191.402 262.134 191.6 262.041C193.343 261.218 195.439 261.414 197.209 262.178C197.262 262.201 197.314 262.225 197.367 262.248C197.481 262.3 197.596 262.353 197.71 262.406C198.239 262.652 198.769 262.899 199.342 262.985C200.097 263.099 200.976 262.848 201.32 262.167C198.321 258.449 192.175 257.845 188.509 260.908ZM142.425 259.249C142.138 259.651 141.527 259.691 141.079 259.481C140.663 259.286 140.351 258.931 140.047 258.584L139.977 258.505C137.875 256.121 135.15 254.289 132.148 253.242C131.368 252.971 130.378 252.43 130.597 251.634C132.752 250.898 135.189 251.475 137.125 252.676C139.06 253.877 140.574 255.639 141.982 257.429C142.398 257.958 142.817 258.702 142.425 259.249ZM167.607 261.479C164.065 259.219 159.229 259.18 155.65 261.381C155.028 261.763 154.389 262.301 154.34 263.03C154.292 263.758 155.282 264.435 155.772 263.894C157.749 261.714 161.363 261.262 163.816 262.887C165.021 263.685 166.751 263.576 167.846 262.633C168.363 262.579 168.046 261.759 167.607 261.479ZM180.007 279.805C183.661 276.326 188.345 273.364 193.379 273.704C193.897 273.739 194.591 274.175 194.278 274.588L181.795 279.991C181.181 280.257 180.273 280.42 180.007 279.805ZM145.47 275.946C145.593 276.015 145.716 276.09 145.838 276.165C146.334 276.467 146.837 276.774 147.407 276.775C148.119 276.775 148.825 275.918 148.373 275.368C146.952 273.635 144.718 272.599 142.477 272.633C140.235 272.668 138.034 273.771 136.666 275.547C136.835 276.193 137.625 276.49 138.285 276.393C138.76 276.324 139.195 276.111 139.63 275.899C139.799 275.817 139.967 275.734 140.138 275.66C141.831 274.927 143.865 275.036 145.47 275.946ZM171.435 276.32C170.937 276.347 170.375 275.969 170.432 275.473C170.453 275.29 170.553 275.126 170.657 274.975C171.812 273.315 173.897 272.467 175.919 272.449C177.94 272.43 179.905 273.146 181.689 274.095C182.187 274.36 182.747 274.782 182.667 275.34C181.84 276.22 180.47 275.748 179.276 275.336C179.144 275.291 179.014 275.246 178.886 275.204C176.899 274.544 174.642 274.751 172.808 275.761C172.745 275.796 172.681 275.832 172.618 275.868C172.243 276.081 171.861 276.297 171.435 276.32ZM166.675 253.723C168.756 254.468 170.694 255.609 172.354 257.068C172.469 257.17 172.584 257.273 172.698 257.376L172.699 257.377H172.699V257.377C173.265 257.887 173.834 258.4 174.524 258.712C175.354 259.086 176.432 259.096 177.082 258.458C175.644 257.354 174.463 255.919 173.657 254.296C173.223 253.421 172.066 253.261 171.091 253.214L166.816 253.004C166.666 253.207 166.612 253.478 166.675 253.723ZM149.252 257.391C148.886 257.857 148.52 258.323 148.088 258.727C147.352 259.414 146.337 259.918 145.354 259.701C146.353 257.277 147.968 255.111 150.004 253.461C151.458 252.283 153.562 252.542 155.405 252.862C155.504 253.528 154.648 253.861 153.997 254.035C152.489 254.437 151.1 255.279 150.046 256.431C149.766 256.737 149.509 257.064 149.252 257.391ZM131.699 257.892L135.663 260.475C136.222 260.839 136.936 261.213 137.516 260.882C138.055 260.576 138.137 259.787 137.856 259.235C137.576 258.682 137.041 258.312 136.527 257.966L133.3 255.794C132.398 255.187 130.931 254.703 130.441 255.672C130.018 256.508 130.914 257.381 131.699 257.892ZM161.376 268.978C160.733 269.286 160.025 268.743 159.519 268.242L157.869 266.604C157.675 266.412 157.466 266.177 157.499 265.907C157.521 265.735 157.637 265.593 157.756 265.468C159.305 263.847 162.249 263.891 163.749 265.559L162.03 268.275C161.857 268.549 161.668 268.838 161.376 268.978ZM136.397 281.187C137.472 281.564 138.74 281.676 139.687 281.045C138.261 279.404 136.589 277.976 134.744 276.825C134.221 276.499 133.631 276.184 133.02 276.27C132.409 276.357 131.869 277.052 132.164 277.593C133.072 279.254 134.611 280.561 136.397 281.187ZM196.875 266.158L195.351 267.998C195.207 268.173 195.046 268.358 194.824 268.406C194.489 268.479 194.184 268.214 193.943 267.97L191.731 265.73C191.406 265.4 191.499 264.811 191.822 264.48C192.146 264.149 192.625 264.023 193.084 263.968C194.286 263.823 195.532 264.071 196.587 264.664C196.891 264.835 197.209 265.085 197.224 265.433C197.234 265.707 197.05 265.946 196.875 266.158ZM142.362 254.742C142.818 255.232 143.39 255.734 144.057 255.679C144.748 255.622 145.213 255.016 145.67 254.421C146.159 253.783 146.639 253.158 147.377 253.228C147.761 252.596 146.714 252.09 145.975 252.078L140.233 251.987C140.858 252.967 141.571 253.89 142.362 254.742ZM166.125 281.589L154.182 281.64C154.311 281.022 155.007 280.726 155.617 280.56C158.34 279.822 161.237 279.735 163.999 280.307C164.842 280.482 165.776 280.802 166.125 281.589ZM178.762 277.451L174.81 277.63C174.385 277.649 173.839 277.773 173.787 278.195C173.764 278.383 173.859 278.565 173.95 278.731C174.299 279.364 174.669 280.021 175.271 280.42C175.873 280.818 176.78 280.857 177.248 280.308C177.409 280.119 177.504 279.882 177.598 279.648C177.713 279.359 177.828 279.072 178.064 278.879C178.22 278.751 178.411 278.681 178.603 278.611C178.749 278.557 178.895 278.504 179.028 278.424C179.333 278.239 179.528 277.76 179.244 277.542C179.112 277.441 178.929 277.444 178.762 277.451ZM144.128 277.975C144.676 278.328 145.009 279.106 144.657 279.654C144.235 280.312 143.709 281.037 142.932 281.114C141.93 281.214 141.211 280.203 140.723 279.322C140.557 279.022 140.385 278.69 140.446 278.352C140.576 277.644 141.523 277.511 142.242 277.547C142.894 277.579 143.579 277.622 144.128 277.975ZM196.689 271.756C197.28 271.805 197.81 271.404 198.224 270.98C199.489 269.686 200.294 267.952 200.464 266.15C200.045 265.883 199.533 266.298 199.212 266.677L195.981 270.498C195.598 270.951 196.098 271.707 196.689 271.756ZM133.406 263.263C132.559 263.72 131.401 263.485 130.8 262.733C130.2 261.981 130.226 260.799 130.858 260.075C130.946 259.974 131.051 259.878 131.182 259.851C131.372 259.812 131.555 259.926 131.715 260.036L133.287 261.107C133.649 261.354 134.042 261.647 134.119 262.078C134.205 262.564 133.839 263.028 133.406 263.263ZM177.318 254.799C177.946 255.327 178.878 254.782 179.503 254.248L181.535 252.512C181.152 252.146 180.538 252.229 180.02 252.336L175.495 253.271L177.318 254.799ZM85.8564 215.008C85.3943 214.597 85.2761 213.926 85.2626 213.308C85.2468 212.61 85.3284 211.911 85.5046 211.236L88.5032 215.139C88.6816 215.373 88.8285 215.773 88.5645 215.901C88.1897 215.649 87.7286 215.579 87.2704 215.508C86.7526 215.427 86.2381 215.348 85.8564 215.008ZM200.999 247.402C201.378 247.875 202.178 247.773 202.613 247.35C203.048 246.928 203.209 246.304 203.334 245.711C203.364 245.568 203.392 245.414 203.332 245.281C203.18 244.943 202.678 245.045 202.343 245.201C201.439 245.623 200.374 246.624 200.999 247.402ZM167.065 74.8065C167.432 73.8895 168.286 73.2709 169.128 72.7541C171.667 71.1943 174.486 70.0933 177.41 69.5191C178.11 69.3818 178.943 69.3148 179.428 69.8366C179.975 70.4237 179.701 71.4397 179.095 71.9644C178.555 72.4321 177.844 72.6241 177.149 72.8115C177.063 72.8346 176.978 72.8577 176.894 72.8808C174.556 73.5281 172.356 74.6714 170.483 76.2132C169.762 76.8059 168.908 77.5039 168.01 77.254C167.059 76.9894 166.698 75.7229 167.065 74.8065ZM114.474 75.0204C113.796 74.6528 113.337 73.7358 113.76 73.0896C114.006 72.7142 114.464 72.543 114.899 72.4321C118.424 71.5377 122.073 73.1172 125.262 74.8667C125.98 75.2602 126.718 75.6891 127.171 76.3713C127.623 77.0541 127.689 78.0651 127.099 78.632C126.111 79.5816 124.544 78.6049 123.429 77.809C121.475 76.4158 119.128 75.5805 116.733 75.4268C116.627 75.42 116.519 75.4144 116.411 75.4088V75.4082C115.741 75.3727 115.059 75.3367 114.474 75.0204ZM151.427 125.559L149.109 118.946C147.045 120.435 145.502 122.632 144.802 125.079C144.169 124.564 144.145 123.693 144.122 122.837C144.115 122.582 144.108 122.327 144.085 122.085C143.949 120.643 143.043 119.297 141.76 118.627C140.476 117.956 138.854 117.982 137.592 118.694C137.927 119.426 138.715 119.659 139.526 119.898C140.066 120.057 140.615 120.219 141.047 120.532C141.963 121.193 142.224 122.44 142.239 123.569C142.242 123.852 142.235 124.137 142.228 124.422V124.422C142.206 125.275 142.184 126.13 142.451 126.932C142.537 127.192 142.658 127.45 142.868 127.625C143.463 128.12 144.364 127.709 144.966 127.223C146.327 126.126 147.397 124.671 148.039 123.046C148.606 123.612 148.815 124.407 149.023 125.195C149.083 125.427 149.144 125.658 149.214 125.882C149.521 126.871 150.255 127.929 151.29 127.88C151.98 127.849 152.535 127.33 153.023 126.842L155.829 124.04C156.166 123.702 156.533 123.272 156.424 122.807C156.32 122.361 155.79 122.121 155.336 122.185C154.882 122.25 154.494 122.536 154.138 122.826C153.142 123.638 152.232 124.556 151.427 125.559ZM145.02 99.0327C145.169 97.8208 145.252 96.409 144.361 95.5731C142.7 94.0133 141.244 92.2345 140.045 90.2965C139.523 89.4515 139.031 88.4642 139.28 87.5022C139.657 86.0493 141.423 85.5236 142.913 85.3423C145.297 85.0519 147.711 85.0029 150.104 85.1954C151.133 85.2782 152.223 85.433 153.01 86.1C153.797 86.767 154.081 88.1203 153.322 88.8183C149.597 92.2418 147.417 97.2849 147.473 102.344C148.854 103.24 150.258 104.147 151.831 104.632C153.404 105.117 155.197 105.133 156.617 104.298C157.214 103.947 157.716 103.466 158.218 102.984C158.564 102.652 158.912 102.318 159.292 102.027C160.222 101.314 161.553 100.872 162.55 101.489L158.758 104.979C157.247 106.371 155.371 107.867 153.371 107.399C152.709 107.243 152.128 106.885 151.544 106.526C151.197 106.312 150.849 106.097 150.482 105.925C148.524 105.003 146.226 105.348 144.11 105.802C143.983 105.829 143.856 105.857 143.727 105.885L143.723 105.886C141.726 106.318 139.659 106.766 137.699 106.228C135.612 105.656 133.781 103.486 134.434 101.423C135.748 103.346 138.036 104.565 140.365 104.583C141.26 104.59 142.182 104.419 142.922 103.918C144.439 102.893 144.795 100.85 145.02 99.0327Z" fill="#00160A"/>
</svg>
