<svg width="136" height="124" viewBox="0 0 136 124" fill="none" xmlns="http://www.w3.org/2000/svg">
<path d="M14.6686 66.1776H1.60474V74.3861H14.6686V66.1776Z" fill="#DDAB6C"/>
<path d="M112.087 66.1776H99.0234V74.3861H112.087V66.1776Z" fill="#DDAB6C"/>
<path d="M40.7737 33.0371C37.7838 43.4731 30.7749 47.6522 20.1687 49.689C19.7238 51.9247 19.4907 54.2335 19.4907 56.5953C30.9232 54.5253 38.3039 50.1337 41.1256 38.4832C50.354 51.4391 74.2596 60.2811 94.2014 56.5953C94.2014 54.3173 93.9844 52.0886 93.5697 49.9276C74.3296 53.2167 51.611 45.021 41.9525 32.8042C41.6109 32.3722 40.9246 32.5092 40.7737 33.0371Z" fill="#DDAB6C"/>
<path d="M59.9507 116.976H53.7424C51.3617 116.976 49.3009 115.612 48.3025 113.627C47.8923 114.443 47.6611 115.363 47.6611 116.339C47.6611 119.686 50.3839 122.4 53.7424 122.4H59.9507C63.3091 122.4 66.0319 119.686 66.0319 116.339C66.0319 115.363 65.8008 114.443 65.3905 113.627C64.3916 115.612 62.3307 116.976 59.9507 116.976Z" fill="#DDAB6C"/>
<path d="M59.9507 124H53.7423C49.5037 124 46.0554 120.563 46.0554 116.339C46.0554 112.114 49.5037 108.677 53.7423 108.677H59.9507C64.1893 108.677 67.637 112.114 67.637 116.339C67.637 120.563 64.1887 124 59.9507 124ZM53.7423 111.877C51.2738 111.877 49.2655 113.878 49.2655 116.339C49.2655 118.799 51.2738 120.8 53.7423 120.8H59.9507C62.4186 120.8 64.4269 118.799 64.4269 116.339C64.4269 113.878 62.4186 111.877 59.9507 111.877H53.7423Z" fill="#141414"/>
<path d="M135.057 11.7356C134.614 10.971 133.633 10.7073 132.865 11.1501L114.662 21.6245L96.4598 11.1501C95.6913 10.7073 94.7096 10.971 94.2673 11.7356C93.8243 12.5003 94.0868 13.4793 94.8547 13.9209L113.057 24.3952V45.3433C113.057 46.227 113.776 46.9431 114.662 46.9431C115.549 46.9431 116.267 46.227 116.267 45.3433V24.3952L134.47 13.9209C135.238 13.4793 135.5 12.5003 135.057 11.7356Z" fill="#DDAB6C"/>
<path d="M93.5535 63.9086C92.6669 63.9086 91.9485 64.6246 91.9485 65.5083C91.9485 85.6194 76.2928 101.981 57.0495 101.981C37.8062 101.981 22.1505 85.6194 22.1505 65.5083C22.1505 64.6246 21.4321 63.9086 20.5455 63.9086C19.6588 63.9086 18.9404 64.6246 18.9404 65.5083C18.9404 87.3836 36.0362 105.18 57.0495 105.18C78.0629 105.18 95.1586 87.3836 95.1586 65.5083C95.1586 64.6246 94.4402 63.9086 93.5535 63.9086Z" fill="#141414"/>
<path d="M71.7275 68.2138C73.7425 68.2138 75.3761 66.5857 75.3761 64.5773C75.3761 62.5689 73.7425 60.9408 71.7275 60.9408C69.7124 60.9408 68.0789 62.5689 68.0789 64.5773C68.0789 66.5857 69.7124 68.2138 71.7275 68.2138Z" fill="#141414"/>
<path d="M41.9653 68.2138C43.9803 68.2138 45.6139 66.5857 45.6139 64.5773C45.6139 62.5689 43.9803 60.9408 41.9653 60.9408C39.9502 60.9408 38.3167 62.5689 38.3167 64.5773C38.3167 66.5857 39.9502 68.2138 41.9653 68.2138Z" fill="#141414"/>
<path d="M65.6599 85.3679C66.2872 84.7427 66.2872 83.7304 65.6599 83.1058C65.0333 82.4807 64.0164 82.4807 63.3904 83.1058C61.6402 84.8502 59.3161 85.81 56.8456 85.81C54.3751 85.81 52.051 84.8502 50.3015 83.1058C49.6749 82.4807 48.6579 82.4807 48.032 83.1058C47.4047 83.731 47.4047 84.7433 48.032 85.3679C50.3875 87.7163 53.518 89.0088 56.8463 89.0088C60.1739 89.0095 63.3044 87.7163 65.6599 85.3679Z" fill="#141414"/>
<path d="M56.8464 18.7715C35.3637 18.7715 17.886 35.7395 17.886 56.5954C17.886 57.0696 18.0972 57.5194 18.4625 57.8234C18.8278 58.128 19.31 58.2527 19.778 58.1696C28.4851 56.5929 37.7597 53.3761 41.7942 41.8907C50.8968 52.1866 68.5305 59.0136 84.9079 59.0129C88.1783 59.0129 91.4019 58.7403 94.4945 58.1689C95.2553 58.0281 95.8068 57.3671 95.8068 56.5961C95.8062 35.7395 78.3291 18.7715 56.8464 18.7715ZM42.4343 37.5574C42.13 37.13 41.6395 36.8836 41.1259 36.8836C41.0251 36.8836 40.9236 36.8932 40.8222 36.9124C40.2046 37.0314 39.7128 37.4985 39.5651 38.1077C37.2859 47.5192 32.0599 52.2717 21.1519 54.6354C22.2055 36.4523 37.8124 21.9709 56.8457 21.9709C76.0929 21.9709 91.8359 36.7793 92.5691 55.2497C74.1026 58.0934 51.4207 50.1735 42.4343 37.5574Z" fill="#141414"/>
<path d="M112.087 48.9834H99.0233C98.1366 48.9834 97.4182 49.6994 97.4182 50.5831V74.3864C97.4182 75.2701 98.1366 75.9862 99.0233 75.9862H112.087C112.974 75.9862 113.692 75.2701 113.692 74.3864V50.5831C113.692 49.6994 112.974 48.9834 112.087 48.9834ZM110.482 72.7867H100.628V52.1829H110.482V72.7867Z" fill="#141414"/>
<path d="M47.733 114.699C26.7305 113.773 10.2268 96.8472 9.76386 75.9861H14.6689C15.5555 75.9861 16.274 75.27 16.274 74.3864V50.583C16.274 49.6994 15.5555 48.9833 14.6689 48.9833H9.78312C10.6293 27.8605 28.1263 10.9335 49.5236 10.9335H64.1694C72.9631 10.9335 81.2972 13.7356 88.2708 19.0364C88.9758 19.5714 89.9831 19.4364 90.5205 18.7338C91.0579 18.0312 90.9224 17.0278 90.2174 16.4916C82.6795 10.762 73.6726 7.7334 64.1694 7.7334H49.5236C26.3562 7.7334 7.42112 26.0951 6.57301 48.9827H1.60505C0.718422 48.9827 0 49.6987 0 50.5824V74.3857C0 75.2694 0.718422 75.9854 1.60505 75.9854H6.55375C7.01729 98.5621 24.8687 116.893 47.5911 117.894C47.6155 117.896 47.6393 117.896 47.663 117.896C48.5169 117.896 49.227 117.226 49.2655 116.367C49.3053 115.486 48.619 114.738 47.733 114.699ZM3.21011 52.1828H13.0638V72.7866H3.21011V52.1828Z" fill="#141414"/>
<path d="M134.47 11.1503L115.465 0.214523C114.969 -0.0715078 114.356 -0.0715078 113.86 0.214523L94.855 11.1503C94.3587 11.4356 94.0525 11.9636 94.0525 12.5356V34.4084C94.0525 34.9804 94.3587 35.5083 94.855 35.7937L113.86 46.7295C114.109 46.8728 114.385 46.9438 114.663 46.9438C114.94 46.9438 115.217 46.8728 115.465 46.7295L134.47 35.7937C134.967 35.5083 135.273 34.9804 135.273 34.4084V12.5356C135.273 11.9642 134.967 11.4356 134.47 11.1503ZM132.063 33.4844L114.663 43.4961L97.2626 33.4844V13.4596L114.663 3.44789L132.063 13.4596V33.4844Z" fill="#141414"/>
</svg>
