<svg width="360" height="372" viewBox="0 0 360 372" fill="none" xmlns="http://www.w3.org/2000/svg">
<path fill-rule="evenodd" clip-rule="evenodd" d="M334.073 299.584C401.282 239.618 314.509 205.401 330.502 154.725C346.494 104.049 386.973 27.8391 235.939 41.2659C84.9043 54.6926 -40.4853 207.236 13.359 279.029C67.2033 350.822 266.863 359.551 334.073 299.584Z" fill="#DDAB6C"/>
<path fill-rule="evenodd" clip-rule="evenodd" d="M209.387 176.646C213.751 178.765 218.113 180.884 222.477 183.002C229.35 186.339 236.342 189.758 241.883 195.006C247.425 200.255 251.39 207.721 250.559 215.294C249.582 224.196 242.522 231.054 235.893 237.101C227.251 244.983 218.61 252.865 209.967 260.747C206.181 264.202 202.033 269.12 204.073 273.815C209.37 286.007 214.168 299.875 209.351 312.264C207.991 315.761 205.176 319.372 201.415 319.2C198.617 319.072 196.398 316.88 194.598 314.741C187.444 306.24 182.135 296.205 179.14 285.52C175.304 271.837 175.773 255.802 185.107 245.064C192.359 236.719 204.857 231.108 205.629 220.096C191.499 208.14 171.058 204.066 153.399 209.685C135.74 215.305 121.454 230.43 116.894 248.333C114.411 258.083 119.97 268.119 126.806 275.52C133.643 282.922 142.029 289.058 147.289 297.643C157.869 314.909 153.25 337.019 148.3 356.639C146.582 363.447 136.216 364.583 131.055 359.803C125.895 355.024 125.006 347.217 125.553 340.218C126.1 333.219 127.74 326.145 126.365 319.26C122.814 301.49 101.938 293.378 91.7086 278.4C83.956 267.047 82.888 252.195 85.7584 238.764C88.6293 225.335 95.0484 212.962 101.399 200.776C89.5809 182.748 84.6196 160.371 87.7153 139.061C89.2772 128.308 75.0727 120.034 76.5521 109.27C77.7324 100.679 87.8481 96.7998 96.3984 95.1835C112.673 92.1071 129.315 90.9701 145.857 91.804C149.556 91.9901 151.184 86.6361 149.332 83.4409C147.479 80.2452 143.862 78.6002 140.866 76.4303C134.831 72.0589 131.039 65.167 128.948 58.0305C126.265 48.8722 126.26 38.4733 131.243 30.3262C132.489 28.2905 134.63 25.2728 137.888 28.1971C138.866 23.093 149.243 18.1872 155.878 20.9273C159.854 22.5696 164.092 19.2017 166.619 15.7294C169.146 12.2571 171.591 8.0642 175.79 7.12204C183.31 5.43492 188.126 15.4614 187.26 23.093C186.394 30.7247 183.026 38.7869 186.333 45.7244C187.59 48.3619 189.768 50.6459 190.185 53.5362C190.548 56.0438 189.899 55.0659 188.487 60.8389C187.075 66.6113 183.674 68.4658 182.272 71.6592C180.114 76.5748 180.438 80.8924 175.928 85.2433C175.169 85.9754 176.715 87.6532 176.169 88.8961C187.275 89.0547 195.713 98.2832 204.309 105.292C215 114.009 228.077 120.106 241.84 121.289C255.603 122.472 270.004 118.449 280.28 109.25C284.303 105.649 293.898 110.354 294.598 105.011C294.733 103.627 294.364 103.03 293.049 102.69C292.368 102.514 290.758 102.88 290.259 102.239C288.794 100.361 297.327 97.1234 296.966 99.7023C296.874 100.363 296.486 100.851 296.535 101.279C296.678 102.523 297.389 102.907 298.485 103.126C300.798 103.27 304.111 101.69 305.494 99.7023C306.42 98.371 306.059 98.0176 305.332 97.9591C304.144 97.8625 301.98 98.5536 302.866 97.0421C303.957 95.1835 306.768 93.4209 309.441 95.0389C310.019 95.3883 309.816 96.0665 309.52 96.7325C308.977 97.955 308.12 99.1365 311.19 98.1756C315.934 96.6909 316.206 96.9689 317.432 97.3317C318.657 97.6945 320.457 99.8487 321.609 101.861C323.979 106.001 326.411 110.344 326.633 115.106C326.855 119.868 324.098 125.133 319.41 126.085C319.368 127.471 320.048 128.777 321.08 129.695C322.204 130.696 325.094 130.086 324.608 130.98C323.031 133.885 319.189 134.63 316.165 133.613C315.334 133.334 317.25 131.905 317.432 130.914C317.722 129.327 317.392 127.619 316.422 126.323C313.686 127.476 310.951 128.63 308.215 129.784C309.01 130.795 308.647 131.996 309.441 133.007C310.191 133.962 312.115 133.72 312.438 135.076C312.788 136.55 309.948 137.168 308.48 137.306C306.871 137.457 304.368 137.622 303.619 136.55C302.767 135.331 305.436 134.941 305.559 133.665C305.694 132.273 305.183 130.786 303.957 130.112C301.607 128.822 298.237 131.198 298.675 133.835C299.78 140.478 297.017 147.622 291.724 151.809C286.431 155.996 278.822 157.057 272.578 154.478C266.933 152.147 260.68 155.146 254.839 156.933C241.596 160.986 226.484 158.402 215.355 150.18C214.713 159.371 212.947 169.325 207.051 176.102C208.007 176.646 207.515 176.646 209.387 176.646Z" fill="white"/>
<path d="M150.481 77.1477C152.259 77.1477 153.7 75.7115 153.7 73.9397C153.7 72.168 152.259 70.7318 150.481 70.7318C148.704 70.7318 147.263 72.168 147.263 73.9397C147.263 75.7115 148.704 77.1477 150.481 77.1477Z" fill="#FFB61D"/>
<path d="M173.574 70.7205C175.352 70.7205 176.793 69.2795 176.793 67.502C176.793 65.7244 175.352 64.2834 173.574 64.2834C171.796 64.2834 170.355 65.7244 170.355 67.502C170.355 69.2795 171.796 70.7205 173.574 70.7205Z" fill="#FFB61D"/>
<path fill-rule="evenodd" clip-rule="evenodd" d="M192.371 210.867C190.922 210.218 189.471 209.568 188.011 208.935C177.322 204.297 164.501 200.962 154.415 206.789C152.875 196.985 163.424 189.498 173.131 187.28C175.794 186.671 178.541 186.24 181.288 185.809C188.558 184.667 195.83 183.525 201.537 179.105C210.01 172.544 212.269 160.847 213.015 150.18C224.143 158.402 239.255 160.987 252.498 156.933C253.509 156.624 254.532 156.279 255.562 155.93C260.485 154.268 265.569 152.55 270.238 154.479C276.481 157.057 284.09 155.996 289.383 151.809C294.676 147.622 297.439 140.478 296.334 133.835C295.896 131.198 299.267 128.822 301.616 130.112C302.842 130.786 303.353 132.273 303.219 133.666C303.164 134.236 302.598 134.63 302.067 135C301.411 135.456 300.808 135.876 301.278 136.55C302.028 137.622 304.531 137.457 306.139 137.306C307.607 137.168 310.447 136.55 310.097 135.076C309.912 134.299 309.202 134.047 308.487 133.794C307.955 133.605 307.421 133.415 307.101 133.007C306.704 132.502 306.596 131.949 306.487 131.396C306.38 130.843 306.272 130.289 305.874 129.784L314.081 126.323C315.051 127.619 315.381 129.327 315.091 130.914C315.013 131.34 314.614 131.847 314.251 132.309C313.77 132.922 313.351 133.454 313.824 133.613C316.848 134.63 320.69 133.885 322.268 130.98C322.515 130.525 321.889 130.46 321.066 130.373C320.271 130.29 319.292 130.187 318.739 129.695C317.707 128.777 317.027 127.471 317.069 126.085C321.757 125.133 324.514 119.868 324.292 115.106C324.07 110.344 321.639 106.002 319.268 101.861C318.116 99.8488 316.316 97.6947 315.091 97.3318C315.015 97.3096 314.942 97.2874 314.872 97.2657C313.814 96.9415 313.299 96.7835 308.849 98.1757C306.094 99.0383 306.502 98.1745 307.007 97.1048C307.064 96.9825 307.124 96.8578 307.179 96.7326C307.475 96.0666 307.678 95.3884 307.101 95.039C304.427 93.421 301.616 95.1836 300.525 97.0422C299.874 98.1523 300.868 98.0745 301.914 97.9931C302.292 97.9633 302.676 97.9334 302.991 97.9592C303.718 98.0177 304.079 98.3711 303.153 99.7025C301.77 101.69 298.457 103.27 296.145 103.126C295.048 102.907 294.338 102.523 294.194 101.279C294.168 101.051 294.266 100.807 294.376 100.529C294.474 100.284 294.582 100.012 294.626 99.7025C294.986 97.1235 286.453 100.361 287.918 102.239C288.244 102.657 289.041 102.647 289.745 102.638C290.122 102.633 290.472 102.629 290.709 102.69C292.024 103.03 292.392 103.626 292.258 105.011C291.876 107.928 288.841 107.85 285.509 107.764C282.74 107.692 279.765 107.615 277.939 109.25C267.664 118.449 253.262 122.472 239.499 121.289C225.737 120.107 212.659 114.009 201.969 105.292C200.493 104.089 199.022 102.82 197.542 101.544C190.397 95.3826 183.029 89.0279 173.828 88.8962C174.099 88.2812 173.857 87.5597 173.635 86.8996C173.409 86.2248 173.204 85.6133 173.588 85.2434C175.963 82.9518 177.176 78.4885 178.227 74.6227C179.171 71.1484 179.984 68.1575 181.391 67.6606C184.207 66.6664 185.032 64.184 185.985 61.3212C186.038 61.1615 186.092 61.0005 186.146 60.839C186.471 59.8699 186.761 59.0869 187.008 58.4204C187.764 56.381 188.118 55.4259 187.845 53.5363C187.573 51.652 186.552 50.0252 185.526 48.3901C184.979 47.517 184.43 46.6421 183.992 45.7246C181.586 40.6772 182.713 35.0354 183.84 29.3964C184.262 27.2843 184.683 25.1727 184.919 23.0931C185.786 15.4615 180.969 5.43504 173.45 7.12216C169.785 7.9443 167.457 11.2414 165.244 14.3753C164.921 14.8329 164.6 15.2871 164.278 15.7295C161.751 19.2018 157.514 22.5698 153.537 20.9275C146.902 18.1873 136.525 23.0931 135.547 28.1972C132.289 25.273 130.148 28.2906 128.903 30.3263C123.919 38.4734 123.924 48.8723 126.608 58.0307C128.698 65.1671 132.491 72.059 138.526 76.4304C139.293 76.9863 140.101 77.5077 140.91 78.0291C143.258 79.5448 145.613 81.064 146.991 83.441C148.843 86.6362 147.216 91.9902 143.517 91.8041C126.974 90.9702 110.332 92.1072 94.0578 95.1836C85.5075 96.7999 75.3918 100.679 74.2114 109.27C73.4735 114.641 76.6394 119.391 79.8036 124.139C82.9812 128.907 86.1571 133.673 85.3746 139.061C82.279 160.372 87.2403 182.748 99.0589 200.776C92.7077 212.962 86.2887 225.335 83.4178 238.764C80.5474 252.195 81.6154 267.047 89.368 278.4C93.4082 284.315 99.1092 289.16 104.747 293.951C113.385 301.292 121.876 308.508 124.024 319.26C125.033 324.314 124.418 329.47 123.803 334.624C123.58 336.491 123.358 338.357 123.212 340.218C122.666 347.217 123.554 355.024 128.715 359.803C131.661 362.532 136.305 363.333 140.067 362.25C140.035 362.825 140.002 363.361 139.97 363.865C139.799 366.61 139.687 368.411 140.169 370.545C140.295 371.101 140.5 371.734 141.034 371.936C142.098 372.339 142.808 370.716 142.736 369.613C142.463 365.438 141.941 363.082 141.439 361.752C143.629 360.778 145.346 359.07 145.959 356.639C150.91 337.019 155.528 314.909 144.949 297.643C141.454 291.939 136.579 287.316 131.696 282.686C129.229 280.346 126.76 278.005 124.465 275.521C117.629 268.12 112.071 258.083 114.554 248.333C119.113 230.43 133.399 215.305 151.058 209.685C168.717 204.066 189.158 208.14 203.288 220.096C202.762 227.596 196.797 232.592 190.753 237.651C187.924 240.02 185.079 242.403 182.766 245.064C173.432 255.802 172.964 271.837 176.799 285.52C179.794 296.205 185.103 306.24 192.257 314.742C194.057 316.88 196.276 319.072 199.075 319.2C202.835 319.372 205.651 315.762 207.011 312.264C211.827 299.875 207.029 286.007 201.732 273.815C199.693 269.12 203.84 264.202 207.627 260.747L233.552 237.101C240.182 231.054 247.242 224.196 248.218 215.294C249.049 207.721 245.085 200.255 239.543 195.006C234.001 189.758 227.009 186.34 220.136 183.002L207.047 176.646C211.362 182.172 217.874 185.274 224.286 188.328C225.524 188.918 226.759 189.506 227.974 190.109C235.476 193.838 243.178 199.278 244.896 207.454C247.006 217.498 239.339 226.717 232.23 234.143C223.228 243.545 214.148 253.015 203.454 260.453C199.816 262.983 195.781 265.338 191.346 265.497C186.911 265.655 182.088 262.886 181.391 258.519C180.763 254.577 183.488 250.964 186.051 247.896L205.005 225.209C207.885 221.762 211.68 220.864 216.195 219.797C217.783 219.421 219.46 219.025 221.217 218.489C210.582 219.029 201.526 214.971 192.371 210.867ZM115.662 149.895C116.427 156.761 118.55 163.637 122.855 169.053C127.161 174.469 133.869 178.239 140.796 177.94C143.116 177.839 143.859 174.4 142.482 172.538C141.287 170.923 139.312 170.187 137.396 169.474C137.103 169.365 136.812 169.257 136.525 169.145C134.36 168.309 132.052 166.908 131.661 164.627C137.769 169.362 146.888 169.801 153.425 165.676C155.701 172.183 163.25 176.09 170.081 175.016C176.913 173.942 182.623 168.501 184.889 161.99C184.932 161.866 184.975 161.74 185.018 161.614C185.362 160.6 185.716 159.559 186.498 158.841C187.227 158.172 188.221 157.889 189.176 157.625L207.855 152.478C208.318 152.351 208.845 152.23 209.256 152.479C209.694 152.744 209.815 153.315 209.88 153.822C211.172 164.033 205.419 174.757 196.182 179.361C191.228 181.829 185.568 182.635 179.956 183.435C172.633 184.478 165.394 185.51 159.916 190.205C156.935 192.76 154.866 196.116 152.794 199.479C151.804 201.085 150.813 202.693 149.721 204.216C143.026 213.555 130.729 219.88 119.808 216.23C113.539 214.136 108.667 209.179 104.662 203.938C92.6065 188.159 86.2425 168.153 86.9757 148.336C87.1086 144.74 87.479 141.1 88.784 137.745C97.0604 147.328 106.63 155.802 117.154 162.864C116.787 160.963 115.464 159.401 114.148 157.976C110.381 153.897 106.223 150.077 102.071 146.262C92.4134 137.389 82.7811 128.539 78.1428 116.507C77.1228 113.862 76.3691 110.975 76.997 108.211C78.4219 101.944 85.8141 99.335 92.136 98.0622C107.319 95.0069 122.814 93.493 138.304 93.5527C139.126 103.112 147.109 111.663 156.656 112.921C166.203 114.18 176.264 107.814 178.945 98.5982C179.024 98.3243 179.098 98.0475 179.173 97.7696C179.506 96.5313 179.843 95.2801 180.639 94.2888C181.614 93.0751 183.597 92.4782 184.735 93.5421C193.168 101.426 202.019 109.005 212.104 114.644C222.19 120.282 233.649 123.918 245.202 123.409C225.467 130.583 205.295 136.563 184.834 141.305C183.269 141.667 181.332 141.905 180.326 140.657C176.762 136.234 170.95 133.709 165.272 134.118C159.594 134.527 154.207 137.858 151.319 142.747C150.273 144.517 147.665 144.294 145.68 143.741C141.551 142.59 137.302 140.819 134.862 137.306C134.45 136.713 134.093 136.075 133.737 135.438C133.04 134.192 132.345 132.949 131.245 132.059C129.689 130.8 127.652 130.493 125.633 130.189C125.072 130.105 124.513 130.02 123.965 129.916C117.735 128.727 112.217 124.312 109.707 118.507C115.58 114.588 123.512 116.448 129.997 119.251C131.018 119.692 132.042 120.156 133.07 120.621C138.568 123.111 144.177 125.652 150.108 125.109C155.151 124.648 159.552 122.033 163.972 119.407C167.88 117.085 171.802 114.755 176.195 113.896C187.466 111.694 198.529 120.056 203.805 130.221C203.846 130.299 203.886 130.377 203.927 130.456C204.79 132.124 205.724 133.929 207.455 134.63C205.689 124.736 198.23 116.058 188.69 112.797C179.151 109.536 167.917 111.824 160.427 118.553C155.779 122.729 148.717 123.024 142.651 121.49C139.235 120.625 135.979 119.271 132.721 117.917C130.194 116.867 127.666 115.816 125.061 114.992C119.096 113.106 112.207 112.548 106.898 115.849C105.304 112.349 103.172 109.093 100.598 106.231C103.148 120.815 116.498 132.805 131.32 133.826L123.095 136.94C121.173 137.667 119.181 138.44 117.771 139.931C115.356 142.483 115.273 146.409 115.662 149.895ZM111.604 251.904C110.805 255.918 110.367 260.267 112.168 263.944C113.139 265.926 114.69 267.554 116.215 269.155L116.32 269.264C125.492 278.898 134.108 289.057 142.111 299.676C138.557 303.076 134.602 306.06 130.352 308.544C129.168 309.236 127.89 309.908 126.518 309.884C124.473 309.847 122.811 308.307 121.372 306.858C111.323 296.742 101.534 286.37 92.0172 275.756C88.9912 272.381 85.9142 268.847 84.539 264.534C82.791 259.052 84.0287 253.12 85.2763 247.504C88.7179 232.017 92.3379 216.107 101.311 203.004C106.352 212.023 115.687 218.532 125.918 220.162C118.824 229.485 113.89 240.428 111.604 251.904ZM175.53 79.2387C174.029 82.366 171.497 85.1288 168.213 86.274C163.836 87.8013 159.021 86.2734 154.735 84.5067C152.508 83.5885 150.258 82.5703 148.533 80.8925C147.069 79.4693 146.066 77.6494 145.137 75.8335C142.243 70.1782 139.853 64.2677 138.001 58.1939C136.47 53.1718 135.682 46.816 139.757 43.4897C144.412 47.0495 150.673 47.9425 156.501 47.2671C161.684 46.6667 166.648 44.9503 171.586 43.2433C172.202 43.0303 172.818 42.8173 173.433 42.6066C174.137 42.3661 174.969 42.1443 175.576 42.5721C176.04 42.8992 176.204 43.4997 176.33 44.0521C178.205 52.2706 178.751 60.7881 177.942 69.1775C177.609 72.6278 177.031 76.112 175.53 79.2387ZM194.233 314.018C185.888 302.934 180.298 289.806 178.097 276.125C177.152 270.251 176.847 264.095 178.811 258.477C180.687 265.834 189.574 270.534 196.742 267.957C198.612 271.796 200.313 275.718 201.837 279.707C205.841 290.187 208.567 302.114 204.132 312.42C203.066 314.898 200.96 317.536 198.284 317.14C196.549 316.883 195.285 315.416 194.233 314.018ZM138.673 27.8163C140.783 24.0514 145.425 22.1386 149.737 22.5005C150.743 22.5849 151.745 22.7123 152.728 22.8371C155.84 23.2325 158.751 23.6023 160.949 22.5005C164.295 20.8229 165.693 18.4909 167.117 16.1173C168.068 14.5328 169.028 12.9298 170.588 11.4904C171.575 10.5798 172.674 9.70603 173.988 9.41818C176.673 8.82953 179.252 10.8675 180.782 13.1446C184.066 18.032 184.499 24.6839 181.877 29.9529C178.99 35.7557 173.038 39.3869 167.083 41.984C162.796 43.8537 158.258 45.3699 153.58 45.4665C148.901 45.563 144.032 44.0866 140.806 40.7088C137.579 37.3305 136.392 31.8876 138.673 27.8163ZM125.48 333.194C125.28 331.712 125.122 330.056 126.025 328.861C129.724 329.192 133.543 327.856 136.222 325.293C135.408 323.617 132.885 323.73 131.291 324.703C130.679 325.077 130.118 325.535 129.558 325.993C128.659 326.726 127.763 327.457 126.673 327.826C125.619 326.787 125.808 324.953 126.685 323.761C127.561 322.569 128.939 321.866 130.265 321.206L138.616 317.044C137.011 315.461 134.337 315.441 132.289 316.388C130.242 317.334 128.675 319.052 127.167 320.726C125.493 317.813 126.688 313.633 129.651 312.035L140.469 306.201C141.309 305.748 142.201 305.282 143.156 305.311C145.224 305.372 146.472 307.603 147.038 309.586C148.675 315.323 148.176 321.421 147.663 327.363C146.909 336.101 146.143 344.907 143.683 353.328C142.835 356.23 141.497 359.391 138.681 360.517C135.627 361.737 132.034 359.885 130.207 357.157C128.38 354.43 127.894 351.053 127.455 347.803L125.48 333.194ZM269.708 135.076C270.879 134.933 271.894 133.585 271.322 132.556L267.301 125.308C266.771 124.353 266.229 123.357 266.158 122.268C266.088 121.18 266.634 119.969 267.676 119.632C269.167 119.15 270.538 120.587 271.401 121.891C273.22 124.638 274.806 127.538 276.136 130.55C277.715 128.454 275.99 125.559 274.414 123.461C272.839 121.363 271.459 118.146 273.43 116.41C275.377 114.696 278.47 116.453 279.962 118.572C280.745 119.686 281.388 120.921 282.03 122.151C283.273 124.535 284.506 126.901 286.727 128.331C287.686 127.747 287.209 126.283 286.627 125.324L279.175 113.032C278.509 111.933 279.61 110.443 280.885 110.257C282.16 110.072 283.391 110.751 284.457 111.474C289.581 114.95 293.662 120.272 294.626 126.374C295.588 132.476 292.974 139.256 287.6 142.336C285.975 143.268 284.164 143.848 282.324 144.205C271.121 146.375 258.86 139.229 255.268 128.436C254.718 126.784 254.585 124.527 256.145 123.745C257.335 123.148 258.771 123.857 259.762 124.744C261.193 126.025 262.215 127.664 263.238 129.303C264.223 130.883 265.209 132.464 266.561 133.726C267.423 134.53 268.536 135.219 269.708 135.076ZM152.838 147.203C154.215 147.246 155.641 147.289 156.785 148.028C158.047 148.842 158.597 150.903 157.402 151.812C156.949 152.155 156.362 152.255 155.801 152.346C150.58 153.179 144.623 153.828 140.563 150.451C139.651 150.866 139.385 152.117 139.757 153.045C140.13 153.974 140.958 154.634 141.788 155.196C145.471 157.692 149.881 159.109 154.334 159.229C151.418 161.746 147.15 162.602 143.483 161.406C142.044 160.936 140.019 160.401 139.382 161.77C142.206 164.46 146.516 164.666 150.422 164.717C143.444 168.03 134.289 165.872 129.54 159.795C129.202 159.362 128.44 159.583 128.171 160.062C127.903 160.541 127.976 161.129 128.057 161.672C128.467 164.433 129.031 167.469 131.231 169.197C132.395 170.113 133.84 170.511 135.285 170.91C135.862 171.069 136.439 171.228 136.998 171.421C138.959 172.094 140.986 173.571 141.005 175.638C134.687 176.181 128.502 172.613 124.678 167.574C120.853 162.534 119.096 156.216 118.286 149.95C118.077 148.33 117.929 146.653 118.401 145.089C119.342 141.975 122.429 140.092 125.274 138.499C127.338 137.343 130.185 136.279 131.822 137.982C137.156 143.534 144.707 146.91 152.415 147.189C152.556 147.195 152.697 147.199 152.838 147.203ZM166.389 158.397L247.242 136.095C250.762 135.124 254.929 134.275 257.747 136.592C225.736 146.449 193.313 154.984 160.593 162.167C158.811 162.558 156.272 162.48 155.962 160.689C157.037 160.729 157.032 159.528 157.028 158.257C157.024 157.007 157.019 155.689 158.044 155.423L252.264 130.902C252.834 130.754 253.557 130.655 253.906 131.127C254.475 131.895 253.312 132.752 252.39 133.007L162.529 157.9C163.344 159.016 165.053 158.765 166.389 158.397ZM257.549 151.97C251.715 155.865 244.31 156.887 237.337 156.063C230.365 155.24 223.717 152.711 217.256 149.973L255.939 139.169C257.295 138.791 258.97 138.493 259.926 139.523C267.776 147.973 282.058 149.481 291.511 142.857C290.409 148.116 285.635 152.394 280.271 152.931C277.215 153.237 274.205 152.447 271.211 151.66C270.417 151.452 269.624 151.244 268.832 151.056C265.051 150.162 260.777 149.815 257.549 151.97ZM150.649 87.2571C151.202 86.4688 152.39 86.0346 153.156 86.6192C157.645 90.0473 163.886 91.0597 169.234 89.2269C170.941 88.6423 172.883 89.853 173.588 91.5091C174.292 93.1652 174.008 95.0835 173.389 96.773C171.504 101.917 166.43 105.745 160.949 106.157C155.468 106.569 149.875 103.543 147.237 98.7381C146.423 97.2546 146.151 94.9296 147.722 94.2906C149.289 93.6527 149.737 91.6876 149.907 90.0093L149.912 89.9584C150.007 89.0174 150.106 88.0307 150.649 87.2571ZM300.135 128.439C299.503 128.609 298.835 128.777 298.203 128.608C297.571 128.44 297.014 127.807 297.173 127.175C302.827 126.28 308.285 124.175 313.069 121.043C314.933 119.823 316.911 117.697 315.971 115.682C315.347 114.347 313.673 113.833 312.195 113.893C310.057 113.98 308.063 114.936 306.139 115.874L295.764 120.93C295.282 120.361 295.482 119.446 295.993 118.901C296.484 118.376 297.182 118.107 297.855 117.847L297.93 117.818C302.64 115.996 307.028 113.352 310.834 110.041C311.949 109.072 311.37 107.074 310.097 106.322C308.824 105.57 307.225 105.718 305.77 105.989C301.551 106.775 297.49 108.397 293.895 110.733C292.125 111.883 289.612 113.157 288.164 111.623C292.072 107.677 297.428 105.571 302.617 103.572L312.658 99.7025C313.357 99.4339 314.111 99.1606 314.836 99.3455C315.823 99.5971 316.401 100.591 316.848 101.503C319.385 106.678 321.251 112.178 322.389 117.824C322.554 118.643 322.691 119.548 322.268 120.269C321.884 120.923 321.135 121.258 320.433 121.547C313.823 124.272 307.039 126.575 300.135 128.439ZM252.645 128.784C252.27 129.183 251.709 129.339 251.178 129.477L158.967 153.533C160.399 150.088 164.607 148.91 168.263 148.115C193.704 142.582 218.627 134.952 243.523 127.33C244.939 126.897 246.354 126.464 247.77 126.03C248.998 125.655 250.336 125.281 251.54 125.73C252.743 126.179 253.525 127.852 252.645 128.784ZM127.844 37.0385C128.409 35.1963 129.332 32.6501 130.778 31.3697C131.514 30.7172 132.512 30.0208 133.399 30.4504C133.957 30.7201 134.23 31.344 134.459 31.918C134.801 32.7765 135.289 33.9276 135.777 35.0781C136.265 36.2292 136.753 37.3803 137.095 38.2387C137.575 39.4431 138.038 41.3145 137.159 41.9225C133.399 44.5232 134.255 54.0168 135.939 58.3853C136.341 59.4281 136.685 61.5658 136.339 63.1236C135.992 64.682 134.255 66.0835 132.834 65.3468C132.019 64.9243 130.726 62.6853 130.257 61.8742C130.215 61.7999 130.179 61.7379 130.151 61.6899C123.225 49.8812 127.064 39.2137 127.755 37.2936C127.798 37.1743 127.829 37.0888 127.844 37.0385ZM158.23 164.904C164.387 163.767 170.481 162.29 176.474 160.48C176.568 160.452 176.661 160.424 176.754 160.396C178.619 159.831 180.512 159.258 182.459 159.267C182.215 162.338 180.503 165.182 178.155 167.185C175.807 169.187 172.867 170.408 169.856 171.102C167.572 171.628 165.165 171.864 162.896 171.28C160.627 170.696 158.51 169.185 157.648 167.013C157.339 166.235 157.404 165.057 158.23 164.904ZM165.864 146.588C161.936 147.143 157.786 146.859 154.25 145.067C153.503 144.688 153.89 143.549 154.418 142.9C157.132 139.564 161.243 137.393 165.538 137.027C169.832 136.663 174.253 138.109 177.495 140.939C178.031 141.408 178.575 142.148 178.214 142.759C178.023 143.081 177.642 143.23 177.289 143.356C173.556 144.691 169.791 146.034 165.864 146.588ZM153.764 110.291C150.273 109.2 147.54 106.431 145.544 103.375C144.334 101.523 143.344 99.5439 142.353 97.5642C141.709 96.2773 141.065 94.9911 140.361 93.7382C141.655 93.524 142.914 94.4029 143.632 95.4967C144.144 96.2779 144.454 97.1616 144.765 98.0464C144.89 98.4004 145.014 98.755 145.151 99.1026C147.733 105.634 155.422 109.551 162.347 108.256C169.271 106.962 174.886 100.885 176.087 93.9676C176.213 93.2407 176.442 92.3413 177.168 92.1973C177.953 92.8498 177.988 94.0302 177.849 95.039C176.844 102.363 170.181 107.873 163.064 109.954C160.043 110.837 156.768 111.23 153.764 110.291ZM292.184 114.676C296.546 111.283 301.689 108.891 307.101 107.738C307.751 107.599 308.726 107.742 308.667 108.401C308.649 108.61 308.513 108.787 308.379 108.948C305.69 112.179 301.755 114.07 297.947 115.864C296.88 116.367 295.755 116.881 294.577 116.809C293.399 116.736 292.182 115.852 292.184 114.676ZM311.064 116.302C311.625 116.124 312.239 115.956 312.789 116.162C313.341 116.368 313.705 117.123 313.317 117.563C309.977 121.363 304.979 123.238 300.103 124.618C298.828 124.979 296.953 124.97 296.736 123.667C301.056 120.441 305.922 117.94 311.064 116.302ZM179.891 60.6365C180.173 58.8979 180.511 56.8205 180.511 55.4769C180.511 53.6312 180.791 51.3735 182.519 50.7163C184.174 50.086 186.045 51.5976 186.364 53.335C186.683 55.0725 184.714 62.0867 183.736 63.5602C183.289 64.2332 182.769 64.9044 182.034 65.2426C181.298 65.5814 180.297 65.4714 179.847 64.8008C179.612 64.4514 179.56 64.0155 179.52 63.597C179.479 63.178 179.668 62.0135 179.891 60.6365ZM179.931 38.7871C180.017 38.9105 180.055 39.0604 180.089 39.2072C180.807 42.2415 181.085 45.3787 180.913 48.4914C180.09 48.86 179.409 47.7657 179.166 46.8996L178.132 43.1948C177.726 41.7365 177.397 39.9516 178.484 38.8942C178.878 38.5103 179.616 38.3359 179.931 38.7871ZM136.395 71.8021C135.326 71.0659 134.459 70.469 134.459 68.6479C134.459 66.4932 136.796 64.3929 137.305 64.8008C139.157 66.2837 142.485 73.6367 142.651 75.9979C141.258 75.4309 140.231 74.6578 138.356 73.2458C137.947 72.9385 137.499 72.6014 136.998 72.2287C136.793 72.0765 136.59 71.9373 136.395 71.8021ZM148.547 155.808L152.323 155.012C152.795 154.913 153.367 154.844 153.682 155.207C154.289 155.906 153.094 156.79 152.166 156.806C150.897 156.83 149.623 156.479 148.547 155.808ZM263.184 121.234C263.867 121.311 264.444 122.18 263.995 122.698L263.953 122.745C263.363 123.195 262.684 123.669 261.949 123.563C261.214 123.457 260.697 122.385 261.305 121.961C261.869 121.568 262.501 121.156 263.184 121.234ZM268.617 132.484L267.759 132.359L267.675 132.351L265.857 129.563C267.451 129.049 269.228 130.929 268.617 132.484ZM264.623 127.454C263.924 127.487 263.364 126.619 263.683 125.999C264.003 125.38 265.039 125.33 265.417 125.916C265.796 126.502 265.322 127.42 264.623 127.454ZM169.301 36.5475L162.736 39.645C157.72 42.0109 151.42 41.3982 146.959 38.1094C146.329 37.9643 145.783 38.7139 145.89 39.3494C145.996 39.9844 146.514 40.4648 147.034 40.8487C150.63 43.5049 155.548 43.8379 159.887 42.7366C164.226 41.6358 168.117 39.2658 171.886 36.8588C171.613 35.9056 170.2 36.1232 169.301 36.5475ZM163.128 50.917C162.59 51.3975 161.656 50.745 161.664 50.024C161.673 49.3024 162.259 48.7231 162.865 48.3275C165.403 46.6685 169.041 46.926 171.318 48.9256C170.816 49.749 169.641 49.5582 168.652 49.3973C168.574 49.3844 168.498 49.3721 168.423 49.3604C166.544 49.066 164.546 49.6536 163.128 50.917ZM150.971 53.6417C151.832 53.4456 152.744 52.7891 152.662 51.9124C152.593 51.1739 151.846 50.6835 151.129 50.4845C149.438 50.0158 147.496 50.625 146.379 51.975C145.262 53.3251 145.034 55.3417 145.819 56.9059C146.198 56.5688 146.505 56.1545 146.812 55.7414C147.267 55.1292 147.718 54.5218 148.389 54.1818C148.897 53.9243 149.465 53.8559 150.036 53.7868C150.351 53.7488 150.665 53.7113 150.971 53.6417ZM168.114 63.3671C169.155 63.3524 169.858 62.2798 170.12 61.275C170.658 59.2086 170.11 56.893 168.702 55.2837C168.065 54.5552 166.979 53.9489 166.168 54.4791C165.918 54.643 165.737 54.8952 165.592 55.1568C164.575 56.9884 165.084 59.2789 165.875 61.2188C166.29 62.2376 167.01 63.3829 168.114 63.3671ZM154.943 63.3711L154.633 60.1491C154.515 58.9231 154.252 57.4812 153.13 56.9627C151.598 56.254 149.98 57.9517 149.578 59.5861C149.147 61.3417 149.396 63.2541 150.262 64.8423C151.048 66.2825 153.005 67.4892 154.255 66.423C155.083 65.716 155.048 64.4526 154.943 63.3711ZM152.355 304.884C160.991 304.628 169.627 304.375 178.263 304.126C179.211 304.099 180.23 304.09 181.017 304.619C181.748 305.109 182.147 306.044 181.995 306.908L156.643 307.384C155.701 307.401 154.726 307.413 153.86 307.044C152.993 306.676 152.262 305.818 152.355 304.884ZM161.226 73.7993C160.301 73.536 160.737 72.1672 161.172 71.3117C162.578 68.5472 161.786 65.1572 160.378 62.3939L160.343 62.326C160.03 61.7139 159.697 61.0596 159.807 60.3855C159.923 59.6868 160.807 59.1051 161.36 59.551C161.526 59.685 161.627 59.881 161.723 60.0718C162.78 62.1703 163.817 64.3274 164.161 66.65C164.506 68.9727 164.062 71.5223 162.464 73.2475C162.14 73.5969 161.684 73.9298 161.226 73.7993ZM162.607 82.603C166.942 81.9108 170.418 77.7049 170.27 73.3329C170.261 73.0731 170.237 72.8022 170.103 72.5792C169.727 71.9531 168.704 72.0994 168.22 72.6477C167.823 73.0983 167.672 73.6964 167.523 74.2862C167.491 74.4132 167.459 74.5396 167.424 74.6643C166.845 76.7686 165.403 78.6231 163.503 79.7087C163.411 79.7613 163.316 79.8134 163.222 79.8655H163.221C162.666 80.171 162.096 80.4852 161.804 81.0347C161.464 81.6778 161.886 82.7177 162.607 82.603ZM189.074 345.887C189.259 351.079 189.838 367.555 189.162 370.545C189.036 371.101 188.831 371.734 188.297 371.936C187.233 372.339 186.608 370.747 186.595 369.613C186.488 360.421 186.381 349.62 186.274 338.819V338.819C186.167 328.018 186.06 317.217 185.953 308.025C187.717 308.025 188.297 314.227 188.297 318.233C188.297 331.692 189.074 345.887 189.074 345.887ZM128.364 231.729C128.106 231.579 127.805 231.429 127.497 231.274C126.268 230.66 124.916 229.984 125.628 229.031C144.441 229.842 163.297 229.655 182.09 228.467C187.412 228.131 193.416 227.355 196.58 223.077C196.706 222.906 196.829 222.729 196.951 222.552C197.372 221.942 197.794 221.329 198.413 220.933C199.212 220.423 200.49 220.488 200.889 221.345C200.325 225.931 196.012 229.754 191.375 229.777C189.346 229.787 188.658 232.426 188.401 234.431C188.144 236.436 186.756 239.005 184.852 238.307C185.332 236.663 185.643 234.97 185.778 233.262C185.824 232.69 185.812 232.026 185.368 231.66C185.022 231.376 184.532 231.375 184.084 231.388L134.43 232.799C134.116 232.808 133.769 232.83 133.544 233.05C133.269 233.318 133.295 233.757 133.34 234.138L136.864 264.076C136.941 264.734 137.21 265.576 137.876 265.579L166.023 265.734C167.52 265.742 169.649 266.881 168.735 268.062C168.361 268.545 167.659 268.589 167.047 268.592L138.4 268.708C137.19 268.712 136.848 270.351 136.893 271.555L137.349 283.874C133.908 281.431 133.671 276.526 133.647 272.317C133.577 260.049 132.477 247.786 130.362 235.7C130.097 234.191 129.692 232.5 128.364 231.729Z" fill="#00160A"/>
<path fill-rule="evenodd" clip-rule="evenodd" d="M192.101 289.886C193.28 287.222 196.026 285.319 198.942 285.145C199.7 285.099 200.561 285.211 201.024 285.811C201.487 286.41 201.089 287.55 200.336 287.452C198.528 287.215 196.724 288.134 195.456 289.439C194.187 290.743 193.36 292.401 192.552 294.029C191.392 293.082 191.496 291.253 192.101 289.886Z" fill="#00160A"/>
<path fill-rule="evenodd" clip-rule="evenodd" d="M320.905 35.0084C322.388 35.1483 323.76 34.2922 324.989 33.4542C328.405 31.1233 332.084 27.9463 331.86 23.8259C331.789 22.5173 331.315 21.2862 330.842 20.0536C330.639 19.5261 330.436 18.9984 330.265 18.4642C329.37 15.6745 329.337 12.7331 329.303 9.78409C329.277 7.3653 329.249 4.94136 328.746 2.59185C328.566 1.74929 328.204 0.792142 327.375 0.552504C326.906 0.417499 326.408 0.55467 325.942 0.691372L311.02 5.05682C308.211 5.87861 307.609 9.51466 307.528 12.4321L307.309 20.3702C306.422 20.4811 305.581 20.1345 304.739 19.7879C304.417 19.6556 304.096 19.5233 303.773 19.4165C300.584 18.3644 296.729 20.1334 295.456 23.2322C294.184 26.3311 295.688 30.2882 298.701 31.767C301.714 33.2458 305.777 32.0216 307.465 29.1266C308.61 27.1608 308.678 24.7739 308.716 22.5005L308.786 18.2317C308.813 16.6364 310.608 15.7517 312.126 15.2445C316.799 13.6823 321.516 12.2485 326.269 10.9452C326.738 10.8164 327.322 10.7198 327.643 11.0852C327.816 11.2826 327.854 11.5607 327.884 11.8213L328.535 17.4101C328.631 18.239 328.537 19.3536 327.719 19.5293C323.769 20.3779 320.256 23.068 318.416 26.6555C317.632 28.1838 317.137 29.9389 317.484 31.6207C317.831 33.302 319.191 34.8475 320.905 35.0084ZM326.941 3.03883C327.108 3.2076 327.156 3.45625 327.196 3.68945L327.649 6.31294C327.769 7.00593 327.882 7.7503 327.58 8.38635C327.104 9.39113 325.839 9.69344 324.741 9.90932C322.204 10.408 319.701 11.0698 317.251 11.8892C315.204 12.5741 313.195 13.3682 311.188 14.1619C311.018 14.229 310.849 14.2961 310.679 14.3631C310.203 14.5512 309.546 14.6869 309.273 14.2561C309.205 14.1482 309.176 14.0207 309.153 13.8954C308.674 11.3515 309.852 8.57654 312.022 7.14C313.217 6.34881 314.63 5.96065 316.015 5.58455L325.755 2.94051C326.157 2.83126 326.648 2.74336 326.941 3.03883ZM307.29 23.9595C307.249 26.4183 306.655 29.2296 304.468 30.4199C302.732 31.3638 300.466 30.9103 298.892 29.7241C297.042 28.3317 296.027 25.5586 297.379 23.6926C297.942 22.9154 298.821 22.4116 299.731 22.082C301.823 21.325 304.212 21.4011 306.249 22.2896C306.574 22.4315 306.906 22.6067 307.094 22.9037C307.289 23.2117 307.296 23.5965 307.29 23.9595ZM46.587 29.4538C46.8398 30.2297 47.9406 30.1999 48.7376 30.0132L55.9853 28.3185C55.7834 26.4369 55.4165 24.5728 54.891 22.7543C54.7359 22.2184 54.5492 21.6578 54.1273 21.291C53.4748 20.723 52.4975 20.8016 51.6379 20.9131L40.5063 22.357C39.7414 22.4561 38.7214 22.9513 39.0128 23.6624C41.5608 29.8927 43.5709 36.3421 45.0134 42.915C45.2891 44.172 45.2428 45.9376 43.9812 46.2138C40.3272 47.012 37.2005 49.8701 36.0874 53.4281C35.7451 54.523 35.5894 55.739 36.0324 56.797C36.2724 57.3705 36.6756 57.8639 37.1268 58.2922C39.2943 60.3498 42.7505 60.9215 45.4687 59.6733C48.187 58.4245 49.9952 55.4341 49.8325 52.4561C49.7711 51.3313 49.4568 50.237 49.1449 49.1544L42.0289 24.4722L51.4506 23.7355C52.3974 23.7884 52.7971 25.1282 52.2968 25.9305C51.797 26.7329 50.804 27.0666 49.8747 27.2529C49.7407 27.2797 49.6055 27.3051 49.4703 27.3305C48.6651 27.4816 47.8458 27.6354 47.1927 28.1152C46.7702 28.4259 46.4249 28.9558 46.587 29.4538Z" fill="#FFB61D"/>
<path fill-rule="evenodd" clip-rule="evenodd" d="M190.549 281.903C190.267 282.269 189.628 282.164 189.356 281.79C189.083 281.416 189.107 280.898 189.256 280.46C189.522 279.676 190.123 279.053 190.754 278.514C192.339 277.16 194.225 276.159 196.237 275.604C197.03 275.385 197.955 275.259 198.612 275.753C199.268 276.247 199.162 277.567 198.343 277.64C195.306 277.911 192.41 279.495 190.549 281.903Z" fill="#00160A"/>
</svg>
