<svg width="60" height="60" viewBox="0 0 60 60" fill="none" xmlns="http://www.w3.org/2000/svg">
<path fill-rule="evenodd" clip-rule="evenodd" d="M55.0001 15.0022C55.0001 8.8733 49.5371 4.1865 43.4796 5.11843L25.9796 7.81075C21.1012 8.56125 17.5001 12.7588 17.5001 17.6945V39.6018C16.3635 39.062 15.0921 38.7598 13.7501 38.7598C8.91762 38.7598 5.00012 42.6773 5.00012 47.5098C5.00012 52.3423 8.91762 56.2598 13.7501 56.2598C18.5825 56.2598 22.5 52.3425 22.5001 47.51V17.6945C22.5001 15.2266 24.3007 13.1279 26.7399 12.7526L44.2399 10.0603C47.2686 9.59433 50.0001 11.9377 50.0001 15.0022V32.1018C48.8636 31.562 47.5921 31.2598 46.2501 31.2598C41.4176 31.2598 37.5001 35.1773 37.5001 40.0098C37.5001 44.8423 41.4176 48.7598 46.2501 48.7598C51.0826 48.7598 54.9999 44.8425 55.0001 40.01V15.0022ZM50.0001 40.0098C50.0001 37.9388 48.3211 36.2598 46.2501 36.2598C44.1791 36.2598 42.5001 37.9388 42.5001 40.0098C42.5001 42.0808 44.1791 43.7598 46.2501 43.7598C48.3211 43.7598 49.9999 42.0808 50.0001 40.0098ZM17.5001 47.5098C17.5001 45.4388 15.8212 43.7598 13.7501 43.7598C11.679 43.7598 10.0001 45.4388 10.0001 47.5098C10.0001 49.5808 11.679 51.2598 13.7501 51.2598C15.8211 51.2598 17.5 49.5808 17.5001 47.5098Z" fill="white"/>
</svg>
