<svg width="380" height="303" viewBox="0 0 380 303" fill="none" xmlns="http://www.w3.org/2000/svg">
<path fill-rule="evenodd" clip-rule="evenodd" d="M218.249 303C263.644 303 303.482 269.395 281.109 223.75C258.736 178.106 341.865 179.581 366.284 148.034C396.064 109.562 387.439 -53.746 196.264 45.8146C165.641 61.763 86.9918 29.4071 60.9035 45.4616C30.1948 64.3591 -13.0101 103.055 30.1948 142.693C51.477 162.218 -24.8239 212.897 8.59434 258.291C41.2019 302.585 64.0599 260.36 113.704 269.395C163.349 278.43 184.534 303 218.249 303Z" fill="#DDAB6C"/>
<path d="M165.558 223.593C165.558 223.593 176.011 218.699 179.913 215.295C183.815 211.891 188.667 203.433 188.667 203.433C188.667 203.433 241.956 241.733 276.702 236.27C284.708 235.011 300.307 229.715 301.302 220.384C304.018 194.905 266.435 188.394 274.644 175.474C279.656 167.586 295.223 179.325 295.223 179.325L359.791 210.931C359.791 210.931 337.484 265.652 283.352 267.844C216.763 270.542 165.558 223.593 165.558 223.593Z" fill="white"/>
<path fill-rule="evenodd" clip-rule="evenodd" d="M114.367 9.29522C113.761 9.0582 110.506 5.09245 106.374 4.37078C104.497 4.04269 106.201 6.42164 104.135 6.44347C97.9806 6.50709 87.9794 5.35629 86.1267 6.44347C84.7497 7.24872 87.782 10.0612 86.1267 10.1903C70.5066 11.4091 46.6771 26.9296 41.5076 34.4594C39.8618 36.8558 53.1691 32.7903 51.0488 33.9748C48.669 35.3046 46.0297 44.0114 44.4521 50.7353C43.3597 55.366 42.6715 61.3252 42.429 67.8084C42.2265 73.4052 42.3074 74.3315 43.1165 77.3915C44.0472 80.814 44.7755 81.8207 46.0297 81.3373C46.4753 81.1764 46.6771 80.5726 46.6771 79.4449C46.6771 78.5592 47.1629 75.9014 47.7696 73.5256L48.8219 69.2579L49.2669 71.0294C49.8335 73.0827 53.1509 79.4449 56.145 84.0755C56.3067 84.3213 57.0011 84.0088 57.6279 82.5019C58.1989 81.1284 57.967 78.9347 58.9372 76.5832C61.1459 71.2271 65.4837 64.2637 70.5066 58.6893C77.9299 50.4515 80.3925 40.917 87.3507 33.2637C100.337 18.9813 116.635 10.1816 114.367 9.29522Z" fill="white"/>
<path fill-rule="evenodd" clip-rule="evenodd" d="M51.2337 35.9177C49.1504 37.5849 46.0579 51.1064 46.0053 51.3322C44.9128 55.9629 43.8599 72.0429 44.936 75.0874C46.0128 78.1319 49.0263 67.1578 49.0263 67.1578C49.0263 67.1578 53.5822 78.9302 57.6079 82.1581C57.7796 82.296 52.8232 67.5925 51.2337 59.0092C49.1353 47.6789 52.4189 34.969 51.2337 35.9177Z" fill="#E7EAEE"/>
<path fill-rule="evenodd" clip-rule="evenodd" d="M128.877 272.73C132.761 271.884 139.315 268.939 141.825 267.933C144.333 266.925 151.98 256.181 154.731 244.06C156.714 235.121 157.725 222.398 156.592 220.263C156.425 219.961 155.813 214.175 157.442 216.064C161.064 220.263 165.363 226.856 178.926 215.042C182.621 211.825 187.517 207.672 186.228 204.001C182.621 193.729 166.983 173.046 164.6 171.479C161.749 169.605 147.343 171.198 125.904 164.9C101.589 157.758 91.465 136.728 81.9501 139.466C74.2554 141.679 55.8192 155.284 51.1925 163.9C29.3486 204.575 55.8192 233.077 61.8474 241.263L67.7007 243.779L67.9032 248.973L68.1858 252.234C68.7123 258.475 68.9141 259.039 71.7465 261.133C78.827 266.489 92.7862 271.481 105.41 273.253C111.277 274.058 124.022 273.776 128.877 272.73Z" fill="white"/>
<path fill-rule="evenodd" clip-rule="evenodd" d="M70.0021 247.072L70.2854 250.333C70.8118 256.574 71.0136 257.138 73.846 259.231C78.0233 262.391 84.5943 265.424 91.8722 267.744C96.9314 269.357 102.333 270.625 107.509 271.351C113.376 272.157 126.121 271.875 130.976 270.828C133.376 270.31 113.636 254.876 102.006 259.231C93.0756 262.576 72.0265 237.066 80.5849 230.401C90.1856 222.924 72.5931 193.436 72.0265 187.034C71.4599 180.632 69.2293 179.103 69.1641 179.327C69.0989 179.552 69.0989 180.318 69.2738 182.163C70.029 190.118 70.0021 247.072 70.0021 247.072Z" fill="#E7EAEE"/>
<path fill-rule="evenodd" clip-rule="evenodd" d="M67.8951 185.207C68.7443 185.042 69.5667 185.594 69.7321 186.44C72.7857 202.052 85.7026 212.622 108.799 218.15C132.034 223.71 147.86 223.41 156.199 217.475C156.903 216.974 156.378 221.264 155.862 221.594C150.424 225.064 131.932 230.243 109.865 225.562C81.6506 219.578 68.4028 195.967 66.656 187.036C66.4911 186.191 67.0452 185.372 67.8951 185.207Z" fill="#FFB61D"/>
<path fill-rule="evenodd" clip-rule="evenodd" d="M56.129 157.036C56.8804 156.609 84.9035 188.571 123.362 195.806C161.82 203.04 171.131 198.44 172.627 188.571C172.757 187.719 173.555 187.133 174.411 187.262C175.267 187.39 175.855 188.185 175.726 189.036C173.83 201.543 156.034 204.518 122.834 198.88C90.0517 193.313 67.5761 180.086 55.5473 159.164C55.1174 158.417 55.3781 157.464 56.129 157.036Z" fill="#FFB61D"/>
<path fill-rule="evenodd" clip-rule="evenodd" d="M217.543 155.265C216.49 154.903 215.358 154.097 214.63 153.171L213.416 151.681L217.704 147.453C224.3 141.011 229.357 134.407 233.727 126.555C235.184 123.938 238.865 115.2 238.865 114.355C238.865 114.073 239.311 112.945 239.837 111.778C240.646 110.087 241.252 109.442 242.992 108.476C245.056 107.268 247.403 106.866 248.414 107.55C250.356 108.839 250.356 112.905 248.414 119.911C246.27 127.602 243.397 133.118 237.449 141.051C236.519 142.259 234.779 144.635 233.525 146.286C230.166 150.715 227.981 152.849 225.028 154.5C222.115 156.11 220.415 156.312 217.543 155.265ZM246.593 151.641L249.506 152.93C250.111 153.207 256.775 156.393 264.779 160.221C277.685 166.393 294.075 174.23 294.175 174.23C294.337 174.23 295.096 172.483 295.267 170.445C295.672 166.056 297.169 160.096 298.909 155.949C299.718 154.097 300.365 151.782 300.365 151.581C300.365 151.489 299.708 151.225 298.631 150.793C297.349 150.278 295.474 149.525 293.407 148.54C283.21 143.668 263.263 133.723 260.795 132.233C258.367 130.824 257.882 130.703 257.882 131.629C257.882 132.837 255.414 138.434 253.512 141.453C252.501 143.105 250.518 146.084 249.102 148.057L246.593 151.641ZM293.487 166.982C294.647 167.651 292.637 168.633 292.152 168.794C289.293 169.036 285.927 168.501 283.17 166.901C281.728 165.884 270.374 159.607 262.843 155.443C259.4 153.54 256.756 152.078 256.223 151.762C254.524 150.755 252.905 149.668 252.622 149.346C251.773 148.258 252.582 147.776 254.969 147.977C256.404 148.098 290.981 165.537 293.487 166.982ZM129.015 272.398C132.136 271.718 136.981 269.683 140.066 268.388C140.82 268.071 141.469 267.798 141.962 267.601C144.472 266.593 152.118 255.849 154.869 243.728C156.852 234.789 157.863 222.066 156.731 219.931C156.048 218.696 160.105 222.842 163.127 225.929C164.044 226.865 164.865 227.704 165.43 228.266C183.07 245.702 209.329 259.714 236.599 266.277C250.194 269.579 259.865 270.747 272.853 270.747C294.661 270.747 311.856 266.479 327.474 257.097C328.216 256.651 328.911 256.242 329.574 255.851C335.018 252.643 338.261 250.732 347.138 240.789C357.095 229.636 365.952 203.745 368.906 194.806C370.2 190.779 373.357 174.764 373.357 170.767C373.357 166.036 371.698 163.801 369.432 161.506C365.426 157.6 360.004 156.191 355.513 157.882L353.409 158.687L352.762 156.554C351.831 153.332 349.89 150.755 346.895 148.822C342.445 145.883 341.797 145.682 337.792 145.682C334.676 145.682 333.826 145.843 331.844 146.769L329.537 147.816L329.052 146.366C328.121 143.386 325 139.233 322.578 138.031C320.431 136.966 316.713 136.868 314.122 137.347C308.458 138.393 304.412 141.011 302.753 144.675C302.267 145.802 301.66 146.689 301.418 146.689C301.215 146.689 293.245 144.473 283.736 140.285C282.132 139.577 280.626 138.912 279.211 138.288C262.137 130.756 258.436 129.124 258.772 127.079C259.055 125.347 258.974 124.381 258.489 122.891C257.639 120.395 256.668 119.71 253.917 119.71C251.732 119.71 251.732 119.71 251.974 118.623C253.269 112.463 253.229 108.919 251.854 106.664C250.923 105.174 249.83 104.57 247.321 104.208C245.865 104.007 245.177 104.128 243.559 105.013C242.467 105.577 241.536 105.979 241.455 105.899C241.374 105.819 241.657 103.604 242.102 100.986C245.42 81.6186 242.857 64.9317 234.401 47.2149C234.32 47.0453 234.226 46.845 234.119 46.6155C231.548 41.1228 221.211 19.0368 191.648 7.8924C190.31 7.3878 189.044 6.90003 187.827 6.4316C177.757 2.55256 171.062 -0.0266137 154.91 0.000207209C136.805 0.0301468 130.674 2.57751 118.738 8.01341C117.079 8.77812 115.623 9.22098 115.501 9.06005C115.38 8.85858 114.611 8.3758 113.842 7.97287C113.074 7.57055 111.415 6.56383 110.201 5.75858C106.721 3.42267 104.577 2.4565 103.484 2.69789C102.23 3.02036 102.23 4.067 103.484 4.5504C104.01 4.75187 104.617 5.43611 104.86 6.12098C105.386 7.57056 105.993 7.73148 106.357 6.5233C106.519 6.08044 106.762 5.75859 106.883 5.83905C106.929 5.86151 107.083 5.93386 107.318 6.04301C107.91 6.31871 109.014 6.83329 110.201 7.40901C111.86 8.21426 113.68 9.06005 114.166 9.26152C115.056 9.58337 114.773 9.82538 110.929 12.0802C95.918 20.8581 83.6993 34.5081 76.8614 50.0504C75.8091 52.3857 74.8789 53.8353 73.9075 54.6412C71.4393 56.6945 66.5844 62.5328 65.4512 64.8281C64.8445 66.0762 63.5496 68.0092 62.538 69.1363C61.5672 70.264 60.5148 71.7136 60.1507 72.3174C59.8273 72.9617 59.5039 73.4046 59.3823 73.3241C59.3014 73.2031 59.4224 71.2302 59.7057 68.9355C60.313 63.58 60.313 62.1704 59.8273 62.05C59.099 61.8485 58.0473 64.6672 57.6017 68.1701C57.2783 70.3039 57.1974 73.5256 57.3998 76.827L57.6424 82.0621L54.77 77.4314C53.7822 75.8827 52.8095 74.3346 52.1181 73.2349V73.2343H52.1175V73.2337L52.1163 73.2312L52.115 73.2299V73.2293L52.1144 73.2287L52.1131 73.2268C51.675 72.5288 51.3504 72.013 51.2093 71.7941C50.157 70.264 49.5503 67.9687 49.9953 67.2039C50.2379 66.7611 50.1977 66.5596 49.7929 66.5596C48.9436 66.5596 47.2846 69.2573 46.1921 72.3579C45.6663 73.8075 45.1398 75.0151 44.9781 75.0151C44.3714 75.0151 44.6547 60.6004 45.3021 55.9697C46.6371 46.8294 50.157 35.5547 51.7352 35.5547C52.0586 35.5547 52.3419 35.3938 52.3419 35.1524C52.3419 34.4276 51.2902 34.7095 50.4403 35.6358C48.5387 37.6891 46.0304 44.0108 44.4522 50.7353C43.3598 55.366 42.6722 61.3252 42.429 67.8077C42.2272 73.4046 42.3081 74.3308 43.1172 77.3909C44.048 80.8134 44.7763 81.8201 46.0304 81.3373C46.4754 81.1758 46.6779 80.572 46.6779 79.4443C46.6779 78.5585 47.163 75.9014 47.7703 73.5256L48.822 69.2573L49.267 71.0287C49.8336 73.0827 53.151 79.4449 56.1451 84.0749C58.209 87.2161 58.2491 87.4169 58.9373 92.3295C59.3014 95.1076 60.434 101.866 63.0639 112.261C65.3879 121.446 78.4509 130.557 81.7131 132.833L81.715 132.834C82.1437 133.133 82.4026 133.314 82.4446 133.36C82.8495 133.803 83.416 134.045 83.7395 133.924C84.1036 133.803 84.306 133.964 84.306 134.407C84.306 134.81 84.5893 135.333 84.9128 135.575C85.3176 135.857 85.6009 136.944 85.6818 138.836C85.8842 142.621 88.7159 149.869 90.9008 152.245C92.3173 153.775 95.2706 154.419 98.5479 153.855C100.693 153.533 101.299 153.292 101.097 152.809C100.976 152.487 101.744 152.889 102.797 153.694C115.096 163.036 127.558 168.633 141.557 171.049C146.98 171.975 155.962 172.498 160.857 172.136C165.187 171.855 165.187 171.855 164.985 172.7C164.701 173.828 165.065 174.512 171.013 184.538C175.747 192.471 176.152 192.994 181.411 198.349C192.578 209.825 204.757 218.724 218.554 225.609C231.542 232.051 252.278 237.407 271.234 239.098C290.19 240.789 303.804 223.475 303.764 219.046C303.684 212.965 302.834 208.979 300.77 205.114C298.747 201.369 297.412 200.081 291.343 196.054C284.586 191.585 280.419 187.92 277.667 184.014C275.927 181.558 275.28 178.78 275.28 177.29C275.28 176.324 276.534 174.149 278.396 173.706C280.095 173.264 280.419 173.304 282.32 174.23C283.453 174.753 286.407 176.122 288.834 177.29C291.302 178.418 293.69 179.545 294.175 179.787C295.606 180.182 296.212 182.971 296.54 184.482C296.613 184.82 296.673 185.094 296.724 185.263C297.291 187.356 299.971 190.06 301.701 190.98C304.738 192.597 312.221 192.813 314.285 190.599C314.811 190.035 316.555 189.341 316.914 189.551C317.274 189.762 318.573 191.504 318.573 192.913C318.614 195.329 319.868 197.544 322.538 199.758C327.596 203.946 331.52 204.953 335.485 203.1C337.549 202.134 339.24 201.757 339.24 201.757C339.24 201.757 340.927 203.899 341.028 204.63C341.823 210.351 350.334 212.75 352.6 212.992C353.119 213.043 354.13 212.822 355.156 212.597C356.529 212.297 357.93 211.99 358.224 212.321C358.802 212.97 348.554 229.837 347.138 231.971C333.665 252.104 307.446 264.425 275.361 265.714C254.524 266.559 228.912 260.761 206.699 250.211C192.497 243.406 179.915 235.071 166.441 223.394C164.095 221.381 161.383 219.086 160.412 218.281C159.441 217.516 157.135 214.898 155.355 212.483C152.361 208.456 150.661 207.006 150.661 208.375C150.661 208.979 152.604 212.683 154.829 216.348C155.719 217.798 156.285 218.804 156.083 218.643C155.881 218.482 155.233 221.381 154.627 225.085C152.644 236.964 149.366 248.681 146.049 255.969C144.228 259.916 140.737 262.862 139.685 263.667C135.801 266.607 129.986 267.928 121.934 268.733C111.738 269.74 96.7272 267.485 85.2769 263.217C82.2428 262.09 74.4333 258.828 73.9075 258.466C73.8761 258.434 73.6969 257.276 73.4468 255.659C73.376 255.203 73.3001 254.711 73.2199 254.198C71.7633 244.252 69.7401 205.96 69.7401 188.242C69.7401 180.914 69.6593 179.303 69.1735 179.303C68.162 179.303 67.7577 180.27 67.3127 183.733C66.3011 191.625 66.5035 232.817 67.596 241.473L67.8385 243.447L66.4628 242.682C64.3588 241.473 56.3475 233.38 53.5559 229.635C51.1924 226.434 49.7878 222.334 48.7368 219.266C48.4923 218.553 48.2673 217.895 48.053 217.318C42.1865 201.131 44.2498 182.968 52.3419 166.62C59.2206 152.688 67.6768 144.957 80.0579 141.212C82.0804 140.608 83.861 139.964 84.0635 139.803C84.8319 139.078 79.8955 139.441 77.1848 140.286C68.3644 142.984 59.1397 150.352 52.8684 159.775C44.048 172.982 40.0825 192.471 42.874 209.1C43.5215 213.046 46.1514 221.582 46.8797 222.186C46.9442 222.25 47.277 222.945 47.7803 223.996C49.1724 226.902 51.8674 232.528 53.7985 235.071C56.1451 238.253 63.2262 245.178 66.1795 247.312L68.041 248.641L68.3243 251.902C68.8501 258.144 69.0526 258.707 71.8843 260.801C78.9654 266.157 92.924 271.149 105.548 272.921C111.415 273.727 124.16 273.445 129.015 272.398ZM265.772 234.588C242.264 232.535 213.861 221.38 193.307 204.147C184.649 196.859 173.4 182.686 168.949 174.834C168.019 173.223 167.331 172.458 166.522 172.257C165.672 172.016 166.4 171.774 169.88 171.21C184.567 168.713 198.85 162.633 210.381 153.976L212.081 152.728L212.566 153.896C213.659 156.513 217.866 159.171 220.982 159.171C222.236 159.171 226.444 157.278 228.993 155.547L230.733 154.379L232.149 155.788C233.444 157.077 233.686 157.157 236.114 157.157C238.906 157.157 242.264 155.909 244.126 154.137L245.137 153.211L248.01 155.104C249.547 156.191 253.836 158.566 257.518 160.459C263.021 163.278 268.847 166.539 274.39 169.922L275.28 170.486L274.43 171.613C273.54 172.821 271.882 175.116 271.882 178.619C271.882 182.565 276.005 189.655 283.898 194.524C290.099 198.349 300.77 205.873 300.365 216.871C300.317 218.2 298.828 221.502 296.846 224.482C295.551 226.374 291.95 229.193 288.673 230.844C283.089 233.622 273.257 235.232 265.772 234.588ZM50.036 53.8353C51.1285 54.0773 51.8568 54.4397 51.6944 54.6006C51.1686 55.124 48.377 54.8826 47.7296 54.2383C46.718 53.2721 46.9605 52.5872 48.377 52.3053C49.1053 52.1849 50.1977 51.5805 50.8044 50.9767C51.4118 50.3729 51.9376 50.091 51.9376 50.2925C51.9376 50.8158 49.9144 52.6677 48.9029 53.0706C48.2554 53.3525 48.4579 53.4729 50.036 53.8353ZM66.1394 54.4796C67.3127 53.8353 67.0695 53.3925 65.6938 53.5939C64.3187 53.7954 64.2378 53.6345 65.1278 52.2654C65.492 51.742 65.6938 50.9767 65.6129 50.5738C65.492 50.0505 65.2087 50.2925 64.5612 51.5805C64.0755 52.5067 63.3879 53.2721 63.0639 53.2721C62.0529 53.2721 61.9714 54.0773 62.9429 54.4397C64.1971 54.963 65.1679 54.963 66.1394 54.4796ZM52.1401 32.4946C51.1686 32.6556 48.1345 33.8637 45.4638 35.1923C42.7531 36.481 40.4466 37.5681 40.2849 37.5282C36.1577 37.0854 41.9032 30.2398 52.3419 23.2339C62.3356 16.5094 69.0927 12.9659 75.3641 11.1539C79.2888 10.0262 83.6993 9.86529 84.9535 10.7915C85.641 11.3149 85.3985 11.3554 82.4045 11.3953C75.9306 11.3953 68.4452 14.6974 56.2667 22.7905C49.9552 26.9783 42.6315 32.978 42.6315 33.9442C42.6315 34.1457 43.8048 33.7427 45.2614 33.099C48.377 31.6894 51.5735 30.9646 52.9893 31.2871C54.4867 31.6894 54.1626 32.2127 52.1401 32.4946ZM67.7978 35.9576C71.6016 35.1923 71.7633 35.1524 71.7633 34.7495C71.7633 34.5486 70.3067 34.3471 68.486 34.2667L65.2087 34.1457L68.2428 30.7232C69.9018 28.8308 71.8442 26.9383 72.5317 26.4955C74.0291 25.5287 74.1099 24.8444 72.8959 24.4415L71.9658 24.1596L72.9767 23.7972C73.5433 23.5963 74.5956 23.5152 75.3239 23.6363C76.4164 23.7972 76.6589 23.7167 76.5374 23.1529C76.4164 22.5896 75.9714 22.4686 73.9883 22.5092C68.2027 22.5896 65.7345 24.1197 70.266 24.8444C71.5201 25.0459 72.5725 25.3678 72.5725 25.5692C72.5725 25.7302 72.37 25.8911 72.1275 25.8911C71.3584 25.8911 64.8445 32.4547 64.0354 34.0652C62.7812 36.441 63.4688 36.8034 67.7978 35.9576ZM94.5022 20.3348C93.3289 20.4153 93.0456 20.6161 93.1264 21.18L93.139 21.2623C93.1841 21.5598 93.2104 21.7314 93.1434 21.7831C93.0525 21.853 92.7924 21.7064 92.1807 21.3608L92.0741 21.301C91.3057 20.898 91.2249 20.6972 91.6699 20.3747C91.9532 20.1333 92.7216 19.7709 93.3289 19.6499L94.4614 19.368L93.6122 18.4823C93.1666 17.959 92.924 17.4756 93.0456 17.3146C93.369 16.9928 97.3345 17.4356 97.9005 17.8785C98.1437 18.0793 98.5078 18.0394 98.7504 17.798C99.317 17.2342 100.085 17.677 100.085 18.5627C100.085 19.0461 99.9644 19.0861 99.6003 18.7237C99.2762 18.4018 98.9929 18.4018 98.6288 18.6837C98.3054 18.9657 98.0628 18.9657 97.8604 18.6432C97.7388 18.4417 96.9704 18.2409 96.1612 18.2409C95.4141 18.2409 95.0613 18.2409 94.9892 18.3825C94.9246 18.5091 95.0863 18.7499 95.3922 19.2071C96.0377 20.2107 95.9995 20.2138 94.516 20.3335L94.5022 20.3348ZM88.3518 9.62391C88.3518 9.10059 87.8667 8.17434 87.2593 7.57056L86.1268 6.44283L92.1957 6.68422C95.5539 6.84577 99.3571 7.20817 100.693 7.57056C102.028 7.89241 103.565 8.1338 104.132 8.1338C104.982 8.1338 104.819 7.97286 103.242 7.12707C100.49 5.71804 96.9704 5.0338 90.2133 4.5504C82.1212 3.98654 78.0347 4.75187 78.8031 6.76468C78.9247 7.16762 79.5721 7.36908 80.543 7.36908C82.5254 7.36908 85.7626 8.53673 86.8551 9.62391C88.0284 10.7916 88.3518 10.7916 88.3518 9.62391ZM68.607 116.247C71.8843 120.435 76.2139 125.186 78.2371 126.797C79.4505 127.764 80.5029 128.569 80.5837 128.569C80.6238 128.569 79.7338 126.716 78.6013 124.462C74.0291 115.402 71.3584 106.382 70.1043 95.994C69.821 93.6986 69.376 91.7656 68.8902 90.9604C67.9194 89.3499 67.9194 87.256 68.931 85.2831C69.4568 84.2365 69.7401 82.9073 69.7401 81.4577V79.2434L67.7978 81.2562C65.8962 83.2297 64.0755 84.035 64.0755 82.8268C64.0755 81.9411 67.0695 77.6728 68.6477 76.3443C69.9018 75.297 70.0635 74.9346 70.4684 71.7941C70.7517 69.9016 71.3992 66.5596 71.925 64.3447C72.4916 62.1304 72.815 60.238 72.7342 60.1575C72.4509 59.8756 62.9429 70.7431 61.648 74.2098C61.3635 74.9714 60.5963 76.3037 59.989 77.109L58.9373 78.4531C58.9373 78.4531 59.2638 80.3356 59.6248 82.7008C59.9896 85.091 60.1607 86.7339 60.3137 88.1972C60.5174 90.1545 60.6878 91.7906 61.2431 94.4639C61.8906 97.7654 62.538 100.624 62.6997 100.825C62.8213 101.067 63.3472 102.919 63.8737 104.973C65.0062 109.523 66.9078 114.033 68.607 116.247ZM232.796 154.339L231.947 153.493C231.947 153.493 246.049 135.662 248.576 129.092C250.504 124.079 251.639 122.656 253.17 122.656C254.027 122.656 254.726 122.851 255.049 123.334C255.616 124.18 256.162 125.227 255.434 128.81C254.22 134.609 252.359 138.434 246.775 146.689C245.481 148.581 243.822 150.675 243.093 151.4C241.394 152.97 237.571 154.58 235.345 154.942C233.929 155.144 233.525 155.064 232.796 154.339Z" fill="#00160A"/>
<path d="M344.832 193.73C349.866 180.081 349.104 177.173 348.231 176.889C348.231 176.889 346.308 177.976 345.459 180.271C343.881 184.58 338.48 195.854 336.457 197.867C334.07 200.243 334.07 200.243 331.642 200.243C329.214 200.243 322.213 196.605 321.259 193.018C319.734 187.28 326.301 167.346 326.463 166.219L325.37 165.453C324.642 166.138 315.169 194.727 302.713 187.277C301.286 186.424 298.262 182.405 298.019 180.271C296.671 174.07 302.857 152.387 303.909 147.934C304.851 143.947 309.753 140.247 315.781 140.247C325.047 140.247 323.802 148.307 327.953 151.147C329.791 152.406 332.814 150.124 333.746 149.951C338.965 148.985 340.965 150.11 344.792 153.132C347.745 155.465 349.931 160.082 352.336 161.708C353.672 162.612 355.09 161.377 355.554 161.145C357.458 160.194 361.543 160.903 362.675 161.708C364.336 162.429 368.406 166.323 369.049 168.587C371.963 178.85 362.762 201.603 359.287 205.871C353.538 212.936 339.798 207.379 344.832 193.73Z" fill="white"/>
<path fill-rule="evenodd" clip-rule="evenodd" d="M112.224 156.33C123.31 163.297 134.742 167.846 147.77 169.095C158.047 170.061 171.904 168.732 181.856 165.511C190.232 162.813 201.561 155.34 209.127 149.018C223.814 136.777 233.08 117.657 237.126 97.3637C237.692 94.5044 238.556 87.3183 238.516 80.1914C238.516 71.8963 234.848 49.2295 223.733 36.1597C200.81 9.20283 163.13 -2.94017 131.462 7.43577C120.038 11.1782 107.876 17.9595 98.691 26.8179C87.1191 38.0521 78.582 53.3531 75.1837 68.9759C71.6231 85.4851 76.2549 105.215 84.3062 121.402C90.7393 134.287 101.34 149.445 112.224 156.33ZM220.254 107.672C212.647 130.421 192.822 147.414 167.898 152.568C164.095 153.333 161.465 153.615 156.124 153.695C152.361 153.816 148.598 153.775 147.83 153.695C130.391 151.601 117.12 145.199 104.901 133.039C99.5597 127.684 97.294 124.785 93.9765 119.067C88.7569 110.007 85.9653 100.746 85.1154 89.5919C82.2022 51.3802 109.675 19.5295 148.356 16.228C163.528 14.9394 180.36 19.57 193.145 28.5893C197.879 31.9313 206.457 40.3874 209.127 44.3332C210.22 45.9038 220.82 61.3258 222.682 70.1841C225.068 81.7003 224.138 96.1149 220.254 107.672Z" fill="white"/>
<path fill-rule="evenodd" clip-rule="evenodd" d="M238.53 80.1903C238.53 107.217 225.684 136.765 209.105 149.384C201.195 155.404 190.858 162.694 181.856 165.511C168.664 169.638 147.769 169.094 147.769 169.094C147.769 169.094 169.087 166.258 176.986 163.094C199.639 154.021 212.005 140.094 219.642 126.732C234.715 100.355 238.53 79.5341 238.53 80.1903Z" fill="#E7EAEE"/>
<path fill-rule="evenodd" clip-rule="evenodd" d="M148.234 148.863C137.431 147.494 126.709 143.668 118.05 137.991C112.912 134.649 105.143 126.797 101.38 121.201C95.9996 113.147 92.439 104.53 90.6991 95.2692C89.445 88.5446 89.4851 78.1967 90.7392 72.197C92.0341 66.0768 93.6932 61.4056 96.6464 55.4869C100.086 48.6414 103.728 43.6084 109.189 38.1725C118.495 28.9112 129.298 23.0324 142.165 20.2137C146.332 19.328 161.424 18.6033 161.95 19.2881C162.071 19.489 162.881 20.0129 163.73 20.4558C164.58 20.9385 166.846 22.6301 168.707 24.2805C171.499 26.6969 172.753 28.227 175.181 32.0118C176.84 34.5891 178.175 36.9244 178.175 37.1259C178.175 37.5687 179.47 38.374 180.198 38.374C181.21 38.374 181.897 35.3538 182.1 30.0389C182.221 27.0992 182.464 24.6835 182.625 24.6835C183.192 24.6835 189.423 28.1059 192.336 30.0389C198.041 33.8238 203.746 39.1387 207.954 44.6956C209.856 47.1918 210.139 47.8361 210.139 49.3662C210.139 50.7758 210.543 51.863 211.797 54.0374C214.954 59.5132 217.421 66.3987 218.919 74.0089C219.889 79.123 219.889 88.7866 218.878 94.1421C216.127 108.879 207.954 123.536 197.313 132.837C188.29 140.689 178.701 145.521 167.372 147.897C163.487 148.742 151.835 149.306 148.234 148.863ZM119.304 121.321C119.669 120.919 119.912 120.314 119.79 120.033C119.754 119.948 119.247 119.711 118.505 119.364C116.777 118.555 113.771 117.149 112.469 115.684C107.29 109.805 105.388 105.416 104.215 96.3563C103.082 87.5385 104.034 81.5768 106.076 71.9955C107.073 67.3218 109.721 63.4608 111.368 61.0594C112.488 59.4259 113.146 58.4672 112.507 58.3861C110.929 58.1441 110.687 58.2651 109.027 59.8357C105.467 63.2176 103.849 65.9153 102.149 71.1098C99.5195 79.2434 99.0112 101.225 104.215 111.134C109.419 121.043 118.374 122.368 119.304 121.321ZM176.84 87.498C176.152 93.7528 173.238 102.799 169.84 106.745C168.262 108.597 162.469 111.778 157.58 111.134C152.857 110.512 149.165 108.315 146.009 103.604C143.297 99.5374 141.898 94.6011 140.951 88.3837C139.316 77.6478 146.454 65.1506 149.529 62.0499C152.644 58.8689 154.869 57.7418 157.702 57.7012C160.453 57.7012 162.233 58.3056 165.025 60.2785C170.123 63.822 178.175 75.3431 176.84 87.498ZM122.298 54.1983C123.108 53.272 123.229 52.8292 122.987 51.0977C122.825 49.4872 122.501 48.8428 121.651 48.1586C120.154 46.9504 118.293 46.9504 116.918 48.2391C115.946 49.1653 115.825 49.4872 115.946 51.7015C116.068 54.0773 116.149 54.2382 117.484 54.963C119.264 55.9298 121.004 55.6479 122.298 54.1983ZM147.546 29.3541C140.263 34.5486 137.108 36.6824 133.83 38.6958C131.24 40.3063 130.431 40.3469 130.431 38.8973C130.431 38.132 130.998 37.2868 132.455 35.9576L134.477 34.1057L130.553 33.5824C126.142 33.0185 121.853 31.8103 120.923 30.8841C119.385 29.3141 120.721 28.9517 125.091 29.757C127.032 30.0788 130.795 30.4818 133.466 30.5622L138.321 30.7637L141.841 28.227C149.569 22.67 157.58 19.5295 161.424 20.4957C163.811 21.0595 163.528 21.7039 160.817 22.0257C157.702 22.3881 155.8 23.4354 147.546 29.3541Z" fill="white"/>
<path d="M157.944 105.618C157.944 105.416 158.187 105.215 158.511 105.215C158.834 105.215 159.239 105.416 159.36 105.618C159.482 105.859 159.239 106.021 158.794 106.021C158.308 106.021 157.944 105.859 157.944 105.618Z" fill="white"/>
<path d="M160.372 105.254C160.372 104.811 161.383 104.409 162.516 104.409C163.406 104.449 163.406 104.449 162.638 105.013C161.747 105.697 160.372 105.818 160.372 105.254Z" fill="white"/>
<path d="M154.101 104.208C153.979 103.886 153.818 103.322 153.696 103C153.574 102.598 153.777 102.396 154.303 102.396C154.748 102.396 155.112 102.637 155.112 102.96C155.112 103.282 155.234 103.805 155.355 104.167C155.517 104.611 155.395 104.812 154.95 104.812C154.586 104.812 154.182 104.53 154.101 104.208Z" fill="white"/>
<path d="M156.245 103.2C156.043 101.992 156.488 101.59 157.944 101.59C158.389 101.59 158.753 101.992 158.916 102.677C159.239 103.844 158.713 104.408 157.297 104.408C156.649 104.408 156.367 104.126 156.245 103.2Z" fill="white"/>
<path d="M152.118 103.402C151.349 102.798 151.349 102.798 152.199 102.798C152.725 102.798 153.089 103.04 153.089 103.402C153.089 104.127 153.089 104.127 152.118 103.402Z" fill="white"/>
<path d="M160.25 103.361C159.725 102.838 159.967 101.268 160.615 101.026C161.788 100.583 162.314 100.784 162.557 101.831C162.719 102.435 162.799 102.959 162.719 102.999C162.395 103.361 160.493 103.603 160.25 103.361Z" fill="white"/>
<path d="M163.851 102.518C163.73 102.397 163.609 101.874 163.609 101.391C163.609 100.706 163.933 100.424 164.904 100.223C165.754 100.062 166.28 100.142 166.522 100.464C166.927 101.109 166.927 101.914 166.563 102.115C165.835 102.518 164.135 102.76 163.851 102.518Z" fill="white"/>
<path d="M150.257 101.269C150.257 100.786 150.621 100.383 151.147 100.262C152.199 99.9803 152.159 99.9398 152.361 100.987C152.442 101.591 152.24 101.833 151.39 101.913C150.5 102.034 150.257 101.873 150.257 101.269Z" fill="white"/>
<path d="M153.332 101.308C152.765 100.704 153.129 99.5768 153.898 99.5768C154.424 99.5768 154.708 99.8587 154.708 100.342C154.708 101.107 153.777 101.751 153.332 101.308Z" fill="white"/>
<path d="M155.759 100.102C155.436 99.3366 156.123 98.7727 157.458 98.7727C158.066 98.7727 158.349 99.0147 158.349 99.5381C158.349 99.9809 157.985 100.384 157.458 100.545C156.123 100.867 156.043 100.867 155.759 100.102Z" fill="white"/>
<path d="M167.453 99.9797C167.574 99.7782 167.776 99.5768 167.898 99.5768C168.02 99.5768 167.979 99.7782 167.857 99.9797C167.736 100.221 167.534 100.383 167.412 100.383C167.291 100.383 167.331 100.221 167.453 99.9797Z" fill="white"/>
<path d="M159.401 99.2955C159.078 98.4902 159.482 98.0873 160.777 97.8858C161.505 97.8053 161.829 97.9669 161.91 98.5301C162.193 99.8593 159.887 100.584 159.401 99.2955Z" fill="white"/>
<path d="M149.69 98.6118C149.326 97.2833 149.407 97.1623 150.459 97.1623C151.025 97.1623 151.47 97.3238 151.47 97.5247C151.47 97.7261 151.592 98.169 151.713 98.4914C151.834 98.8938 151.592 99.1358 150.904 99.2562C150.135 99.4171 149.852 99.2562 149.69 98.6118Z" fill="white"/>
<path d="M163.204 98.1677C163.204 97.443 163.487 97.1205 164.256 96.919C165.389 96.6371 166.036 97.2009 166.036 98.4896C166.036 99.0129 165.713 99.1738 164.621 99.1738C163.366 99.1738 163.204 99.0535 163.204 98.1677Z" fill="white"/>
<path d="M148.476 98.1684C148.355 97.8465 148.436 97.5646 148.638 97.5646C148.881 97.5646 149.043 97.8465 149.043 98.1684C149.043 98.4908 148.962 98.7728 148.881 98.7728C148.8 98.7728 148.638 98.4908 148.476 98.1684Z" fill="white"/>
<path d="M152.563 98.4908C151.997 97.9675 152.32 96.8398 153.048 96.6383C153.493 96.5179 153.938 96.5579 154.06 96.6789C154.546 97.1217 154.262 98.2894 153.655 98.5308C152.887 98.8127 152.887 98.8127 152.563 98.4908Z" fill="white"/>
<path d="M167.008 98.2095C166.562 97.0412 167.048 96.1555 168.181 96.0351C169.03 95.9141 169.273 96.0751 169.273 96.7194C169.273 98.048 168.828 98.7728 168.018 98.7728C167.573 98.7728 167.129 98.5314 167.008 98.2095Z" fill="white"/>
<path d="M155.395 97.6849C154.91 97.2421 155.072 96.4368 155.759 96.1954C156.528 95.9135 158.147 96.7188 157.702 97.1616C157.135 97.645 155.678 98.0074 155.395 97.6849Z" fill="white"/>
<path d="M158.915 96.6776C158.551 96.1137 159.846 95.1476 160.898 95.1476C161.383 95.1476 161.585 95.3889 161.505 95.8318C161.343 96.6371 159.279 97.2814 158.915 96.6776Z" fill="white"/>
<path d="M147.829 96.3963C147.829 96.1948 147.708 95.752 147.586 95.3896C147.465 95.0272 147.506 94.7452 147.748 94.7452C148.274 94.7452 148.679 96.2753 148.193 96.5978C147.991 96.7188 147.829 96.6377 147.829 96.3963Z" fill="white"/>
<path d="M148.921 95.4713C148.679 94.5856 149.165 93.9412 150.095 93.9412C150.621 93.9412 151.147 95.5118 150.824 96.0351C150.378 96.72 149.124 96.3171 148.921 95.4713Z" fill="white"/>
<path d="M151.754 95.6709C151.147 95.0671 151.511 93.6175 152.32 93.4161C152.927 93.2551 153.251 93.456 153.574 94.1808C153.817 94.7047 153.938 95.228 153.858 95.3085C153.453 95.6709 151.996 95.9528 151.754 95.6709Z" fill="white"/>
<path d="M162.678 95.6721C162.152 95.1488 162.395 94.8263 163.609 94.3835C164.621 94.0616 164.904 94.1015 165.106 94.5849C165.47 95.5511 163.447 96.4774 162.678 95.6721Z" fill="white"/>
<path d="M166.239 94.7446C165.834 94.1009 166.4 93.537 167.452 93.537C168.707 93.537 169.071 94.5837 167.938 94.9062C166.724 95.228 166.522 95.1881 166.239 94.7446Z" fill="white"/>
<path d="M169.678 93.7791C169.678 93.1753 170.406 92.531 170.73 92.8528C171.013 93.1348 170.447 94.3429 170.042 94.3429C169.839 94.3429 169.678 94.1009 169.678 93.7791Z" fill="white"/>
<path d="M147.303 93.2564C147.141 93.1354 147.019 92.6121 147.06 92.1692C147.06 91.4039 147.1 91.4039 147.464 92.2902C147.869 93.2564 147.788 93.7398 147.303 93.2564Z" fill="white"/>
<path d="M148.072 92.6526C147.708 91.243 147.748 91.1226 148.8 91.1226C149.974 91.1226 150.702 92.6121 149.812 93.1759C148.881 93.7398 148.355 93.5789 148.072 92.6526Z" fill="white"/>
<path d="M161.99 93.4572C161.99 93.3368 162.192 92.6925 162.435 91.9677C163.001 90.3566 164.256 90.2761 164.54 91.8467C164.66 92.4505 164.701 92.9744 164.66 93.0143C164.458 93.2557 161.99 93.6181 161.99 93.4572Z" fill="white"/>
<path d="M150.944 92.4518C150.783 92.3308 150.661 91.8473 150.661 91.4045C150.661 90.7602 150.783 90.7202 151.268 91.1226C151.592 91.4045 151.875 91.8879 151.875 92.1698C151.875 92.7736 151.389 92.9345 150.944 92.4518Z" fill="white"/>
<path d="M165.51 91.6452C165.268 90.3971 165.794 89.8333 167.048 89.9942C167.655 90.0747 167.857 90.437 167.857 91.3234C167.857 92.3301 167.695 92.5715 166.805 92.652C165.915 92.773 165.713 92.5715 165.51 91.6452Z" fill="white"/>
<path d="M169.475 91.8062C168.949 90.195 169.111 89.7123 170.204 89.5913C171.174 89.4703 171.296 89.5913 171.296 90.6385C171.296 91.5242 171.053 91.8866 170.446 92.0476C170.001 92.1686 169.556 92.0476 169.475 91.8062Z" fill="white"/>
<path d="M146.696 89.5108C146.696 88.7455 146.777 88.4236 146.899 88.826C146.98 89.1883 146.98 89.8327 146.899 90.2356C146.777 90.598 146.696 90.2755 146.696 89.5108Z" fill="white"/>
<path d="M147.708 90.0354C147.182 89.552 147.424 87.982 148.072 87.74C149.003 87.3776 149.448 87.8205 149.448 89.1497C149.448 89.9949 149.245 90.3173 148.719 90.3173C148.314 90.3173 147.829 90.1963 147.708 90.0354Z" fill="white"/>
<path d="M150.135 88.947C149.974 88.3432 149.893 87.6989 150.054 87.5779C150.459 87.1756 150.702 87.8199 150.58 88.9875L150.459 90.1146L150.135 88.947Z" fill="white"/>
<path d="M163.204 88.667C163.204 88.2235 163.407 87.9821 163.609 88.1031C163.852 88.2235 164.013 88.6264 164.013 88.9483C164.013 89.2707 163.852 89.5121 163.609 89.5121C163.407 89.5121 163.204 89.1497 163.204 88.667Z" fill="white"/>
<path d="M165.025 89.1902C164.459 88.5858 164.904 87.4986 165.834 87.2572C167.008 86.9753 167.048 86.9753 167.412 88.1429C167.655 88.8677 167.493 89.0293 166.441 89.1902C165.794 89.3106 165.146 89.2707 165.025 89.1902Z" fill="white"/>
<path d="M168.747 88.4242C168.302 88.0213 168.423 86.6927 168.868 86.6927C169.111 86.6927 169.273 86.5318 169.273 86.2898C169.273 86.089 169.03 85.8875 168.707 85.8875C168.019 85.8875 167.453 83.9146 168.019 83.3507C168.747 82.6259 169.556 83.3906 170.042 85.3642C170.325 86.4108 170.608 87.619 170.729 88.0213C170.892 88.5446 170.729 88.7062 169.961 88.7062C169.435 88.7062 168.868 88.5852 168.747 88.4242Z" fill="white"/>
<path d="M170.932 86.2911C170.649 85.0829 169.921 82.6671 169.395 80.8951C168.585 78.3184 168.505 77.6741 168.95 77.3921C169.233 77.1907 169.597 77.0298 169.719 77.0298C170.164 77.0298 171.782 85.2844 171.62 86.8949L171.499 88.5054L170.932 86.2911Z" fill="white"/>
<path d="M146.291 86.089C146.291 85.4447 146.372 85.2033 146.494 85.6056C146.575 85.968 146.575 86.5318 146.494 86.8138C146.372 87.0552 146.291 86.7732 146.291 86.089Z" fill="white"/>
<path d="M147.101 86.0066C147.263 84.5976 148.436 84.2751 148.76 85.5637C149.043 86.6104 149.124 86.49 147.91 86.8923C147.061 87.1343 146.98 87.0539 147.101 86.0066Z" fill="white"/>
<path d="M164.175 85.6442C163.851 84.4766 164.54 83.7923 165.834 83.9533C166.805 84.0743 167.17 85.8051 166.36 86.3291C165.349 86.9734 164.418 86.6915 164.175 85.6442Z" fill="white"/>
<path d="M149.447 85.323C149.447 84.6381 149.65 84.2758 150.095 84.2758C150.5 84.2758 150.661 84.5577 150.58 85.1615C150.378 86.4501 149.447 86.5711 149.447 85.323Z" fill="white"/>
<path d="M145.846 83.632C145.846 83.1892 145.968 83.0688 146.09 83.3906C146.211 83.6726 146.17 84.035 146.049 84.156C145.927 84.3169 145.806 84.0749 145.846 83.632Z" fill="white"/>
<path d="M146.615 83.511C146.615 82.9066 146.858 82.6653 147.465 82.6653C148.031 82.6653 148.234 82.8667 148.153 83.3501C147.95 84.3968 146.615 84.5178 146.615 83.511Z" fill="white"/>
<path d="M148.841 83.1493C148.558 82.4245 148.558 82.4245 149.771 82.102C150.5 81.8606 150.661 81.9817 150.661 82.5855C150.661 83.5516 149.205 84.035 148.841 83.1493Z" fill="white"/>
<path d="M163.487 82.5848C163.204 81.5781 163.73 81.0547 165.146 81.0547C165.834 81.0547 166.036 81.2961 166.036 82.0615C166.036 82.6652 165.794 83.0682 165.469 83.0682C165.146 83.0682 164.62 83.1892 164.296 83.3096C163.932 83.4306 163.649 83.1892 163.487 82.5848Z" fill="white"/>
<path d="M167.008 81.6598C166.684 80.8545 167.169 80.2508 168.1 80.2508C168.667 80.2508 168.868 80.5327 168.868 81.2575C168.868 81.9823 168.667 82.2642 168.059 82.2642C167.614 82.2642 167.129 81.9823 167.008 81.6598Z" fill="white"/>
<path d="M146.211 81.0953C146.211 80.2495 147.141 79.2833 147.546 79.7262C147.708 79.8472 147.83 80.4104 147.83 80.9344C147.83 81.5781 147.586 81.86 147.02 81.86C146.494 81.86 146.211 81.5781 146.211 81.0953Z" fill="white"/>
<path d="M148.436 80.6113C148.112 79.6052 148.476 79.1617 149.852 78.9609C151.107 78.7993 151.511 80.1285 150.419 80.9338C149.367 81.6985 148.72 81.5781 148.436 80.6113Z" fill="white"/>
<path d="M163.083 80.3712C162.8 80.1298 162.678 78.6396 162.921 78.6396C162.961 78.6396 163.569 78.4787 164.297 78.2773C165.51 77.9149 165.591 77.9554 165.551 79.0426C165.51 79.8478 165.268 80.2508 164.661 80.4117C163.569 80.6936 163.406 80.6936 163.083 80.3712Z" fill="white"/>
<path d="M161.586 79.4436C161.586 79.1623 161.707 79.0413 161.869 79.1623C161.991 79.3233 161.991 79.5646 161.869 79.7256C161.707 79.8466 161.586 79.7256 161.586 79.4436Z" fill="white"/>
<path d="M166.117 78.7993C166.239 78.1151 167.493 77.1083 167.776 77.4302C167.898 77.5512 168.1 78.0346 168.221 78.5579C168.504 79.3632 168.383 79.4436 167.25 79.4436C166.279 79.4436 165.996 79.2827 166.117 78.7993Z" fill="white"/>
<path d="M146.615 78.76C146.615 78.5586 146.818 78.1563 147.02 77.8338C147.344 77.351 147.425 77.3909 147.425 78.1563C147.425 78.6397 147.263 79.042 147.02 79.042C146.818 79.042 146.615 78.921 146.615 78.76Z" fill="white"/>
<path d="M147.829 77.8737C147.829 76.746 148.679 76.3836 149.326 77.2294C149.731 77.8331 149.731 78.0346 149.326 78.3165C148.477 78.8399 147.829 78.6789 147.829 77.8737Z" fill="white"/>
<path d="M160.129 77.3516C159.401 76.5464 159.401 76.5064 160.089 76.7478C160.493 76.9088 161.019 77.0298 161.221 77.0298C161.424 77.0298 161.586 77.3117 161.586 77.6335C161.586 78.4793 161.019 78.3989 160.129 77.3516Z" fill="white"/>
<path d="M151.43 77.3104C149.69 75.9818 149.448 73.0022 151.066 73.0022C152.158 73.0022 153.17 74.6932 153.008 76.2638C152.887 77.7133 152.401 78.0352 151.43 77.3104Z" fill="white"/>
<path d="M162.517 77.5518C162.678 77.4308 162.922 77.4308 163.083 77.5518C163.204 77.7127 163.083 77.8337 162.8 77.8337C162.517 77.8337 162.395 77.7127 162.517 77.5518Z" fill="white"/>
<path d="M168.626 75.9813C168.748 75.6189 168.869 75.2565 168.869 75.176C168.869 75.0956 169.071 75.0151 169.274 75.0151C169.516 75.0151 169.678 75.3775 169.678 75.8203C169.678 76.3031 169.394 76.6256 169.03 76.6256C168.585 76.6256 168.464 76.4241 168.626 75.9813Z" fill="white"/>
<path d="M147.425 75.8602C147.425 74.9346 148.274 73.4046 148.76 73.4046C149.609 73.4046 149.003 75.9812 148.112 76.1422C147.748 76.2226 147.425 76.1023 147.425 75.8602Z" fill="white"/>
<path d="M156.528 75.4173L155.314 75.1354L156.407 74.8534C157.54 74.5316 158.349 74.773 158.349 75.4579C158.349 75.8602 158.308 75.8602 156.528 75.4173Z" fill="white"/>
<path d="M155.112 73.4844C155.112 71.8333 156.043 71.592 156.892 73.0415C157.459 74.0077 157.499 74.2092 156.973 74.2092C156.65 74.2092 156.123 74.3302 155.759 74.4506C155.274 74.652 155.112 74.4106 155.112 73.4844Z" fill="white"/>
<path d="M162.152 74.0483C160.332 73.243 159.158 71.1092 159.158 68.5724C159.158 66.7605 159.32 66.3176 160.412 65.3109C161.101 64.6666 161.788 64.1432 161.991 64.1432C162.881 64.1432 166.158 67.2439 167.25 69.1762L168.504 71.3911L167.169 72.8002C165.632 74.4107 163.933 74.8541 162.152 74.0483Z" fill="white"/>
<path d="M153.696 73.0029C153.575 72.8014 153.655 72.5999 153.858 72.5999C154.1 72.5999 154.303 72.8014 154.303 73.0029C154.303 73.2443 154.222 73.4058 154.141 73.4058C154.02 73.4058 153.818 73.2443 153.696 73.0029Z" fill="white"/>
<path d="M148.395 72.3579C148.517 71.9955 148.638 71.6331 148.638 71.5527C148.638 71.4722 149.002 71.3918 149.447 71.3918C150.459 71.3918 150.499 72.0361 149.488 72.5999C148.395 73.1632 148.112 73.1233 148.395 72.3579Z" fill="white"/>
<path d="M151.592 71.8745C150.661 71.7542 150.378 71.2308 150.985 70.8684C151.147 70.7474 151.875 70.546 152.603 70.3851C153.696 70.1437 153.898 70.2241 153.898 70.9084C153.898 71.7542 153.048 72.1166 151.592 71.8745Z" fill="white"/>
<path d="M154.708 70.506C154.708 70.0232 154.748 69.7413 154.829 69.8218C154.869 69.9022 155.193 70.3045 155.477 70.7075C155.962 71.2713 155.922 71.3917 155.355 71.3917C154.95 71.3917 154.708 71.0699 154.708 70.506Z" fill="white"/>
<path d="M149.043 70.2241C149.043 69.9827 149.246 69.7008 149.447 69.5798C149.691 69.4594 149.852 69.6203 149.852 69.9422C149.852 70.3045 149.691 70.5865 149.447 70.5865C149.246 70.5865 149.043 70.4256 149.043 70.2241Z" fill="white"/>
<path d="M150.54 69.6185C150.216 68.8133 153.088 67.9275 153.574 68.6923C153.938 69.3366 153.574 69.6185 152.037 69.941C151.106 70.1418 150.702 70.0614 150.54 69.6185Z" fill="white"/>
<path d="M154.343 68.3311C154.343 67.8882 154.465 67.7672 154.586 68.0897C154.708 68.3716 154.667 68.734 154.546 68.8544C154.424 69.0159 154.303 68.7739 154.343 68.3311Z" fill="white"/>
<path d="M150.904 67.6873C151.39 66.801 152.806 65.3514 153.17 65.3514C153.574 65.3514 153.615 67.2438 153.21 67.4858C153.008 67.5663 152.361 67.7678 151.754 67.9287C150.864 68.1301 150.661 68.0896 150.904 67.6873Z" fill="white"/>
<path d="M154.141 66.7605C153.696 65.5529 153.898 65.029 154.869 64.8681C155.881 64.6666 155.881 64.6666 155.233 65.9153C154.424 67.5258 154.464 67.5258 154.141 66.7605Z" fill="white"/>
<path d="M153.898 64.3453C153.898 64.2642 154.707 63.701 155.718 63.1371C156.932 62.4124 157.782 62.171 158.389 62.3319C159.117 62.5733 158.915 62.7342 157.135 63.58C155.152 64.4657 153.898 64.7882 153.898 64.3453Z" fill="white"/>
<path d="M176.354 28.6705C175.261 27.0999 172.955 24.5632 171.296 23.0331C169.638 21.5031 168.545 20.255 168.869 20.255C169.759 20.255 176.556 22.1069 178.255 22.8316C179.671 23.4354 179.712 23.5165 179.348 24.7646C179.146 25.4894 178.984 27.3014 178.984 28.7909C178.984 30.3209 178.862 31.5291 178.7 31.5291C178.498 31.5291 177.486 30.2404 176.354 28.6705Z" fill="white"/>
<path d="M94.0166 150.634C92.3576 149.789 91.9935 149.305 89.8894 145.158C86.8553 139.279 86.7744 137.91 89.6469 141.252C90.7794 142.581 93.4099 145.319 95.4732 147.332C98.9931 150.714 99.1548 150.956 97.9815 150.795C97.1323 150.674 96.8082 150.755 97.0107 151.077C97.4964 151.801 95.959 151.601 94.0166 150.634Z" fill="white"/>
<path fill-rule="evenodd" clip-rule="evenodd" d="M161.824 223.996C161.488 223.202 161.862 222.288 162.66 221.954L163.532 221.586C172.007 217.977 176.872 215.808 180.177 212.366C183.482 208.924 183.878 203.868 184.499 200.791C184.669 199.947 186.59 201.429 187.439 201.599C188.287 201.769 188.837 202.591 188.667 203.435C187.92 207.134 185.909 210.661 182.672 214.008C179.446 217.345 173.2 220.921 163.876 224.828C163.078 225.162 162.16 224.789 161.824 223.996Z" fill="#00160A"/>
<path fill-rule="evenodd" clip-rule="evenodd" d="M200.15 63.3349C200.894 62.8939 201.856 63.1372 202.298 63.8769C206.731 71.2863 209.105 79.7567 209.105 88.569C209.105 115.266 187.357 136.909 160.531 136.909C153.402 136.909 146.488 135.379 140.157 132.463C139.372 132.102 136.405 129.223 139.393 130.393C142.381 131.565 153.942 134.193 160.614 134.193C185.71 134.193 203.464 113.544 203.464 88.569C203.464 80.3218 200.15 73.0022 199.606 65.4724C199.542 64.5992 199.407 63.7752 200.15 63.3349Z" fill="#00160A"/>
<path fill-rule="evenodd" clip-rule="evenodd" d="M44.968 181.354C45.5215 180.692 46.5099 179.356 47.1749 179.907C49.9025 182.168 52.8132 184.787 55.927 185.293C59.1673 185.82 63.0112 185.82 67.4537 185.284C68.313 185.181 69.0933 185.79 69.1973 186.645C69.3014 187.5 68.689 188.276 67.8304 188.38C63.1121 188.948 58.978 188.948 55.4224 188.371C51.7402 187.773 48.3156 186.159 45.1692 183.55C44.5042 182.999 44.414 182.016 44.968 181.354Z" fill="#00160A"/>
<path d="M78.2371 126.797C76.2139 125.187 71.8843 120.435 68.6069 116.248C66.9078 114.033 65.0062 109.524 63.873 104.973C63.3471 102.92 62.8213 101.068 62.6997 100.826C62.538 100.625 61.8906 97.766 61.2431 94.464C60.2723 89.7934 60.4778 88.2883 59.6248 82.7014C59.2638 80.3356 58.9373 78.4538 58.9373 78.4538L59.989 77.1096C60.5957 76.3044 61.3634 74.9714 61.648 74.2105C62.9429 70.7431 72.4508 59.8756 72.7341 60.1576C72.815 60.238 72.4916 62.1305 71.925 64.3454C71.3991 66.5597 70.7517 69.9017 70.4684 71.7941C70.0635 74.9353 69.9018 75.2976 68.6477 76.3443C67.0695 77.6735 64.0754 81.9411 64.0754 82.8275C64.0754 84.035 65.8962 83.2298 67.7978 81.2569L69.7401 79.2434V81.4583C69.7401 82.9079 69.4568 84.2365 68.931 85.2831C67.9194 87.2566 67.9194 89.3505 68.8902 90.961C69.376 91.7663 69.821 93.6986 70.1042 95.994C71.3584 106.382 74.029 115.402 78.6012 124.462C79.7338 126.717 80.6238 128.569 80.5837 128.569C80.5028 128.569 79.4505 127.764 78.2371 126.797Z" fill="white"/>
<path fill-rule="evenodd" clip-rule="evenodd" d="M246.593 151.642L249.506 152.93C250.11 153.207 256.775 156.394 264.779 160.222C277.685 166.393 294.075 174.23 294.175 174.23C294.337 174.23 295.096 172.483 295.267 170.446C295.672 166.057 297.169 160.097 298.909 155.95C299.718 154.098 300.365 151.783 300.365 151.582C300.365 151.489 299.708 151.226 298.631 150.793C297.349 150.279 295.473 149.526 293.406 148.541C283.21 143.669 263.263 133.723 260.795 132.233C258.367 130.824 257.882 130.703 257.882 131.63C257.882 132.838 255.413 138.435 253.512 141.454C252.501 143.105 250.518 146.085 249.102 148.058L246.593 151.642ZM293.487 166.983C294.647 167.652 292.637 168.634 292.152 168.795C289.293 169.037 285.927 168.501 283.17 166.902C281.728 165.885 270.374 159.607 262.843 155.443C259.4 153.54 256.756 152.078 256.223 151.762C254.523 150.756 252.905 149.669 252.622 149.346C251.773 148.259 252.582 147.776 254.968 147.977C256.404 148.098 290.981 165.537 293.487 166.983Z" fill="white"/>
<path d="M217.543 155.266C216.491 154.903 215.358 154.097 214.63 153.172L213.416 151.682L217.704 147.454C224.3 141.011 229.155 133.97 233.525 126.119C234.981 123.502 239.311 112.946 239.837 111.778C240.646 110.087 241.252 109.443 242.992 108.476C245.056 107.269 247.403 106.866 248.414 107.551C250.356 108.839 250.356 112.906 248.414 119.912C246.27 127.603 243.397 133.119 237.449 141.052C236.519 142.259 234.779 144.635 233.525 146.286C230.166 150.715 227.981 152.849 225.028 154.5C222.115 156.111 220.415 156.312 217.543 155.266Z" fill="white"/>
<path d="M232.796 154.337L231.946 153.492C231.946 153.492 246.049 135.661 248.576 129.091C250.504 124.077 251.639 122.655 253.17 122.655C254.026 122.655 254.726 122.85 255.049 123.333C255.616 124.179 256.162 125.226 255.434 128.809C254.219 134.607 252.359 138.433 246.775 146.687C245.48 148.58 243.822 150.674 243.093 151.398C241.393 152.969 237.57 154.58 235.345 154.942C233.929 155.143 233.524 155.062 232.796 154.337Z" fill="white"/>
<path fill-rule="evenodd" clip-rule="evenodd" d="M256.484 135.694C257.3 133.836 257.882 132.216 257.882 131.63C257.882 130.703 258.367 130.824 260.795 132.233C263.263 133.723 283.21 143.669 293.407 148.541C297.21 150.353 300.365 151.38 300.365 151.582C300.365 151.783 255.619 137.664 256.484 135.694Z" fill="#E7EAEE"/>
<path fill-rule="evenodd" clip-rule="evenodd" d="M118.05 137.99C112.911 134.648 105.142 126.796 101.38 121.199C95.9986 113.146 92.438 104.529 90.6981 95.2679C89.4439 88.5434 89.4847 78.1955 90.7388 72.1957C92.0337 66.075 93.6921 61.4044 96.646 55.4851C100.085 48.6401 103.727 43.6072 109.189 38.1713C114.545 32.8408 90.7388 54.885 96.646 94.3267C101.38 127.379 121.725 140.399 118.05 137.99Z" fill="#E7EAEE"/>
</svg>
