<svg width="48" height="48" viewBox="0 0 48 48" fill="none" xmlns="http://www.w3.org/2000/svg">
<g clip-path="url(#clip0_640_110)">
<path d="M21.6929 22.8263C21.621 19.4178 20.8986 16.0544 19.5648 12.9169C11.0523 16.8919 4.79915 24.3919 2.66165 33.2419C3.91256 36.108 5.72658 38.6936 7.99602 40.8451C10.1542 33.3406 15.0395 26.9138 21.6929 22.8263ZM18.2335 10.2263C16.8077 7.74206 14.9906 5.50396 12.8523 3.59817C4.32102 8.26692 -0.722728 17.9325 1.13352 28.1794C4.26477 20.3888 10.3585 13.9294 18.2335 10.2263ZM35.821 25.7044C36.6273 16.3482 33.2616 7.1888 26.6804 0.916925C25.3023 0.75755 21.8429 0.4013 17.4085 1.7138C22.834 7.33586 25.9606 14.7837 26.1741 22.5938C29.1618 24.2367 32.4364 25.2926 35.821 25.7044ZM24.1304 26.5951C21.2144 28.3654 18.6627 30.6754 16.6116 33.4013C24.2991 38.7732 33.9085 40.4419 42.6273 37.8825C44.5027 35.3698 45.8486 32.5025 46.5835 29.4544C44.1044 30.0861 41.5575 30.4135 38.9991 30.4294C33.8804 30.42 28.7898 29.1075 24.1304 26.5951ZM14.9148 35.9419C13.4898 38.3794 12.5054 41.0419 11.9054 43.8357C16.0641 46.3882 20.9227 47.5621 25.788 47.1901C30.6533 46.818 35.2769 44.919 38.9991 41.7638C28.4148 43.2732 19.9398 39.4388 14.9148 35.9419ZM31.8179 2.13567C37.0023 8.73567 39.5523 17.2482 38.8116 25.9107C41.6677 25.9167 44.5065 25.4673 47.221 24.5794C47.221 24.3919 47.2491 24.2044 47.2491 24.0169C47.2491 13.9107 40.8085 5.3513 31.8179 2.13567Z" fill="white"/>
</g>
<defs>
<clipPath id="clip0_640_110">
<rect width="48" height="48" fill="white"/>
</clipPath>
</defs>
</svg>
