<svg width="60" height="54" viewBox="0 0 60 54" fill="none" xmlns="http://www.w3.org/2000/svg">
<path opacity="0.3" d="M13.7337 23.3334H5.00037C5.00037 25.7334 6.96703 27.7 9.36703 27.7C11.767 27.7 13.7337 25.7334 13.7337 23.3334Z" fill="white"/>
<path opacity="0.3" d="M11.3004 32.5002C11.0337 37.9002 10.6004 43.9002 9.83374 48.3335H17.7004C18.7337 40.9669 19.0337 34.7002 19.1337 31.7669C18.0337 31.2335 17.0671 30.5335 16.2337 29.6335C14.9337 31.0669 13.2337 32.0669 11.3004 32.5002Z" fill="white"/>
<path opacity="0.3" d="M30.0003 6.83325C26.4336 10.0333 20.7003 14.7332 14.267 18.3332H45.767C39.3003 14.7332 33.567 10.0333 30.0003 6.83325Z" fill="white"/>
<path opacity="0.3" d="M27.5001 23.3334H18.7667C18.7667 25.7334 20.7334 27.7 23.1334 27.7C25.5334 27.7 27.5001 25.7334 27.5001 23.3334Z" fill="white"/>
<path opacity="0.3" d="M32.4999 23.3334C32.4999 25.7334 34.4665 27.7 36.8665 27.7C39.2665 27.7 41.2332 25.7334 41.2332 23.3334H32.4999Z" fill="white"/>
<path opacity="0.3" d="M50.6336 27.7C53.0336 27.7 55.0003 25.7334 55.0003 23.3334H46.267C46.267 25.7334 48.2336 27.7 50.6336 27.7Z" fill="white"/>
<path opacity="0.3" d="M43.7672 29.6335C42.9672 30.5335 41.9672 31.2335 40.8672 31.7669C40.9672 34.7002 41.2339 40.9669 42.3005 48.3335H50.1672C49.4005 43.9002 48.9672 37.9002 48.7005 32.5002C46.7672 32.0669 45.0672 31.0669 43.7672 29.6335Z" fill="white"/>
<path d="M30.0001 0C30.0001 0 13.3335 16.6667 0.00012207 18.3333V23.3333C0.00012207 27.4333 2.63346 30.8667 6.30012 32.1333C5.90012 40.3667 5.10012 49.8333 3.33346 53.3333H56.6668C56.4668 52.9333 54.4001 49.1 53.6334 32.1667C57.3334 30.9 60.0001 27.4667 60.0001 23.3333V18.3333C46.6668 16.6667 30.0001 0 30.0001 0ZM30.0001 6.83333C33.5668 10 39.3001 14.7333 45.7335 18.3333H14.2668C20.7001 14.7333 26.4335 10.0333 30.0001 6.83333ZM5.00012 23.3333H13.7335C13.7335 25.7333 11.7668 27.7 9.36679 27.7C6.96679 27.7 5.00012 25.7333 5.00012 23.3333ZM17.7001 48.3333H9.83346C10.6001 43.9 11.0335 37.9 11.3001 32.5C13.2335 32.1 14.9335 31.0667 16.2335 29.6667C17.0335 30.5667 18.0335 31.2667 19.1335 31.8C19.0335 34.7 18.7335 40.9667 17.7001 48.3333ZM18.7668 23.3333H27.5001C27.5001 25.7333 25.5335 27.7 23.1335 27.7C20.7335 27.7 18.7668 25.7333 18.7668 23.3333ZM22.7668 48.3333C23.7001 41.5 24.0001 35.7667 24.1001 32.6C26.4335 32.3333 28.5001 31.3 30.0001 29.6667C31.5001 31.3 33.5668 32.3667 35.9001 32.6C36.0001 35.7667 36.3335 41.5 37.2335 48.3333H22.7668ZM36.8668 27.7C34.4668 27.7 32.5001 25.7333 32.5001 23.3333H41.2335C41.2335 25.7333 39.3001 27.7 36.8668 27.7ZM42.3001 48.3333C41.2668 40.9667 40.9668 34.7 40.8668 31.7667C41.9668 31.2333 42.9335 30.5333 43.7668 29.6333C45.0668 31.0333 46.7668 32.0667 48.7001 32.4667C48.9668 37.8667 49.4001 43.8667 50.1668 48.3H42.3001V48.3333ZM50.6335 27.7C48.2335 27.7 46.2668 25.7333 46.2668 23.3333H55.0001C55.0001 25.7333 53.0335 27.7 50.6335 27.7Z" fill="white"/>
</svg>
