<svg width="700" height="2643" viewBox="0 0 700 2643" fill="none" xmlns="http://www.w3.org/2000/svg">
<path d="M481.143 2765.21C549.676 2577.66 577.902 2418.86 444.269 2250C383.473 2173.22 293.556 2108.69 267.707 2015.96C233.458 1893.18 330.028 1756.71 397.868 1654.02C435.18 1597.47 505.64 1538.97 530.72 1477.6C549.665 1431.4 532.661 1393.33 511.983 1348.78C455.636 1227.11 385.068 1125.03 365.087 993.265C323.001 716.377 356.127 281.21 698.745 140.314C537.565 9.01183 254.899 -64.3622 68.6175 84.231C-24.434 158.479 -52.3012 416.422 -230.909 354.94C-292.127 333.888 -333.945 282.794 -394.389 259.386C-463.916 232.437 -532.656 242.859 -606.383 250.577C-877.407 278.91 -1078.15 198.755 -1304.44 75.4703C-1249.44 230.973 -1150.89 330.567 -1055.42 465.615C-982.356 568.78 -993.685 655.005 -1055.77 761.582C-1129.22 887.746 -1303.86 991.118 -1303.32 1138.78C-1302.75 1258.16 -1226.74 1376.85 -1171.44 1483.78C-1116.15 1590.72 -1026.91 1729.69 -1055.39 1851.71C-1081.36 1963.85 -1216.94 2030.02 -1260.31 2140.2C-1350.99 2370.51 -1176.82 2616.58 -1161.12 2847C-995.203 2843.99 -896.836 2795.53 -773.89 2708.19C-599.339 2584.19 -397.385 2392.39 -206.361 2604.39C-126.927 2692.83 -39.6951 2918.77 136.905 2819.03C181.724 2793.72 198.713 2743.25 240.03 2715.97C337.405 2652.18 395.614 2706.62 481.143 2765.21Z" stroke="#DDAB6C" stroke-opacity="0.57" stroke-width="0.853688" stroke-linecap="round" stroke-linejoin="round"/>
<path d="M-34.9142 2816.89C10.16 2677.86 11.3673 2559.71 -56.7 2425.92C-96.2382 2348.12 -154.056 2276.39 -181.012 2194.28C-219.318 2078.18 -179.372 1961.38 -200.116 1843.62C-214.672 1761.02 -253.327 1689.06 -290.969 1612.78C-388.208 1414.55 -208.002 1337.36 -111.279 1168.2C37.8787 907.346 -79.0819 579.712 -74.2467 303.212" stroke="#DDAB6C" stroke-opacity="0.57" stroke-width="0.853688" stroke-linecap="round" stroke-linejoin="round"/>
<path d="M43.0697 2847.49C108.489 2713.03 116.331 2603.14 36.9875 2471.4C-18.5528 2379.06 -105.191 2295.73 -141.56 2195.98C-182.957 2083.61 -123.517 1988.48 -123.028 1875.69C-122.441 1780.67 -161.984 1706.6 -205.43 1621.14C-236.978 1559.15 -262.194 1509.64 -234.883 1442.53C-190.793 1333.6 -60.4154 1254.17 -2.68273 1147.8C161.419 845.31 43.6596 488.067 -3.67046 175.202" stroke="#DDAB6C" stroke-opacity="0.57" stroke-width="0.853688" stroke-linecap="round" stroke-linejoin="round"/>
<path d="M116.236 2831.14C184.493 2681.66 188.009 2566.36 93.2918 2424.16C35.2181 2336.97 -48.366 2258.31 -81.5203 2160.92C-121.826 2043.05 -46.9765 1935.06 -41.8555 1816.87C-38.5046 1741.2 -59.1227 1674.46 -87.3268 1603.59C-163.188 1413.08 -9.88979 1313.24 56.7399 1135.27C181.669 803.256 76.4237 435.807 52.5674 97.8648" stroke="#DDAB6C" stroke-opacity="0.57" stroke-width="0.853688" stroke-linecap="round" stroke-linejoin="round"/>
<path d="M169.747 2791.7C235.635 2637.94 242.121 2518.72 138.986 2375.53C78.4784 2291.53 -9.08179 2216.79 -42.949 2121.12C-85.2094 2002.07 -5.55996 1895.71 16.1629 1779.64C28.8744 1711.74 24.4995 1650.06 10.4645 1583.22C-26.0964 1408.3 75.3327 1288.64 116.037 1118.22C200.306 765.365 118.961 399.206 138.714 42.8741" stroke="#DDAB6C" stroke-opacity="0.57" stroke-width="0.853688" stroke-linecap="round" stroke-linejoin="round"/>
<path d="M213.343 2743.9C276.811 2586.41 286.268 2462.92 174.344 2319.58C111.334 2238.96 19.9038 2168.55 -15.1556 2074.69C-77.8839 1906.57 98.5848 1734.61 97.5445 1560.74C96.5445 1403.02 147.537 1263.45 169.963 1106.77C222.169 742.598 163.593 372.572 245.748 10.8236" stroke="#DDAB6C" stroke-opacity="0.57" stroke-width="0.853688" stroke-linecap="round" stroke-linejoin="round"/>
<path d="M256.416 2702.64C313.789 2551.73 333.877 2422.3 225.345 2284.46C161.423 2203.35 58.7415 2135.38 19.0998 2042.11C-56.3973 1864.66 144.684 1706.76 183.034 1537.96C216.194 1392.09 211.407 1225.19 221.311 1077.78C245.464 721.895 210.313 342.355 364.262 3.33111" stroke="#DDAB6C" stroke-opacity="0.57" stroke-width="0.853688" stroke-linecap="round" stroke-linejoin="round"/>
<path d="M309.439 2682.55C366.239 2527.32 391.148 2390.33 276.716 2249.44C212.063 2169.9 106.681 2104.1 67.622 2011.42C-11.325 1823.84 209.677 1677.59 277.761 1515.58C294.96 1474.54 291.442 1438.79 286.864 1395.53C275.126 1284.21 269.319 1176.32 269.451 1064.17C271.217 724.322 256.682 318.128 485.517 21.5698" stroke="#DDAB6C" stroke-opacity="0.57" stroke-width="0.853688" stroke-linecap="round" stroke-linejoin="round"/>
<path d="M381.295 2698.51C443.225 2526.68 468.741 2380.62 338.703 2227.09C273.506 2150.26 175.888 2085.59 144.363 1992.22C77.4694 1794.25 309.462 1656.88 390.788 1495.13C411.611 1453.8 402.748 1419.72 390.928 1376.74C361.734 1270.37 327.426 1171.11 318.95 1060.97C294.576 742.858 299.668 300.533 600.09 66.9649" stroke="#DDAB6C" stroke-opacity="0.57" stroke-width="0.853688" stroke-linecap="round" stroke-linejoin="round"/>
<path d="M614.938 177.388C459.219 67.6379 218.196 43.9706 74.2412 185.737C-19.6265 278.104 -62.2674 512.787 -261.597 452.883C-333.881 431.126 -389.138 380.882 -465.171 364.332C-531.344 350.047 -600.339 361.113 -667.189 366.874C-907.848 387.721 -1079.03 290.933 -1268.55 175.613" stroke="#DDAB6C" stroke-opacity="0.57" stroke-width="0.853688" stroke-linecap="round" stroke-linejoin="round"/>
<path d="M543.823 235.276C392.536 146.757 196.505 161.389 81.147 289.065C-12.7341 392.974 -64.0852 607.5 -275.29 540.91C-337.178 521.223 -388.647 483.315 -452.618 467.116C-529.124 447.962 -601.146 456.815 -679.166 462.373C-905.916 478.608 -1050.71 374.028 -1222.05 259.016" stroke="#DDAB6C" stroke-opacity="0.57" stroke-width="0.853688" stroke-linecap="round" stroke-linejoin="round"/>
<path d="M484.631 310.706C342.134 225.337 169.024 301.885 83.6986 406.337C-8.70771 519.286 -66.5381 685.952 -275.605 620.838C-353.649 596.524 -412.175 547.411 -498.195 535.966C-558.909 527.826 -620.655 538.551 -681.086 543.038C-890.01 558.546 -1021.41 437.761 -1170.54 329.004" stroke="#DDAB6C" stroke-opacity="0.57" stroke-width="0.853688" stroke-linecap="round" stroke-linejoin="round"/>
<path d="M437.309 399.943C316.991 350.746 181.039 408.498 110.413 492.177C43.4763 571.633 28.2717 667.183 -99.3422 707.793C-161.574 727.411 -207.606 714.464 -266.223 692.618C-338.798 665.507 -390.911 620.033 -471.938 606.084C-547.677 593.023 -619.889 610.916 -695.647 613.429C-873.903 619.963 -998.929 482.477 -1118.48 389.801" stroke="#DDAB6C" stroke-opacity="0.57" stroke-width="0.853688" stroke-linecap="round" stroke-linejoin="round"/>
<path d="M400.662 499.428C80.8972 440.298 58.2845 922.33 -251.313 757.188C-319.539 720.746 -372.599 672.227 -456.24 658.376C-528.178 646.399 -596.292 666.209 -667.061 670.542C-841.993 681.254 -956.91 536.754 -1070.82 445.166" stroke="#DDAB6C" stroke-opacity="0.57" stroke-width="0.853688" stroke-linecap="round" stroke-linejoin="round"/>
<path d="M374.938 605.552C251.583 613.148 182.794 651.723 109.621 729.498C10.6886 834.72 -88.0453 923.091 -233.964 818.226C-285.79 780.96 -329.879 732.989 -397.114 713.007C-484.602 687.02 -564.494 718.81 -651.541 722.053C-816.545 728.201 -924.275 586.071 -1032.37 498.862" stroke="#DDAB6C" stroke-opacity="0.57" stroke-width="0.853688" stroke-linecap="round" stroke-linejoin="round"/>
<path d="M359.431 714.627C254.524 748.023 187.067 765.424 109.746 834.499C-1.2399 933.374 -98.0963 991.974 -218.035 874.305C-261.18 831.986 -298.193 779.108 -362.988 756.328C-451.42 725.037 -536.071 762.423 -624.428 768.367C-792.527 779.573 -893.847 643.689 -1007.52 554.565" stroke="#DDAB6C" stroke-opacity="0.57" stroke-width="0.853688" stroke-linecap="round" stroke-linejoin="round"/>
<path d="M353.67 823.106C273.764 867.273 182.373 876.212 109.941 931.632C-19.4634 1030.69 -107.077 1061.44 -207.33 927.085C-250.812 868.752 -281.329 800.012 -373.106 783.751C-453.656 769.51 -539.083 809.548 -617.102 816.087C-778.965 829.605 -888.906 698.877 -1001.16 616.78" stroke="#DDAB6C" stroke-opacity="0.57" stroke-width="0.853688" stroke-linecap="round" stroke-linejoin="round"/>
<path d="M357.543 927.269C281.783 982.393 171.136 995.939 84.4009 1037.4C-64.22 1108.01 -141.475 1121.37 -205.297 979.029C-226.63 931.565 -246.751 863.714 -304.409 834.896C-389.144 792.506 -499.952 841.666 -585.113 858.567C-774.632 896.238 -872.89 783.642 -1017.81 688.607" stroke="#DDAB6C" stroke-opacity="0.57" stroke-width="0.853688" stroke-linecap="round" stroke-linejoin="round"/>
<path d="M370.162 1023.62C284.461 1094.5 163.544 1100.68 55.1315 1133.73C-3.35402 1151.57 -73.2283 1203.61 -138.428 1171.64C-193.89 1144.4 -204.206 1075.52 -215.916 1029.83C-227.744 982.907 -235.615 906.221 -289.407 874.457C-371.759 825.829 -501.238 888.095 -583.374 908.437C-792.101 960.098 -885.34 874.129 -1062.69 774.114" stroke="#DDAB6C" stroke-opacity="0.57" stroke-width="0.853688" stroke-linecap="round" stroke-linejoin="round"/>
<path d="M391.352 1108.43C279.259 1188.93 180.385 1194.13 42.6299 1219.8C-31.6559 1233.61 -129.395 1284.8 -198.199 1235.19C-242.783 1203.09 -238.469 1122.52 -242.223 1081.16C-247.149 1026.38 -240.044 946.648 -302.984 912.716C-383.797 869.145 -524.044 942.07 -602.798 966.099C-660.868 983.9 -726.136 1008.38 -789.888 1007.85C-909.609 1006.9 -1042.36 922.035 -1139.63 877.129" stroke="#DDAB6C" stroke-opacity="0.57" stroke-width="0.853688" stroke-linecap="round" stroke-linejoin="round"/>
<path d="M420.697 1178.31C272.03 1286.31 146.126 1287.96 -39.6352 1311.39C-92.7608 1318.14 -188.224 1353.56 -240.001 1324.74C-309.709 1286.14 -291.297 1191.77 -288.437 1134.19C-286.002 1085.07 -262.236 984.318 -328.269 952.938C-385.87 925.541 -554.107 1001.94 -596.011 1016.07C-685.171 1046.72 -782.015 1094.13 -880.829 1098.79C-1008.88 1104.57 -1141.54 1041.26 -1253.78 1001.26" stroke="#DDAB6C" stroke-opacity="0.57" stroke-width="0.853688" stroke-linecap="round" stroke-linejoin="round"/>
<path d="M469.684 1268.11C285.394 1353.55 120.806 1358.91 -83.7244 1376.19C-135.481 1380.58 -239.617 1413.78 -288.838 1384.38C-352.724 1346.22 -333.781 1254.7 -330.984 1200.41C-328.552 1153.3 -305.797 1054.46 -368.207 1023.52C-424.084 995.632 -584.648 1064.77 -625.899 1078.5C-716.663 1108.72 -814.163 1157.65 -913.811 1164.52C-1047.51 1173.73 -1178.5 1109.35 -1294.31 1065.07" stroke="#DDAB6C" stroke-opacity="0.57" stroke-width="0.853688" stroke-linecap="round" stroke-linejoin="round"/>
<path d="M505.445 1335.51C300.381 1402.12 108.155 1415.18 -108.495 1431.08C-160.132 1434.88 -267.89 1465.92 -316.874 1436.46C-378.326 1399.53 -363.488 1312.77 -363.663 1259.56C-363.606 1211.95 -347.037 1117.88 -409.032 1087.58C-466.929 1059.19 -611.086 1121.17 -655.844 1136.57C-743.757 1167.28 -836.509 1220.78 -932.658 1232.13C-1066.18 1247.83 -1190.7 1184.08 -1304.97 1137.69" stroke="#DDAB6C" stroke-opacity="0.57" stroke-width="0.853688" stroke-linecap="round" stroke-linejoin="round"/>
<path d="M528.809 1385.36C314.018 1437.28 104.37 1460.84 -117.511 1478.7C-170.575 1482.95 -276.608 1512.22 -327.493 1483.26C-389.957 1447.7 -380.237 1367.72 -387.185 1314.21C-393.662 1264.33 -384.35 1177.37 -449.138 1147.61C-511.075 1119.13 -634.309 1173.4 -684.36 1192.88C-766.868 1225.07 -849.765 1285.06 -939.563 1302.4C-1068.35 1327.34 -1182.59 1265.17 -1291.86 1218" stroke="#DDAB6C" stroke-opacity="0.57" stroke-width="0.853688" stroke-linecap="round" stroke-linejoin="round"/>
<path d="M540.304 1422.44C323.327 1463.16 106.771 1499.1 -114.284 1521.58C-317.214 1542.16 -358.441 1535.3 -402.447 1366.3C-415.992 1314.31 -419.046 1233.63 -486.688 1205.78C-553.261 1178.18 -654.975 1223.38 -710.025 1248.46C-786.356 1283.3 -854.764 1350.18 -936.668 1374.71C-1057.27 1410.7 -1158.5 1350.75 -1261.12 1303.53" stroke="#DDAB6C" stroke-opacity="0.57" stroke-width="0.853688" stroke-linecap="round" stroke-linejoin="round"/>
<path d="M540.817 1451.59C330.921 1482.97 124.81 1529.98 -85.1431 1559.64C-156.93 1569.72 -258.923 1598.85 -325.247 1561.67C-379.28 1531.47 -391.738 1465.03 -410.34 1418.05C-477.28 1248.84 -598.089 1211.97 -778.622 1334.31C-827.323 1367.31 -865.888 1420.94 -920.403 1446.17C-1033.36 1498.44 -1117.78 1443.01 -1219.26 1393.03" stroke="#DDAB6C" stroke-opacity="0.57" stroke-width="0.853688" stroke-linecap="round" stroke-linejoin="round"/>
<path d="M530.933 1477.65C322.946 1502.6 133.695 1560.96 -69.6734 1599.92C-261.334 1636.47 -327.737 1615.25 -411.463 1471.73C-495.783 1327.22 -626.713 1257.12 -786.944 1395.26C-830.243 1432.58 -856.574 1490.69 -905.035 1522.07C-1005.05 1586.82 -1074.92 1535.39 -1171.59 1483.74" stroke="#DDAB6C" stroke-opacity="0.57" stroke-width="0.853688" stroke-linecap="round" stroke-linejoin="round"/>
<path d="M511.483 1505.41C307.958 1524.96 153.64 1587.32 -35.8411 1639.11C-231.979 1692.71 -299.969 1657.34 -406.648 1529.62C-499.148 1418.77 -633.771 1305.82 -778.44 1448.98C-822.46 1492.54 -838.751 1552.14 -882.057 1594.81C-967.121 1678.3 -1028.44 1630.55 -1125.05 1574.53" stroke="#DDAB6C" stroke-opacity="0.57" stroke-width="0.853688" stroke-linecap="round" stroke-linejoin="round"/>
<path d="M482.995 1539.7C353.933 1548.52 249.462 1562.67 134.848 1612.62C81.0486 1636.03 32.5282 1666.91 -23.4066 1687.22C-203.753 1752.67 -282.836 1702.12 -396.847 1593.66C-492.816 1502.51 -651.542 1372.75 -775.003 1518.91C-815.344 1566.65 -823.972 1627.57 -862.589 1674.77C-937.086 1766.13 -990.095 1723.84 -1085.56 1663.1" stroke="#DDAB6C" stroke-opacity="0.57" stroke-width="0.853688" stroke-linecap="round" stroke-linejoin="round"/>
<path d="M446.356 1585.37C319.14 1590.21 223.054 1598.46 116.985 1658.3C70.5501 1684.56 32.7186 1720.75 -16.9803 1743.57C-178.977 1817.92 -267.911 1757.29 -382.834 1666.47C-481.551 1588.54 -651.386 1457.45 -763.015 1596C-802.703 1645.36 -809.905 1706.14 -843.298 1757.56C-908.775 1858.25 -970.333 1809.67 -1059.32 1748.01" stroke="#DDAB6C" stroke-opacity="0.57" stroke-width="0.853688" stroke-linecap="round" stroke-linejoin="round"/>
<path d="M402.212 1647.19C278.032 1647.13 186.708 1648.4 90.6099 1717.09C50.8269 1745.51 23.8045 1785.59 -19.8963 1810.87C-159.739 1891.72 -256.627 1824.7 -365.389 1750C-463.465 1682.63 -635.327 1557.15 -741.176 1681.4C-782.468 1729.82 -790.681 1792.27 -825.916 1842.96C-898.11 1946.74 -962.633 1893.54 -1052.27 1827.11" stroke="#DDAB6C" stroke-opacity="0.57" stroke-width="0.853688" stroke-linecap="round" stroke-linejoin="round"/>
<path d="M351.213 1729.99C236.606 1724.18 143.273 1716.02 58.4008 1787.81C18.3735 1821.79 0.138051 1867.47 -45.8858 1897.67C-157.199 1970.77 -253.437 1906.05 -345.64 1846.4C-450.073 1778.73 -609.48 1672.32 -717.872 1787.23C-760.408 1832.32 -775.453 1892.79 -817.692 1937.97C-908.773 2035.26 -984.09 1965.94 -1070.82 1898.53" stroke="#DDAB6C" stroke-opacity="0.57" stroke-width="0.853688" stroke-linecap="round" stroke-linejoin="round"/>
<path d="M294.181 1838.62C190.275 1826.97 89.7657 1807.5 12.6776 1879.06C-26.8777 1915.79 -33.834 1969.93 -82.5333 2001.55C-173.866 2060.47 -248.071 2004.8 -323.296 1958.08C-410.693 1903.98 -527.531 1824.41 -641.663 1869.01C-720.426 1899.83 -753.805 1988.95 -818.621 2033.72C-939.513 2117.19 -1028.95 2032.68 -1120.79 1960.49" stroke="#DDAB6C" stroke-opacity="0.57" stroke-width="0.853688" stroke-linecap="round" stroke-linejoin="round"/>
<path d="M264.923 1923.5C166.191 1907.97 70.0238 1884.08 -4.68516 1953.28C-43.4077 1989.18 -48.4616 2042.45 -96.3287 2073.57C-185.522 2131.85 -239.228 2075.61 -305.598 2026.58C-394.645 1960.58 -503.324 1915.66 -622.506 1959.57C-712.264 1992.64 -766.54 2067.6 -848.466 2109.77C-986.872 2181.29 -1086.6 2105.36 -1194 2031.69" stroke="#DDAB6C" stroke-opacity="0.57" stroke-width="0.853688" stroke-linecap="round" stroke-linejoin="round"/>
<path d="M263.425 1994.94C167.192 1976.22 76.0195 1949.53 2.3806 2018.19C-36.3423 2054.29 -40.3277 2108.39 -88.3142 2139.91C-181.195 2200.9 -226.869 2135.46 -290.264 2083.68C-385.239 2005.5 -496.39 1990.79 -621.395 2034.8C-717.512 2068.66 -784.973 2138.6 -876.64 2178.06C-1022.7 2240.88 -1125.47 2176.05 -1243.63 2103.6" stroke="#DDAB6C" stroke-opacity="0.57" stroke-width="0.853688" stroke-linecap="round" stroke-linejoin="round"/>
<path d="M283.861 2056.63C182.88 2034.16 99.728 2007.38 25.2519 2080.56C-9.96338 2114.94 -15.6058 2163.45 -57.1162 2195.27C-155.302 2270.6 -210.524 2189.92 -276.527 2132.39C-395.238 2029.13 -544.938 2053.22 -686.489 2121.55C-757.83 2155.91 -818.433 2205.02 -892.087 2236.14C-1040.7 2299.45 -1144.09 2246.22 -1272.28 2176.17" stroke="#DDAB6C" stroke-opacity="0.57" stroke-width="0.853688" stroke-linecap="round" stroke-linejoin="round"/>
<path d="M320.29 2112.13C218.302 2086.77 140.2 2060.39 65.3071 2134.55C28.7826 2170.7 22.6626 2221.12 -20.2164 2254.61C-126.849 2338.09 -194.047 2235.35 -264.503 2175.01C-398.471 2060.34 -557.577 2100.79 -710.132 2178.45C-780.583 2214.29 -841.779 2262.51 -915.375 2294.22C-1056.8 2355.12 -1156.81 2311.92 -1284.18 2249.29" stroke="#DDAB6C" stroke-opacity="0.57" stroke-width="0.853688" stroke-linecap="round" stroke-linejoin="round"/>
<path d="M366.764 2165.09C262.937 2136.73 189.825 2111.38 113.802 2186.87C75.6113 2224.79 68.419 2277.57 23.8742 2312.87C-92.2752 2404.86 -177.328 2277.53 -254.079 2214.14C-406.809 2087.96 -573.532 2137.99 -738.047 2230.58C-805.233 2268.39 -864.409 2316.66 -935.57 2349.65C-1065.17 2409.72 -1159.07 2376.6 -1282.29 2322.92" stroke="#DDAB6C" stroke-opacity="0.57" stroke-width="0.853688" stroke-linecap="round" stroke-linejoin="round"/>
<path d="M417.687 2219.05C312.082 2187.54 243.306 2163.28 165.677 2239.9C125.524 2279.48 116.903 2334.61 70.4547 2371.64C-55.5677 2472.06 -161.208 2318.98 -244.788 2252.35C-416.933 2114.66 -592.099 2169.55 -767.094 2281.05C-946.132 2394.96 -1038.33 2484.1 -1269.95 2397" stroke="#DDAB6C" stroke-opacity="0.57" stroke-width="0.853688" stroke-linecap="round" stroke-linejoin="round"/>
<path d="M466.586 2277.63C359.677 2242.63 294.347 2218.96 215.054 2296.16C172.879 2337.02 162.592 2394.41 114.182 2432.51C-21.7115 2540.05 -147.167 2362.3 -236.922 2292.23C-426.879 2143.72 -612.445 2201.02 -794.593 2332.9C-949.208 2444.7 -1033.87 2538.26 -1250.42 2471.41" stroke="#DDAB6C" stroke-opacity="0.57" stroke-width="0.853688" stroke-linecap="round" stroke-linejoin="round"/>
<path d="M508.107 2344.4C401.56 2305.52 339.082 2281.07 257.175 2358.07C212.98 2399.56 200.968 2458.13 150.715 2497.06C5.36886 2609.6 -135.449 2409.74 -229.894 2336.23C-434.633 2176.97 -630.957 2238.52 -816.811 2389.17C-949.496 2496.65 -1026.49 2592.92 -1226.97 2546.18" stroke="#DDAB6C" stroke-opacity="0.57" stroke-width="0.853688" stroke-linecap="round" stroke-linejoin="round"/>
<path d="M536.305 2422.95C431.843 2379.65 371.271 2352.5 286.751 2428.12C240.774 2469.17 227.217 2528.37 175.242 2566.91C21.278 2681.25 -126.589 2463.56 -223.347 2387.01C-438.529 2216.39 -643.363 2289.1 -830.48 2452.9C-946.877 2554.79 -1018.05 2649.04 -1202.92 2621.13" stroke="#DDAB6C" stroke-opacity="0.57" stroke-width="0.853688" stroke-linecap="round" stroke-linejoin="round"/>
<path d="M545.119 2516.91C445.357 2468.9 385.742 2436.14 297.899 2508.76C250.319 2548.04 235.336 2606.99 182.353 2643.61C20.9658 2755.69 -122.134 2526.56 -217.7 2446.87C-437.976 2263.53 -645.393 2359.91 -832.929 2527.05C-940.585 2622.95 -1010.92 2708.16 -1181.9 2696.12" stroke="#DDAB6C" stroke-opacity="0.57" stroke-width="0.853688" stroke-linecap="round" stroke-linejoin="round"/>
<path d="M528.897 2629.76C436.983 2577.39 377.38 2535.1 285.978 2602.51C237.69 2638.1 221.164 2695.33 167.769 2728.81C0.746376 2833.31 -122.386 2600.66 -212.245 2518.96C-597.44 2168.29 -791.471 2804.04 -1166.82 2771.6" stroke="#DDAB6C" stroke-opacity="0.57" stroke-width="0.853688" stroke-linecap="round" stroke-linejoin="round"/>
</svg>
