<svg width="60" height="60" viewBox="0 0 60 60" fill="none" xmlns="http://www.w3.org/2000/svg">
<g clip-path="url(#clip0_640_88)">
<path d="M26.7779 13.2773C24.9873 13.2933 23.1614 13.588 21.155 14.6905C20.8201 14.7868 20.1131 15.8921 19.4674 16.6074C17.3815 18.9184 16.998 22.1944 18.4864 24.9628C20.0335 27.8404 19.7735 29.8249 17.7685 30.4428C16.9194 30.7045 16.5455 30.6343 14.6714 29.8978C13.4992 29.4372 12.118 29.0639 11.6044 29.0672C10.1532 29.0766 8.75403 29.95 7.99239 31.3148C7.42076 32.3392 7.32221 32.7938 7.31584 34.5698C7.30772 36.8406 7.5846 37.6389 9.43194 40.7677C11.3086 43.9461 14.0849 46.7991 17.2874 48.8374C19.4893 50.2389 23.5391 51.7207 25.951 52.036C28.3629 52.3513 32.0606 52.9055 38.2191 51.8255C42.8086 50.7565 47.3493 47.8604 49.7918 45.06C52.2343 42.2597 52.663 41.0118 53.2723 38.0051C54.0145 34.3424 52.9958 29.3108 50.739 25.4815C49.2566 22.9664 46.5815 19.9941 44.5749 18.6371C41.1451 16.3176 34.9775 13.9911 30.9612 13.4991C29.5424 13.4212 28.1706 13.2649 26.7779 13.2773ZM25.9284 16.7615C28.3776 16.7615 30.3636 18.7475 30.3636 21.1967C30.3636 23.6458 28.3776 25.6356 25.9284 25.6356C23.4793 25.6356 21.4895 23.6458 21.4895 21.1967C21.4895 18.7475 23.4793 16.7615 25.9284 16.7615ZM38.3769 18.7912C38.4696 18.7906 38.5688 18.7936 38.6814 18.7987C39.9976 18.8588 41.184 19.3122 41.6845 19.9451C42.2582 20.6706 43.0922 24.3362 42.9211 25.38C42.7848 26.2116 40.9409 28.5109 40.4103 28.5109C40.2859 28.5109 40.0416 28.5632 39.8653 28.6274C39.6891 28.6916 39.1633 28.576 38.7002 28.3719C38.237 28.1677 37.5657 27.9925 37.208 27.981C36.1132 27.9457 35.4163 27.4064 34.8814 26.1806C34.0553 24.2874 34.1894 23.1665 35.3964 21.783C35.9588 21.1383 36.697 20.1929 37.0389 19.682C37.5177 18.9663 37.7285 18.795 38.3769 18.7912ZM46.2324 29.864C46.4017 29.8656 46.5906 29.8774 46.8037 29.8941C49.5123 30.1063 50.2956 31.1702 49.5888 33.6752C49.3759 34.4299 49.1474 35.5234 49.0814 36.1108C48.8104 38.5242 47.382 39.595 45.522 38.7719C42.3042 37.3479 42.3118 37.3515 41.9175 35.6673C41.5177 33.9597 41.66 33.592 43.4097 31.8448C43.884 31.3712 44.5121 30.7106 44.8041 30.3789C45.1379 30 45.4988 29.8569 46.2324 29.864ZM14.1302 33.9947C14.1542 33.9935 14.1746 33.9934 14.1978 33.9947C14.5076 34.013 15.5191 34.0609 16.4455 34.1C17.3718 34.139 18.2659 34.273 18.4338 34.3931C18.8387 34.6827 19.9335 37.1699 19.9335 37.8022C19.9335 38.5909 19.2794 39.465 17.6971 40.7828C16.4444 41.826 16.0592 42.0043 15.0736 42.0043C13.8916 42.0043 12.9575 41.3535 12.9575 40.5309C12.9575 40.3263 12.6765 39.5551 12.3336 38.817C11.7889 37.6445 11.7443 37.3525 11.969 36.4942C12.2831 35.2944 13.3855 34.0324 14.1302 33.9947ZM35.449 37.9262C35.9212 37.9302 36.5357 38.1381 37.5012 38.5163C38.0967 38.7496 38.9045 39.0392 39.3015 39.1628C39.8599 39.3367 40.1724 39.7318 40.6734 40.903C41.8671 43.6938 41.4527 45.0042 39.2038 45.5562C38.5263 45.7225 37.584 46.042 37.1065 46.2703C35.1448 47.2084 33.6212 46.3267 33.3141 44.0715C32.7827 40.1701 32.7819 40.1814 33.8591 38.9486C34.4393 38.2845 34.8089 37.9579 35.3588 37.93C35.3891 37.9284 35.4175 37.926 35.449 37.9262ZM25.4924 38.2044C26.0121 38.1987 26.4538 38.3759 27.274 38.8508C28.5662 39.5991 29.7998 41.0384 29.7998 41.7938C29.7998 41.9991 29.5833 42.6505 29.3187 43.2446C29.054 43.8388 28.8343 44.5151 28.8301 44.7481C28.8259 44.9811 28.546 45.5321 28.2099 45.9696C27.6747 46.6664 27.3921 46.7788 25.936 46.898C24.5566 47.011 24.2516 46.9619 24.1281 46.5936C24.0462 46.3494 23.4867 45.8663 22.884 45.5224C22.1402 45.098 21.6793 44.609 21.4595 44.0076C20.7625 42.1013 21.3945 39.4882 22.5983 39.2943C22.9192 39.2427 23.3473 39.0307 23.5492 38.8245C23.7512 38.6184 24.3751 38.3665 24.9324 38.2645C25.1409 38.2263 25.3192 38.2062 25.4924 38.2044Z" fill="#141414"/>
<path fill-rule="evenodd" clip-rule="evenodd" d="M19.6811 8.39209L17.3212 9.4686L27.5011 29.4826L29.7802 28.8942L19.6811 8.39209ZM38.9354 47.4826L36.9375 48.0289L40.2802 54.6044C40.6575 55.4423 42.3671 54.6789 42.0776 53.8641L38.9354 47.4826Z" fill="#141414"/>
<path fill-rule="evenodd" clip-rule="evenodd" d="M17.2267 9.10509C14.9294 7.06247 15.3084 4.70271 15.5219 2.85414C16.4359 3.62585 17.1075 4.00643 18.6211 5.38875C19.7031 6.37684 19.2608 7.23698 19.5026 8.21433L17.2267 9.10509Z" fill="#141414"/>
<path fill-rule="evenodd" clip-rule="evenodd" d="M23.8294 8.42955L32.9537 58.1286C33.0722 59.0375 35.1005 58.7857 35.0658 57.9235L26.633 8.05913L23.8294 8.42955Z" fill="#141414"/>
<path fill-rule="evenodd" clip-rule="evenodd" d="M23.8495 8.05397C22.1289 5.45204 23.293 3.29642 24.1183 1.58439C24.8162 2.58033 25.39 3.13341 26.5117 4.88273C27.3136 6.13317 26.5731 6.83363 26.5054 7.83822L23.8495 8.05397Z" fill="#141414"/>
<path opacity="0.1" fill-rule="evenodd" clip-rule="evenodd" d="M10.1587 32.0636L9.5238 38.4128L13.6508 43.4921L25.7143 49.3652H39.0476L46.9841 43.8096L50.3175 38.0953L51.4286 30.9525L45.7143 22.8572L42.3809 18.4128L34.4444 16.6667L30.4762 31.2699L21.9048 32.5398L10.1587 32.0636Z" fill="#141414"/>
<path opacity="0.1" fill-rule="evenodd" clip-rule="evenodd" d="M17.1428 44.4444L26.9841 31.2698L36.9841 32.5396L46.1904 26.1904L50 28.0952L51.746 35.238L48.4127 42.5396L34.2857 34.2857L30.9523 38.2539L31.5873 48.8888L24.7619 49.2063L17.1428 44.4444Z" fill="#141414"/>
</g>
<defs>
<clipPath id="clip0_640_88">
<rect width="60" height="60" fill="white"/>
</clipPath>
</defs>
</svg>
