<svg width="121" height="126" viewBox="0 0 121 126" fill="none" xmlns="http://www.w3.org/2000/svg">
<path d="M52.7083 79.2577C52.175 77.5772 50.9883 76.1337 49.3722 75.1998C46.6617 73.6125 47.5088 70.9749 46.6878 68.564C45.8668 66.1531 43.0911 63.5752 40.8237 65.2461C38.5562 66.917 39.8724 72.5145 40.146 76.8946C40.4197 81.2747 18.3315 94.9881 18.3315 94.9881C18.3315 94.9881 29.33 109.537 30.9329 109.31C32.5357 109.083 55.6012 97.1841 62.2081 91.0257C68.815 84.8672 73.2066 78.482 72.6332 77.3959C72.0598 76.3098 61.6869 65.7831 58.9894 64.6732C56.2919 63.5632 48.1734 73.6841 48.1734 73.6841" fill="white"/>
<path d="M52.7083 79.2577C52.175 77.5772 50.9883 76.1337 49.3722 75.1998C46.6617 73.6125 47.5088 70.9749 46.6878 68.564C45.8668 66.1531 43.0911 63.5752 40.8237 65.2461C38.5562 66.917 39.8724 72.5145 40.146 76.8946C40.4197 81.2747 18.3315 94.9881 18.3315 94.9881C18.3315 94.9881 29.33 109.537 30.9329 109.31C32.5357 109.083 55.6012 97.1841 62.2081 91.0257C68.815 84.8672 73.2066 78.482 72.6332 77.3959C72.0598 76.3098 61.6869 65.7831 58.9894 64.6732C56.2919 63.5632 48.1734 73.6841 48.1734 73.6841" stroke="#141414" stroke-width="1.8" stroke-miterlimit="10"/>
<path d="M59.2241 67.5614C59.2241 67.5614 65.3619 59.2904 63.3941 56.8915C61.4264 54.4926 58.8332 55.698 56.253 59.0756C53.6727 62.4532 49.7373 68.4326 50.3888 69.5903C51.0404 70.748 57.0218 70.9032 59.2241 67.5614Z" fill="white" stroke="#141414" stroke-width="1.8" stroke-miterlimit="10"/>
<path d="M28.3398 85.8577L32.5229 83.3752L48.4603 101.54L44.1729 105.371L28.3398 85.8577Z" fill="white" stroke="#141414" stroke-width="1.8" stroke-miterlimit="10"/>
<path d="M27.2188 124.551C38.074 113.953 47.6129 104.488 47.6129 104.488L29.5775 83.3633L2.21167 97.3631L27.2188 124.551Z" fill="#DDAB6C"/>
<path d="M1 98.0076L29.5778 83.3633L47.6132 104.488C47.6132 104.488 38.0742 113.953 27.2191 124.551" stroke="#141414" stroke-width="1.8" stroke-miterlimit="10"/>
<path d="M42.5441 105.694C42.2331 105.878 41.8694 105.974 41.4988 105.97C41.1283 105.965 40.7675 105.86 40.4619 105.668C40.1564 105.476 39.9198 105.206 39.7819 104.891C39.644 104.576 39.6111 104.23 39.6873 103.898C39.7634 103.566 39.9453 103.262 40.2099 103.024C40.4744 102.787 40.8099 102.626 41.174 102.563C41.5381 102.5 41.9145 102.536 42.2557 102.669C42.5969 102.801 42.8877 103.023 43.0914 103.307C43.2274 103.496 43.3212 103.708 43.3674 103.931C43.4135 104.154 43.4111 104.383 43.3602 104.605C43.3093 104.826 43.211 105.037 43.071 105.224C42.9309 105.411 42.7518 105.57 42.5441 105.694Z" fill="white" stroke="#141414" stroke-miterlimit="10"/>
<path d="M39.0254 109.62C38.82 109.743 38.5902 109.828 38.3491 109.87C38.108 109.912 37.8602 109.909 37.62 109.863C37.3798 109.817 37.1519 109.729 36.9492 109.602C36.7465 109.475 36.573 109.313 36.4387 109.125C36.3043 108.937 36.2118 108.727 36.1662 108.506C36.1207 108.285 36.1231 108.058 36.1733 107.838C36.2236 107.618 36.3206 107.409 36.4589 107.224C36.5972 107.038 36.7741 106.879 36.9795 106.756C37.1848 106.633 37.4146 106.548 37.6558 106.506C37.8969 106.465 38.1446 106.467 38.3848 106.513C38.625 106.559 38.853 106.648 39.0557 106.775C39.2584 106.901 39.4319 107.063 39.5662 107.251C39.7005 107.439 39.7931 107.65 39.8386 107.871C39.8841 108.092 39.8817 108.318 39.8315 108.538C39.7813 108.758 39.6843 108.967 39.5459 109.153C39.4076 109.338 39.2307 109.497 39.0254 109.62Z" fill="white" stroke="#141414" stroke-miterlimit="10"/>
<path d="M35.3507 113.344C35.1445 113.47 34.9128 113.557 34.6693 113.601C34.4257 113.644 34.1753 113.642 33.9325 113.595C33.6898 113.549 33.4597 113.458 33.2556 113.329C33.0516 113.199 32.8778 113.034 32.7444 112.843C32.4749 112.463 32.3811 112.001 32.4837 111.557C32.5864 111.114 32.877 110.727 33.2918 110.48C33.7065 110.233 34.2113 110.147 34.6952 110.241C35.1791 110.335 35.6024 110.601 35.872 110.981C36.1444 111.358 36.2426 111.818 36.1448 112.261C36.0471 112.704 35.7615 113.094 35.3507 113.344Z" fill="white" stroke="#141414" stroke-miterlimit="10"/>
<path d="M56.1226 61.2479L43.7167 68.1105C42.0894 69.0122 40.2841 69.6114 38.4038 69.8739C36.5236 70.1364 34.6053 70.057 32.7586 69.6402C30.9119 69.2235 29.1729 68.4776 27.641 67.4451C26.1092 66.4126 24.8145 65.1138 23.8309 63.6229C22.846 62.1316 22.1915 60.4773 21.9047 58.7543C21.618 57.0313 21.7046 55.2735 22.1595 53.5812C22.6145 51.8888 23.429 50.2952 24.5565 48.8911C25.684 47.4871 27.1023 46.3002 28.7306 45.3982L41.1365 38.4879L56.1226 61.2479Z" fill="white" stroke="#141414" stroke-width="1.8" stroke-linecap="round" stroke-linejoin="round"/>
<path d="M65.6745 8.79358L41.1365 38.5356L56.1225 61.2479L96.2852 55.1849" fill="white"/>
<path d="M65.6745 8.79358L41.1365 38.5356L56.1225 61.2479L96.2852 55.1849" stroke="#141414" stroke-width="1.8" stroke-linecap="round" stroke-linejoin="round"/>
<path d="M67.5901 94.5822C64.9839 96.0264 61.2699 94.7732 59.3022 91.7775L43.6646 68.1701L53.0993 62.9545L68.7369 86.55C70.7046 89.486 70.1964 93.0904 67.5901 94.5822Z" fill="white" stroke="#141414" stroke-width="1.8" stroke-linecap="round" stroke-linejoin="round"/>
<path d="M104.899 18.7474L113.8 13.8182" stroke="#141414" stroke-width="1.8" stroke-linecap="round" stroke-linejoin="round"/>
<path d="M94.4739 9.09193L99.9731 1" stroke="#141414" stroke-width="1.8" stroke-linecap="round" stroke-linejoin="round"/>
<path d="M109.382 31.6849L119.768 31.0046" stroke="#141414" stroke-width="1.8" stroke-linecap="round" stroke-linejoin="round"/>
<path d="M77.5464 12.7321L97.9926 43.7631C99.8899 40.5422 100.837 36.9239 100.741 33.2653C100.644 29.6066 99.5079 26.0343 97.4433 22.9009C95.3788 19.7676 92.4576 17.1816 88.9683 15.3983C85.4789 13.6149 81.5421 12.696 77.5464 12.7321Z" fill="#DDAB6C" stroke="#141414" stroke-width="1.8" stroke-linecap="round" stroke-linejoin="round"/>
<path d="M101.733 56.3903C101.291 56.6457 100.799 56.8177 100.284 56.8959C99.7687 56.9742 99.2418 56.9572 98.7341 56.846C98.2264 56.7347 97.7481 56.5315 97.3276 56.2482C96.907 55.965 96.5527 55.6075 96.2854 55.1968L65.6617 8.80549C65.3828 8.40135 65.1951 7.95014 65.1096 7.47848C65.0242 7.00682 65.0427 6.52427 65.1642 6.05929C65.2856 5.5943 65.5075 5.1563 65.8168 4.77113C66.1261 4.38596 66.5164 4.06142 66.9649 3.81665C67.4061 3.56119 67.8988 3.38926 68.4138 3.311C68.9288 3.23273 69.4556 3.24972 69.9633 3.36096C70.471 3.4722 70.9493 3.67543 71.3698 3.95868C71.7904 4.24193 72.1447 4.59945 72.412 5.01015L103.023 51.4015C103.302 51.8049 103.491 52.2554 103.577 52.7266C103.663 53.1978 103.646 53.68 103.526 54.1449C103.406 54.6098 103.185 55.048 102.877 55.4336C102.569 55.8192 102.18 56.1445 101.733 56.3903Z" fill="white" stroke="#141414" stroke-width="1.8" stroke-linecap="round" stroke-linejoin="round"/>
<path d="M70.0141 70.7122C70.237 70.6446 70.4699 70.6084 70.7047 70.6048C71.4996 70.6048 72.8288 70.8793 73.7801 72.7412C75.2266 75.5936 71.2781 79.4128 68.0593 80.9047C64.8406 82.3966 62.104 80.105 63.5766 77.1452C65.0491 74.1853 70.0141 70.7122 70.0141 70.7122Z" fill="white" stroke="#141414" stroke-width="1.8" stroke-miterlimit="10"/>
<path d="M67.3428 66.8454C67.3428 66.8454 65.6226 66.1173 61.622 70.6526C57.6214 75.1879 60.0713 76.8588 61.0486 77.2408C61.7388 77.5172 62.5042 77.5955 63.2439 77.4656C63.9837 77.3356 64.6631 77.0034 65.1926 76.5127C66.9779 75.1999 71.4998 70.9868 70.4051 68.8982C70.1531 68.3294 69.7331 67.836 69.1923 67.4735C68.6514 67.1109 68.011 66.8934 67.3428 66.8454Z" fill="white" stroke="#141414" stroke-width="1.8" stroke-miterlimit="10"/>
<path d="M65.779 65.5444C65.6338 64.6986 65.1798 63.923 64.491 63.3442C63.8022 62.7653 62.9194 62.4176 61.9869 62.3578C58.6378 62.1191 53.9596 69.5187 54.5069 71.679C54.6407 72.0892 54.8659 72.4696 55.168 72.7963C55.4702 73.1229 55.843 73.3888 56.2628 73.5771C56.6826 73.7655 57.1405 73.8722 57.6075 73.8906C58.0745 73.909 58.5407 73.8387 58.9766 73.6841C60.0452 73.0992 65.8572 68.2178 65.779 65.5444Z" fill="white" stroke="#141414" stroke-width="1.8" stroke-miterlimit="10"/>
</svg>
