<svg width="60" height="60" viewBox="0 0 60 60" fill="none" xmlns="http://www.w3.org/2000/svg">
<path d="M43.125 41.0914L30 48.4742L16.875 41.0914V33.2911L13.125 31.2078V43.2844L30 52.7766L46.875 43.2844V31.2078L43.125 33.2911V41.0914Z" fill="#141414"/>
<path d="M55.7501 19.3032V34.1878H53.0001V24.3327V23.483L52.2573 23.8956L30.0001 36.2603L4.25012 21.9551V19.3032L30.0001 5.9514L55.7501 19.3032ZM29.7573 32.9803L30.0001 33.1152L30.243 32.9803L45.2429 24.6465L48.9929 22.5633L48.7501 22.1262L48.993 22.5633L51.592 21.1193L52.4061 20.667L51.5794 20.2383L30.2303 9.16845L30.0001 9.04911L29.77 9.16845L8.42086 20.2383L7.59412 20.667L8.40819 21.1193L11.0073 22.5633L11.2501 22.1262L11.0073 22.5633L14.7573 24.6465L14.7573 24.6465L29.7573 32.9803Z" fill="#141414" stroke="#141414"/>
</svg>
