<svg width="60" height="60" viewBox="0 0 60 60" fill="none" xmlns="http://www.w3.org/2000/svg">
<g clip-path="url(#clip0_640_31)">
<path d="M35.6251 28.125C35.6251 31.23 33.1051 33.75 30.0001 33.75C26.8951 33.75 24.3751 31.23 24.3751 28.125C24.3751 25.02 26.8951 22.5 30.0001 22.5C33.1051 22.5 35.6251 25.02 35.6251 28.125Z" fill="white"/>
<path d="M53.5126 15H43.9876C40.4064 15 37.5001 17.9063 37.5001 21.4875V33.75C37.5001 35.82 39.1801 37.5 41.2501 37.5V60H56.2501V37.5C58.3201 37.5 60.0001 35.82 60.0001 33.75V21.4875C60.0001 17.9063 57.0939 15 53.5126 15Z" fill="white"/>
<path d="M56.2501 7.5C56.2501 11.6438 52.8939 15 48.7501 15C44.6064 15 41.2501 11.6438 41.2501 7.5C41.2501 3.35625 44.6064 0 48.7501 0C52.8939 0 56.2501 3.35625 56.2501 7.5Z" fill="white"/>
<path d="M16.0126 18.75H6.48762C2.90637 18.75 0.00012207 21.6563 0.00012207 25.2375C0.00012207 28.8188 2.90637 31.725 6.48762 31.725C10.0689 31.725 12.9751 28.8188 12.9751 25.2375C12.9751 21.6563 10.0689 18.75 6.48762 18.75C2.90637 18.75 0.00012207 21.6563 0.00012207 25.2375V33.75C0.00012207 35.82 1.68012 37.5 3.75012 37.5L0.00012207 48.75H3.75012V60H18.7501V48.75H22.5001L18.7501 37.5C20.8201 37.5 22.5001 35.82 22.5001 33.75V25.2375C22.5001 21.6563 19.5939 18.75 16.0126 18.75Z" fill="white"/>
<path d="M18.7501 11.25C18.7501 15.3938 15.3939 18.75 11.2501 18.75C7.10637 18.75 3.75012 15.3938 3.75012 11.25C3.75012 7.10625 7.10637 3.75 11.2501 3.75C15.3939 3.75 18.7501 7.10625 18.7501 11.25Z" fill="white"/>
<path d="M26.2501 48.75V60H33.7501V48.75C35.8201 48.75 37.5001 47.07 37.5001 45V39.225C37.5001 36.2025 35.0476 33.75 32.0251 33.75H27.9751C24.9526 33.75 22.5001 36.2025 22.5001 39.225V45C22.5001 47.07 24.1801 48.75 26.2501 48.75Z" fill="white"/>
</g>
<defs>
<clipPath id="clip0_640_31">
<rect width="60" height="60" fill="white"/>
</clipPath>
</defs>
</svg>
