<svg width="144" height="154" viewBox="0 0 144 154" fill="none" xmlns="http://www.w3.org/2000/svg">
<path d="M79.7939 128C115.14 128 143.794 99.3462 143.794 64C143.794 28.6538 115.14 0 79.7939 0C44.4477 0 15.7939 28.6538 15.7939 64C15.7939 99.3462 44.4477 128 79.7939 128Z" fill="#141414"/>
<path d="M0 94.4701H12.701" stroke="#DDAB6C" stroke-width="2.5402" stroke-miterlimit="10"/>
<path d="M6.35059 88.1195V100.821" stroke="#DDAB6C" stroke-width="2.5402" stroke-miterlimit="10"/>
<path d="M25.3638 94.4701H38.0648" stroke="#DDAB6C" stroke-width="2.5402" stroke-miterlimit="10"/>
<path d="M31.7144 88.1195V100.821" stroke="#DDAB6C" stroke-width="2.5402" stroke-miterlimit="10"/>
<path d="M0 120.596H12.701" stroke="#DDAB6C" stroke-width="2.5402" stroke-miterlimit="10"/>
<path d="M6.35059 114.246V126.947" stroke="#DDAB6C" stroke-width="2.5402" stroke-miterlimit="10"/>
<path d="M25.3638 120.596H38.0648" stroke="#DDAB6C" stroke-width="2.5402" stroke-miterlimit="10"/>
<path d="M31.7144 114.246V126.947" stroke="#DDAB6C" stroke-width="2.5402" stroke-miterlimit="10"/>
<path d="M51.4646 120.596H64.1529" stroke="#DDAB6C" stroke-width="2.5402" stroke-miterlimit="10"/>
<path d="M57.8025 114.246V126.947" stroke="#DDAB6C" stroke-width="2.5402" stroke-miterlimit="10"/>
<path d="M76.8284 120.596H89.5294" stroke="#DDAB6C" stroke-width="2.5402" stroke-miterlimit="10"/>
<path d="M83.179 114.246V126.947" stroke="#DDAB6C" stroke-width="2.5402" stroke-miterlimit="10"/>
<path d="M51.4646 146.722H64.1529" stroke="#DDAB6C" stroke-width="2.5402" stroke-miterlimit="10"/>
<path d="M57.8025 140.372V153.073" stroke="#DDAB6C" stroke-width="2.5402" stroke-miterlimit="10"/>
<path d="M76.8284 146.722H89.5294" stroke="#DDAB6C" stroke-width="2.5402" stroke-miterlimit="10"/>
<path d="M83.179 140.372V153.073" stroke="#DDAB6C" stroke-width="2.5402" stroke-miterlimit="10"/>
</svg>
