<svg width="124" height="124" viewBox="0 0 124 124" fill="none" xmlns="http://www.w3.org/2000/svg">
<path d="M62 124C27.8132 124 0 96.1868 0 62C0 27.8132 27.8132 0 62 0C96.1868 0 124 27.8132 124 62C124 96.1868 96.1868 124 62 124ZM62 4.96C30.5481 4.96 4.96 30.5481 4.96 62C4.96 93.4519 30.5481 119.04 62 119.04C93.4519 119.04 119.04 93.4519 119.04 62C119.04 30.5481 93.4519 4.96 62 4.96Z" fill="black"/>
<path d="M62.0004 109.12C36.0184 109.12 14.8804 87.9816 14.8804 61.9996C14.8804 36.0177 36.0184 14.8796 62.0004 14.8796C87.9823 14.8796 109.12 36.0177 109.12 61.9996C109.12 87.9816 87.9823 109.12 62.0004 109.12ZM62.0004 19.8396C38.7533 19.8396 19.8404 38.7526 19.8404 61.9996C19.8404 85.2467 38.7533 104.16 62.0004 104.16C85.2474 104.16 104.16 85.2467 104.16 61.9996C104.16 38.7526 85.2474 19.8396 62.0004 19.8396Z" fill="black"/>
<path d="M62.0007 91.7604L32.2407 62.0004L47.1207 47.1204H76.8807L91.7607 62.0004L62.0007 91.7604Z" fill="#DDAB6C"/>
<path d="M62.0004 95.2672L28.7332 62L46.0932 44.64H77.9081L95.2681 62L62.0004 95.2672ZM35.7476 62L62.0004 88.2528L88.2532 62L75.8532 49.6H48.1481L35.7476 62Z" fill="black"/>
<path d="M91.7607 59.5199H32.2407V64.4799H91.7607V59.5199Z" fill="black"/>
<path d="M62.0001 93.1675C60.717 93.1675 59.5826 92.3501 59.1774 91.1324L44.7676 47.904L49.4726 46.3357L62.0001 83.9171L74.5276 46.3357L79.2326 47.904L64.8228 91.1324C64.4176 92.3496 63.2833 93.1675 62.0001 93.1675Z" fill="black"/>
<path d="M64.4798 32.2401H59.5198V39.6801H64.4798V32.2401Z" fill="black"/>
<path d="M90.0063 40.4072L85.0464 45.3671L88.5533 48.8739L93.5132 43.914L90.0063 40.4072Z" fill="black"/>
<path d="M33.9932 40.4063L30.4863 43.9132L35.4462 48.8731L38.9531 45.3662L33.9932 40.4063Z" fill="black"/>
</svg>
