<svg width="176" height="101" viewBox="0 0 176 101" fill="none" xmlns="http://www.w3.org/2000/svg">
<path d="M48.511 63.1793L61.7223 38.3582L81.4379 40.3818C84.2969 40.6122 87.1674 40.6597 90.0323 40.5241C91.5921 40.1763 99.9837 38.6585 101.185 39.4174C102.386 40.1763 127.841 51.575 127.841 51.575C128.207 52.1343 128.456 52.7641 128.571 53.4251C128.687 54.0861 128.667 54.764 128.512 55.4167C128.153 58.1044 125.548 76.6017 125.548 76.6017L117.11 78.1826C117.11 78.1826 116.595 78.6411 116.673 80.2379C116.751 81.8347 115.94 83.0046 114.162 84.2852C113.074 85.0491 111.773 85.4422 110.45 85.4076C110.45 85.4076 111.121 90.9252 108.001 91.6366C107.195 91.8982 106.334 91.9335 105.51 91.7386C104.686 91.5437 103.93 91.126 103.322 90.53C103.516 91.6952 103.248 92.8911 102.576 93.8567C101.904 94.8223 100.882 95.4792 99.7341 95.6839C95.4292 96.6799 92.8711 92.2058 92.8711 92.2058C92.8711 92.2058 93.4326 96.8697 89.2212 96.9487C87.9317 96.9316 86.6709 96.561 85.5725 95.8763C84.474 95.1915 83.5789 94.2182 82.982 93.0595C82.982 93.0595 80.5021 96.2215 77.4917 95.8578C74.4813 95.4942 73.2179 93.771 73.7638 91.4944C74.3097 89.2178 73.951 90.4193 73.951 90.4193C73.0608 90.58 72.1443 90.4925 71.2993 90.1664C69.6304 89.613 68.0238 88.7593 67.8054 87.3838C67.6815 86.3673 67.7183 85.3373 67.9146 84.3326C67.2096 84.6895 66.4058 84.7932 65.635 84.6266C64.8642 84.46 64.1721 84.0331 63.672 83.4157C62.8392 82.4701 62.2168 81.3539 61.8471 80.1431L62.1903 78.2775C62.1903 78.2775 57.6513 78.2775 57.2925 77.3921C56.9338 76.5068 55.2492 73.9773 56.0915 72.6492C56.4937 71.9638 56.9585 71.3181 57.4797 70.7205C57.4797 70.7205 60.3341 69.93 58.1348 68.2067C55.9355 66.4835 50.7571 62.0884 50.7571 62.0884C50.3168 62.0019 49.8607 62.0613 49.4562 62.2577C49.0518 62.4542 48.7203 62.7773 48.511 63.1793Z" fill="white"/>
<path d="M127.155 76.2855L115.722 78.4673C116.448 79.357 116.797 80.5021 116.691 81.6519C116.586 82.8017 116.035 83.8623 115.16 84.6014V84.6014C114.282 85.3375 113.152 85.6909 112.018 85.5842C110.884 85.4775 109.837 84.9195 109.108 84.0323L102.869 76.3646L96.6299 68.8076" stroke="#141414" stroke-width="1.8" stroke-linecap="round" stroke-linejoin="round"/>
<path d="M98.6577 39.117C102.339 39.2435 129.354 52.3339 129.354 52.3339" stroke="#141414" stroke-width="1.8" stroke-linecap="round" stroke-linejoin="round"/>
<path d="M59.3202 69.1079L49.6184 61.5034" stroke="#141414" stroke-width="1.8" stroke-linecap="round" stroke-linejoin="round"/>
<path d="M109.904 84.9968C110.63 85.8865 110.979 87.0316 110.873 88.1814C110.768 89.3312 110.217 90.3918 109.342 91.1309V91.1309C108.908 91.4973 108.407 91.7734 107.868 91.9432C107.329 92.1129 106.762 92.1731 106.2 92.1202C105.637 92.0673 105.091 91.9024 104.592 91.635C104.092 91.3675 103.65 91.0028 103.29 90.5617L97.0511 82.8941L89.2522 73.4083" stroke="#141414" stroke-width="1.8" stroke-linecap="round" stroke-linejoin="round"/>
<path d="M101.949 88.9333C102.312 89.372 102.586 89.8796 102.755 90.4264C102.924 90.9733 102.984 91.5486 102.931 92.1191C102.879 92.6896 102.716 93.244 102.451 93.7501C102.186 94.2562 101.824 94.7039 101.387 95.0674V95.0674C100.509 95.8035 99.3796 96.1569 98.2452 96.0502C97.1108 95.9435 96.0644 95.3855 95.3353 94.4982L89.0962 86.8148L82.3579 78.5938" stroke="#141414" stroke-width="1.8" stroke-linecap="round" stroke-linejoin="round"/>
<path d="M91.7638 90.1506C92.1273 90.5894 92.4014 91.0969 92.57 91.6438C92.7387 92.1907 92.7987 92.766 92.7464 93.3365C92.6942 93.9071 92.5308 94.4614 92.2658 94.9674C92.0007 95.4735 91.6392 95.9213 91.2023 96.2848C90.3245 97.0209 89.1946 97.3743 88.0602 97.2676C86.9259 97.1609 85.8795 96.6029 85.1503 95.7157L83.0134 93.107" fill="#D9D9D9"/>
<path d="M91.7638 90.1506C92.1273 90.5894 92.4014 91.0969 92.57 91.6438C92.7387 92.1907 92.7987 92.766 92.7464 93.3365C92.6942 93.9071 92.5308 94.4614 92.2658 94.9674C92.0007 95.4735 91.6392 95.9213 91.2023 96.2848C90.3245 97.0209 89.1946 97.3743 88.0602 97.2676C86.9259 97.1609 85.8795 96.6029 85.1503 95.7157L83.0134 93.107" stroke="#141414" stroke-width="1.8" stroke-linecap="round" stroke-linejoin="round"/>
<path d="M56.965 76.6017C56.6194 76.1794 56.3594 75.6922 56.1998 75.1679C56.0403 74.6437 55.9843 74.0926 56.035 73.5464C56.0857 73.0002 56.2421 72.4694 56.4954 71.9845C56.7486 71.4997 57.0938 71.0701 57.511 70.7206L62.3931 66.6258C62.8088 66.2747 63.2886 66.0101 63.8053 65.847C64.322 65.684 64.8652 65.6257 65.4041 65.6756C65.943 65.7256 66.4669 65.8827 66.9459 66.1379C67.4248 66.3932 67.8494 66.7417 68.1954 67.1634V67.1634C68.5409 67.5857 68.8009 68.0729 68.9605 68.5972C69.1201 69.1214 69.1762 69.6725 69.1255 70.2187C69.0748 70.7649 68.9183 71.2957 68.665 71.7806C68.4118 72.2654 68.0667 72.695 67.6495 73.0445L62.7674 77.1551C62.3507 77.5053 61.87 77.7688 61.3528 77.9306C60.8356 78.0923 60.292 78.1491 59.753 78.0978C59.2141 78.0464 58.6904 77.8878 58.212 77.6311C57.7336 77.3744 57.3099 77.0246 56.965 76.6017V76.6017Z" stroke="#141414" stroke-width="1.8" stroke-linecap="round" stroke-linejoin="round"/>
<path d="M62.7984 82.6725C62.1036 81.8153 61.7711 80.7146 61.8734 79.6101C61.9756 78.5056 62.5044 77.4867 63.3443 76.7755L68.2265 72.6808C68.6421 72.3297 69.122 72.065 69.6387 71.902C70.1553 71.7389 70.6987 71.6807 71.2376 71.7306C71.7765 71.7806 72.3003 71.9376 72.7793 72.1929C73.2582 72.4482 73.6828 72.7966 74.0288 73.2183C74.3752 73.6397 74.6364 74.1261 74.7972 74.6498C74.9581 75.1735 75.0155 75.7242 74.9662 76.2704C74.917 76.8166 74.7621 77.3475 74.5102 77.833C74.2584 78.3185 73.9146 78.7488 73.4985 79.0995L68.6164 83.2101C67.7726 83.9161 66.6879 84.2558 65.5982 84.1551C64.5086 84.0544 63.5023 83.5216 62.7984 82.6725V82.6725Z" stroke="#141414" stroke-width="1.8" stroke-linecap="round" stroke-linejoin="round"/>
<path d="M68.5386 88.7119C68.193 88.2896 67.9329 87.8023 67.7733 87.2781C67.6137 86.7538 67.5577 86.2028 67.6084 85.6566C67.6591 85.1103 67.8156 84.5796 68.0688 84.0947C68.3221 83.6098 68.6673 83.1803 69.0844 82.8307L73.9666 78.736C74.3822 78.3848 74.8621 78.1202 75.3788 77.9572C75.8954 77.7941 76.4388 77.7359 76.9777 77.7858C77.5166 77.8357 78.0404 77.9928 78.5194 78.2481C78.9983 78.5034 79.4229 78.8518 79.7689 79.2735C80.1144 79.6958 80.3744 80.1831 80.534 80.7073C80.6936 81.2316 80.7497 81.7826 80.699 82.3289C80.6483 82.8751 80.4918 83.4058 80.2385 83.8907C79.9852 84.3756 79.6402 84.8051 79.223 85.1547L74.3409 89.2652C73.9242 89.6155 73.4435 89.879 72.9263 90.0407C72.4091 90.2025 71.8654 90.2593 71.3265 90.2079C70.7876 90.1565 70.264 89.9979 69.7856 89.7412C69.3072 89.4845 68.8835 89.1347 68.5386 88.7119Z" stroke="#141414" stroke-width="1.8" stroke-linecap="round" stroke-linejoin="round"/>
<path d="M74.7309 94.4035C74.3854 93.9811 74.1254 93.4939 73.9658 92.9697C73.8062 92.4454 73.7501 91.8944 73.8008 91.3482C73.8515 90.8019 74.008 90.2711 74.2613 89.7863C74.5146 89.3014 74.8596 88.8719 75.2768 88.5223L80.1434 84.4276C80.9855 83.7175 82.0712 83.3753 83.1621 83.476C84.2529 83.5768 85.2598 84.1124 85.9614 84.9651V84.9651C86.6552 85.8197 86.9873 86.9179 86.885 88.0198C86.7827 89.1218 86.2543 90.1379 85.4154 90.8463L80.5334 94.9568C80.1167 95.307 79.636 95.5706 79.1188 95.7323C78.6015 95.8941 78.0578 95.9509 77.5189 95.8995C76.98 95.8481 76.4564 95.6895 75.978 95.4328C75.4996 95.1761 75.0758 94.8263 74.7309 94.4035V94.4035Z" stroke="#141414" stroke-width="1.8" stroke-linecap="round" stroke-linejoin="round"/>
<path d="M115.722 78.4671L91.5762 52.8555L81.812 56.0174C78.6925 57.0608 74.7775 56.3336 72.9837 53.4721C72.4109 52.5784 72.1517 51.5152 72.2479 50.454C72.3441 49.3928 72.7902 48.3953 73.5141 47.6225C74.9179 45.7728 78.1934 41.4884 98.2365 39.2118C101.902 38.7849 86.8969 40.9034 86.8969 40.9034L60.989 38.2948" stroke="#141414" stroke-width="1.8" stroke-linecap="round" stroke-linejoin="round"/>
<path d="M173.543 47.3855C159.052 47.3855 143.766 49.2036 129.151 50.0889L125.221 79.2261C125.221 79.2261 156.026 91.0834 174.65 100L173.543 47.3855Z" fill="#DDAB6C"/>
<path d="M173.886 47.0535C158.6 47.8123 144.718 49.4091 129.151 50.0889L125.221 79.2261C125.221 79.2261 156.026 91.0833 174.65 100" stroke="#141414" stroke-width="1.8" stroke-miterlimit="10"/>
<path d="M145.747 48.6818L140.475 85.2653" stroke="#141414" stroke-width="1.8" stroke-miterlimit="10"/>
<path d="M134.299 76.4594C134.27 76.7985 134.143 77.1213 133.933 77.3872C133.724 77.6532 133.441 77.8502 133.121 77.9536C132.801 78.057 132.458 78.062 132.136 77.9681C131.813 77.8742 131.525 77.6855 131.308 77.4259C131.091 77.1663 130.954 76.8473 130.916 76.5092C130.877 76.1711 130.938 75.8291 131.091 75.5262C131.245 75.2233 131.483 74.973 131.776 74.8071C132.069 74.6412 132.404 74.567 132.739 74.5939C132.962 74.6118 133.18 74.6744 133.38 74.778C133.579 74.8816 133.757 75.0242 133.902 75.1976C134.047 75.371 134.156 75.5718 134.225 75.7883C134.293 76.0049 134.318 76.2329 134.299 76.4594Z" fill="#141414"/>
<path d="M55.9978 28.8725L63.4536 33.8209L47.6686 64.6971L39.2146 61.2823L55.9978 28.8725Z" fill="white" stroke="#141414" stroke-width="1.8" stroke-miterlimit="10"/>
<path d="M1.06226 49.8044C21.2614 56.982 39.2144 63.211 39.2144 63.211L57.8693 27.908L24.1313 2.18573L1.06226 49.8044Z" fill="#DDAB6C"/>
<path d="M22.5405 1L57.8383 27.8764L39.1522 63.211C39.1522 63.211 21.1991 56.982 1 49.8044" stroke="#141414" stroke-width="1.8" stroke-miterlimit="10"/>
<path d="M34.8159 57.5827C34.5393 57.3989 34.3013 57.1618 34.1152 56.8848C33.9291 56.6078 33.7986 56.2963 33.7312 55.9682C33.6639 55.6401 33.661 55.3018 33.7227 54.9725C33.7843 54.6432 33.9093 54.3295 34.0906 54.0492C34.2719 53.769 34.5058 53.5276 34.7791 53.339C35.0524 53.1504 35.3597 53.0182 35.6834 52.9499C36.0071 52.8816 36.341 52.8786 36.6658 52.9411C36.9907 53.0036 37.3002 53.1304 37.5767 53.3141C38.1352 53.6852 38.5253 54.2659 38.6613 54.9286C38.7973 55.5912 38.6681 56.2815 38.302 56.8475C37.9359 57.4136 37.3629 57.8091 36.7091 57.9469C36.0553 58.0848 35.3743 57.9538 34.8159 57.5827Z" fill="white" stroke="#141414" stroke-width="1.8" stroke-miterlimit="10"/>
<path d="M27.6097 55.559C27.1887 55.284 26.8578 54.8883 26.659 54.4223C26.4603 53.9563 26.4027 53.4409 26.4936 52.9417C26.5844 52.4424 26.8196 51.9818 27.1692 51.6182C27.5189 51.2547 27.9673 51.0047 28.4574 50.9C28.9475 50.7953 29.4573 50.8406 29.922 51.0302C30.3866 51.2197 30.7852 51.545 31.0671 51.9647C31.3491 52.3843 31.5015 52.8794 31.5053 53.3871C31.509 53.8948 31.3638 54.3921 31.0881 54.8159C30.7217 55.3791 30.1509 55.7731 29.4996 55.9122C28.8484 56.0514 28.1692 55.9244 27.6097 55.559Z" fill="white" stroke="#141414" stroke-width="1.8" stroke-miterlimit="10"/>
<path d="M20.5911 53.2034C20.1784 52.925 19.8562 52.5291 19.6652 52.0654C19.4741 51.6017 19.4227 51.0911 19.5175 50.5979C19.6123 50.1047 19.8489 49.6509 20.1976 49.2938C20.5464 48.9367 20.9916 48.6922 21.4772 48.5911C21.9628 48.49 22.4672 48.5369 22.9266 48.7258C23.3859 48.9147 23.7798 49.2372 24.0587 49.6527C24.3376 50.0681 24.4889 50.5579 24.4936 51.0604C24.4983 51.5628 24.3561 52.0555 24.0851 52.4762C23.7161 53.0412 23.1411 53.435 22.4863 53.5713C21.8314 53.7076 21.1499 53.5753 20.5911 53.2034Z" fill="white" stroke="#141414" stroke-width="1.8" stroke-miterlimit="10"/>
</svg>
