<svg width="60" height="60" viewBox="0 0 60 60" fill="none" xmlns="http://www.w3.org/2000/svg">
<path d="M40.0001 7.5C40.0001 6.1193 38.8809 5 37.5001 5H22.5001C21.1194 5 20.0001 6.1193 20.0001 7.5V20H7.50012C6.11942 20 5.00012 21.1193 5.00012 22.5V37.5C5.00012 38.8807 6.11942 40 7.50012 40H20.0001V52.5C20.0001 53.8807 21.1194 55 22.5001 55H37.5001C38.8809 55 40.0001 53.8807 40.0001 52.5V40H52.5001C53.8809 40 55.0001 38.8807 55.0001 37.5V22.5C55.0001 21.1193 53.8809 20 52.5001 20H40.0001V7.5Z" stroke="white" stroke-width="2" stroke-linecap="round" stroke-linejoin="round"/>
</svg>
