<svg width="84" height="63" viewBox="0 0 84 63" fill="none" xmlns="http://www.w3.org/2000/svg">
<path d="M34.684 56.8533C31.6774 60.1333 28.329 62.0467 24.639 62.5933C20.949 63.0033 17.3274 62.3883 13.774 60.7483C10.3574 58.9717 7.41905 56.4433 4.95905 53.1633C2.49905 49.61 0.927381 45.51 0.244047 40.8633C-0.439285 36.08 0.312381 30.955 2.49905 25.4883C4.82238 19.885 8.92238 14.76 14.799 10.1133C20.8124 5.33 27.9874 2.05 36.3241 0.273327C37.8274 -2.35438e-06 38.8524 -0.0683316 39.399 0.0683333C39.9457 0.204998 40.2874 0.410001 40.4241 0.683339C40.4241 1.91334 40.0141 2.80166 39.194 3.34832C35.7774 5.26167 32.9074 7.65334 30.584 10.5233C28.2607 13.3933 26.8257 16.195 26.279 18.9283C25.7324 21.525 26.3474 23.4383 28.124 24.6683C28.6707 25.0783 29.9691 26.24 32.0191 28.1533C34.069 29.93 35.9824 32.3217 37.759 35.3283C39.5357 38.1983 40.3557 41.4783 40.219 45.1683C40.219 48.8583 38.3741 52.7533 34.684 56.8533ZM77.734 56.8533C74.7274 60.1333 71.3791 62.0467 67.689 62.5933C63.9991 63.0033 60.3774 62.3883 56.8241 60.7483C53.4074 58.9717 50.469 56.4433 48.009 53.1633C45.549 49.61 43.9774 45.51 43.2941 40.8633C42.6107 36.08 43.3624 30.955 45.549 25.4883C47.8724 19.885 51.9724 14.76 57.849 10.1133C63.8624 5.33 71.0374 2.05 79.3741 0.273327C80.8774 -2.35438e-06 81.9024 -0.0683316 82.4491 0.0683333C82.9957 0.204998 83.3374 0.410001 83.4741 0.683339C83.4741 1.91334 83.064 2.80166 82.244 3.34832C78.8274 5.26167 75.9574 7.65334 73.634 10.5233C71.3107 13.3933 69.8757 16.195 69.3291 18.9283C68.7824 21.525 69.3974 23.4383 71.174 24.6683C71.7207 25.0783 73.0191 26.24 75.0691 28.1533C77.119 29.93 79.0324 32.3217 80.8091 35.3283C82.5857 38.1983 83.4057 41.4783 83.2691 45.1683C83.2691 48.8583 81.424 52.7533 77.734 56.8533Z" fill="black"/>
</svg>
