<svg width="60" height="60" viewBox="0 0 60 60" fill="none" xmlns="http://www.w3.org/2000/svg">
<path d="M37.8051 13.5C37.8051 17.6438 34.4488 21 30.3051 21C26.1613 21 22.8051 17.6438 22.8051 13.5C22.8051 9.35625 26.1613 6 30.3051 6C34.4488 6 37.8051 9.35625 37.8051 13.5Z" fill="#141414"/>
<path d="M48.2675 33.45L38.5175 23.5875C36.9387 21.99 34.7525 21 32.33 21H28.3175C28.3175 21 28.3175 21 28.3137 21C25.8837 21 23.6825 21.99 22.0925 23.5875L12.3425 33.45C11.5325 33.9337 11 34.8075 11 35.805C11 37.3162 12.2263 38.5425 13.7375 38.5425C14.735 38.5425 15.6088 38.01 16.085 37.2113L22.805 30.4875V54.75H28.43V39.75H32.18V54.75H37.805V30.4875L44.3675 37.2375C44.8738 37.8937 45.6575 38.3137 46.5425 38.3137C48.0538 38.3137 49.28 37.0875 49.28 35.5763C49.28 34.7213 48.8863 33.9563 48.2713 33.4538L48.2675 33.45Z" fill="#141414"/>
</svg>
