<svg width="417" height="401" viewBox="0 0 417 401" fill="none" xmlns="http://www.w3.org/2000/svg">
<path d="M365.415 296.916C362.937 345.241 324.218 389.034 276.755 398.453C229.292 407.874 177.347 382.818 154.22 340.315C151.668 335.624 149.395 330.704 147.123 325.785C141.256 313.085 135.391 300.39 124.725 291.655C112.548 281.681 96.8873 279.013 81.0686 276.318C71.0235 274.608 60.9147 272.885 51.5939 269.275C29.125 260.572 11.6791 239.953 6.81582 216.353C-1.06518 178.109 23.8979 139.063 57.1874 118.654C90.4762 98.2455 130.478 92.5611 169.279 88.1813C184.121 86.5062 196.178 75.3205 204.79 63.1155C208.123 58.3909 211.123 53.4254 214.12 48.4647C218.865 40.6104 223.604 32.7654 229.655 25.8962C255.278 -3.19063 302.993 -8.09889 335.631 12.8163C368.267 33.7314 383.888 76.7388 375.209 114.518C373.714 121.025 371.592 127.361 369.471 133.697L369.47 133.698C367.439 139.764 365.407 145.83 363.925 152.046C360.759 165.334 360.154 179.085 359.794 192.74C359.364 209.021 359.263 225.345 360.787 241.56C361.318 247.201 362.044 252.834 362.772 258.467C364.423 271.266 366.074 284.059 365.415 296.916Z" fill="#DDAB6C"/>
<path d="M276.196 218.55C279.413 219.436 282.294 222.115 282.611 225.436C283.221 224.115 284.56 223.16 286.008 223.015L283.906 225.249L286.566 225.302L282.906 227.346C285.175 231.542 284.808 236.719 283.353 241.262C282.463 244.043 281.176 246.83 281.427 249.739C281.673 252.6 284.214 255.523 286.992 254.938L287.131 254.905C290.47 254.062 294.125 254.55 297.125 256.24C301.436 258.669 304.051 263.178 307.013 267.14C309.628 270.638 312.723 273.891 316.592 275.917C320.461 277.944 325.205 278.613 329.235 276.93C331.235 276.095 333.026 274.713 335.148 274.273C337.269 273.834 339.444 275.014 340.223 277.024C340.568 277.914 339.827 281.21 337.938 285.06C338.245 284.972 338.567 284.915 338.903 284.893C348.829 284.249 358.847 282.091 367.389 276.994C370.104 275.374 372.641 273.476 375.159 271.562L376.626 270.444L377.515 269.76C383.04 265.479 388.495 260.707 390.767 254.197L390.886 253.846L391.138 253.076C391.624 251.62 392.24 250.114 393.646 249.662C395.592 249.036 397.365 250.92 398.548 252.587L407.074 264.607C407.293 264.916 407.517 265.235 407.601 265.604C407.97 267.238 405.532 268.063 403.961 267.483C401.104 266.429 398.811 263.286 395.813 263.825C393.706 264.204 392.447 266.244 391.406 268.166L391.143 268.657C384.833 280.469 374.217 289.919 361.753 294.817C358.54 296.079 355.221 297.046 351.906 298.012L345.21 299.962L346.39 300.172C356.381 301.924 367.04 302.994 376.112 298.566C382.153 295.619 386.806 290.545 391.196 285.416L392.789 283.544L393.446 282.762C396.14 279.53 398.7 276.07 399.486 271.975C399.788 270.402 401.773 269.652 403.317 270.078C404.861 270.504 406.037 271.725 407.13 272.896L415.418 281.767C416.071 282.465 416.758 283.237 416.854 284.188C416.95 285.14 416.097 286.217 415.178 285.95L406.191 283.34C405.347 283.095 404.414 282.856 403.62 283.231C403.012 283.519 402.619 284.108 402.271 284.69L392.609 301.007C389.888 305.601 384.846 308.265 379.891 310.257C368.011 315.035 355.118 317.28 342.322 316.799C340.932 316.747 339.54 316.662 338.167 316.446C333.005 315.633 328.343 313.008 323.829 310.353C324.621 313.248 323.916 315.69 319.215 315.875C315.051 316.039 304.853 298.896 301.681 298.007C284.37 293.153 281.527 283.57 275.966 277.024C275.966 277.024 264.727 278.477 257.306 276.93C239.912 273.303 228.223 262.148 224.009 261.438C219.794 260.728 217.015 263.429 215.714 261.791V260.603C215.915 260.277 217.929 258.395 223.674 259.617C231.696 261.325 244.519 267.767 254.312 268.97C264.593 270.234 273.301 268.562 273.253 268.281C273.155 267.708 275.739 265.276 273.675 264.047C271.61 262.819 241.637 250.789 235.123 240.764L235.044 240.64C233.925 238.78 233.074 234.16 235.327 236.275L235.958 235.156C238.385 237.445 246.353 242.676 254.63 247.833C263.381 253.286 275.74 256.778 275.966 256.625C281.002 253.219 276.535 250.753 275.702 250.029C273.751 248.334 271.16 247.41 269.479 245.447C265.446 240.74 268.326 232.318 263.717 228.172C263.019 227.546 262.173 227.052 261.668 226.262C260.802 224.908 261.228 223.024 262.277 221.806C263.325 220.588 264.859 219.908 266.376 219.378C269.526 218.278 272.98 217.664 276.196 218.55Z" fill="white"/>
<path d="M278.899 243.813C279.555 243.813 280.088 243.281 280.088 242.624C280.088 241.967 279.555 241.435 278.899 241.435C278.242 241.435 277.709 241.967 277.709 242.624C277.709 243.281 278.242 243.813 278.899 243.813Z" fill="#FFB61D"/>
<path d="M271.647 243.813C272.134 243.813 272.529 243.281 272.529 242.624C272.529 241.967 272.134 241.435 271.647 241.435C271.16 241.435 270.765 241.967 270.765 242.624C270.765 243.281 271.16 243.813 271.647 243.813Z" fill="#FFB61D"/>
<path d="M228.548 248.387C217.49 245.528 205.868 244.868 194.558 246.457C195.413 242.23 196.484 238.047 197.766 233.929C194.086 235.116 189.741 231.744 189.979 227.884C190.217 224.024 194.943 221.211 198.45 222.841C199.654 220.062 199.731 216.813 198.658 213.98C198.144 212.621 200.194 211.837 201.647 211.837L209.677 211.835C210.799 211.835 212.364 211.314 212.085 210.227C211.424 207.648 213.197 204.703 215.784 204.079C218.325 203.468 221.185 205.208 221.841 207.729L221.876 207.87C222.485 210.577 225.914 211.437 228.689 211.384L230.071 211.35C232.471 211.3 234.972 211.378 236.578 213.057C238.499 215.065 238.07 218.262 237.437 220.988L237.395 221.168C236.497 224.952 235.54 228.721 234.525 232.475C236.497 248.348 231.613 249.18 228.548 248.387Z" fill="white"/>
<path d="M136.319 235.135C135.147 227.506 135.149 219.698 136.324 212.069L136.383 211.7C136.675 209.968 137.187 208.141 138.634 207.187C139.717 206.473 141.085 206.42 142.389 206.419L152.377 206.447C152.831 206.448 153.329 206.465 153.671 206.764C154.013 207.064 154.004 207.752 153.565 207.874C152.519 208.164 151.918 209.37 152.045 210.448C152.172 211.526 152.873 212.46 153.696 213.167C155.659 214.855 158.711 215.454 160.884 214.047C163.057 212.64 163.568 209.015 161.509 207.446C166.174 207.351 170.842 207.366 175.506 207.491L177.255 207.542C177.821 207.56 178.446 207.605 178.841 208.01C179.137 208.314 179.235 208.756 179.301 209.175C179.818 212.405 179.253 215.797 177.718 218.685C177.474 219.145 176.908 219.651 176.522 219.302C174.883 217.814 172.127 218.016 170.45 219.461C168.773 220.906 168.124 223.306 168.421 225.499C168.706 227.61 170.245 229.865 172.373 229.759C174.049 229.675 175.912 228.21 177.179 229.311L175.045 238.844C174.666 240.537 173.986 242.546 172.289 242.909C162.492 245.004 152.22 244.846 142.493 242.45L142.021 242.33C140.84 242.021 139.665 241.621 138.743 240.833C137.14 239.46 136.639 237.221 136.319 235.135Z" fill="white"/>
<path d="M213.179 160.326L236.853 160.801L237.24 160.811C237.951 160.834 238.667 160.896 239.308 161.194C240.754 161.87 241.418 163.535 241.858 165.07C244.207 173.265 243.917 182.194 241.042 190.219L240.92 190.548C240.546 191.535 240.057 192.52 239.173 193.075C238.445 193.532 237.559 193.628 236.696 193.674L236.511 193.683C232.991 193.85 229.459 193.76 225.951 193.414C227.778 192.29 228.239 189.552 227.079 187.748C225.919 185.943 223.469 185.19 221.406 185.776C220.148 186.133 218.976 186.993 218.522 188.219C218.066 189.444 218.506 191.018 219.669 191.616C220.473 192.03 220.334 193.334 219.63 193.902C218.927 194.47 217.948 194.51 217.044 194.524L205.166 194.717C204.273 194.731 203.334 194.735 202.551 194.307C201.439 193.701 200.928 192.395 200.615 191.167C199.859 188.207 199.757 185.082 200.318 182.079C200.993 184.451 203.916 185.891 206.208 184.982C208.5 184.072 209.641 181.019 208.506 178.83C207.372 176.64 204.22 175.812 202.155 177.16L202.069 176.395C201.773 173.713 201.543 170.995 202.058 168.353C202.623 165.46 204.232 162.618 206.87 161.303C208.795 160.344 211.017 160.291 213.179 160.326Z" fill="white"/>
<path d="M141.377 186.958C138.043 186.971 134.709 186.834 131.387 186.547L131.065 186.517C129.875 186.398 128.628 186.16 127.849 185.276C126.797 184.082 127.053 182.282 127.37 180.707L127.401 180.551C128.813 173.641 129.367 166.556 129.049 159.511L128.99 158.296C128.901 156.112 129.041 153.635 130.855 152.512C131.408 152.17 132.048 152.011 132.687 151.883L132.9 151.84C144.518 149.577 156.614 149.807 168.137 152.508C169.655 152.864 170.077 154.92 169.574 156.395C169.071 157.87 167.99 159.11 167.586 160.615C167.182 162.12 167.923 164.158 169.48 164.206C172.722 164.308 175.47 167.601 175.034 170.816C174.599 174.03 171.125 176.467 167.945 175.829C167.198 175.679 166.934 176.783 167.016 177.54L167.924 185.93C168.072 187.299 166.128 187.732 164.755 187.624L156.743 187.001C155.484 186.903 153.796 187.12 153.602 188.368C153.119 191.474 149.934 193.899 146.812 193.54C143.689 193.179 141.14 190.092 141.377 186.958Z" fill="white"/>
<path fill-rule="evenodd" clip-rule="evenodd" d="M119.811 238.593C120.7 238.81 121.973 239.193 121.902 240.034C120.479 256.977 114.356 253.859 108.895 258.717C107.452 260 106.59 263.036 105.97 263.106C108.268 264.168 111.603 268.425 117.343 268.62C133.335 269.162 139.156 257.494 139.156 257.494C139.531 253.752 137.634 247.014 140.002 248.901C141.638 250.203 141.314 243.858 143.548 244.489C144.219 244.68 143.046 248.898 143.548 249.15C143.824 249.29 144.234 248.14 144.948 247.225C145.544 246.462 146.463 245.897 146.653 246.064C146.782 246.177 146.658 247.267 146.122 248.189C145.368 249.486 144.107 250.734 144.284 250.942C144.478 251.171 147.802 248.078 148.005 248.348C149.35 250.142 140.83 270.795 126.454 274.694L125.315 274.999C116.935 277.226 113.415 277.53 105.651 274.694C101.969 273.349 99.6798 285.909 97.633 290.09C96.3408 292.729 90.0647 299.198 87.199 297.242C83.4181 294.661 80.3347 289.857 77.117 287.426L76.91 287.275C74.7175 285.702 69.7574 283.316 62.0303 280.117L62.3788 279.955C63.9909 279.223 68.1429 277.431 71.3315 274.694C75.8616 270.804 78.3158 262.449 81.4735 257.943C84.5919 253.494 88.776 254.15 86.2511 253.362C86.2511 253.362 79.8518 249.972 76.91 249.662C67.0855 248.625 54.2788 253.269 50.1816 256.26C44.5601 260.366 50.1453 266.408 42.3778 263.446C39.789 262.46 46.7277 249.674 56.2989 244.489C69.6022 237.284 82.1812 235.302 94.7929 246.772C99.9254 251.441 100.433 255.596 101.809 258.764L101.528 257.988C116.742 256.985 93.9466 241.753 112.977 237.942C114.976 237.541 117.073 237.958 119.077 238.421L119.811 238.593Z" fill="white"/>
<path d="M110.013 250.355C110.67 250.355 111.203 249.822 111.203 249.165C111.203 248.508 110.67 247.976 110.013 247.976C109.356 247.976 108.824 248.508 108.824 249.165C108.824 249.822 109.356 250.355 110.013 250.355Z" fill="#FFB61D"/>
<path d="M116.555 252.733C117.211 252.733 117.744 252.201 117.744 251.544C117.744 250.887 117.211 250.355 116.555 250.355C115.898 250.355 115.365 250.887 115.365 251.544C115.365 252.201 115.898 252.733 116.555 252.733Z" fill="#FFB61D"/>
<path fill-rule="evenodd" clip-rule="evenodd" d="M47.5098 295.289C60.4015 304.215 43.9072 291.886 57.9926 306.579C60.8368 309.547 75.2385 292.6 76.7245 302.643C77.2663 306.307 76.0847 310.12 76.8048 313.753C77.4774 317.142 92.2192 315.107 93.358 313.625C97.4861 308.251 84.6396 294.446 81.9463 292.239C66.9149 279.926 61.9542 280.78 47.9094 293.52L47.5098 295.289Z" fill="white"/>
<path fill-rule="evenodd" clip-rule="evenodd" d="M382.868 72.1652C385.396 72.4679 387.748 72.7485 387.748 69.8014C387.748 69.1003 379.237 62.9407 376.716 65.3128C373.473 68.3635 370.898 71.8613 368.403 75.2497C363.167 82.3625 358.286 88.9919 348.335 89.9796L348.215 89.9927C344.358 90.4583 351.544 93.8818 359.615 89.9796C365.164 87.2959 372.547 78.8064 376.054 74.7746C376.971 73.719 377.623 72.9692 377.908 72.7087L377.981 72.6457C379.176 71.7239 381.067 71.9499 382.868 72.1652ZM394.873 80.1414L403.293 86.8249C404.933 88.1272 403.012 90.9329 400.923 91.0673C399.709 91.1457 398.547 90.7723 397.378 90.3971C396.532 90.1259 395.683 89.8535 394.81 89.7501C389.865 89.1655 386.095 93.8223 383.028 97.7448C380.225 101.329 377.155 104.705 373.853 107.836L373.407 108.256L372.942 108.684C370.286 111.098 367.307 113.285 363.803 113.916C358.643 114.844 353.518 112.202 349.304 109.084C348.275 108.323 347.266 107.525 346.255 106.727C343.125 104.253 339.99 101.775 336.278 100.387C333.061 102.142 330.051 104.263 327.302 106.682L327.425 106.586C332.04 111.212 335.267 117.205 336.589 123.604L335.706 123.45L335.123 123.351C329.67 122.436 323.829 121.895 319.22 124.813C317.596 125.842 316.147 127.278 314.715 128.698C313.718 129.687 312.729 130.667 311.693 131.497C311.956 131.654 312.225 131.816 312.5 131.985C317.601 134.071 323.006 135.407 328.491 135.937C329.329 136.018 330.177 136.082 331.026 136.147C334.96 136.446 338.945 136.748 342.307 138.723L343.486 139.428C345.378 140.548 347.485 141.615 349.07 140.318C349.526 139.944 349.824 139.433 350.124 138.919C350.306 138.607 350.489 138.293 350.708 138.01C351.287 137.26 352.436 136.732 353.156 137.348L353.448 139.64C353.661 138.165 355.083 136.967 356.572 137.008C358.06 137.05 359.414 138.325 359.544 139.809C359.779 142.502 356.726 144.114 354.134 144.971L340.701 149.3C335.902 150.847 330.581 150.046 325.953 148.04C321.646 146.174 317.845 143.333 314.213 140.346L313.408 139.681C310.665 137.398 306.958 134.919 303.846 136.664C309.253 136.993 313.197 141.653 316.422 146.06L316.732 146.486C317.254 147.206 317.792 147.963 317.921 148.843C318.282 151.306 315.484 152.941 313.121 153.723C315.112 154.79 314.126 157.887 312.583 159.537C310.338 161.937 307.399 163.664 304.228 164.519L303.938 165.521C303.92 165.589 303.912 165.624 303.913 165.625C305.409 165.521 306.331 167.53 305.722 168.9C305.113 170.269 303.609 170.999 302.166 171.407C297.412 172.751 292.043 171.69 288.157 168.64L287.402 169.034C284.119 170.733 280.723 172.313 277.074 172.849C273.144 173.426 268.818 172.616 265.978 169.84L266.165 170.249C266.566 171.14 266.927 172.061 266.941 173.033C266.955 174.152 266.376 175.362 265.315 175.721C263.564 176.314 262.035 174.443 261.126 172.833C260.628 174.073 261.141 175.467 261.64 176.823C262.21 178.37 262.761 179.866 261.771 181.025C260.741 182.231 258.785 181.923 257.367 181.211C252.054 178.546 249.558 171.838 250.708 166.007C251.86 160.175 256.053 155.292 261.046 152.067C257.656 149.582 255.176 145.883 254.166 141.803C254.435 142.15 255.636 141.034 257.344 139.446C260.467 136.544 265.281 132.069 269.171 132.111C269.916 132.119 271.12 132.695 272.298 133.26H272.298C273.152 133.669 273.992 134.072 274.637 134.248C274.69 134.179 274.755 134.117 274.829 134.062L274.094 133.534C272.613 132.482 271.067 131.493 269.314 131.057C267.269 130.549 264.848 130.967 263.545 132.623C260.359 136.673 256.322 140.051 251.774 142.473L254.47 147.451C253.356 147.983 251.967 147.886 250.933 147.214L250.806 147.128L250.886 147.228C252.439 149.253 251.074 152.784 248.532 153.185C245.952 154.267 243.351 151.034 243.605 148.248C243.782 146.295 244.75 144.565 245.719 142.831C246.133 142.091 246.546 141.35 246.9 140.592C248.093 138.029 248.617 135.181 249.139 132.352C249.853 128.474 250.56 124.631 252.975 121.6C254.666 119.477 257.034 118 259.463 116.79C269.103 111.985 280.51 110.836 290.914 113.622C292.687 107.274 296.199 101.42 300.969 96.87L301.253 96.603C303.077 94.9219 305.346 93.4204 307.767 93.6963L307.958 93.7218C310.361 94.0882 312.45 92.234 314.196 90.5178L314.735 89.9891L315.157 89.5824C318.623 86.2719 322.647 83.2171 327.382 82.8876C331.594 82.5944 335.627 84.5283 339.263 86.6756C343.377 89.1055 347.29 91.8742 350.95 94.9457L351.592 95.491L351.781 95.6521L351.99 95.8317L352.11 95.9352C355.561 98.8996 359.338 102.144 363.831 101.875C368.436 101.599 371.802 97.7751 374.902 94.2523L374.903 94.2511L374.905 94.2499C375.154 93.9657 375.403 93.6832 375.65 93.4049C379.475 89.0995 383.831 85.3085 388.239 81.5954L390.13 80.0076C390.702 79.5283 391.318 79.0288 392.058 78.9325C393.1 78.7975 394.05 79.4885 394.873 80.1414ZM311.623 153.125C310.687 152.939 309.41 153.021 307.792 153.37C308.857 153.374 309.754 153.355 310.483 153.313C310.835 153.269 311.186 153.215 311.531 153.145L311.623 153.125ZM276.952 132.51C277.293 132.159 277.653 131.79 278.053 131.474C278.796 131.082 279.634 130.883 280.476 130.963C283.329 131.234 285.489 134.267 285.116 137.109C283.61 140.84 279.884 142.969 276.198 145.074V145.075C273.928 146.372 271.673 147.66 269.963 149.309C270.392 148.601 270.862 148.036 271.338 147.688C272.826 146.606 274.381 145.668 275.847 144.783H275.847C277.08 144.04 278.249 143.334 279.261 142.614C280.854 141.479 281.924 140.401 282.753 139.566H282.753C283.387 138.927 283.88 138.43 284.358 138.158C284.398 138.136 286.195 134.493 281.85 132.111C278.569 130.313 277.107 132.587 276.321 133.81C276.066 134.207 275.883 134.493 275.731 134.493C275.692 134.493 275.637 134.486 275.568 134.474C275.677 134.087 275.841 133.712 276.053 133.361C276.347 133.129 276.642 132.828 276.952 132.51ZM277.879 131.57C277.133 132.002 276.493 132.63 276.053 133.361L275.945 133.443C275.728 133.6 275.511 133.716 275.287 133.769C274.836 133.876 273.761 133.051 272.85 132.351C272.305 131.934 271.819 131.561 271.56 131.459C269.857 130.792 269.658 130.782 268.477 130.726C268.277 130.717 268.05 130.706 267.782 130.69L267.292 130.66C267.185 130.654 267.067 130.649 266.941 130.644H266.94C265.961 130.602 264.552 130.543 264.834 129.782C269.866 116.162 291.366 113.198 287.811 128.594C287.517 129.867 286.745 130.981 285.973 132.096C285.587 132.653 285.202 133.209 284.876 133.787C283.487 131.813 281.972 130.772 280.334 130.665C279.421 130.605 278.688 130.972 278.053 131.474L277.879 131.57ZM316.878 119.352L316.883 119.344C315.7 121.593 314.429 124.301 313.071 127.466C314.092 124.653 315.371 121.936 316.878 119.352ZM326.464 121.426L326.3 121.432C324.988 121.487 323.811 121.684 322.769 122.021C321.614 122.396 320.383 123.022 319.079 123.9C321.361 122.636 323.883 121.791 326.464 121.426Z" fill="white"/>
<path fill-rule="evenodd" clip-rule="evenodd" d="M259.379 178.468C258.348 179.674 256.854 179.285 255.485 177.951C252.622 175.158 251.47 169.771 252.622 163.939C253.772 158.108 258.258 155.705 263.251 152.48C261.011 151.557 256.952 145.706 256.545 140.02C257.925 141.802 257.998 145.001 259.379 146.783C260.689 148.474 263.308 150.532 264.619 152.223C264.786 152.439 264.931 152.802 264.693 152.937C259.906 155.656 256.805 156.556 253.982 163.939C251.159 171.322 256.89 178.152 257.652 177.951C258.59 177.703 258.258 176.458 257.719 175.651C256.199 173.374 257.645 170.339 258.884 167.898C259.546 168.641 257.954 170.772 258.289 172.987C258.617 175.15 260.297 177.394 259.379 178.468Z" fill="#E7EAEE"/>
<path d="M278.899 155.208C279.555 155.208 280.088 154.676 280.088 154.019C280.088 153.362 279.555 152.829 278.899 152.829C278.242 152.829 277.709 153.362 277.709 154.019C277.709 154.676 278.242 155.208 278.899 155.208Z" fill="#FFB61D"/>
<path d="M274.736 150.451C275.393 150.451 275.925 149.918 275.925 149.261C275.925 148.604 275.393 148.072 274.736 148.072C274.079 148.072 273.547 148.604 273.547 149.261C273.547 149.918 274.079 150.451 274.736 150.451Z" fill="#FFB61D"/>
<path d="M96.8772 160.941C97.5652 162.224 96.4841 164.059 95.0283 164.08C93.7819 157.071 92.4374 149.82 88.3806 143.97C80.613 132.771 64.6058 129.092 57.9556 117.195C53.4272 120.418 46.5029 119.596 42.8547 115.403C40.5858 112.795 36.6309 112.475 33.2235 113.057C29.8162 113.638 26.4873 114.925 23.0324 114.815C21.5332 114.768 19.8999 114.365 19.0274 113.145C18.1549 111.925 18.6589 109.778 20.1437 109.565C26.6122 108.639 33.0806 107.713 39.5491 106.787C40.0571 106.715 40.5961 106.628 40.9817 106.29C41.418 105.907 41.5551 105.294 41.6682 104.725C42.6047 100.012 43.2794 94.3938 39.8091 91.0702C36.9329 88.3163 32.3935 88.4109 28.4861 89.1792C24.5787 89.9481 20.5516 91.2123 16.7008 90.1973C12.8499 89.1828 9.62956 84.6086 11.7055 81.2101C13.0959 78.9337 11.5281 75.8985 9.38337 74.3125C7.23865 72.7271 4.56955 71.9463 2.49071 70.2753C0.411874 68.6037 -0.907454 65.3794 0.748395 63.2886C1.47662 62.3692 2.6169 61.8846 3.73558 61.5313C7.4381 60.3634 11.5665 60.2748 15.1355 61.8025C18.7044 63.3308 21.6026 66.6062 22.1835 70.4448C22.6566 73.5722 21.7575 77.2103 23.8249 79.6039C26.5278 82.7336 31.5235 80.9781 35.6585 80.9407C39.8877 80.902 44.0699 83.1445 46.3781 86.6881C48.6866 90.2323 49.0475 94.9635 47.3028 98.8164C52.2153 93.8182 58.8316 89.9838 65.835 90.2448C72.3037 90.4863 78.2474 94.2071 82.5736 99.0221C86.8998 103.837 89.8512 109.701 92.7454 115.491C93.8235 117.649 96.5584 118.818 98.8627 118.107C101.167 117.396 102.767 114.888 102.443 112.499C104.451 112.937 104.66 115.651 104.722 117.706C104.852 122.023 106.415 126.284 109.107 129.661C110.007 128 110.695 126.223 111.146 124.388C113.111 126.647 113.844 129.917 113.032 132.799C112.22 135.68 109.887 138.086 107.032 138.986C105.512 139.465 103.654 139.696 102.9 141.1C105.75 146.089 108.2 151.305 110.221 156.684C111.305 159.568 112.087 163.279 109.806 165.35C107.168 163.402 105.669 160.314 104.27 157.349C102.088 152.724 99.9046 148.099 97.7216 143.475" fill="white"/>
<path fill-rule="evenodd" clip-rule="evenodd" d="M104.077 114.648C103.504 120.248 105.6 126.062 109.615 130.009C111.046 129.145 111.962 127.487 111.93 125.815C113.434 128.289 112.592 131.643 110.721 133.853C108.85 136.063 106.166 137.388 103.562 138.652C102.07 139.376 100.521 140.115 98.8621 140.165C96.3324 140.24 94.0662 138.719 91.9979 137.26L85.9293 132.982C89.065 138.833 96.201 142.24 102.722 140.998C107.256 147.36 110.033 154.961 110.666 162.747L109.447 160.495C109.436 160.468 109.422 160.44 109.403 160.413L109.447 160.495C109.623 160.927 108.938 161.405 108.476 161.181C107.986 160.944 107.801 160.353 107.655 159.828C105.87 153.354 102.671 147.275 98.346 142.138L104.894 156.012C106.294 158.977 107.793 162.066 110.43 164.013C112.712 161.942 111.93 158.231 110.846 155.347C108.825 149.968 106.374 144.752 103.525 139.762C104.137 138.623 105.477 138.256 106.773 137.903H106.774H106.774C107.073 137.821 107.371 137.74 107.656 137.649C110.512 136.749 112.844 134.344 113.656 131.462C114.469 128.58 113.735 125.311 111.771 123.051C111.319 124.886 110.632 126.663 109.731 128.324C107.039 124.947 105.477 120.686 105.346 116.369C105.285 114.315 105.075 111.6 103.067 111.162C103.392 113.552 101.791 116.059 99.4871 116.77C97.1828 117.481 94.4479 116.311 93.3698 114.155C90.4756 108.364 87.5242 102.5 83.198 97.6847C78.8718 92.8697 72.9281 89.1494 66.4594 88.908C59.456 88.6469 52.8397 92.4814 47.9272 97.4795C49.6719 93.6267 49.311 88.8949 47.003 85.3513C44.6944 81.8077 40.5123 79.5652 36.2831 79.6039C35.2103 79.6134 34.0796 79.7388 32.946 79.8643C29.7102 80.2235 26.4511 80.5845 24.4494 78.267C23.0357 76.6299 23.0091 74.4112 22.9823 72.1717C22.9699 71.1364 22.9575 70.0963 22.808 69.108C22.2271 65.2694 19.3289 61.994 15.76 60.4657C12.191 58.9374 8.06261 59.0266 4.3601 60.1945C3.24141 60.5478 2.10114 61.0318 1.37291 61.9518C-0.282942 64.0426 1.03638 67.2669 3.11522 68.9379C4.20929 69.8174 5.46689 70.4507 6.7255 71.0841C7.85828 71.6543 8.99189 72.2246 10.0079 72.9757C12.1526 74.5617 13.7204 77.5968 12.33 79.8732C10.2541 83.2718 13.4745 87.8459 17.3253 88.8604C20.5086 89.6995 23.8123 88.9806 27.0693 88.2723C27.7523 88.1236 28.4333 87.9756 29.1106 87.8424C33.018 87.0741 37.5574 86.9789 40.4336 89.7334C43.9039 93.057 43.2292 98.6748 42.2928 103.388C42.1796 103.957 42.0425 104.57 41.6062 104.953C41.2206 105.291 40.6816 105.378 40.1736 105.45L20.7682 108.228C19.2834 108.44 18.7794 110.588 19.6519 111.808C20.5244 113.028 22.1578 113.431 23.6569 113.478C25.9491 113.551 28.1858 113.009 30.4268 112.466C31.5635 112.191 32.7013 111.916 33.848 111.72C37.2554 111.138 41.2103 111.458 43.4792 114.066C47.1273 118.259 54.0516 119.081 58.58 115.858C62.0796 122.118 68.1696 126.103 74.2869 130.105C79.7948 133.709 85.3246 137.327 89.0049 142.633C93.0618 148.482 94.4063 155.734 95.6527 162.742C97.1085 162.722 98.1896 160.887 97.5021 159.604L96.1344 161.408C95.6289 150.362 89.9873 139.657 81.1613 132.997C78.9759 131.347 76.5788 129.901 74.187 128.458C68.9314 125.288 63.7007 122.133 60.791 116.866C60.5287 116.392 60.2849 115.89 60.2421 115.349C60.1886 114.666 60.4609 114.007 60.7238 113.371L60.7613 113.28C61.8102 110.735 62.5435 107.943 62.0279 105.239C61.5129 102.535 59.4774 99.9789 56.755 99.5716C61.3631 102.519 62.3074 109.834 58.5996 113.855C54.8913 117.876 47.5246 117.527 44.2139 113.172C41.5607 109.683 36.2552 110.11 31.9847 111.1C27.7142 112.089 22.6852 113.125 19.3862 110.239C26.4441 108.298 33.7068 107.103 41.0145 106.68C42.7553 106.579 43.4382 104.408 43.6727 102.68C44.0331 100.024 44.3935 97.3243 43.9987 94.6733C43.6038 92.0217 42.3436 89.3772 40.0937 87.9197C37.392 86.1696 33.9041 86.4407 30.7026 86.7761L22.1946 87.6663C20.3614 87.8578 18.4774 88.0463 16.7 87.5581C14.9226 87.0699 13.2502 85.7444 12.9094 83.933C12.6942 82.7889 13.0217 81.6626 13.3519 80.5268C13.5897 79.7091 13.8287 78.8867 13.8677 78.0494C13.9788 75.6654 12.4388 73.4812 10.5676 72.0004C9.42112 71.093 8.14366 70.3788 6.86501 69.6646C6.05668 69.2126 5.24787 68.7607 4.47142 68.2594C3.00985 67.3157 1.51021 65.7909 1.91661 64.0991C2.17648 63.0174 3.15542 62.2675 4.13965 61.749C7.46253 59.9971 11.616 59.9186 15.003 61.5426C18.3899 63.1673 20.9285 66.4558 21.6426 70.1433C21.8187 71.0531 21.8988 72.0034 21.9787 72.9519C22.1635 75.145 22.3475 77.3281 23.718 78.9765C25.355 80.9448 28.1843 81.4408 30.7418 81.3189C31.6187 81.2772 32.4954 81.1791 33.3714 81.081C35.0505 80.8931 36.7269 80.7052 38.3962 80.9151C44.0094 81.6221 48.432 87.4624 47.5906 93.057C47.5442 93.3668 47.4841 93.679 47.4241 93.9918C47.21 95.108 46.9935 96.2349 47.3747 97.2827C47.8629 98.6255 49.9978 99.3402 50.6745 98.0819C53.7055 92.4457 60.6584 89.6056 67.0148 90.3501C73.3712 91.0946 79.0597 94.9219 83.2331 99.7743C87.4059 104.626 90.2448 110.465 92.834 116.318C93.7462 118.38 96.4615 119.126 98.6302 118.513C100.8 117.9 102.521 116.278 104.077 114.648ZM92.6865 124.471C92.7484 124.463 92.8911 124.742 93.107 125.164C93.6374 126.203 94.6079 128.102 95.887 128.68C95.8299 129.218 94.9837 128.93 94.6317 128.519C93.6315 127.35 92.57 126.005 92.6865 124.471ZM95.7062 133.697C96.3669 134.665 92.4118 135.146 91.0976 134.302C91.3289 134.257 91.634 134.281 91.9717 134.307C92.3725 134.338 92.8191 134.373 93.2437 134.302C93.8652 134.197 94.4652 134.006 94.9183 133.862C95.3578 133.723 95.6587 133.627 95.7062 133.697ZM94.7572 130.101C93.1831 130.371 91.2486 128.274 91.2486 126.302C91.7024 127.76 93.3145 128.917 94.2053 129.555C94.6584 129.881 94.9249 130.072 94.7572 130.101ZM100.398 138.347C98.3008 138.347 97.3505 134.811 98.3008 134.584C98.5279 134.481 98.5387 134.797 98.5547 135.265C98.5714 135.757 98.5934 136.415 98.8794 136.929C99.1969 137.498 99.8695 137.879 100.262 138.101C100.559 138.27 100.696 138.347 100.398 138.347ZM102.733 133.532C103.194 133.786 103.614 134.179 103.733 134.691C103.852 135.203 103.566 135.824 103.051 135.93C102.89 135.693 102.977 135.542 103.069 135.384C103.205 135.15 103.351 134.9 102.733 134.331C102.474 134.091 102.171 133.987 101.959 133.914C101.796 133.858 101.686 133.82 101.69 133.754C101.717 133.328 102.36 133.327 102.733 133.532ZM98.8086 128.925C98.7052 128.997 98.6338 129.047 98.695 129.104C98.8841 129.28 99.1071 129.364 99.3301 129.237C99.4996 129.138 99.5859 128.941 99.6263 128.749C99.8499 127.678 98.7188 126.571 97.6526 126.819C97.7471 127.068 97.9285 127.148 98.1479 127.245C98.4019 127.357 98.7069 127.491 98.9906 127.935C99.3724 128.533 99.0221 128.777 98.8086 128.925ZM98.45 139.023C97.2155 138.664 95.9947 135.748 96.6518 135.527C97.0621 135.39 97.0597 135.412 97.0359 135.642C97.0139 135.853 96.9741 136.239 97.2155 136.838C97.5158 137.581 97.9357 138.184 98.2033 138.568C98.3864 138.831 98.4982 138.991 98.45 139.023ZM381.227 72.827C378.577 73.1529 376.488 75.2907 375.17 77.6135C374.534 78.7362 374.024 79.925 373.514 81.1131L373.514 81.1137C372.97 82.3833 372.425 83.6523 371.726 84.8411C368.391 90.5136 362.054 93.6136 355.981 96.1475C354.934 96.5846 353.1 96.3788 353.426 95.2923C363.369 93.4061 371.928 85.5339 374.638 75.7837C374.958 74.6354 373.464 73.6655 372.311 73.9694C371.268 74.2441 370.525 75.1141 369.855 75.9776L369.645 76.2493C364.107 83.4525 356.157 89.5419 347.08 89.9356C346.437 89.9629 345.518 89.5711 345.8 88.9936C352.524 88.7683 358.862 85.4494 363.854 80.9407C368.847 76.4319 372.653 70.7802 376.215 65.0732C376.766 64.1907 378.089 64.3792 379.073 64.7152C382.095 65.7457 384.994 67.1355 387.69 68.8463C389.137 69.7651 387.991 72.2157 386.345 72.6962C385.4 72.9727 384.413 72.9055 383.421 72.8383C382.687 72.7884 381.951 72.7384 381.227 72.827ZM378.645 67.2062L378.413 67.1361C377.706 66.9333 376.916 66.8203 376.347 67.2598C376.126 67.4298 375.968 67.6647 375.823 67.9044L373.931 71.0948C374.924 71.3243 375.876 71.7317 376.728 72.2906C377.425 72.7473 378.384 72.7652 379.097 72.3341C379.809 71.9029 380.239 71.0448 380.158 70.2159C380.128 69.9066 380.634 69.8228 380.846 70.0499C381.004 70.22 381.051 70.4531 381.099 70.6856V70.6862C381.114 70.7647 381.13 70.8426 381.15 70.9187C381.23 71.219 381.475 71.542 381.78 71.4807C382.088 71.1869 382.257 70.7522 382.227 70.3277C382.338 69.8894 383.022 70.2801 383.128 70.7195C383.234 71.159 383.432 71.784 383.869 71.6668C384.51 71.5081 384.712 70.6143 384.4 70.0321C384.087 69.4493 383.458 69.1205 382.858 68.8422C381.49 68.2083 380.082 67.6618 378.645 67.2062ZM372.894 72.3929C373.882 73.3872 375.32 73.9159 376.716 73.7993C375.86 72.7218 374.404 72.1586 373.045 72.3668L372.894 72.3929ZM302.166 171.406C297.412 172.751 292.043 171.69 288.157 168.64C284.64 170.483 281.003 172.271 277.074 172.848C273.144 173.426 268.818 172.616 265.978 169.84C266.447 170.857 266.926 171.912 266.94 173.032C266.955 174.152 266.376 175.361 265.315 175.721C263.564 176.314 262.035 174.442 261.126 172.833C260.628 174.072 261.141 175.467 261.64 176.823C262.21 178.37 262.761 179.866 261.771 181.025C260.741 182.231 258.785 181.922 257.367 181.211C252.054 178.546 249.558 171.838 250.708 166.007C251.86 160.175 256.053 155.292 261.046 152.067C257.656 149.582 255.176 145.883 254.166 141.803C254.856 142.694 255.368 143.729 255.88 144.764V144.764C256.392 145.799 256.905 146.834 257.595 147.725C258.251 148.571 259.084 149.272 259.917 149.974H259.918C260.752 150.675 261.585 151.377 262.24 152.222C262.407 152.438 262.552 152.801 262.315 152.936C257.528 155.654 253.433 159.986 252.075 165.321C250.717 170.655 252.607 176.953 257.294 179.838C258.12 180.347 259.106 180.755 260.044 180.507C260.982 180.26 261.685 179.082 261.147 178.275C259.627 175.999 259.442 172.896 260.681 170.455L264.609 174.859C265.512 174.627 265.735 173.413 265.495 172.511C265.419 172.226 265.315 171.944 265.211 171.662L265.21 171.662C264.986 171.056 264.762 170.452 264.822 169.818C264.91 168.889 266.122 168.059 266.762 168.737C269.317 171.445 273.421 172.212 277.094 171.617C280.769 171.021 284.134 169.257 287.426 167.519L291.311 165.468C291.03 166.588 290.122 167.529 289.012 167.848C292.762 170.542 297.776 171.389 302.202 170.075C302.965 169.849 303.747 169.536 304.242 168.913C304.736 168.29 304.817 167.277 304.219 166.752C304.146 166.687 304.065 166.631 303.983 166.575C303.824 166.464 303.665 166.355 303.574 166.187C303.436 165.934 303.649 165.508 303.913 165.624C305.409 165.52 306.331 167.529 305.722 168.9C305.113 170.269 303.609 170.998 302.166 171.406ZM275.626 151.524C274.772 151.249 273.814 151.839 273.443 152.655C273.072 153.472 273.177 154.432 273.457 155.284C273.547 154.323 273.669 153.598 274.033 152.966C274.189 152.694 274.675 152.437 275.102 152.211C275.654 151.919 276.108 151.679 275.626 151.524ZM274.902 149.109C276.148 148.799 277.555 149.279 278.352 150.285C279.149 151.292 279.293 152.772 278.705 153.913C278.564 153.742 278.531 153.433 278.489 153.045C278.365 151.9 278.168 150.069 274.902 149.109ZM273.821 157.959C273.427 158.451 274.8 159.751 276.948 158.854C277.345 158.689 277.021 158.67 276.509 158.639C276.042 158.612 275.42 158.576 275.049 158.41C274.735 158.27 274.575 158.046 274.454 157.877C274.276 157.629 274.186 157.504 273.821 157.959ZM278.173 159.605C279.549 158.919 278.685 160.929 275.806 160.683C275.547 160.66 275.208 160.561 275.21 160.299C275.211 160.207 275.454 160.186 275.833 160.153C276.421 160.102 277.335 160.022 278.173 159.605ZM269.682 155.79C270.2 156.296 270.954 156.309 271.457 156.212C271.763 156.152 271.914 155.878 271.632 155.79C271.567 155.769 271.458 155.752 271.327 155.731C271.028 155.684 270.615 155.619 270.338 155.452C270.16 155.344 270.059 154.978 269.972 154.664C269.882 154.342 269.808 154.073 269.682 154.199C269.433 154.447 269.164 155.284 269.682 155.79ZM270.142 157.5C270.392 157.882 269.438 157.751 269.232 157.5C269.027 157.251 268.824 156.309 269.169 156.309C269.268 156.309 269.303 156.457 269.343 156.635C269.381 156.799 269.424 156.988 269.53 157.109C269.737 157.342 269.875 157.377 269.976 157.402C270.045 157.42 270.096 157.433 270.142 157.5ZM313.088 155.606C313.602 156.635 312.702 157.788 311.834 158.542C308.303 161.607 304.085 163.873 299.581 165.126C304.435 165.159 309.267 163.082 312.582 159.537C314.126 157.886 315.112 154.79 313.121 153.723C315.484 152.941 318.282 151.306 317.921 148.843C317.792 147.963 317.254 147.206 316.732 146.485L316.422 146.06C313.197 141.653 309.253 136.993 303.846 136.664C306.958 134.919 310.665 137.398 313.408 139.681L314.213 140.346C317.845 143.332 321.646 146.173 325.953 148.04C330.581 150.045 335.902 150.847 340.701 149.3L354.134 144.971C356.726 144.113 359.779 142.502 359.544 139.809C359.414 138.325 358.06 137.049 356.572 137.008C355.083 136.967 353.661 138.165 353.448 139.639L353.156 137.348C352.436 136.732 351.287 137.26 350.708 138.01C350.489 138.293 350.306 138.607 350.124 138.919C349.824 139.433 349.526 139.944 349.07 140.317C347.485 141.614 345.378 140.548 343.486 139.428L342.307 138.723C338.945 136.748 334.96 136.445 331.026 136.147C330.177 136.082 329.329 136.017 328.491 135.937C323.006 135.407 317.601 134.071 312.5 131.984C317.177 135.82 323.288 136.464 329.452 137.113C332.559 137.441 335.679 137.769 338.635 138.508C340.981 139.094 343.573 140.29 344.148 142.638C344.984 146.047 340.934 148.688 337.438 149.007C331.721 149.528 326.15 147.097 321.297 143.994L320.75 143.64C318.993 142.487 317.29 141.246 315.588 140.006C312.466 137.731 309.346 135.457 305.9 133.729C309.46 133.908 312.059 131.331 314.715 128.698C316.147 127.278 317.596 125.842 319.22 124.813C323.993 121.79 330.088 122.479 335.706 123.449L336.589 123.604C335.267 117.205 332.04 111.212 327.425 106.586L335.356 122.177C327.005 119.395 316.991 122.872 312.161 130.229C315.889 117.647 324.759 106.672 336.278 100.386C339.99 101.775 343.125 104.253 346.255 106.727L346.257 106.728H346.258C347.267 107.526 348.277 108.324 349.304 109.084C353.518 112.202 358.643 114.843 363.803 113.916C367.513 113.248 370.634 110.835 373.407 108.255L373.853 107.836C377.155 104.705 380.225 101.329 383.028 97.7442C386.095 93.8223 389.865 89.1655 394.81 89.7501C395.683 89.8535 396.532 90.1259 397.378 90.3971C398.547 90.7723 399.709 91.1451 400.923 91.0672C403.012 90.9328 404.934 88.1266 403.293 86.8249L394.873 80.1414C394.05 79.4879 393.1 78.7969 392.058 78.9325C391.318 79.0282 390.702 79.5277 390.13 80.0076L388.239 81.5954C383.831 85.3085 379.475 89.0989 375.65 93.4049C375.402 93.6838 375.153 93.9668 374.902 94.2517C371.802 97.7751 368.436 101.599 363.831 101.874C359.338 102.143 355.561 98.8996 352.11 95.9346C351.937 95.7859 351.764 95.6378 351.592 95.4904L350.95 94.9457C347.29 91.8742 343.377 89.1048 339.263 86.6756C335.627 84.5283 331.594 82.5938 327.382 82.887C322.453 83.2301 318.296 86.5258 314.735 89.9885L314.196 90.5172C312.45 92.2334 310.361 94.0881 307.958 93.7212L307.767 93.6957C305.346 93.4203 303.077 94.9219 301.253 96.603L300.969 96.8694C296.199 101.42 292.687 107.273 290.914 113.622C280.51 110.836 269.103 111.985 259.463 116.79C257.034 118 254.666 119.476 252.975 121.599C250.56 124.63 249.853 128.474 249.139 132.352H249.138C248.617 135.181 248.093 138.028 246.9 140.591C246.546 141.35 246.133 142.091 245.719 142.831C244.75 144.565 243.782 146.295 243.605 148.247C243.351 151.034 245.952 154.267 248.532 153.185C251.116 152.778 252.484 149.134 250.806 147.127C251.851 147.876 253.31 148.005 254.47 147.451L251.774 142.473C256.322 140.051 260.359 136.673 263.545 132.623C264.848 130.967 267.269 130.548 269.314 131.057C271.067 131.493 272.613 132.482 274.094 133.534L274.829 134.062C273.972 134.686 274.466 136.344 275.525 136.397C274.842 133.614 277.624 130.692 280.476 130.963C283.329 131.233 285.489 134.267 285.116 137.108C283.61 140.84 279.883 142.969 276.198 145.074C272.199 147.359 268.248 149.616 267.234 153.863C266.213 158.141 269.512 162.933 273.874 163.505C278.234 164.077 282.658 160.298 282.775 155.901C282.775 155.901 283.42 155.968 283.648 155.284C284.009 154.205 284.349 153.011 284.687 151.827C285.322 149.601 285.947 147.412 286.668 146.105C288.69 142.44 292.453 139.539 296.638 139.437C297.967 139.405 299.287 139.208 300.606 139.011H300.606C302.292 138.76 303.975 138.508 305.67 138.601C308.693 138.768 312.008 140.538 312.444 143.535C309.091 142.884 305.593 142.994 302.287 143.854L313.989 145.246C316.559 145.551 317.039 149.53 315.208 151.358C313.482 153.082 310.851 153.365 308.388 153.475L307.942 153.493C308.373 154.371 309.443 154.462 310.514 154.553C311.582 154.644 312.651 154.734 313.088 155.606ZM375.334 104.472C371.706 108.5 367.465 112.828 362.048 113.031C357.311 113.207 353.168 110.155 349.336 107.331L349.053 107.123L348.137 106.454C343.856 103.348 339.421 100.453 334.855 97.7834C331.319 95.7158 327.252 93.7189 323.286 94.7441L329.565 96.7201C328.506 97.288 328.129 98.833 328.807 99.8249C328.952 98.34 330.67 97.3957 332.143 97.6276C333.618 97.8601 334.816 98.9418 335.729 100.122C327.814 103.157 321.081 109.165 317.167 116.684C316.439 118.083 315.806 119.53 315.173 120.975C314.315 122.935 313.458 124.894 312.366 126.731C310.468 129.922 307.658 132.826 304.042 133.672C303.536 133.79 303.017 133.867 302.498 133.945C301.459 134.101 300.423 134.256 299.498 134.737C299.448 134.763 299.397 134.79 299.346 134.817L299.249 134.869L299.176 134.908C298.091 135.488 296.752 136.202 296.083 135.259C294.987 133.716 293.24 132.65 291.366 132.383C294.465 121.97 302.439 113.122 312.474 108.959C313.041 108.723 312.824 107.873 312.514 107.343L307.949 99.5317C307.528 98.8104 308.021 97.8298 308.764 97.4468C309.507 97.0639 310.392 97.1215 311.221 97.225C316.501 97.8821 321.585 100.049 325.716 103.402C326.376 103.939 327.459 104.465 327.943 103.765C323.23 99.012 316.489 96.8081 309.855 95.9203C315.59 95.3601 321.52 97.1655 325.968 100.827L326.185 101.005C327.247 101.868 328.534 102.785 329.759 102.255C324.791 97.4896 317.997 94.6775 311.115 94.5365C312.531 93.4834 313.854 92.3125 315.176 91.1416L315.177 91.141H315.178C316.521 89.9516 317.864 88.7623 319.306 87.6961C322.167 85.5808 325.587 83.9289 329.14 84.1364C331.719 84.2868 334.137 85.4001 336.418 86.6114C341.242 89.172 345.783 92.2637 349.935 95.8115C350.229 96.0624 350.524 96.3175 350.822 96.5738C354.768 99.9742 359.073 103.684 364.173 103.204C367.283 102.912 370.038 101.034 372.227 98.805C373.438 97.5723 374.517 96.2218 375.597 94.8713C376.469 93.7807 377.342 92.6901 378.284 91.6601C379.642 90.1752 381.215 88.7784 383.147 88.2116C385.078 87.6443 387.431 88.1141 388.578 89.7679L375.334 104.472ZM250.353 132.058C251.052 128.23 251.744 124.446 254.331 121.659C255.597 120.295 257.217 119.312 258.867 118.449C267.306 114.036 277.148 112.355 286.573 113.719C288.88 114.053 291.738 115.347 291.701 117.537C291.687 117.671 291.674 117.805 291.662 117.939C291.686 117.802 291.698 117.668 291.701 117.537C292.64 108.38 297.974 99.7654 305.766 94.8594C306.457 99.6786 308.568 104.285 311.768 107.954C303.289 111.525 296.249 118.392 292.467 126.779L292.407 126.911C291.333 129.263 289.629 132.15 287.142 131.564L288.373 123.955C288.486 123.257 288.591 122.501 288.26 121.877C287.891 121.179 287.101 120.858 286.331 120.626L286.061 120.547C281.603 119.285 276.601 118.073 272.529 120.285C270.375 121.455 268.829 123.416 267.384 125.429L266.31 126.937C263.762 130.494 260.909 133.834 257.793 136.907C256.538 138.143 255.182 139.373 253.501 139.906C251.821 140.439 249.733 140.08 248.736 138.627C249.532 136.55 249.944 134.297 250.353 132.058ZM277.829 161.709C275.183 162.691 273.028 162.207 270.962 161.004C270.078 160.489 269.245 159.826 268.747 158.932C268.001 157.591 268.113 155.928 268.543 154.455C269.187 152.253 270.504 150.254 272.273 148.793C273.496 147.784 274.904 147.043 276.312 146.302L276.313 146.301C276.799 146.045 277.284 145.79 277.762 145.523C282.432 142.919 286.459 139.173 289.396 134.706C289.982 133.814 291.218 133.525 292.252 133.788C293.286 134.052 294.148 134.76 294.894 135.523C295.427 136.07 295.823 137.156 295.111 137.432C290.125 139.362 286.111 143.645 284.506 148.745C284.463 148.884 284.42 149.025 284.378 149.166C284.134 149.973 283.887 150.788 283.364 151.441C282.75 152.208 281.516 154.907 282.146 156.187C282.146 156.187 280.476 160.727 277.829 161.709ZM284.747 121.31C285.554 121.491 286.434 121.751 286.877 122.45C287.24 123.023 287.217 123.751 287.16 124.426C286.935 127.097 286.373 129.74 285.492 132.272C285.344 132.7 284.884 133.215 284.549 132.91C284.169 130.993 282.417 129.435 280.469 129.28C278.521 129.125 276.546 130.388 275.868 132.221C275.734 132.583 275.264 132.717 274.892 132.617C274.612 132.543 274.374 132.373 274.145 132.191L273.92 132.007C271.599 130.122 268.458 129.285 265.507 129.766C267.079 127.119 269.074 124.725 271.392 122.701C272.34 121.872 273.369 121.091 274.567 120.702C275.695 120.337 276.907 120.34 278.09 120.4C280.329 120.515 282.559 120.819 284.747 121.31ZM390.566 87.6378C389.438 86.4348 387.892 85.6302 386.258 85.4019L388.111 83.0476C388.699 82.3096 389.385 81.5526 390.312 81.4366C390.981 81.3522 391.639 81.6269 392.247 81.9165C394.282 82.8864 396.201 84.1013 397.949 85.5267C398.532 86.0025 399.118 86.5335 399.372 87.2423C399.625 87.9506 399.421 88.8783 398.742 89.2024C398.063 89.5265 397.085 88.8164 397.363 88.1177L397.39 88.0392C397.504 87.6414 397.324 87.1722 396.964 86.9629L396.308 88.2206C396.248 88.3306 396.178 88.437 396.069 88.4971C395.632 88.7391 395.276 88.0582 395.248 87.5587L395.242 87.4897C395.195 86.9973 394.937 86.37 394.485 86.5234C394.424 87.366 393.821 88.1445 393.021 88.4144C392.22 88.6844 391.269 88.4305 390.71 87.7966L390.566 87.6378ZM249.26 149.734L248.468 146.729C248.092 146.623 247.724 147.001 247.671 147.388C247.635 147.646 247.693 147.902 247.77 148.153L247.892 148.529C248.299 149.804 248.289 151.209 247.864 152.478C247.079 150.872 246.669 149.082 246.676 147.294C246.164 147.012 245.816 147.87 245.852 148.453L246.074 151.931C245 150.964 244.621 149.394 244.805 147.961C244.989 146.527 245.662 145.204 246.419 143.972C246.813 143.33 247.251 142.685 247.879 142.268C248.508 141.851 249.373 141.708 250.015 142.105C250.548 142.433 250.795 143.019 251.046 143.611C251.236 144.06 251.427 144.513 251.746 144.864C251.859 144.988 251.991 145.115 252.125 145.244C252.644 145.744 253.198 146.279 252.835 146.818C251.718 146.132 250.697 145.291 249.809 144.327C249.488 146.319 249.782 148.405 250.641 150.23C250.817 150.603 250.236 150.959 249.871 150.768C249.505 150.576 249.366 150.133 249.26 149.734ZM356.529 139.903C357.101 139.397 357.624 138.934 357.877 139.06C358.614 139.428 356.612 141.044 355.551 141.5C355.628 142.012 356.371 141.783 356.805 141.5C357.239 141.218 358.454 140.914 358.216 141.221C356.734 143.138 353.872 144.662 351.227 144.96C350.155 145.081 348.828 144.794 348.487 143.771C348.175 142.837 348.869 141.915 349.603 141.221L349.779 141.059C350.088 140.783 350.583 140.514 350.868 140.815C351.623 141.614 352.945 140.96 353.815 140.287C353.815 140.287 356.079 138.104 356.458 138.244C356.835 138.382 355.329 140.844 355.329 140.844C355.702 140.635 356.127 140.259 356.529 139.904V139.903ZM345.696 141.93C345.967 141.868 346.249 141.977 346.483 142.127C347.333 142.674 347.74 143.824 347.42 144.783C347.1 145.742 346.085 146.419 345.077 146.346C344.934 146.336 344.785 146.309 344.673 146.218C344.437 146.03 344.467 145.67 344.52 145.373L344.9 143.202C344.991 142.677 345.177 142.047 345.696 141.93ZM297.762 136.999C299.22 136.753 300.729 136.813 302.163 137.175C302.081 137.766 301.39 138.035 300.805 138.155C299.001 138.528 297.136 138.608 295.307 138.393C295.765 137.531 296.8 137.162 297.762 136.999ZM389.163 88.8456L385.337 86.5864C387.222 86.3046 389.233 87.2947 390.158 88.9609C389.893 89.203 389.472 89.0281 389.163 88.8456ZM305.32 134.162C303.699 134.591 302.095 135.09 300.516 135.658C302.156 136.565 304.485 135.84 305.32 134.162ZM289.465 132.111C289.912 132.203 289.709 132.906 289.353 133.19C288.269 134.056 286.622 134.131 285.463 133.366L289.465 132.111ZM391.285 79.699C391.548 79.6366 391.818 79.743 392.064 79.8542C393.662 80.5755 395.126 81.593 396.358 82.84L390.86 80.0326C390.945 79.8673 391.104 79.7418 391.285 79.699ZM307.515 94.8666L307.569 94.9046C308.066 94.8333 308.578 94.8749 309.055 95.0265C308.639 95.8145 308.058 96.5162 307.362 97.0734C307.013 96.3824 307.075 95.5029 307.515 94.8666ZM401.604 87.152L401.616 87.1864C402.223 87.4332 402.637 88.0927 402.595 88.7469C401.343 88.0981 400.33 86.9997 399.784 85.7004C400.532 85.9591 401.185 86.4806 401.604 87.152ZM287.759 135.143L287.668 135.267C287.351 135.698 286.974 136.166 286.443 136.227C285.911 136.289 285.367 135.602 285.741 135.221C286.371 134.938 287.11 134.91 287.759 135.143ZM250.129 140.478C250.603 140.589 251.138 140.935 251.063 141.415C249.978 141.274 248.906 141.023 247.871 140.667C248.579 140.371 249.381 140.304 250.129 140.478ZM350.972 140.386C350.725 140.493 350.502 140.043 350.736 139.911C350.736 139.911 352.355 137.072 352.426 139.06C352.46 139.555 351.414 140.161 350.972 140.386ZM282.557 154.965C282.677 154.104 282.904 152.478 283.364 152.478C284.016 152.409 283.765 153.521 283.589 154.304C283.54 154.519 283.497 154.71 283.48 154.845C283.421 155.315 282.982 155.684 282.478 155.458C282.498 155.389 282.523 155.207 282.557 154.965ZM130.793 184.762C134.114 185.049 137.448 185.186 140.782 185.173C140.545 188.307 143.095 191.394 146.217 191.754C149.34 192.115 152.525 189.689 153.008 186.583C153.202 185.336 154.89 185.119 156.149 185.216L164.161 185.84C165.534 185.947 167.477 185.515 167.329 184.145L166.422 175.754C166.34 174.998 166.604 173.895 167.35 174.045C170.53 174.683 174.004 172.245 174.44 169.031C174.875 165.817 172.127 162.523 168.885 162.421C167.328 162.373 166.587 160.335 166.991 158.83C167.208 158.021 167.622 157.288 168.035 156.554C168.391 155.923 168.747 155.292 168.979 154.61C169.482 153.135 169.06 151.079 167.543 150.724C156.019 148.022 143.923 147.792 132.305 150.055L132.093 150.097C131.453 150.226 130.813 150.385 130.261 150.727C128.446 151.85 128.306 154.327 128.395 156.511L128.455 157.726C128.773 164.771 128.218 171.856 126.807 178.766L126.775 178.923C126.459 180.497 126.203 182.297 127.254 183.491C128.034 184.376 129.281 184.614 130.47 184.733L130.793 184.762ZM151.231 186.452C151.324 186.906 151.208 187.378 151.025 187.803L150.967 187.933C149.895 190.197 146.703 191.167 144.565 189.843C142.385 188.494 141.851 185.105 143.51 183.151C139.295 183.656 135.025 183.689 130.803 183.249C129.497 183.114 127.789 182.409 128.056 181.122C129.894 172.278 130.467 163.173 129.755 154.168C129.626 152.536 131.635 151.689 133.245 151.394C143.633 149.487 154.383 149.566 164.742 151.625C166.067 151.889 167.773 152.896 167.186 154.113C165.803 156.978 165.251 160.237 165.612 163.398C165.704 164.204 166.335 165.258 167.038 164.855C168.934 163.766 171.675 164.639 172.593 166.622C173.511 168.605 172.4 171.26 170.344 172C168.288 172.739 165.741 171.4 165.185 169.287C164.688 173.639 164.865 178.068 165.708 182.366C166 183.856 163.831 184.418 162.317 184.305L150.23 183.405C149.86 183.988 150.239 184.592 150.639 185.226C150.888 185.622 151.144 186.029 151.231 186.452ZM213.774 159.137L237.448 159.613L237.835 159.622C238.546 159.645 239.262 159.707 239.902 160.006C241.349 160.681 242.013 162.346 242.453 163.881C244.802 172.076 244.512 181.005 241.636 189.03L241.515 189.359C241.141 190.346 240.651 191.33 239.768 191.886C239.04 192.344 238.153 192.439 237.29 192.485L237.106 192.494C233.586 192.661 230.053 192.571 226.546 192.225C228.372 191.101 228.834 188.363 227.674 186.559C226.514 184.755 224.064 184.001 222 184.587C220.743 184.944 219.571 185.804 219.116 187.03C218.661 188.255 219.101 189.829 220.263 190.428C221.067 190.842 220.929 192.145 220.225 192.713C219.521 193.281 218.542 193.321 217.638 193.336L205.761 193.528C204.868 193.543 203.929 193.546 203.145 193.119C202.034 192.512 201.523 191.206 201.21 189.979C200.454 187.018 200.352 183.894 200.912 180.89C201.588 183.262 204.511 184.702 206.803 183.793C209.095 182.883 210.235 179.831 209.101 177.641C207.966 175.452 204.815 174.623 202.75 175.971L202.664 175.206C202.368 172.523 202.138 169.806 202.653 167.164C203.217 164.271 204.826 161.429 207.465 160.115C209.389 159.155 211.612 159.102 213.774 159.137ZM239.617 161.613C239.024 161.256 238.309 161.195 237.614 161.166L237.44 161.159C230.076 160.884 222.707 160.745 215.338 160.741L212.881 160.746C211.327 160.751 209.722 160.773 208.3 161.4C206.178 162.334 204.803 164.501 204.242 166.752C203.68 169.002 203.815 171.359 203.953 173.674C207.685 172.646 211.699 176.438 211.257 180.283C210.813 184.128 206.55 186.906 202.752 186.164C202.579 187.379 202.41 188.64 202.766 189.814C203.123 190.988 204.165 192.049 205.391 192.01L216.404 191.656C217.086 191.634 218.028 191.281 217.83 190.628C216.705 186.922 219.951 182.595 223.825 182.638C227.698 182.682 230.846 187.082 229.638 190.762C232.058 191.307 234.575 191.421 237.035 191.098C237.833 190.994 238.667 190.824 239.279 190.3C239.881 189.785 240.176 189.006 240.427 188.254C242.983 180.597 243.263 172.195 241.222 164.384C240.958 163.374 240.593 162.287 239.747 161.698L239.617 161.613ZM135.13 234.539C133.958 226.911 133.959 219.102 135.134 211.473L135.194 211.104C135.486 209.373 135.998 207.545 137.445 206.591C138.528 205.877 139.895 205.824 141.2 205.823L151.187 205.851C151.642 205.852 152.14 205.869 152.482 206.169C152.824 206.468 152.814 207.157 152.376 207.278C151.33 207.568 150.729 208.774 150.856 209.852C150.983 210.931 151.684 211.864 152.507 212.571C154.47 214.259 157.522 214.858 159.695 213.451C161.868 212.044 162.379 208.419 160.32 206.851C164.985 206.756 169.652 206.77 174.317 206.895L176.066 206.946C176.631 206.965 177.256 207.009 177.651 207.414C177.948 207.718 178.046 208.16 178.112 208.579C178.629 211.809 178.064 215.202 176.529 218.089C176.285 218.549 175.719 219.056 175.333 218.706C173.694 217.218 170.938 217.421 169.261 218.865C167.584 220.31 166.935 222.71 167.232 224.904C167.517 227.015 169.055 229.27 171.184 229.163C171.783 229.133 172.407 228.926 173.018 228.724H173.019C174.117 228.359 175.176 228.008 175.989 228.715L173.856 238.248C173.477 239.941 172.796 241.95 171.099 242.313C161.303 244.409 151.031 244.25 141.304 241.854L140.831 241.734C139.651 241.425 138.475 241.026 137.554 240.237C135.951 238.864 135.45 236.625 135.13 234.539ZM174.098 230.42C171.327 231.723 167.716 230.604 165.982 228.08C164.248 225.556 164.417 221.949 166.197 219.456C167.977 216.964 171.175 215.639 174.227 215.9L174.482 215.922C174.909 215.958 175.348 215.974 175.712 215.76C176.171 215.489 176.367 214.933 176.495 214.416C177.004 212.351 176.976 210.156 176.414 208.105L163.502 208.199C163.737 211.783 160.787 215.281 157.214 215.653C153.642 216.025 150.034 213.211 149.525 209.655L149.454 209.126C149.377 208.593 149.258 208.066 148.859 207.728C148.58 207.49 148.212 207.396 147.85 207.324L147.713 207.298C143.957 206.588 139.194 206.293 137.223 209.569C136.552 210.684 136.371 212.019 136.235 213.313C135.45 220.746 135.636 228.281 136.788 235.666L136.844 236.011C137.031 237.11 137.325 238.239 138.142 238.976C138.705 239.484 139.443 239.734 140.175 239.941L140.358 239.992C149.726 242.569 159.7 242.912 169.224 240.993L169.752 240.883C170.221 240.785 170.707 240.671 171.075 240.365C171.555 239.967 171.739 239.324 171.899 238.721L174.098 230.42ZM243.776 249.307C243.776 249.307 243.829 247.822 244.017 247.334C244.356 246.452 245.354 245.199 245.354 245.199C245.285 245.538 245.188 245.901 245.088 246.276C244.744 247.56 244.365 248.978 244.941 250.028C245.386 250.837 251.891 255.099 254.127 256.099C263.688 260.371 273.296 264.238 282.95 268.123H282.951L282.952 268.123L282.961 268.127C286.905 269.714 290.857 271.305 294.817 272.927C288.011 272.097 281.745 268.928 275.639 265.811C274.322 273.122 278.396 280.492 283.893 285.491C287.895 289.13 292.606 291.828 297.317 294.526H297.317H297.318V294.527H297.318C299.076 295.533 300.834 296.54 302.555 297.596L303.188 297.987C309.295 301.811 315.136 306.637 317.833 313.293C318.327 314.514 319.846 315.209 321.093 314.786C322.34 314.362 323.122 312.886 322.771 311.617C324.076 312.688 323.323 315.082 321.741 315.675C320.159 316.266 318.346 315.463 317.179 314.243C316.299 313.323 315.685 312.2 315.072 311.078V311.077H315.071V311.077V311.076L315.069 311.074C314.869 310.708 314.67 310.342 314.46 309.984C310.691 303.521 304.031 299.507 297.424 295.833L294.323 294.116C287.153 290.112 279.807 285.303 276.736 277.725C265.588 279.493 253.983 278.294 243.433 274.282C241.176 273.424 238.966 272.439 236.758 271.456C233.239 269.889 229.723 268.324 226.024 267.27C223.964 266.682 221.123 266.619 220.352 268.619C220.351 268.618 220.351 268.619 220.348 268.623C220.326 268.663 220.179 268.92 219.522 268.976C219.214 269.002 218.931 268.462 218.843 268.104C218.768 268.003 218.742 267.72 218.742 267.139C218.742 266.826 219.38 265.457 220.581 264.609C221.417 264.021 222.357 263.807 222.85 263.695C223.072 263.644 223.203 263.615 223.192 263.581C223.167 263.502 222.313 263.28 221.537 263.657C220.937 263.947 220.37 264.331 219.849 264.684L219.848 264.684C219.042 265.23 218.344 265.702 217.809 265.639C217.082 265.556 216.567 265.217 216.559 264.486C216.551 263.755 216.745 262.866 217.309 262.408C218.514 261.427 220.069 260.886 221.622 260.908C221.958 260.913 222.33 260.961 222.549 261.216C222.767 261.47 222.66 261.977 222.324 261.992C220.311 262.083 217.983 262.42 217.199 264.486C216.971 265.087 218.412 265.184 218.969 264.863C219.292 264.677 219.57 264.427 219.848 264.176C220.049 263.995 220.251 263.814 220.47 263.657C221.124 263.186 221.937 262.94 222.744 262.968C223.068 262.979 223.426 263.054 223.618 263.317C223.81 263.58 223.674 264.057 223.35 264.062C221.262 264.096 219.356 265.906 219.213 267.988C219.221 268.064 219.279 268.408 219.522 268.49C219.806 268.585 220.12 268.353 220.133 268.33C221.22 266.389 223.204 265.092 225.337 265.742C226.143 265.988 226.919 266.361 227.693 266.734C229.044 267.385 230.385 268.031 231.858 267.976L230.974 263.286C227.389 260 221.985 258.841 217.367 260.368C216.873 260.532 216.339 260.769 216.138 261.249C215.936 261.729 216.378 262.426 216.864 262.24C216.1 262.947 214.808 261.747 215.099 260.747C215.389 259.747 216.486 259.233 217.494 258.971C223.15 257.501 228.787 260.063 234.234 262.539L234.239 262.541C235.248 263 236.252 263.456 237.247 263.883C248.339 268.637 260.872 269.967 272.715 267.646C272.202 269.052 270.45 269.477 268.963 269.644C258.414 270.831 247.579 269.379 237.714 265.458C236.51 266.989 237.083 269.367 238.455 270.751C239.826 272.134 241.765 272.763 243.632 273.321C254.091 276.446 265.18 278.837 275.867 276.615L274.135 266.48L274.1 266.296C274.014 265.891 273.857 265.473 273.479 265.344L273.383 265.312C259.685 260.66 249.245 257.115 235.69 244.193C235.662 244.167 235.635 244.14 235.61 244.113C235.51 247.997 234.278 248.851 229.142 247.793C217.936 245.483 206.463 244.274 195.152 245.863C196.008 241.636 197.079 237.452 198.361 233.334C194.681 234.522 190.336 231.149 190.574 227.289C190.812 223.43 195.538 220.616 199.044 222.247C200.249 219.468 200.325 216.218 199.253 213.385C198.738 212.027 200.789 211.243 202.242 211.242L210.271 211.24C211.394 211.24 212.958 210.719 212.68 209.632C212.019 207.054 213.792 204.108 216.379 203.485C218.919 202.873 221.78 204.613 222.436 207.134L222.47 207.275C223.08 209.983 226.509 210.842 229.284 210.789L230.665 210.756C233.065 210.706 235.566 210.784 237.173 212.462C239.094 214.47 238.665 217.668 238.031 220.393L237.989 220.574C237.68 221.877 237.23 222.935 236.777 223.999C235.914 226.027 235.042 228.077 235.119 231.88C235.151 233.43 235.207 234.853 235.27 236.156C235.493 235.241 235.69 234.637 235.69 234.637C235.69 234.637 261.86 254.122 278.023 256.768C279.96 255.057 278.842 251.722 276.891 250.028C276.069 249.313 275.133 248.736 274.199 248.16C272.917 247.369 271.641 246.581 270.668 245.446C268.736 243.191 268.391 240.082 268.048 237.001C267.676 233.65 267.307 230.33 264.906 228.171C264.692 227.979 264.464 227.799 264.236 227.619H264.235C263.721 227.213 263.207 226.808 262.857 226.261C261.991 224.906 262.417 223.023 263.466 221.804C264.514 220.586 266.048 219.907 267.565 219.377C270.715 218.277 274.169 217.663 277.386 218.549C280.602 219.435 283.484 222.113 283.8 225.435C284.41 224.114 285.75 223.159 287.198 223.014L285.096 225.248L287.756 225.301L284.095 227.345C286.365 231.541 285.997 236.718 284.543 241.261C284.365 241.818 284.17 242.374 283.976 242.932C283.199 245.162 282.415 247.41 282.616 249.737C282.863 252.599 285.404 255.522 288.181 254.936L288.321 254.904C291.659 254.061 295.314 254.549 298.315 256.239C301.813 258.21 304.195 261.552 306.551 264.859C307.098 265.627 307.644 266.393 308.202 267.139C310.817 270.637 313.913 273.889 317.782 275.916C321.65 277.942 326.395 278.611 330.425 276.929C331.166 276.619 331.878 276.235 332.589 275.851C333.797 275.199 335.001 274.549 336.337 274.272C338.459 273.833 341.161 274.871 341.412 277.023C340.315 275.189 337.714 274.864 335.669 275.482C334.514 275.831 333.449 276.402 332.382 276.973C331.559 277.414 330.735 277.855 329.868 278.196C325.528 279.899 320.473 278.867 316.477 276.463C312.607 274.135 309.575 270.66 306.839 267.058L306.575 266.709C306.298 266.34 306.021 265.969 305.745 265.598L305.745 265.597L305.744 265.596L305.744 265.595L305.743 265.595V265.594L305.742 265.593L305.741 265.592L305.74 265.591C303.817 263.007 301.88 260.403 299.341 258.437C296.493 256.231 292.669 254.928 289.241 255.986L289.031 256.054C285.752 257.165 282.278 254.027 281.688 250.616C281.098 247.204 282.489 243.794 283.85 240.61C285.254 237.327 282.675 233.495 279.425 232.015C276.409 230.641 272.787 230.672 269.794 232.097C268.825 232.559 268.65 233.831 268.682 234.918L268.686 235.038C268.855 238.878 269.88 242.913 272.683 245.543C273.516 246.325 274.479 246.956 275.439 247.586H275.44C276.642 248.374 277.843 249.161 278.782 250.239C280.473 252.177 280.733 255.809 278.384 256.857C282.415 257.585 286.403 258.549 290.321 259.741C269.24 257.585 249.857 247.642 235.941 235.631C235.656 236.188 235.455 236.775 235.333 237.379C235.366 237.981 235.399 238.555 235.43 239.101C235.475 239.871 235.516 240.586 235.548 241.249C236.218 243.454 237.784 245.397 239.934 246.251C239.764 244.703 240.286 243.091 241.332 241.936C240.653 243.454 239.576 246.363 243.776 249.307ZM276.157 219.631C274.281 219.281 272.375 219.095 270.466 219.075C270.337 219.315 270.288 219.598 270.329 219.868C272.456 220.045 274.551 220.606 276.483 221.515C275.676 222.322 274.342 221.839 273.258 221.446L273.195 221.423C271.343 220.752 269.31 220.59 267.376 220.958C266.39 221.146 265.403 221.484 264.643 222.141C263.883 222.798 263.386 223.819 263.556 224.81C263.772 226.074 264.961 226.937 266.148 227.424C269.091 228.629 272.617 228.29 275.276 226.545C275.491 226.403 275.795 226.639 275.808 226.897C275.82 227.154 275.646 227.381 275.464 227.563C274.404 228.618 272.828 228.954 271.336 229.041C270.9 229.066 270.462 229.074 270.024 229.083H270.023C268.961 229.104 267.9 229.124 266.874 229.384C267.012 230.231 268.069 230.522 268.924 230.584C272.193 230.821 275.508 230.381 278.601 229.3C279.376 229.029 280.088 229.805 280.545 230.487L283.877 235.459C284.971 234.429 284.905 232.649 284.389 231.237C284.188 230.685 283.931 230.153 283.674 229.622C283.275 228.793 282.876 227.967 282.688 227.07C282.585 226.576 282.548 226.07 282.511 225.564C282.458 224.853 282.406 224.144 282.171 223.476C281.342 221.121 278.611 220.088 276.157 219.631ZM235.906 265.02L232.882 263.283C232.546 263.09 231.928 263.057 231.962 263.443C231.858 265.004 231.986 266.917 232.989 268.218C233.622 269.037 234.079 269.457 236.312 270.012L236.147 265.639C236.139 265.408 236.107 265.136 235.906 265.02ZM281.961 241.235C282.329 241.022 282.564 240.642 282.782 240.277C283.174 239.626 283.577 238.935 283.595 238.175C283.612 237.415 283.086 236.586 282.327 236.556C281.949 236.541 281.59 236.721 281.281 236.94C280.596 237.425 280.067 238.127 279.791 238.92C280.14 239.423 280.931 238.973 281.283 238.471C281.635 237.969 282.157 237.334 282.717 237.584C282.347 238.866 281.694 240.065 280.816 241.07C281.051 241.425 281.594 241.448 281.961 241.235ZM288.012 278.165C287.171 276.83 286.262 275.388 284.764 274.953C288.089 281.211 293.242 286.484 299.422 289.951C301.58 291.161 303.855 292.156 306.129 293.149C309.3 294.534 312.466 295.918 315.303 297.883C318.856 300.346 321.795 303.689 323.784 307.528C323.002 302.054 318.424 297.863 313.537 295.275C311.325 294.104 309.001 293.159 306.678 292.215C303.869 291.074 301.062 289.933 298.457 288.393C294.305 285.937 290.746 282.484 288.165 278.409C288.114 278.328 288.063 278.247 288.012 278.165ZM298.455 280.017L298.548 280.223C298.957 281.17 299.241 282.36 298.473 283.001C297.861 283.512 296.933 283.316 296.211 282.977C294.65 282.245 293.359 280.95 292.631 279.387C293.542 279.206 294.396 278.748 295.05 278.089C295.595 277.54 296.556 277.652 297.169 278.121C297.782 278.59 298.13 279.317 298.455 280.017ZM297.96 282.257C298.746 280.845 297.142 278.762 296.359 278.627C296.017 278.569 295.666 278.906 295.288 279.269C294.899 279.641 294.484 280.039 294.025 280.063C294.025 280.063 297.173 283.67 297.96 282.257ZM337.629 286.318C356.727 285.69 375.373 276.386 387.358 261.503C387.978 260.732 389.207 260.719 390.069 261.203C390.931 261.687 391.514 262.538 392.066 263.359C392.667 263.271 392.685 262.338 392.27 261.894C392.066 261.675 391.81 261.516 391.554 261.357C391.289 261.193 391.027 261.029 390.82 260.801C389.985 259.878 390.431 258.424 390.92 257.279L393.099 252.177C393.391 251.493 393.848 250.695 394.591 250.706C395.135 250.713 395.553 251.168 395.898 251.588C399.658 256.169 403.147 260.974 406.338 265.967C404.37 266.272 402.479 265.303 400.613 264.347C398.528 263.279 396.476 262.227 394.386 262.985C392.564 263.645 391.491 265.479 390.527 267.159C387.372 272.655 383.758 277.949 379.181 282.332C368.55 292.509 353.716 296.915 339.264 299.699C348.204 303.083 358.051 304.032 367.471 302.418C372.863 301.495 378.238 299.676 382.44 296.174C384.142 294.756 385.618 293.091 387.086 291.433L397.908 279.217C398.542 278.502 399.711 279.188 400.302 279.94C400.892 280.691 401.693 281.628 402.593 281.307C401.949 279.864 400.83 278.638 399.452 277.864C399.37 276.141 399.319 274.295 400.235 272.834C401.151 271.371 403.435 270.66 404.624 271.91C408.521 276.009 412.254 280.263 415.814 284.659C413.726 284.987 411.741 284.089 409.771 283.196H409.771H409.77H409.769C409.161 282.92 408.554 282.646 407.946 282.408C405.369 281.399 401.756 281.421 400.58 283.927C397.365 290.78 394.024 297.808 388.506 302.99C379.29 311.644 365.823 313.597 353.261 315.022C347.69 315.654 341.967 316.253 336.543 314.835C332.595 313.802 329.002 311.748 325.463 309.716L322.654 308.104C321.828 308.311 322.492 309.563 323.226 309.996C327.928 312.769 332.775 315.595 338.167 316.445C339.54 316.661 340.932 316.746 342.322 316.798C355.118 317.279 368.011 315.034 379.892 310.256C384.846 308.264 389.888 305.6 392.609 301.005L402.197 284.813C402.564 284.192 402.968 283.538 403.62 283.23C404.414 282.854 405.347 283.093 406.191 283.338L415.178 285.949C416.097 286.215 416.95 285.138 416.854 284.187C416.758 283.236 416.071 282.464 415.418 281.766L407.13 272.894C406.037 271.724 404.861 270.503 403.317 270.076C401.773 269.65 399.788 270.4 399.486 271.974C398.594 276.618 395.422 280.444 392.361 284.047C387.623 289.624 382.689 295.355 376.112 298.565C366.682 303.167 355.536 301.83 345.21 299.961L351.906 298.011C355.221 297.045 358.54 296.078 361.753 294.815C374.217 289.918 384.833 280.467 391.143 268.656C392.237 266.605 393.525 264.235 395.813 263.824C397.693 263.485 399.296 264.596 400.935 265.731C401.909 266.405 402.896 267.089 403.961 267.482C405.532 268.062 407.97 267.237 407.601 265.603C407.517 265.234 407.293 264.914 407.074 264.606L398.548 252.586C397.365 250.918 395.592 249.034 393.646 249.66C392.082 250.163 391.496 251.969 390.978 253.56L390.931 253.706L390.91 253.771L390.886 253.845C388.459 261.24 381.934 266.405 375.74 271.119C373.03 273.181 370.313 275.248 367.389 276.993C358.847 282.09 348.829 284.247 338.903 284.892C336.098 285.074 334.336 287.704 332.723 290.113C332.531 290.399 332.341 290.682 332.152 290.958C329.389 294.983 325.455 298.195 320.958 300.096C321.711 300.927 323.081 300.429 324.031 299.834C328.544 297.014 332.372 293.106 335.099 288.537C335.701 287.529 336.456 286.356 337.629 286.318ZM277.706 243.173C277.266 244.134 276.287 244.827 275.234 244.921C274.181 245.014 273.095 244.505 272.493 243.636C272.272 243.317 272.275 242.693 272.661 242.727C273.467 243.796 275.146 244.073 276.252 243.318C276.73 242.991 277.561 242.611 277.706 243.173ZM269.24 236.183C269.335 235.378 270.015 234.678 270.817 234.558C271.619 234.438 272.473 234.91 272.8 235.653C272.213 235.653 271.82 235.546 271.493 235.458C270.827 235.278 270.434 235.172 269.24 236.183ZM275.458 240.671L274.546 241.062L274.493 241.032C274.256 241.483 273.559 240.973 273.505 240.466C273.494 240.361 273.489 240.251 273.484 240.139C273.463 239.71 273.442 239.264 273.088 239.071C272.644 239.71 272.441 240.55 272.699 241.283C272.957 242.016 273.742 242.572 274.506 242.434C275.271 242.296 275.821 241.359 275.458 240.671ZM276.554 234.447C277.709 234.539 278.017 234.602 278.335 235.361C278.398 235.511 277.904 235.37 277.434 235.236H277.433C277.088 235.137 276.754 235.042 276.664 235.069C272.8 236.215 275.4 234.354 276.554 234.447ZM276.229 236.443C276.866 236.948 276.682 238.964 275.74 238.584C275.345 238.426 274.873 235.368 276.229 236.443ZM306.777 290.4C306.472 290.021 306.818 289.343 307.304 289.367C307.518 289.506 307.664 289.747 307.689 290.001C307.505 290.3 307.124 290.464 306.78 290.392L306.777 290.4ZM298.098 286.472L298.762 286.371L298.815 286.352C299.045 285.922 298.292 285.43 297.99 285.815C297.925 286.035 297.966 286.284 298.098 286.472ZM302.823 289.09C302.439 289.194 302.386 288.533 302.603 288.199L303.521 288.617C303.38 288.865 303.117 289.04 302.833 289.076L302.823 289.09ZM291.352 279.461C291.25 279.209 290.885 279.113 290.672 279.282L290.73 279.34C290.546 279.581 290.692 279.992 290.987 280.063C291.258 280.036 291.453 279.713 291.352 279.461ZM271.171 238.631C270.801 238.631 270.415 238.27 270.434 237.641C270.453 237.013 270.623 236.432 271.171 236.741C271.719 237.05 271.552 238.631 271.171 238.631ZM98.9377 162.287C99.1607 162.581 99.6697 162.452 99.8653 162.141C100.062 161.829 100.037 161.433 100.002 161.067C99.4889 155.772 98.1147 150.562 95.9495 145.703C95.3328 144.319 94.684 142.593 95.6283 141.409C97.8114 146.864 100.012 152.387 100.807 158.21C101.024 159.799 101.102 161.539 100.216 162.876C99.3301 164.213 97.1227 164.726 96.1386 163.459C97.6526 163.143 98.811 161.61 98.7016 160.067C99.4009 160.544 99.521 161.674 98.9377 162.287ZM116.582 267.417C124.503 266.983 133.679 265.84 137.834 259.082C138.911 257.329 138.681 254.575 138.491 252.305C138.34 250.481 138.214 248.97 138.812 248.543C140.156 247.585 141.232 250.056 141.232 250.056C141.249 249.985 141.267 249.907 141.286 249.822C141.312 249.712 141.339 249.591 141.367 249.462C141.743 247.778 142.434 244.677 143.52 245.26C143.967 245.499 143.814 247.007 143.708 248.043V248.043C143.683 248.286 143.661 248.503 143.649 248.672C143.624 248.832 143.621 248.965 143.64 249.061C143.655 249.054 143.671 249.045 143.687 249.034C143.693 249.033 143.701 249.029 143.71 249.022C143.715 249.017 143.722 249.011 143.729 249.002C143.905 248.854 144.145 248.487 144.413 248.08C144.967 247.236 145.638 246.214 146.088 246.59C146.793 247.179 144.284 250.942 144.284 250.942C144.284 250.942 147.264 247.667 147.516 249.061C147.768 250.455 140.979 263.045 134.852 267.982C128.725 272.92 120.091 275.684 112.284 274.695C112.458 271.599 113.486 267.587 116.582 267.417ZM143.729 249.002C143.714 249.014 143.701 249.025 143.687 249.034C143.64 249.042 143.635 248.902 143.649 248.672C143.707 248.307 143.877 247.808 144.15 247.331C144.098 247.495 144.047 247.654 143.998 247.802C143.78 248.47 143.623 248.953 143.786 248.916C143.773 248.939 143.76 248.96 143.749 248.976C143.742 248.986 143.735 248.995 143.729 249.002ZM145.204 246.161C144.765 246.439 144.411 246.875 144.15 247.331C144.556 246.043 144.968 244.419 143.967 244.289C142.269 244.068 140.61 246.832 140.904 248.299C140.434 247.13 138.473 247.636 137.998 248.804C137.634 249.701 137.789 250.682 137.943 251.656V251.657C137.989 251.952 138.036 252.247 138.068 252.538C138.578 257.195 135.086 261.549 130.853 263.557C126.863 265.451 122.334 265.717 117.903 265.854L116.87 265.884C114.341 265.95 111.602 265.892 109.672 264.278C107.683 262.614 107.686 258.667 110.183 257.97C116.522 256.2 121.357 250.023 121.554 243.445C121.612 241.5 122.874 239.882 124.092 238.319C124.201 238.178 124.311 238.038 124.419 237.898L124.686 237.548C126.05 235.738 127.172 233.245 126.027 231.29C124.252 233.567 120.927 234.485 118.236 233.442C117.112 233.006 116.118 232.279 115.129 231.556C113.805 230.588 112.492 229.628 110.897 229.388C107.779 228.918 104.685 232.076 105.219 235.184C104.375 234.475 103.065 235.548 102.973 236.646C102.92 237.292 103.089 237.92 103.26 238.551C103.379 238.994 103.499 239.437 103.543 239.89C103.593 240.416 103.539 240.943 103.486 241.471C103.449 241.827 103.413 242.184 103.408 242.541C103.386 244.392 104.21 246.104 105.022 247.79L105.023 247.792L105.023 247.795C105.105 247.964 105.186 248.132 105.266 248.3L105.483 248.763C106.408 250.767 107.094 253.152 106.108 255.127C105.123 257.102 101.77 257.721 100.82 255.729C96.1647 245.965 85.6124 239.318 74.796 239.334C62.2723 239.353 51.0046 247.606 43.6239 257.724C42.7034 258.986 41.8024 260.345 41.6019 261.894C41.4012 263.443 42.1201 265.221 43.5935 265.739C45.0671 266.257 46.9775 264.808 46.4976 263.321C47.2451 264.194 48.774 263.369 49.126 262.275C49.324 261.66 49.3217 261.012 49.3193 260.362C49.3175 259.854 49.3157 259.346 49.4085 258.851C49.8652 256.425 52.361 255.024 54.6071 253.999L55.0602 253.794C60.3515 251.399 65.8641 249.261 71.6514 248.855C77.6046 248.436 83.9568 250.091 88.0475 254.436C82.4654 255.76 79.2239 261.361 76.64 266.534L76.2815 267.256C73.6727 272.495 70.2557 278.211 64.5344 279.321C64.7521 280.45 65.7481 281.384 66.8887 281.527L45.9148 293.997L47.524 295.993C42.4172 303.819 36.6415 311.209 30.2805 318.056C26.822 321.778 22.3312 325.636 17.3246 324.769C16.4192 324.612 15.5415 324.301 14.6667 323.992C13.3859 323.538 12.1115 323.087 10.7667 323.125C8.50338 323.19 6.23205 325.943 7.76837 327.607C11.1707 331.29 15.0539 334.529 19.2883 337.215L19.398 337.284C19.9135 337.605 20.4804 337.904 21.0781 337.836C21.6824 337.767 22.1743 337.337 22.6238 336.927L51.0295 311.027C53.3559 308.923 55.9159 306.818 59.0153 306.508L59.277 306.477C61.5688 306.158 63.4569 304.709 65.3509 303.256C66.1751 302.623 67.0005 301.989 67.861 301.448C70.7725 299.616 75.6012 299.428 76.7334 302.676C77.3346 304.402 76.5473 306.157 75.7712 307.887V307.888C75.5399 308.404 75.3092 308.917 75.1171 309.426C74.2798 311.646 74.9661 315.061 77.3382 315.019L90.6135 314.784C91.0904 314.779 91.5929 314.806 91.964 315.098C92.3523 315.403 92.4885 315.911 92.5628 316.41L92.5938 316.638C93.0939 320.704 93.0249 324.84 92.3898 328.887C91.7012 333.273 89.8696 338.097 85.7313 339.704C83.1213 340.719 80.214 340.193 77.4649 339.563L60.7607 335.661C60.7327 333.638 62.5625 331.991 64.5136 331.455C66.168 331 67.905 331.139 69.626 331.276C69.7312 331.285 69.8371 331.294 69.9429 331.302L70.5495 331.347C74.777 331.638 79.0508 331.245 83.1546 330.189L77.2329 315.37C77.8365 320.289 79.1674 325.119 81.1684 329.653L61.7026 330.286C60.0072 330.333 58.1257 330.258 56.9857 329.021C56.6937 328.703 56.4499 328.312 56.2079 327.925C55.7119 327.13 55.2249 326.349 54.3442 326.248C53.583 326.16 52.8938 326.668 52.3105 327.165C48.5052 330.412 45.3451 334.412 43.0683 338.866C43.8891 340.898 46.6088 341.466 48.7216 340.884C49.9574 340.542 51.0854 339.927 52.2153 339.311C53.0175 338.875 53.8203 338.437 54.6635 338.096C59.3691 336.194 64.5421 337.483 69.5118 338.98L72.4631 339.879C78.2962 341.631 85.4084 342.529 89.7798 338.288C92.3595 335.786 93.299 332.061 93.8099 328.504C95.2834 318.238 94.0888 307.601 90.3745 297.918C94.5157 296.32 96.4698 291.688 97.9892 287.517L100.965 279.349C101.959 276.619 104.217 273.271 106.906 274.37C114.59 277.513 123.667 276.185 130.822 271.972C137.977 267.759 143.333 260.935 146.94 253.457L147.037 253.255C147.743 251.769 148.642 248.302 147.839 247.918C147.539 247.682 147.005 248.073 146.642 248.339C146.445 248.483 146.298 248.591 146.265 248.543C146.244 248.514 146.31 248.322 146.403 248.05C146.771 246.979 147.564 244.668 145.204 246.161ZM94.3492 292.012C93.4198 294.103 91.8814 296.563 89.6103 296.285C88.3942 296.136 87.4761 295.218 86.6501 294.275L86.207 293.762C81.4081 288.191 74.8887 284.489 68.3361 281.08L66.1525 279.953C71.4902 278.903 74.7829 273.624 77.1342 268.719L77.8835 267.155C80.0332 262.698 82.4797 258.112 86.9141 256.106C87.5272 255.829 88.2301 255.607 88.8622 255.838C88.958 255.873 89.0614 255.912 89.1691 255.954C89.9493 256.254 90.9543 256.64 90.9382 255.901C89.5158 255.327 89.2815 253.252 90.1021 251.956C90.8514 250.773 92.1496 250.09 93.4346 249.501L93.8009 249.335C92.9815 248.205 91.2046 249.156 90.2763 250.199L90.1996 250.284C89.2684 251.306 87.8382 252.425 86.7631 251.594C82.3197 248.161 76.3986 247.059 70.8093 247.598C65.2207 248.137 59.8883 250.18 54.7825 252.517C52.9111 253.373 51.0105 254.306 49.622 255.825C48.5474 257 48.4362 258.564 48.3244 260.136C48.2917 260.595 48.2584 261.056 48.2013 261.508C48.0639 262.601 47.4627 262.643 46.9329 262.68C46.6492 262.699 46.3864 262.718 46.2258 262.896C46.2127 262.91 46.1711 262.973 46.1087 263.069V263.07C45.7911 263.558 44.9308 264.879 44.5423 264.747C43.9716 264.553 44.2626 263.321 44.2626 263.321C44.2626 263.321 42.5691 263.805 42.443 263.321C42.002 261.628 44.5423 258.163 44.5423 258.163C48.8132 251.879 55.147 246.667 62.11 243.636C69.202 240.549 77.4779 239.953 84.7281 242.648C92.9018 245.686 99.3747 252.943 101.461 261.41C101.981 263.521 104.437 264.452 106.582 264.803C106.779 264.835 106.978 264.867 107.179 264.898L107.184 264.899L107.194 264.901C109.174 265.21 111.279 265.539 112.541 267.05C112.914 267.497 112.811 268.156 112.683 268.722L112.645 268.885C112.175 270.905 111.354 273.164 109.392 273.777C107.609 274.334 105.496 272.896 105.359 271.033C105.348 270.869 105.344 270.695 105.34 270.52C105.326 269.795 105.31 269.033 104.702 268.734L94.3492 292.012ZM77.4874 303.054C76.8202 299.628 74.7942 296.545 72.1348 294.284C72.2389 295.631 72.8086 296.937 73.725 297.93C69.2192 299.362 64.9703 301.598 61.2376 304.5C60.2391 305.277 58.542 305.986 57.9568 304.864C55.6549 300.449 51.9911 296.757 47.5942 294.422L65.6708 284.034C66.4873 283.565 67.3519 283.082 68.2939 283.073C69.0241 283.065 69.7181 283.346 70.3788 283.671L70.7065 283.837C77.4708 287.321 83.5263 292.175 88.3984 298.02C89.605 299.467 90.1663 301.32 90.6444 303.153L92.7942 311.553C92.9369 312.11 93.0409 312.798 92.6051 313.172C92.3601 313.382 92.0146 313.418 91.6922 313.443L91.3152 313.473C85.9626 313.885 81.6442 314.217 76.2815 313.443C75.4816 311.909 76.0858 310.008 76.7102 308.045C77.2454 306.363 77.7949 304.635 77.4874 303.054ZM50.5954 297.889C52.6012 299.655 54.409 301.645 55.9754 303.811C56.1431 304.042 56.3155 304.301 56.2977 304.586C56.2769 304.919 56.0069 305.176 55.7559 305.395L32.3921 325.844C31.418 326.697 29.8639 326.548 28.7726 325.851C27.8179 325.241 27.1352 324.306 26.5088 323.354L26.2432 322.946C32.3321 319.746 36.238 314.013 40.1786 308.23L40.1787 308.229C42.6504 304.602 45.1358 300.954 48.1823 297.899C48.4784 297.602 48.812 297.295 49.2289 297.248C49.7445 297.19 50.2059 297.546 50.5954 297.889ZM118.633 240.85L119.229 241.034C120.391 241.393 120.584 242.949 120.437 244.156C119.824 249.153 116.718 254.1 111.929 255.653L111.757 255.711C108.637 256.812 106.405 260.077 106.539 263.389C104.444 263.781 102.198 262.105 101.978 259.985C101.934 259.562 102.059 259.014 102.479 258.949C104.382 258.657 106.133 257.489 107.133 255.843C108.134 254.199 108.366 252.107 107.75 250.282C107.625 249.91 107.465 249.536 107.305 249.163C106.849 248.101 106.392 247.035 106.712 245.963C107.441 246.03 107.58 247.03 107.503 247.759L107.495 247.848C107.435 248.566 107.562 249.487 108.259 249.583C108.718 248.528 108.814 247.348 108.908 246.177C109.028 244.697 109.147 243.232 109.995 242.053C110.965 240.706 112.705 240.087 114.365 240.067C115.818 240.05 117.238 240.427 118.633 240.85ZM13.6573 325.106L13.8071 324.934C14.6433 324.75 15.4417 325.821 15.0276 326.57C14.7619 327.051 15.579 327.526 16.0352 327.221C16.4914 326.915 16.5834 326.294 16.6336 325.747C17.0926 325.603 17.4896 326.129 17.5763 326.602C17.5992 326.727 17.6134 326.857 17.6276 326.986C17.6672 327.346 17.7069 327.707 17.9342 327.978C18.2432 328.347 19.062 328.157 18.9277 327.695C18.7274 327.005 19.5413 326.443 20.2516 326.342C20.4223 326.317 20.5987 326.302 20.7754 326.288C21.334 326.242 21.8971 326.196 22.3037 325.833L22.365 325.785C22.881 325.418 23.5199 326.096 23.9094 326.697L24.0905 326.989C24.9469 328.32 26.4025 329.252 27.9719 329.465C28.2794 329.507 28.123 329.986 27.8971 330.199L22.6006 335.187C22.3439 335.428 21.9278 335.256 21.6271 335.073C18.4832 333.148 15.5809 330.828 13.0096 328.186C12.1996 327.354 12.8866 326.027 13.6573 325.106ZM59.9751 334.389C59.8229 335.019 59.3882 335.723 58.743 335.675C57.1873 335.56 55.6097 335.748 54.1242 336.224C54.2604 335.591 53.9832 334.888 53.4516 334.518C53.0633 335.073 53.2221 335.934 53.7828 336.314L52.3015 337.777L51.5927 336.148C51.243 336.241 51.2329 336.67 51.2573 337.063L51.2745 337.307C51.3453 338.339 50.4706 339.341 49.4394 339.411C48.4076 339.48 47.4062 338.604 47.3378 337.573C47.2641 336.449 48.1246 335.506 48.9244 334.714L54.6059 329.089C54.7266 328.974 54.8651 328.867 55.0281 328.87C55.2083 328.873 55.3545 329.009 55.4812 329.137L57.6981 331.374C58.1281 331.809 57.8563 332.472 57.5917 333.119C57.3193 333.785 57.0541 334.433 57.5685 334.794C58.0698 334.823 58.4873 334.388 58.6793 333.925C58.778 333.688 58.8375 333.439 58.8976 333.189C58.9547 332.95 59.0123 332.709 59.1033 332.482C59.2906 332.015 59.6938 331.572 60.1957 331.583C60.6976 331.593 61.0848 332.31 60.6964 332.629C60.2826 332.968 60.1648 333.521 60.0494 334.057V334.058C60.0257 334.169 60.0019 334.281 59.9751 334.389ZM21.1315 336.877C16.0251 334.146 11.5112 330.313 7.98798 325.717C8.44998 325.279 9.14478 325.744 9.59162 326.24L9.70222 326.37C13.0498 330.512 17.254 333.959 21.9722 336.43C21.934 336.803 21.4617 337.053 21.1315 336.877ZM45.6216 335.831C47.8332 332.938 50.2844 330.228 52.9408 327.737C53.3529 327.351 54.208 327.09 54.3121 327.645C51.2198 330.598 48.2614 333.691 45.4504 336.913C45.145 336.648 45.376 336.153 45.6216 335.831ZM28.6333 328.598C27.0897 328.049 25.7136 327.039 24.7277 325.73C24.3568 325.237 24.1228 324.382 24.6848 324.129C25.1291 323.929 25.5559 324.349 25.8657 324.756L26.0981 325.073C27.0965 326.39 28.5206 327.381 30.1046 327.855C30.1074 328.277 29.7575 328.673 29.3378 328.723C29.0988 328.751 28.86 328.679 28.6333 328.598ZM104.38 242.989C105.106 243.006 105.72 243.762 105.588 244.476L105.605 244.486C105.706 245.003 105.64 245.552 105.42 246.03C104.626 245.252 104.228 244.089 104.38 242.989ZM118.204 243.006C118.296 242.998 118.392 242.99 118.49 242.989C118.612 242.987 118.754 243.009 118.887 243.03C119.246 243.085 119.546 243.131 119.263 242.687C118.873 242.077 117.734 242.009 117.548 242.708C117.6 243.059 117.871 243.035 118.204 243.006ZM119.121 246.02C119.127 245.998 119.132 245.977 119.137 245.956C119.414 244.908 119.254 244.08 118.49 244.08C118.195 244.102 117.745 245.603 117.788 246.059C117.831 246.514 118.344 246.935 118.741 246.709C118.977 246.575 119.053 246.284 119.121 246.02ZM114.08 245.701C113.547 244.96 113.492 243.907 113.943 243.115C114.01 242.997 114.092 242.88 114.21 242.812C114.509 242.641 114.909 242.874 115.041 243.192C115.172 243.51 115.114 243.871 115.055 244.211C115.055 244.211 114.613 246.441 114.08 245.701ZM226.939 245.722C217.206 243.335 207.039 242.731 197.093 243.952C198.818 239.93 199.577 235.496 199.284 231.128C196.692 232.945 192.437 230.814 192.338 227.651C192.24 224.487 196.355 222.097 199.055 223.749C199.771 224.186 200.557 223.278 200.843 222.49C201.818 219.803 201.827 216.777 200.87 214.085C200.497 213.036 202.08 212.467 203.192 212.489L212.637 212.677C213.272 212.689 213.945 212.691 214.487 212.361C215.028 212.031 215.336 211.237 214.938 210.743C213.304 208.715 215.183 205.086 217.782 205.249C220.381 205.412 221.79 209.248 219.915 211.056C219.566 211.393 220.245 211.827 220.731 211.838L233.081 212.122C235.537 212.179 237.273 214.795 237.373 217.25C237.458 219.328 236.72 221.317 235.992 223.282C235.928 223.454 235.864 223.625 235.802 223.796L235.6 224.352C233.413 230.489 232.709 237.15 233.565 243.609C233.731 244.869 232.571 245.99 231.33 246.263C230.235 246.504 229.107 246.265 228.01 245.991L226.939 245.722Z" fill="#00160A"/>
<path fill-rule="evenodd" clip-rule="evenodd" d="M95.3017 132.686C95.3921 132.104 96.1676 131.767 96.7283 131.967C97.2891 132.167 97.7898 132.971 97.3789 133.426C96.7283 134.146 95.1275 133.815 95.3017 132.686Z" fill="#FFB61D"/>
<path fill-rule="evenodd" clip-rule="evenodd" d="M339.359 283.422C338.992 283.73 338.257 283.842 338.188 283.368C339.619 281.912 340.603 280.024 340.977 278.018C341.443 277.893 341.578 278.636 341.461 279.106C341.066 280.686 340.606 282.375 339.359 283.422Z" fill="#00160A"/>
<path d="M23.5643 110.027C23.5498 110.496 22.8381 110.469 22.4077 110.282C22.5626 109.863 23.1907 109.723 23.5088 110.036L23.5643 110.027Z" fill="black"/>
<path fill-rule="evenodd" clip-rule="evenodd" d="M226.649 238.919C226.153 239.36 225.319 238.686 225.392 238.027C225.466 237.367 226.051 236.895 226.611 236.539C228.62 235.267 230.947 234.5 233.32 234.328C233.383 235.233 232.211 235.606 231.321 235.78C229.432 236.148 227.632 236.966 226.114 238.148C226.388 238.316 226.587 238.603 226.649 238.919Z" fill="#00160A"/>
<path fill-rule="evenodd" clip-rule="evenodd" d="M233.387 240.074C232.274 240.61 231.141 241.107 229.991 241.561C230.122 242.046 230.819 242.03 231.291 241.86C231.764 241.689 232.385 241.51 232.691 241.908C231.914 243.094 229.989 243.279 229 242.262C228.57 241.821 227.791 242.111 227.236 241.843C226.441 241.46 226.589 240.26 227.057 239.512C228.034 237.949 229.896 236.986 231.736 237.092C232.436 237.132 233.273 237.478 233.319 238.178C231.123 238.04 228.883 238.945 227.4 240.572C228.243 241.224 229.451 240.737 230.401 240.255C231.351 239.774 232.606 239.349 233.387 240.074Z" fill="#00160A"/>
<path fill-rule="evenodd" clip-rule="evenodd" d="M116.451 246.302C117.082 246.933 117.343 247.221 117.343 248.15C117.343 249.077 116.84 249.673 115.99 249.946C115.599 250.071 115.057 249.975 114.955 249.576C117.786 248.998 116.746 247.764 116.451 246.302Z" fill="#00160A"/>
<path fill-rule="evenodd" clip-rule="evenodd" d="M112.675 242.357C112.977 241.356 114.29 240.814 115.21 241.313C115.573 241.51 115.876 241.868 115.895 242.281C114.822 242.306 113.938 241.612 112.675 242.357Z" fill="#00160A"/>
<path fill-rule="evenodd" clip-rule="evenodd" d="M115.245 251.3C109.257 247.975 113.945 252.235 115.245 251.3V251.3Z" fill="#00160A"/>
</svg>
