<svg width="233" height="70" viewBox="0 0 233 70" fill="none" xmlns="http://www.w3.org/2000/svg">
<g clip-path="url(#clip0_586_24)">
<path d="M224.222 69.2406H8.19029C3.70153 69.2406 0.0478516 65.5813 0.0478516 61.1017V8.58295C0.0478516 4.10164 3.70153 0.456055 8.19029 0.456055H224.222C228.709 0.456055 232.492 4.10164 232.492 8.58295V61.1017C232.492 65.5813 228.709 69.2406 224.222 69.2406Z" fill="#A6A6A6"/>
<path d="M230.825 61.1032C230.825 64.7419 227.874 67.6894 224.224 67.6894H8.19011C4.54159 67.6894 1.58008 64.7419 1.58008 61.1032V8.58105C1.58008 4.94407 4.54159 1.98633 8.19011 1.98633H224.222C227.874 1.98633 230.824 4.94407 230.824 8.58105L230.825 61.1032Z" fill="black"/>
<path d="M51.9222 34.4781C51.8723 28.9358 56.4661 26.2395 56.6761 26.1139C54.0745 22.3256 50.042 21.808 48.625 21.7668C45.2382 21.4108 41.9529 23.7907 40.2277 23.7907C38.468 23.7907 35.8112 21.8012 32.9479 21.8596C29.2632 21.9164 25.8161 24.047 23.9256 27.3555C20.024 34.1016 22.9338 44.0151 26.6719 49.468C28.5418 52.1386 30.7267 55.1204 33.5867 55.0155C36.3846 54.9003 37.4297 53.234 40.8062 53.234C44.1517 53.234 45.1331 55.0155 48.0499 54.9484C51.0527 54.9003 52.9433 52.2658 54.7477 49.5712C56.9086 46.5103 57.7764 43.4958 57.8108 43.341C57.7402 43.317 51.979 41.121 51.9222 34.4781Z" fill="white"/>
<path d="M46.4121 18.179C47.917 16.2994 48.9466 13.7424 48.6608 11.1475C46.4827 11.2438 43.7588 12.6521 42.1902 14.4904C40.8024 16.1103 39.5627 18.7654 39.883 21.2622C42.3297 21.4445 44.8418 20.0293 46.4121 18.179Z" fill="white"/>
<path d="M92.4144 54.6307H88.5041L86.3622 47.9088H78.9171L76.8767 54.6307H73.0698L80.4461 31.7461H85.002L92.4144 54.6307ZM85.7165 45.0886L83.7795 39.1129C83.5746 38.5025 83.1906 37.0649 82.6242 34.8018H82.5553C82.3297 35.7752 81.9664 37.2127 81.4671 39.1129L79.5645 45.0886H85.7165Z" fill="white"/>
<path d="M111.384 46.1776C111.384 48.984 110.625 51.2023 109.106 52.8308C107.746 54.2804 106.057 55.0044 104.04 55.0044C101.864 55.0044 100.301 54.2236 99.3485 52.6622H99.2796V61.3549H95.6087V43.562C95.6087 41.7977 95.5622 39.987 95.4727 38.1298H98.7011L98.9059 40.7453H98.9748C100.199 38.7746 102.057 37.791 104.55 37.791C106.499 37.791 108.126 38.5597 109.428 40.0987C110.733 41.6395 111.384 43.6652 111.384 46.1776ZM107.644 46.3117C107.644 44.7056 107.283 43.3815 106.556 42.3394C105.762 41.2526 104.696 40.7092 103.36 40.7092C102.455 40.7092 101.632 41.0119 100.896 41.6086C100.159 42.2104 99.6773 42.9963 99.4518 43.9696C99.3381 44.4236 99.2813 44.795 99.2813 45.0873V47.8387C99.2813 49.039 99.6498 50.0519 100.387 50.879C101.124 51.7061 102.081 52.1188 103.259 52.1188C104.641 52.1188 105.717 51.5858 106.487 50.523C107.258 49.4586 107.644 48.0554 107.644 46.3117Z" fill="white"/>
<path d="M130.387 46.1776C130.387 48.984 129.628 51.2023 128.107 52.8308C126.749 54.2804 125.06 55.0044 123.044 55.0044C120.867 55.0044 119.304 54.2236 118.353 52.6622H118.284V61.3549H114.614V43.562C114.614 41.7977 114.567 39.987 114.478 38.1298H117.706L117.911 40.7453H117.98C119.202 38.7746 121.06 37.791 123.555 37.791C125.502 37.791 127.129 38.5597 128.435 40.0987C129.735 41.6395 130.387 43.6652 130.387 46.1776ZM126.647 46.3117C126.647 44.7056 126.284 43.3815 125.557 42.3394C124.764 41.2526 123.701 40.7092 122.363 40.7092C121.456 40.7092 120.635 41.0119 119.898 41.6086C119.161 42.2104 118.68 42.9963 118.455 43.9696C118.343 44.4236 118.284 44.795 118.284 45.0873V47.8387C118.284 49.039 118.653 50.0519 119.386 50.879C120.123 51.7044 121.081 52.1188 122.262 52.1188C123.644 52.1188 124.721 51.5858 125.49 50.523C126.262 49.4586 126.647 48.0554 126.647 46.3117Z" fill="white"/>
<path d="M151.635 48.2135C151.635 50.1601 150.958 51.7439 149.6 52.9665C148.107 54.3026 146.028 54.9699 143.358 54.9699C140.892 54.9699 138.916 54.4952 137.419 53.5443L138.27 50.4885C139.882 51.4618 141.65 51.9502 143.577 51.9502C144.959 51.9502 146.035 51.6372 146.808 51.0147C147.578 50.3922 147.962 49.5565 147.962 48.5144C147.962 47.5858 147.645 46.8034 147.01 46.1689C146.378 45.5343 145.323 44.9445 143.849 44.3994C139.837 42.905 137.833 40.716 137.833 37.8373C137.833 35.9561 138.535 34.4136 139.942 33.2133C141.343 32.0113 143.213 31.4111 145.552 31.4111C147.637 31.4111 149.369 31.774 150.751 32.4979L149.834 35.4866C148.542 34.785 147.082 34.4342 145.448 34.4342C144.157 34.4342 143.148 34.7523 142.425 35.3852C141.814 35.9509 141.507 36.6405 141.507 37.4573C141.507 38.3618 141.857 39.1098 142.559 39.698C143.17 40.2414 144.281 40.8295 145.892 41.464C147.864 42.2567 149.312 43.1836 150.243 44.2463C151.172 45.3056 151.635 46.6314 151.635 48.2135Z" fill="white"/>
<path d="M163.771 40.8806H159.725V48.8922C159.725 50.93 160.438 51.948 161.867 51.948C162.523 51.948 163.067 51.8912 163.497 51.7778L163.599 54.5618C162.876 54.8318 161.924 54.9676 160.744 54.9676C159.295 54.9676 158.162 54.5257 157.344 53.6435C156.529 52.7597 156.12 51.2773 156.12 49.1949V40.8771H153.709V38.1257H156.12V35.1044L159.725 34.0176V38.1257H163.771V40.8806Z" fill="white"/>
<path d="M182.028 46.2439C182.028 48.7803 181.301 50.8628 179.851 52.4913C178.331 54.1679 176.313 55.0036 173.797 55.0036C171.373 55.0036 169.443 54.2006 168.003 52.5944C166.564 50.9883 165.844 48.9609 165.844 46.5173C165.844 43.9602 166.585 41.8658 168.071 40.2373C169.553 38.6071 171.554 37.792 174.069 37.792C176.494 37.792 178.444 38.5951 179.917 40.2029C181.325 41.7626 182.028 43.7763 182.028 46.2439ZM178.219 46.3625C178.219 44.8407 177.893 43.5355 177.234 42.447C176.464 41.1298 175.364 40.4729 173.938 40.4729C172.463 40.4729 171.342 41.1315 170.572 42.447C169.913 43.5372 169.587 44.863 169.587 46.4313C169.587 47.9532 169.913 49.2584 170.572 50.3452C171.366 51.6624 172.475 52.3193 173.906 52.3193C175.307 52.3193 176.408 51.6486 177.201 50.3108C177.878 49.2016 178.219 47.8827 178.219 46.3625Z" fill="white"/>
<path d="M193.959 41.3541C193.596 41.287 193.209 41.2526 192.802 41.2526C191.511 41.2526 190.512 41.7392 189.81 42.7143C189.199 43.5741 188.892 44.6609 188.892 45.9729V54.6312H185.223L185.257 43.3265C185.257 41.4246 185.211 39.6929 185.12 38.1315H188.317L188.451 41.2887H188.553C188.94 40.2036 189.552 39.3301 190.388 38.6749C191.206 38.0851 192.09 37.791 193.042 37.791C193.381 37.791 193.687 37.8151 193.959 37.8581V41.3541Z" fill="white"/>
<path d="M210.377 45.5995C210.377 46.2564 210.334 46.8101 210.243 47.2624H199.23C199.273 48.8925 199.806 50.1393 200.828 50.9991C201.756 51.7677 202.956 52.1529 204.43 52.1529C206.061 52.1529 207.549 51.8933 208.886 51.3722L209.461 53.9173C207.898 54.5982 206.052 54.937 203.922 54.937C201.36 54.937 199.349 54.1838 197.886 52.6791C196.426 51.1745 195.694 49.1539 195.694 46.6192C195.694 44.1309 196.374 42.0588 197.736 40.4063C199.162 38.6419 201.088 37.7598 203.513 37.7598C205.894 37.7598 207.697 38.6419 208.921 40.4063C209.89 41.8077 210.377 43.5411 210.377 45.5995ZM206.877 44.6485C206.901 43.5617 206.662 42.6228 206.164 41.8301C205.529 40.8104 204.553 40.3014 203.239 40.3014C202.039 40.3014 201.062 40.7983 200.317 41.7957C199.706 42.5884 199.342 43.5394 199.23 44.6468H206.877V44.6485Z" fill="white"/>
<path d="M84.5025 17.6686C84.5025 19.6926 83.8947 21.2162 82.6809 22.2394C81.5565 23.1834 79.9587 23.6563 77.889 23.6563C76.8628 23.6563 75.9847 23.6116 75.2495 23.5222V12.4634C76.2086 12.3086 77.2416 12.2295 78.3574 12.2295C80.3289 12.2295 81.8148 12.6577 82.8169 13.514C83.9395 14.4822 84.5025 15.8665 84.5025 17.6686ZM82.5999 17.7185C82.5999 16.4064 82.2521 15.4005 81.5565 14.6989C80.8609 13.999 79.845 13.6482 78.5072 13.6482C77.939 13.6482 77.4552 13.686 77.054 13.7651V22.1723C77.2761 22.2067 77.6824 22.2222 78.273 22.2222C79.6539 22.2222 80.7197 21.8387 81.4704 21.0717C82.2211 20.3048 82.5999 19.1871 82.5999 17.7185Z" fill="white"/>
<path d="M94.5907 19.4363C94.5907 20.683 94.2343 21.7045 93.5215 22.5058C92.7742 23.3295 91.7842 23.7405 90.5479 23.7405C89.3564 23.7405 88.4077 23.3467 87.7 22.5557C86.9941 21.7664 86.6411 20.7707 86.6411 19.5704C86.6411 18.3151 87.0044 17.2851 87.7345 16.4854C88.4645 15.6858 89.4459 15.2852 90.6822 15.2852C91.8737 15.2852 92.831 15.6789 93.5559 16.4683C94.2446 17.2352 94.5907 18.2257 94.5907 19.4363ZM92.7191 19.4948C92.7191 18.7467 92.5573 18.1053 92.2353 17.5705C91.8565 16.9239 91.3176 16.6007 90.6168 16.6007C89.8919 16.6007 89.3409 16.9239 88.9621 17.5705C88.6384 18.1053 88.4783 18.7571 88.4783 19.5274C88.4783 20.2755 88.6401 20.9169 88.9621 21.4517C89.353 22.0983 89.8971 22.4216 90.5996 22.4216C91.2883 22.4216 91.8289 22.0931 92.2181 21.4345C92.5521 20.8894 92.7191 20.2428 92.7191 19.4948Z" fill="white"/>
<path d="M108.117 15.4502L105.578 23.5565H103.925L102.873 20.0364C102.606 19.1577 102.389 18.2841 102.22 17.4174H102.187C102.031 18.3082 101.814 19.18 101.535 20.0364L100.417 23.5565H98.7456L96.3574 15.4502H98.2118L99.1295 19.3039C99.3516 20.2152 99.5342 21.0837 99.6805 21.9056H99.7132C99.8475 21.2281 100.07 20.3649 100.383 19.321L101.535 15.4519H103.005L104.109 19.2385C104.376 20.1619 104.593 21.051 104.76 21.9073H104.81C104.932 21.0733 105.116 20.1843 105.361 19.2385L106.346 15.4519H108.117V15.4502Z" fill="white"/>
<path d="M117.471 23.5558H115.667V18.9128C115.667 17.4821 115.123 16.7668 114.031 16.7668C113.496 16.7668 113.064 16.9628 112.728 17.3566C112.396 17.7504 112.227 18.2147 112.227 18.746V23.5541H110.422V17.7659C110.422 17.0539 110.4 16.2818 110.357 15.4461H111.943L112.027 16.7135H112.077C112.287 16.3197 112.6 15.9947 113.012 15.735C113.501 15.4323 114.048 15.2793 114.648 15.2793C115.405 15.2793 116.035 15.5235 116.537 16.0136C117.16 16.6137 117.471 17.5096 117.471 18.6996V23.5558Z" fill="white"/>
<path d="M122.448 23.5563H120.646V11.7305H122.448V23.5563Z" fill="white"/>
<path d="M133.071 19.4363C133.071 20.683 132.715 21.7045 132.002 22.5058C131.255 23.3295 130.263 23.7405 129.028 23.7405C127.835 23.7405 126.886 23.3467 126.18 22.5557C125.475 21.7664 125.122 20.7707 125.122 19.5704C125.122 18.3151 125.485 17.2851 126.215 16.4854C126.945 15.6858 127.926 15.2852 129.161 15.2852C130.354 15.2852 131.31 15.6789 132.036 16.4683C132.725 17.2352 133.071 18.2257 133.071 19.4363ZM131.198 19.4948C131.198 18.7467 131.036 18.1053 130.714 17.5705C130.337 16.9239 129.796 16.6007 129.097 16.6007C128.371 16.6007 127.82 16.9239 127.443 17.5705C127.119 18.1053 126.959 18.7571 126.959 19.5274C126.959 20.2755 127.121 20.9169 127.443 21.4517C127.833 22.0983 128.378 22.4216 129.08 22.4216C129.769 22.4216 130.308 22.0931 130.697 21.4345C131.033 20.8894 131.198 20.2428 131.198 19.4948Z" fill="white"/>
<path d="M141.804 23.5565H140.184L140.05 22.6228H140C139.445 23.3673 138.655 23.7405 137.629 23.7405C136.862 23.7405 136.243 23.4946 135.776 23.0062C135.352 22.5626 135.141 22.0106 135.141 21.3554C135.141 20.3649 135.554 19.61 136.385 19.0872C137.215 18.5645 138.383 18.3082 139.886 18.3203V18.1689C139.886 17.1011 139.325 16.568 138.2 16.568C137.4 16.568 136.694 16.7692 136.084 17.1681L135.717 15.985C136.472 15.519 137.403 15.2852 138.502 15.2852C140.623 15.2852 141.687 16.4029 141.687 18.6384V21.6237C141.687 22.4336 141.727 23.0784 141.804 23.5565ZM139.931 20.7707V19.5206C137.94 19.4862 136.945 20.0313 136.945 21.1542C136.945 21.5772 137.059 21.8936 137.291 22.1051C137.524 22.3167 137.82 22.4216 138.173 22.4216C138.569 22.4216 138.939 22.296 139.276 22.0467C139.616 21.7956 139.824 21.4775 139.901 21.0871C139.92 20.9994 139.931 20.8928 139.931 20.7707Z" fill="white"/>
<path d="M152.058 23.5563H150.456L150.372 22.2545H150.322C149.811 23.245 148.94 23.7403 147.715 23.7403C146.737 23.7403 145.923 23.3568 145.277 22.5898C144.632 21.8229 144.31 20.8272 144.31 19.6046C144.31 18.2925 144.659 17.2298 145.362 16.4181C146.042 15.6615 146.875 15.2832 147.867 15.2832C148.957 15.2832 149.719 15.6495 150.153 16.3837H150.188V11.7305H151.994V21.3723C151.994 22.1616 152.015 22.889 152.058 23.5563ZM150.188 20.1377V18.786C150.188 18.5522 150.171 18.363 150.138 18.2186C150.036 17.7852 149.818 17.4207 149.485 17.1266C149.15 16.8326 148.745 16.6847 148.278 16.6847C147.605 16.6847 147.078 16.9512 146.691 17.486C146.307 18.0208 146.112 18.7035 146.112 19.5375C146.112 20.3389 146.297 20.9889 146.667 21.4893C147.058 22.0224 147.584 22.2889 148.244 22.2889C148.836 22.2889 149.31 22.0671 149.67 21.6217C150.017 21.2107 150.188 20.7155 150.188 20.1377Z" fill="white"/>
<path d="M167.49 19.4363C167.49 20.683 167.134 21.7045 166.421 22.5058C165.674 23.3295 164.685 23.7405 163.447 23.7405C162.258 23.7405 161.309 23.3467 160.599 22.5557C159.894 21.7664 159.541 20.7707 159.541 19.5704C159.541 18.3151 159.904 17.2851 160.634 16.4854C161.364 15.6858 162.345 15.2852 163.583 15.2852C164.773 15.2852 165.732 15.6789 166.455 16.4683C167.144 17.2352 167.49 18.2257 167.49 19.4363ZM165.62 19.4948C165.62 18.7467 165.458 18.1053 165.136 17.5705C164.756 16.9239 164.219 16.6007 163.516 16.6007C162.793 16.6007 162.242 16.9239 161.862 17.5705C161.538 18.1053 161.378 18.7571 161.378 19.5274C161.378 20.2755 161.54 20.9169 161.862 21.4517C162.252 22.0983 162.796 22.4216 163.499 22.4216C164.188 22.4216 164.73 22.0931 165.119 21.4345C165.452 20.8894 165.62 20.2428 165.62 19.4948Z" fill="white"/>
<path d="M177.193 23.5558H175.39V18.9128C175.39 17.4821 174.846 16.7668 173.753 16.7668C173.217 16.7668 172.785 16.9628 172.451 17.3566C172.117 17.7504 171.95 18.2147 171.95 18.746V23.5541H170.144V17.7659C170.144 17.0539 170.123 16.2818 170.08 15.4461H171.664L171.749 16.7135H171.798C172.01 16.3197 172.324 15.9947 172.733 15.735C173.224 15.4323 173.77 15.2793 174.371 15.2793C175.127 15.2793 175.757 15.5235 176.258 16.0136C176.883 16.6137 177.193 17.5096 177.193 18.6996V23.5558Z" fill="white"/>
<path d="M189.336 16.8004H187.349V20.7383C187.349 21.7391 187.702 22.2395 188.401 22.2395C188.725 22.2395 188.994 22.212 189.206 22.1552L189.252 23.5223C188.896 23.6565 188.427 23.7235 187.85 23.7235C187.138 23.7235 186.583 23.5069 186.182 23.0735C185.779 22.6402 185.579 21.9111 185.579 20.8879V16.8004H184.393V15.4505H185.579V13.9647L187.348 13.4316V15.4487H189.335V16.8004H189.336Z" fill="white"/>
<path d="M198.889 23.5563H197.083V18.9477C197.083 17.4946 196.539 16.7672 195.449 16.7672C194.612 16.7672 194.04 17.1885 193.727 18.0311C193.674 18.2083 193.643 18.4249 193.643 18.6794V23.5545H191.84V11.7305H193.643V16.6159H193.677C194.245 15.7269 195.06 15.2832 196.115 15.2832C196.862 15.2832 197.48 15.5274 197.971 16.0175C198.582 16.6279 198.889 17.5359 198.889 18.7362V23.5563Z" fill="white"/>
<path d="M208.743 19.1197C208.743 19.443 208.719 19.7147 208.676 19.9366H203.265C203.289 20.7379 203.547 21.3484 204.048 21.7714C204.506 22.1497 205.097 22.3389 205.82 22.3389C206.62 22.3389 207.351 22.2116 208.008 21.9554L208.291 23.2073C207.521 23.5409 206.615 23.7077 205.567 23.7077C204.31 23.7077 203.32 23.338 202.603 22.5985C201.884 21.8591 201.527 20.8669 201.527 19.6219C201.527 18.3992 201.86 17.3812 202.529 16.5696C203.228 15.7029 204.174 15.2695 205.367 15.2695C206.534 15.2695 207.421 15.7029 208.02 16.5696C208.504 17.2574 208.743 18.1086 208.743 19.1197ZM207.022 18.6537C207.035 18.1189 206.917 17.6581 206.672 17.2694C206.359 16.769 205.882 16.518 205.236 16.518C204.647 16.518 204.167 16.7622 203.8 17.2522C203.501 17.6426 203.323 18.1086 203.265 18.6537H207.022Z" fill="white"/>
</g>
<defs>
<clipPath id="clip0_586_24">
<rect width="232.444" height="68.7846" fill="white" transform="translate(0.0478516 0.456055)"/>
</clipPath>
</defs>
</svg>
