<svg width="390" height="844" viewBox="0 0 390 844" fill="none" xmlns="http://www.w3.org/2000/svg">
<path d="M216.674 954.467C214.23 954.26 211.77 953.825 209.271 953.144C204.924 951.96 200.562 950.087 195.924 947.405C187.276 942.398 179.231 935.466 171.454 928.771C159.436 918.346 141.727 904.154 126.73 901.203C124.881 900.844 122.978 900.668 121.084 900.699C116.263 900.768 112.382 902.036 108.623 903.259C105.277 904.352 101.823 905.476 97.7895 905.69C95.0773 905.835 92.0901 905.506 88.9272 904.711C85.9018 903.955 82.7007 902.77 79.4231 901.196C73.1049 898.161 66.611 893.752 60.6595 888.44C53.669 882.157 47.1674 874.858 41.4374 868.423L40.895 867.812C36.5632 862.951 32.0862 857.914 27.5405 853.16C22.1543 847.527 16.2486 841.872 9.99918 836.361C4.13171 831.187 -2.21707 825.99 -8.87909 820.907C-16.7864 814.854 -23.861 810.115 -30.4924 806.401C-38.69 801.815 -46.3147 798.728 -53.8095 796.954C-58.6685 795.8 -63.4969 795.105 -68.3329 794.7C-77.5773 793.928 -86.875 794.234 -96.5243 794.547C-98.3884 794.608 -100.314 794.669 -102.231 794.73C-108.16 794.898 -113.263 794.501 -117.832 793.507C-120.422 792.942 -122.882 792.17 -125.136 791.215C-127.55 790.19 -129.819 788.914 -131.874 787.424C-134.655 785.406 -137.146 782.983 -139.262 780.209C-141.256 777.595 -142.975 774.614 -144.365 771.343C-146.887 765.42 -148.43 758.373 -148.934 750.402C-149.431 742.568 -149.102 734.39 -148.797 726.487C-148.453 717.82 -148.101 708.862 -148.865 700.623C-149.622 692.491 -151.578 684.604 -155.031 675.799C-156.796 671.298 -158.973 666.635 -161.509 661.943C-163.87 657.556 -166.628 652.993 -169.692 648.384C-175.078 640.283 -181.587 631.753 -189.579 622.314C-191.022 620.618 -192.52 618.898 -194.033 617.194C-195.201 615.879 -196.378 614.58 -197.516 613.326C-203.086 607.166 -208.35 601.35 -212.361 594.525C-215.692 588.8 -218.137 582.212 -219.611 574.936C-221.009 568.081 -221.552 560.613 -221.231 552.749C-220.925 545.259 -219.84 537.478 -218.007 529.622C-216.227 522.002 -213.782 514.466 -210.726 507.213C-206.654 497.521 -201.65 487.968 -196.806 478.728C-193.337 472.101 -189.747 465.246 -186.53 458.405C-183.413 451.756 -180.625 445.053 -178.248 438.48C-175.804 431.724 -173.71 424.899 -172.037 418.196C-170.318 411.317 -168.974 404.362 -168.057 397.507C-167.109 390.498 -166.575 383.383 -166.468 376.366C-166.3 363.534 -167.507 350.801 -168.836 338.947C-169.012 337.35 -169.195 335.714 -169.371 334.132C-171.77 312.571 -174.26 290.277 -169.088 269.932C-167.392 263.214 -164.84 256.496 -161.296 249.38C-158.377 243.526 -154.733 237.304 -149.828 229.799C-148.262 227.399 -146.65 225.007 -145.091 222.683L-144.549 221.873C-127.649 196.721 -111.957 174.617 -95.3401 151.215C-91.1534 145.315 -86.8216 139.215 -82.421 132.994C-78.2725 127.132 -73.6351 121.538 -68.2413 115.889C-63.4358 110.86 -58.126 105.9 -52.0217 100.726C-40.6764 91.1188 -28.2004 82.2072 -16.1294 73.5937C-6.17455 66.4858 4.11646 59.141 13.7809 51.3987C24.622 42.7164 33.4843 34.4621 40.8721 26.1772C47.3202 18.9776 52.9814 11.3424 58.4592 3.95174C65.4421 -5.47192 72.0354 -14.3759 80.0649 -22.3398C85.5275 -27.7433 91.754 -32.78 98.5688 -37.3122C104.902 -41.5311 111.946 -45.4366 119.502 -48.937C132.765 -55.0742 147.816 -60.1109 165.51 -64.3221C167.634 -64.8266 170.109 -65.4609 172.722 -66.1335C182.127 -68.541 195.008 -71.8274 206.956 -73.1038C212.457 -73.6923 217.392 -73.8069 221.656 -73.4477C222.435 -73.3789 223.184 -73.3025 223.917 -73.2032C229.433 -72.4771 233.872 -70.8339 237.111 -68.327C239.579 -66.4163 241.374 -64.0699 243.116 -61.8C244.331 -60.2103 245.591 -58.5747 247.074 -57.092C249.396 -54.7532 252.238 -52.8425 255.539 -51.4057C260.207 -49.3727 265.715 -48.3179 271.475 -48.3561C277.03 -48.3867 282.615 -49.4185 287.619 -51.3445C295.572 -54.394 305.855 -61.3108 314.87 -67.6774C332.175 -79.9671 353.039 -87.8699 375.195 -90.5372C387.602 -92.0276 400.117 -90.6595 413.364 -89.215C423.938 -88.0609 434.87 -86.861 446.139 -87.1514C448.439 -87.2126 450.769 -87.2966 453.031 -87.3884C458.638 -87.6024 464.445 -87.824 470.182 -87.5947C476.623 -87.3348 482.299 -86.5247 487.548 -85.1108C493.224 -83.5822 498.908 -81.0753 504.455 -77.659C509.612 -74.4795 514.792 -70.4288 519.849 -65.6138C525.48 -57.9021 530.583 -49.4491 533.937 -43.7628L535.198 -41.6304C552.067 -13.0842 569.516 16.4249 589.724 42.8464C600.634 57.108 611.33 69.1761 622.423 79.7157C628.451 85.4478 634.662 90.7749 640.889 95.5441C647.436 100.565 654.22 105.144 661.05 109.156C663.358 110.509 665.741 111.892 668.041 113.222C683.137 121.966 698.753 130.999 711.535 143.419C719.771 151.36 726.57 160.577 731.758 170.803C736.686 180.525 740.192 191.248 742.194 202.682C742.782 206.06 743.241 209.4 743.539 212.602C744.264 220.291 744.104 228.737 743.057 238.435C742.125 247.08 740.582 255.907 739.085 264.444C738.221 269.389 737.327 274.51 736.556 279.539C735.883 283.941 734.485 293.113 734.47 303.492C734.462 308.819 734.814 314.023 735.517 318.953C736.334 324.701 737.656 330.249 739.436 335.439C741.965 342.799 745.67 349.93 750.445 356.64C755.159 363.251 760.958 369.511 767.673 375.228C775.565 381.961 784.634 387.013 791.655 390.666C792.159 390.926 792.663 391.186 793.168 391.454C798.095 394.014 803.183 396.658 807.905 399.654C813.238 403.04 817.355 406.418 820.473 409.988C823.712 413.687 825.545 417.111 826.248 420.772C827.501 427.291 825.354 434.407 819.877 441.927C816.576 446.452 812.328 450.946 806.499 456.074C795.505 465.75 784.221 474.272 770.622 484.414C766.764 487.295 762.7 490.391 759.231 493.761C755.327 497.56 752.661 501.236 751.094 504.996C749.964 507.702 749.268 510.476 748.971 513.48C748.504 518.157 749.284 522.697 751.415 527.757C753.318 532.266 756.045 536.622 758.941 541.231C761.668 545.58 764.495 550.082 766.848 555.072C769.514 560.736 771.149 566.2 771.852 571.787C772.777 579.155 771.845 586.951 768.911 596.313C767.123 602.053 764.77 607.953 762.486 613.663C757.52 626.082 752.386 638.922 751.996 652.374C751.752 660.338 753.05 667.981 754.303 675.364C755.831 684.375 757.275 692.881 755.938 701.395C755.327 705.286 754.173 708.939 752.508 712.248C747.435 722.322 738.466 730.148 725.867 735.49C720.382 737.821 714.163 739.686 707.394 741.039C701.275 742.262 694.643 743.08 687.683 743.469C684.459 743.653 681.136 743.798 677.927 743.943C666.467 744.455 654.625 744.983 643.188 747.199C635.044 748.774 627.473 751.128 620.681 754.193C613.354 757.502 606.708 761.744 600.917 766.803C597.517 769.761 594.331 773.139 591.451 776.831C588.647 780.423 586.11 784.351 583.895 788.509C581.725 792.583 579.861 796.909 578.348 801.357C576.851 805.767 575.697 810.314 574.918 814.885C574.513 817.261 574.154 819.715 573.802 822.084C572.725 829.429 571.61 837.018 568.905 843.782C566.354 850.149 562.518 855.384 558.813 860.199C554.55 865.74 550.501 870.586 546.436 875.011C538.361 883.816 529.842 891.199 521.125 896.954C516.182 900.217 511.102 902.992 506.029 905.216C500.566 907.6 494.974 909.404 489.404 910.558C483.903 911.72 478.196 912.286 471.955 912.286C461.297 912.286 450.479 910.604 440.027 908.984C439.225 908.862 438.423 908.732 437.621 908.609C422.517 906.278 404.67 903.787 386.823 902.976C368.243 902.128 352.161 903.213 337.645 906.301C331.227 907.662 324.726 909.503 317.781 911.919C311.6 914.066 305.206 916.634 298.231 919.753C285.288 925.538 272.362 932.386 259.855 939.005C255.531 941.298 251.054 943.66 246.669 945.937L246.638 945.952C243.024 947.825 239.288 949.766 235.514 951.295C231.282 953.007 227.408 954.016 223.688 954.382C221.327 954.619 218.989 954.635 216.644 954.436L216.674 954.467ZM123.781 900.745C124.774 900.829 125.767 900.966 126.737 901.157C130.137 901.822 133.88 903.114 137.861 904.994C141.436 906.683 145.317 908.9 149.39 911.582C155.883 915.855 163.111 921.465 171.484 928.733C179.262 935.436 187.299 942.36 195.947 947.366C200.577 950.049 204.939 951.929 209.286 953.106C214.176 954.436 218.898 954.849 223.718 954.375C227.439 954.008 231.305 952.999 235.537 951.287C239.319 949.759 243.047 947.825 246.661 945.952L246.692 945.937C251.077 943.66 255.554 941.29 259.878 939.005C272.385 932.386 285.319 925.546 298.261 919.753C305.236 916.634 311.631 914.074 317.812 911.919C324.764 909.503 331.258 907.662 337.683 906.301C352.199 903.221 368.289 902.128 386.876 902.976C404.723 903.794 422.57 906.278 437.682 908.609C438.484 908.732 439.286 908.862 440.089 908.984C450.54 910.604 461.35 912.286 472.008 912.286C478.242 912.286 483.949 911.72 489.45 910.558C495.02 909.404 500.612 907.6 506.067 905.216C511.132 902.999 516.213 900.225 521.156 896.961C529.873 891.206 538.384 883.831 546.459 875.019C550.524 870.594 554.573 865.748 558.828 860.207C562.534 855.392 566.361 850.164 568.913 843.805C571.617 837.041 572.725 829.452 573.802 822.115C574.154 819.745 574.513 817.3 574.918 814.915C575.697 810.345 576.858 805.79 578.356 801.38C579.869 796.931 581.733 792.606 583.902 788.532C586.118 784.374 588.654 780.446 591.458 776.846C594.339 773.147 597.524 769.776 600.932 766.811C606.723 761.751 613.377 757.502 620.704 754.193C627.503 751.128 635.075 748.774 643.226 747.199C654.663 744.99 666.513 744.455 677.973 743.943C681.182 743.798 684.497 743.653 687.721 743.469C694.674 743.08 701.305 742.262 707.425 741.039C714.194 739.686 720.405 737.821 725.883 735.49C738.481 730.148 747.435 722.329 752.508 712.264C754.173 708.962 755.327 705.309 755.938 701.426C757.275 692.919 755.831 684.413 754.303 675.41C753.05 668.019 751.752 660.384 751.996 652.412C752.386 638.953 757.52 626.113 762.486 613.693C764.77 607.984 767.123 602.084 768.911 596.344C771.845 586.989 772.777 579.201 771.852 571.833C771.149 566.254 769.514 560.797 766.848 555.134C764.495 550.143 761.676 545.641 758.948 541.292C756.053 536.684 753.318 532.327 751.415 527.81C749.284 522.743 748.504 518.203 748.971 513.51C749.268 510.507 749.964 507.732 751.094 505.019C752.668 501.251 755.335 497.567 759.239 493.769C762.707 490.391 766.772 487.295 770.63 484.414C784.236 474.279 795.513 465.758 806.507 456.074C812.328 450.946 816.576 446.452 819.877 441.927C825.354 434.422 827.494 427.314 826.241 420.802C825.538 417.157 823.704 413.733 820.473 410.033C817.355 406.472 813.245 403.094 807.912 399.708C803.191 396.712 798.103 394.067 793.175 391.507C792.671 391.247 792.167 390.98 791.662 390.72C786.788 388.182 782.838 385.951 779.24 383.681C774.862 380.929 771.081 378.178 767.673 375.274C760.95 369.549 755.151 363.289 750.437 356.678C745.655 349.968 741.949 342.829 739.421 335.469C737.641 330.28 736.319 324.724 735.501 318.976C734.798 314.046 734.447 308.842 734.455 303.515C734.47 293.128 735.868 283.964 736.54 279.554C737.312 274.517 738.206 269.404 739.069 264.459C740.559 255.922 742.102 247.095 743.042 238.451C744.089 228.759 744.249 220.314 743.523 212.625C743.225 209.423 742.767 206.083 742.179 202.705C740.177 191.279 736.67 180.556 731.743 170.842C726.563 160.616 719.756 151.406 711.527 143.465C698.746 131.053 683.137 122.011 668.041 113.276C665.741 111.946 663.358 110.562 661.05 109.21C654.213 105.197 647.428 100.619 640.881 95.5975C634.654 90.8208 628.443 85.4937 622.415 79.7615C611.322 69.2143 600.626 57.1539 589.716 42.8846C569.509 16.4708 552.059 -13.046 535.19 -41.5922L533.93 -43.7246C526.932 -55.6016 522.539 -61.8764 519.849 -65.5679C514.792 -70.3829 509.612 -74.4337 504.463 -77.6131C498.916 -81.0295 493.232 -83.5363 487.563 -85.0649C482.322 -86.4788 476.638 -87.289 470.205 -87.5489C464.467 -87.7781 458.661 -87.5565 453.053 -87.3425C450.792 -87.2584 448.462 -87.1667 446.162 -87.1132C434.901 -86.8304 423.961 -88.0227 413.387 -89.1768C400.139 -90.6289 387.625 -91.9894 375.226 -90.499C353.07 -87.8316 332.213 -79.9289 314.916 -67.6468C305.901 -61.2803 295.618 -54.3634 287.657 -51.3139C282.645 -49.3956 277.06 -48.3562 271.498 -48.3256C265.73 -48.295 260.214 -49.3497 255.546 -51.3827C252.246 -52.8196 249.396 -54.738 247.074 -57.0767C245.591 -58.5594 244.331 -60.2026 243.116 -61.7923C241.374 -64.0623 239.579 -66.4086 237.119 -68.3194C233.887 -70.8262 229.456 -72.4618 223.948 -73.1879C219.203 -73.8146 213.496 -73.7764 206.995 -73.0885C195.046 -71.8122 182.165 -68.5257 172.76 -66.1182C170.14 -65.4456 167.672 -64.8189 165.54 -64.3068C147.846 -60.0956 132.803 -55.059 119.54 -48.9217C111.984 -45.4289 104.948 -41.5158 98.607 -37.3045C91.7922 -32.7723 85.5733 -27.7356 80.1107 -22.3398C72.0812 -14.3759 65.4879 -5.47958 58.505 3.9441C53.0272 11.3348 47.366 18.9776 40.9179 26.1772C33.5301 34.4621 24.6678 42.7164 13.8268 51.4064C4.16229 59.1486 -6.12871 66.4935 -16.0835 73.6013C-28.1546 82.2149 -40.6306 91.1265 -51.9682 100.734C-58.0725 105.9 -63.3746 110.86 -68.1802 115.889C-73.5739 121.53 -78.2114 127.124 -82.3598 132.987C-86.7605 139.208 -91.0923 145.307 -95.279 151.207C-111.896 174.61 -127.596 196.713 -144.488 221.866L-145.03 222.676C-146.589 224.992 -148.193 227.391 -149.767 229.784C-154.672 237.289 -158.308 243.51 -161.227 249.357C-164.772 256.473 -167.323 263.191 -169.019 269.901C-174.184 290.239 -171.701 312.533 -169.302 334.086C-169.126 335.668 -168.943 337.296 -168.767 338.901C-167.438 350.755 -166.231 363.496 -166.399 376.328C-166.514 383.344 -167.048 390.46 -167.996 397.476C-168.92 404.332 -170.257 411.294 -171.984 418.173C-173.665 424.884 -175.75 431.709 -178.195 438.465C-180.571 445.038 -183.36 451.748 -186.477 458.398C-189.693 465.246 -193.284 472.094 -196.752 478.72C-201.588 487.96 -206.593 497.514 -210.665 507.205H-210.68H-210.665C-213.713 514.458 -216.165 521.994 -217.938 529.606C-219.771 537.456 -220.856 545.236 -221.162 552.726C-221.483 560.591 -220.94 568.05 -219.542 574.906C-218.06 582.182 -215.623 588.77 -212.292 594.487C-208.289 601.312 -203.025 607.128 -197.455 613.281C-196.325 614.534 -195.148 615.833 -193.979 617.148C-192.466 618.845 -190.969 620.572 -189.525 622.269C-181.526 631.708 -175.024 640.237 -169.631 648.346C-166.567 652.962 -163.809 657.525 -161.448 661.905C-158.912 666.605 -156.734 671.267 -154.97 675.769C-151.516 684.573 -149.553 692.469 -148.804 700.601C-148.04 708.84 -148.392 717.805 -148.735 726.464C-149.049 734.367 -149.37 742.545 -148.873 750.379C-148.361 758.343 -146.826 765.389 -144.304 771.313C-142.914 774.576 -141.195 777.557 -139.209 780.163C-137.092 782.93 -134.609 785.352 -131.828 787.37C-129.773 788.853 -127.512 790.129 -125.098 791.153C-122.844 792.109 -120.391 792.881 -117.801 793.446C-113.24 794.44 -108.137 794.837 -102.216 794.669C-100.298 794.616 -98.3731 794.547 -96.509 794.486C-81.8098 794.004 -67.9204 793.546 -53.7789 796.901C-46.2841 798.674 -38.6519 801.769 -30.4542 806.355C-23.8228 810.062 -16.7482 814.808 -8.83325 820.861C-2.17888 825.944 4.16992 831.149 10.045 836.323C16.3021 841.833 22.2077 847.489 27.5939 853.122C32.1396 857.876 36.6167 862.905 40.9485 867.773L41.4909 868.385C47.2209 874.82 53.7224 882.119 60.713 888.401C66.6645 893.713 73.1508 898.123 79.469 901.157C82.7465 902.732 85.94 903.917 88.9654 904.673C92.1283 905.468 95.1079 905.797 97.8201 905.651C101.846 905.437 105.3 904.306 108.638 903.221C112.397 901.998 116.278 900.729 121.107 900.653C122.008 900.638 122.91 900.668 123.803 900.745H123.781Z" fill="#141414" fill-opacity="0.1"/>
</svg>
