<svg width="72" height="80" viewBox="0 0 72 80" fill="none" xmlns="http://www.w3.org/2000/svg">
<path d="M0.880005 79.1998V75.9358H71.12V79.1998H0.880005ZM51.52 74.2958H43.352L43.32 32.3358L33.552 25.2958L10.68 35.1038V74.3038H0.880005V71.0398H7.41601V33.4638L33.552 22.0318L46.616 31.8318V71.0318H51.52V74.2958ZM15.512 40.1838L27.016 35.1038V41.6398L15.584 46.5438L15.512 40.1838ZM27.016 49.7998V56.3358L15.584 59.5998L15.512 53.4318L27.016 49.7998ZM15.584 66.1358L27.016 62.8718V71.0398H15.584V66.1358ZM54.784 8.9678V74.3038H59.68V14.7518L54.784 8.9678ZM33.552 30.1998V74.2958H38.448V33.4638L33.552 30.1998ZM71.12 74.2958H62.952V13.8638L54.784 4.0638L23.752 17.1358V22.0398L20.48 25.2958V15.4958L56.416 0.799805L66.216 13.8638V71.0318H71.12V74.2958Z" fill="white"/>
</svg>
