<svg width="80" height="80" viewBox="0 0 80 80" fill="none" xmlns="http://www.w3.org/2000/svg">
<path d="M42.0706 38.1515C46.2784 42.3442 49.4473 46.8104 51.1657 50.645C53.0082 54.7466 53.1977 58.2296 51.3029 60.1177C50.4143 61.0031 49.1663 61.4328 47.6701 61.4458L14.4587 76.1919C6.04316 80.339 1.90073 80.964 0.482891 78.7375C-0.856541 76.6346 0.731176 72.1749 3.61912 65.8403L18.7188 31.9471C18.8364 30.7296 19.2545 29.714 20.019 28.9523C21.9138 27.0643 25.4094 27.2531 29.5257 29.089C33.3806 30.8013 37.8628 33.9523 42.0706 38.1515ZM75.6936 57.9041C76.6867 58.8937 76.6867 60.5018 75.6936 61.4914C74.7005 62.4809 73.0866 62.4809 72.0935 61.4914C71.1003 60.5018 71.1003 58.8937 72.0935 57.9041C73.0866 56.9145 74.6939 56.9145 75.6936 57.9041ZM78.1111 46.0812C78.8168 45.951 79.4963 46.4132 79.627 47.1164C79.7576 47.8195 79.2937 48.4966 78.5881 48.6268C75.1317 49.2778 72.2242 47.1684 69.2186 44.994C65.2656 42.1294 61.1167 39.1216 55.87 44.4927C55.3734 45.007 54.5502 45.0135 54.034 44.5187C53.5178 44.0239 53.5113 43.2036 54.0079 42.6893C60.8227 35.7101 65.906 39.3885 70.741 42.8976C73.2892 44.7401 75.7524 46.5239 78.1111 46.0812ZM78.7057 7.4549C79.4244 7.4549 79.9994 8.03432 79.9994 8.74396C79.9994 9.46011 79.4179 10.033 78.7057 10.033C72.7338 10.046 71.1657 14.8377 69.5061 19.9028C67.5786 25.7947 65.5401 32.0057 57.4512 33.3859C56.6998 33.5161 55.9288 33.6398 55.0794 33.757C54.2692 33.8677 53.4656 33.9588 52.6554 34.0109C51.9367 34.0565 51.3225 33.5161 51.2767 32.7999C51.231 32.0838 51.7733 31.4718 52.492 31.4263C53.25 31.3742 53.9948 31.296 54.7331 31.1919C55.4388 31.0942 56.2163 30.9705 57.0134 30.8338C63.5538 29.7205 65.344 24.2713 67.0298 19.1085C68.9964 13.1255 70.8455 7.47443 78.7057 7.4549ZM32.8253 1.05516C32.9559 0.352032 33.6355 -0.110208 34.3411 0.0200007C35.0468 0.150209 35.5107 0.827292 35.38 1.53042C34.9553 3.76349 36.5103 6.1463 38.1111 8.59422C41.4368 13.6919 44.9324 19.0369 36.1314 25.977C35.5695 26.4197 34.7527 26.3221 34.3084 25.7622C33.8641 25.2023 33.9621 24.3885 34.5241 23.9458C41.4695 18.4705 38.6404 14.1281 35.9354 9.99396C34.0406 7.10985 32.2046 4.30385 32.8253 1.05516ZM62.345 4.8963L59.8622 9.77912L63.5276 13.4705L58.3333 12.7674L55.8308 17.3898L55.0076 12.2466L49.8262 11.3351L54.4783 8.93276L53.7204 3.56167L57.4839 7.40932L62.345 4.8963ZM50.5972 20.7427C51.5904 21.7322 51.5904 23.3403 50.5972 24.3299C49.6041 25.3195 47.9902 25.3195 46.9971 24.3299C46.004 23.3403 46.004 21.7322 46.9971 20.7427C47.9902 19.7531 49.6041 19.7531 50.5972 20.7427ZM46.8795 3.37938C47.8726 4.36896 47.8726 5.97703 46.8795 6.96662C45.8864 7.9562 44.2725 7.9562 43.2794 6.96662C42.2862 5.97703 42.2862 4.36896 43.2794 3.37938C44.2725 2.38979 45.8864 2.38979 46.8795 3.37938ZM30.4404 15.938C31.4336 16.9276 31.4336 18.5356 30.4404 19.5252C29.4473 20.5148 27.8334 20.5148 26.8403 19.5252C25.8472 18.5356 25.8472 16.9276 26.8403 15.938C27.8334 14.9484 29.4407 14.9484 30.4404 15.938ZM74.2366 30.4106C75.2297 31.4002 75.2297 33.0083 74.2366 33.9979C73.2434 34.9874 71.6296 34.9874 70.6364 33.9979C69.6433 33.0083 69.6433 31.4002 70.6364 30.4106C71.6296 29.421 73.2434 29.421 74.2366 30.4106ZM66.2392 49.8768L63.1487 51.8885L64.0373 55.2609L61.2539 53.1125L58.2418 54.9614L59.4963 51.6932L56.7913 49.4276L60.3065 49.5838L61.6786 46.2049L62.5672 49.701L66.2392 49.8768ZM21.1428 40.3976C23.7302 47.9627 29.4342 57.7348 37.6145 63.7895L44.168 60.8729C43.4035 60.6385 42.6129 60.339 41.7896 59.9744C37.9412 58.2622 33.459 55.1046 29.2513 50.9119C25.7491 47.4223 22.9657 43.744 21.1428 40.3976ZM28.1667 67.9822C21.1624 61.8494 17.0004 55.1632 13.5374 48.3468L9.19246 58.1059C10.8651 61.5695 15.4519 67.4158 19.836 71.6802L28.1667 67.9822ZM11.1003 75.6385C7.83343 72.8325 6.33719 71.1203 4.72334 68.1125C2.51491 73.0669 1.32575 76.4588 2.11634 77.6958C2.80893 78.7765 5.50086 78.2296 11.1003 75.6385ZM20.6462 32.1164C20.6528 32.1619 20.6528 32.214 20.6462 32.2661C20.5809 33.2361 20.7638 34.3885 21.182 35.6776C21.3846 36.296 21.6394 36.9536 21.9465 37.6372C23.5668 41.257 26.5985 45.5083 30.643 49.5447C34.6874 53.5747 38.9605 56.5955 42.5933 58.2101C43.3708 58.5552 44.1157 58.8416 44.8148 59.0499C45.7753 59.3364 46.6573 59.4992 47.4414 59.5122C47.5002 59.5122 47.559 59.5187 47.6178 59.5252C48.5979 59.5187 49.3885 59.2648 49.9177 58.7375C51.1787 57.4809 50.8847 54.7791 49.3819 51.4328C47.7616 47.813 44.7299 43.5617 40.6854 39.5252C36.641 35.4953 32.3679 32.4744 28.7351 30.8598C25.3767 29.3624 22.6652 29.0695 21.4042 30.326C20.9729 30.7622 20.7246 31.3677 20.6462 32.1164Z" fill="white"/>
</svg>
