<svg width="80" height="80" viewBox="0 0 80 80" fill="none" xmlns="http://www.w3.org/2000/svg">
<path d="M0.800049 4.5938V8.3874H2.69685H4.59365V34.9418V61.497H7.17045H9.76245L9.96805 62.161C10.4896 63.9154 11.9752 65.8442 13.4768 66.6978L14.204 67.1242L13.1768 67.6618C11.7856 68.373 10.2056 69.9698 9.44645 71.4234C8.64005 72.957 8.38725 74.237 8.38725 76.9402V79.2002H17.2544H26.1216L26.0585 76.4818C25.9792 73.5106 25.7737 72.641 24.7465 70.9018C24.0984 69.7954 22.4865 68.2618 21.3008 67.6458L20.2736 67.1242L21.0009 66.6978C22.5025 65.8442 23.9881 63.9154 24.5096 62.161L24.7153 61.497H28.6192H32.5232L32.7289 62.161C33.2505 63.9154 34.7361 65.8442 36.2377 66.6978L36.9649 67.1242L35.9377 67.6458C34.7521 68.2618 33.14 69.7954 32.4921 70.9018C31.4648 72.6402 31.2593 73.5098 31.18 76.4818L31.1169 79.2002H40H48.8833L48.82 76.4658C48.7409 73.5098 48.5353 72.6402 47.5081 70.9018C46.8601 69.7954 45.2481 68.2618 44.0625 67.6458L43.0353 67.1242L43.7625 66.6978C45.264 65.8442 46.7496 63.9154 47.2713 62.161L47.4769 61.497H51.3809H55.2849L55.4904 62.161C56.0121 63.9154 57.4977 65.8442 58.9993 66.6978L59.7265 67.1242L58.6992 67.6458C57.5136 68.2618 55.9017 69.7954 55.2537 70.9018C54.2265 72.6402 54.0209 73.5098 53.9417 76.4658L53.8784 79.2002H62.7457H71.6128V77.0186C71.6128 74.2842 71.4392 73.2882 70.6488 71.6602C69.8745 70.0322 68.3568 68.4514 66.8241 67.661L65.7969 67.1234L66.5241 66.697C68.3105 65.6698 69.8753 63.3938 70.2384 61.2594C70.8232 57.845 68.2625 54.0042 64.7065 52.945L64.0265 52.7554V45.6586C64.0265 41.7706 63.9793 38.577 63.9321 38.577C63.8849 38.577 62.1456 39.3202 60.0913 40.237C58.0209 41.1538 56.1393 41.897 55.9025 41.897C55.6656 41.897 55.2857 41.8026 55.0489 41.6754C54.8121 41.549 52.9936 39.8106 51.0024 37.8026C47.8097 34.6098 47.3825 34.1194 47.3825 33.677C47.3825 32.997 48.1729 32.2074 48.8521 32.2074C49.2945 32.2074 49.7689 32.6186 52.7881 35.637L56.2337 39.0826L61.1969 35.8426L66.16 32.6178L67.6144 34.0562L69.0848 35.4946V40.269V45.0586H70.3497H71.6144V40.269V35.4954L73.0368 34.073L74.4593 32.6666L74.9177 33.109C75.1705 33.3458 75.5657 33.8994 75.8025 34.3418C76.6721 35.9226 76.6721 35.9538 76.6721 46.5922V56.4394H77.9369H79.2001V46.7498C79.2001 35.9698 79.1841 35.7802 78.1569 33.6778C77.4296 32.2082 75.4537 30.169 74.1897 29.5842L73.3521 29.205L74.1105 28.7626C75.8969 27.7354 77.4616 25.4594 77.8249 23.325C78.1569 21.4122 77.4137 18.9938 76.0545 17.5082L75.4064 16.813V12.5922V8.3874H77.3033H79.2001V4.5938V0.800194H40H0.800049V4.5938ZM76.6713 4.5938V5.85859H40H3.32885V4.5938V3.32899H40H76.6713V4.5938ZM72.8777 11.8018C72.8777 14.9946 72.8616 15.2162 72.6088 15.105C72.4504 15.0418 71.8817 14.9154 71.3441 14.8202C66.7921 14.0138 62.0817 18.7402 62.8721 23.3242C63.2353 25.4266 64.7689 27.7026 66.5393 28.7458L67.2193 29.141L66.6185 29.457C66.2704 29.6306 63.9001 31.1322 61.3232 32.8082L56.6289 35.8434L54.0521 33.2514C50.9065 30.1058 50.432 29.8218 48.5353 29.9002L47.2705 29.9634L45.848 27.7666C45.0577 26.565 44.4257 25.5218 44.4569 25.4586C44.4881 25.3794 45.7057 24.0042 47.1753 22.3762C49.4201 19.8786 49.8937 19.4362 50.1784 19.5314C51.7432 19.9898 52.7233 19.721 53.9089 18.5202C55.6001 16.829 55.6001 15.1218 53.9089 13.4306C52.2969 11.8026 50.4001 11.7866 48.8032 13.3994C47.744 14.4426 47.3809 15.7546 47.7913 16.9714L48.028 17.6826L45.5801 20.4162C44.2209 21.9338 43.0672 23.1826 43.0192 23.1978C42.972 23.229 42.5136 22.597 41.9921 21.8226L41.0752 20.4002L40.4744 20.7322C40.1424 20.9218 39.6841 21.2226 39.4313 21.4274C39.0048 21.7754 38.9889 21.7906 39.2577 22.1858C39.4001 22.4074 39.9057 23.1978 40.3801 23.9242L41.2337 25.2522L40.1112 26.469L38.9729 27.7018L38.2297 27.4962C37.6129 27.3226 37.3288 27.3226 36.6649 27.4962L35.8584 27.7018L32.6969 24.5402L29.5361 21.3802L29.7416 20.5738C29.9944 19.5618 29.7729 18.5346 29.1096 17.729C27.9872 16.3226 26.6593 15.753 25.348 16.101C23.42 16.6226 21.9657 18.7722 22.4081 20.4322C22.5184 20.8114 22.6297 21.2226 22.6769 21.349C22.7401 21.5074 21.3808 23.341 18.82 26.5338C15.248 30.9914 14.8208 31.4658 14.5048 31.3546C13.904 31.133 12.608 31.2282 12.0072 31.513C10.8376 32.0818 9.90485 33.3306 9.69925 34.5482C9.39925 36.3818 11.5168 38.737 13.4456 38.737C14.3152 38.737 15.1208 38.3258 15.9745 37.4722C17.1912 36.2554 17.4921 35.2122 17.0016 33.837C16.8592 33.4418 16.828 33.0786 16.8912 32.9834C17.0016 32.857 24.3201 23.6258 24.5889 23.2786C24.6049 23.2626 24.952 23.3258 25.3472 23.437C25.932 23.5954 26.232 23.5794 26.896 23.421L27.7024 23.2154L30.864 26.345C33.6144 29.0954 33.9936 29.5378 33.9144 29.8858C33.6616 31.0394 33.6616 31.3714 33.8512 32.0514C33.9936 32.605 34.2936 33.0474 34.9264 33.6794C36.6176 35.3706 38.3249 35.3706 40 33.6794C41.2169 32.4778 41.5177 31.4194 41.0433 30.0754L40.8064 29.4274L41.7233 28.4314L42.64 27.4354L44.0312 29.5538C45.3904 31.6402 45.4065 31.6874 45.2329 32.257C45.1385 32.589 45.0592 33.269 45.0592 33.7906C45.0592 35.3714 45.4225 35.877 49.4537 39.8762C53.6737 44.081 53.8481 44.1914 56.0449 44.1754C57.4041 44.1754 57.5465 44.1434 59.1273 43.4162C60.0441 43.005 60.9449 42.5946 61.1505 42.5154L61.4985 42.373V47.5738V52.7586L60.8344 52.9642C58.3689 53.6914 56.2033 55.857 55.4761 58.2914L55.2864 58.9714H51.3825H47.4785L47.2889 58.2914C46.4673 55.525 43.8905 53.249 41.0297 52.7594C37.6153 52.1746 33.7744 54.7354 32.7153 58.2914L32.5257 58.9714H28.6217H24.7176L24.528 58.2914C23.7064 55.525 21.1297 53.249 18.2689 52.7594C14.8545 52.1746 11.0136 54.7354 9.95445 58.2914L9.76485 58.9714H8.43685H7.12485V33.6778V8.3874H40H72.8777V11.8018ZM52.3289 15.0258C52.5345 15.2314 52.6449 15.5474 52.6449 15.9738C52.6449 16.4002 52.5345 16.717 52.3289 16.9218C52.1233 17.1266 51.8073 17.2378 51.3801 17.2378C50.9537 17.2378 50.6369 17.1274 50.4321 16.9218C50.2265 16.7162 50.1161 16.4002 50.1161 15.9738C50.1161 15.5466 50.2265 15.2306 50.4321 15.0258C50.6376 14.8202 50.9537 14.7098 51.3801 14.7098C51.8073 14.7098 52.1233 14.8202 52.3289 15.0258ZM72.6401 17.713C73.62 18.1874 74.4576 19.025 74.9481 20.021C75.2641 20.669 75.3273 21.033 75.3273 22.297C75.3273 24.0202 74.9953 24.921 73.9841 25.9322C72.9721 26.9442 72.0713 27.2754 70.3488 27.2754C69.084 27.2754 68.7208 27.2122 68.0728 26.8962C66.4448 26.0898 65.4649 24.6202 65.3224 22.7706C65.1488 20.2418 66.3337 18.2978 68.5313 17.5074C69.6529 17.1122 71.5816 17.2074 72.6401 17.713ZM27.0385 18.8194C27.2441 19.025 27.3545 19.341 27.3545 19.7674C27.3545 20.605 26.928 21.0322 26.0896 21.0322C25.2521 21.0322 24.8249 20.6058 24.8249 19.7674C24.8249 19.341 24.9353 19.0242 25.1409 18.8194C25.3465 18.6138 25.6625 18.5034 26.0889 18.5034C26.5153 18.5034 26.8337 18.6138 27.0385 18.8194ZM38.4193 30.2002C38.6249 30.4058 38.7352 30.7218 38.7352 31.1482C38.7352 31.9858 38.3088 32.413 37.4704 32.413C36.6329 32.413 36.2057 31.9866 36.2057 31.1482C36.2057 30.721 36.3161 30.405 36.5217 30.2002C36.7273 29.9954 37.0433 29.8842 37.4697 29.8842C37.8961 29.8842 38.2136 29.9946 38.4193 30.2002ZM71.7393 31.2754C72.0713 31.3858 72.0553 31.4338 71.2177 32.2554L70.3481 33.109L69.4784 32.2554C68.6409 31.4338 68.6248 31.3858 68.9568 31.2754C69.1625 31.2282 69.7793 31.181 70.3481 31.181C70.9177 31.1802 71.5337 31.2274 71.7393 31.2754ZM14.3936 33.9938C14.5992 34.1994 14.7096 34.5154 14.7096 34.9418C14.7096 35.7794 14.2832 36.2066 13.4448 36.2066C12.6072 36.2066 12.18 35.7802 12.18 34.9418C12.18 34.1042 12.6064 33.677 13.4448 33.677C13.872 33.6778 14.188 33.7882 14.3936 33.9938ZM19.5305 55.649C20.5105 56.1234 21.3481 56.961 21.8384 57.957C22.1544 58.605 22.2176 58.953 22.2176 60.233C22.2176 61.9562 21.8696 62.873 20.8745 63.8682C19.8785 64.8642 18.9616 65.2114 17.2392 65.2114C15.9592 65.2114 15.6112 65.1482 14.9633 64.8322C13.3352 64.0258 12.3552 62.5562 12.2128 60.7066C12.0392 58.1778 13.2248 56.233 15.4216 55.4434C16.5432 55.0482 18.4713 55.1426 19.5305 55.649ZM42.292 55.649C43.272 56.1234 44.1096 56.961 44.6001 57.957C44.916 58.605 44.9793 58.969 44.9793 60.233C44.9793 61.9562 44.6473 62.857 43.6361 63.8682C42.6241 64.8802 41.7233 65.2114 40.0009 65.2114C38.736 65.2114 38.3729 65.1482 37.7248 64.8322C36.0969 64.0258 35.1168 62.5562 34.9744 60.7066C34.8008 58.1778 35.9865 56.233 38.1833 55.4434C39.3049 55.0482 41.2328 55.1426 42.292 55.649ZM65.0529 55.649C66.0329 56.1234 66.8552 56.945 67.3448 57.941C67.6768 58.605 67.7401 58.9682 67.7401 60.233C67.7401 61.9562 67.4081 62.857 66.3969 63.8682C65.3848 64.8802 64.4841 65.2114 62.7617 65.2114C61.0385 65.2114 60.1217 64.8634 59.1264 63.8682C57.9408 62.6826 57.4193 60.6122 57.8465 58.8578C58.2416 57.277 59.5377 55.9018 61.0864 55.3962C62.0976 55.0634 64.1049 55.1898 65.0529 55.649ZM19.6096 69.4634C21.2848 70.0642 22.8657 71.8186 23.324 73.589C23.4504 74.0946 23.5609 75.0114 23.5609 75.5962V76.6706H17.2384H10.916V75.485C10.916 72.5922 12.4176 70.4114 15.0728 69.4314C15.8944 69.1314 16.2744 69.0834 17.4752 69.1466C18.2664 69.1786 19.2144 69.321 19.6096 69.4634ZM42.0704 69.4002C44.6945 70.2066 46.3224 72.609 46.3224 75.5962V76.6706H40H33.6777V75.485C33.6777 74.0306 34.104 72.6242 34.8792 71.565C36.412 69.4634 39.3993 68.5626 42.0704 69.4002ZM64.8481 69.4162C66.6345 70.001 67.9616 71.2498 68.6729 73.0042C68.8465 73.4626 68.9889 74.3322 69.0521 75.201L69.1313 76.6706H62.7769H56.4384V75.501C56.4384 71.7706 59.0305 69.1154 62.7137 69.0994C63.4729 69.0842 64.2001 69.1946 64.8481 69.4162Z" fill="white"/>
</svg>
