<svg width="80" height="51" viewBox="0 0 80 51" fill="none" xmlns="http://www.w3.org/2000/svg">
<path d="M24.9809 50.0337C30.6214 50.0337 35.8148 48.1315 40.0001 44.9667C44.1867 48.133 49.3786 50.0337 55.0191 50.0337C68.7948 50.0337 80.0001 38.8286 80.0001 25.0542C80.0001 11.2784 68.7949 0.0732422 55.0191 0.0732422C49.3786 0.0732422 44.1854 1.97539 40.0001 5.14008C35.8135 1.97395 30.6214 0.0732422 24.9809 0.0732422C11.2052 0.073386 0 11.2784 0 25.0542C0 38.8272 11.2052 50.0337 24.9809 50.0337ZM39.9999 14.9603C41.9459 17.8459 43.0834 21.3201 43.0834 25.0542C43.0834 28.7883 41.9459 32.2625 39.9999 35.148C38.0538 32.2625 36.9164 28.7883 36.9164 25.0542C36.9164 21.3201 38.0552 17.8459 39.9999 14.9603ZM55.0204 6.95018C65.0029 6.95018 73.1244 15.0717 73.1244 25.0542C73.1244 35.0365 65.0029 43.1567 55.0204 43.1567C51.2766 43.1567 47.7942 42.0139 44.9045 40.0595C48.0637 35.8755 49.9617 30.6891 49.9617 25.0542C49.9617 19.4192 48.0637 14.2313 44.9045 10.0476C47.7942 8.09305 51.2766 6.95018 55.0204 6.95018ZM24.9809 6.95018C28.7247 6.95018 32.2071 8.09305 35.0968 10.0476C31.9375 14.2314 30.0396 19.4194 30.0396 25.0542C30.0396 30.689 31.9375 35.8755 35.0968 40.0595C32.2071 42.0139 28.7247 43.1567 24.9809 43.1567C14.9986 43.1567 6.87693 35.0365 6.87693 25.0542C6.87679 15.0717 14.9984 6.95018 24.9809 6.95018Z" fill="white"/>
</svg>
