<svg width="229" height="69" viewBox="0 0 229 69" fill="none" xmlns="http://www.w3.org/2000/svg">
<g clip-path="url(#clip0_586_6)">
<path d="M220.405 68.0544H8.48147C3.81904 68.0544 0.00439453 64.2521 0.00439453 59.6047V8.9067C0.00439453 4.25935 3.81904 0.457031 8.48147 0.457031H220.405C225.067 0.457031 228.882 4.25935 228.882 8.9067V59.6047C228.882 64.2521 225.067 68.0544 220.405 68.0544Z" fill="#100F0D"/>
<path d="M220.405 0.457031H8.48147C3.81904 0.457031 0.00439453 4.25935 0.00439453 8.9067V59.6047C0.00439453 64.2521 3.81904 68.0544 8.48147 68.0544H220.405C225.067 68.0544 228.882 64.2521 228.882 59.6047V8.9067C228.882 4.25935 225.067 0.457031 220.405 0.457031ZM220.405 1.80829C224.332 1.80829 227.526 4.99284 227.526 8.9067V59.6047C227.526 63.5186 224.332 66.7031 220.405 66.7031H8.48147C4.55492 66.7031 1.36144 63.5186 1.36144 59.6047V8.9067C1.36144 4.99284 4.55492 1.80829 8.48147 1.80829H220.405Z" fill="#A2A2A1"/>
<path d="M181.304 51.1554H184.467V30.0278H181.304V51.1554ZM209.799 37.639L206.172 46.7983H206.064L202.3 37.639H198.892L204.538 50.4406L201.319 57.5619H204.618L213.317 37.6396L209.799 37.639ZM191.857 48.7556C190.822 48.7556 189.376 48.2386 189.376 46.9613C189.376 45.3307 191.177 44.7056 192.73 44.7056C194.12 44.7056 194.776 45.004 195.621 45.412C195.375 47.3692 193.684 48.7555 191.857 48.7555L191.857 48.7556ZM192.24 37.1769C189.949 37.1769 187.577 38.1829 186.596 40.4116L189.403 41.58C190.004 40.4116 191.121 40.0314 192.294 40.0314C193.93 40.0314 195.593 41.009 195.62 42.7492V42.9663C195.047 42.6401 193.82 42.1511 192.321 42.1511C189.293 42.1511 186.213 43.8086 186.213 46.9072C186.213 49.7339 188.695 51.5552 191.475 51.5552C193.601 51.5552 194.776 50.6039 195.51 49.4891H195.62V51.1208H198.676V43.0203C198.676 39.2695 195.865 37.1769 192.24 37.1769V37.1769ZM172.688 40.2108H168.188V32.9693H172.688C175.053 32.9693 176.396 34.9208 176.396 36.59C176.396 38.2272 175.053 40.2108 172.688 40.2108ZM172.606 30.0283H165.026V51.1559H168.188V43.1519H172.607C176.113 43.1519 179.559 40.6223 179.559 36.5908C179.559 32.5601 176.113 30.0292 172.607 30.0292L172.606 30.0283ZM131.271 48.7591C129.085 48.7591 127.256 46.9345 127.256 44.4307C127.256 41.8977 129.085 40.0473 131.271 40.0473C133.429 40.0473 135.122 41.8979 135.122 44.4307C135.122 46.9345 133.429 48.7591 131.271 48.7591ZM134.903 38.8217H134.794C134.084 37.9779 132.718 37.2155 130.998 37.2155C127.392 37.2155 124.087 40.3742 124.087 44.4307C124.087 48.4595 127.392 51.5904 130.998 51.5904C132.718 51.5904 134.084 50.8279 134.794 49.9573H134.903V50.991C134.903 53.7418 133.429 55.2112 131.052 55.2112C129.114 55.2112 127.912 53.8229 127.42 52.6524L124.661 53.7958C125.453 55.7008 127.555 58.0431 131.052 58.0431C134.768 58.0431 137.909 55.8646 137.909 50.5552V37.651H134.903L134.903 38.8217ZM140.094 51.1548H143.261V30.0271H140.094V51.1548ZM147.932 44.1852C147.851 41.408 150.091 39.9926 151.702 39.9926C152.959 39.9926 154.023 40.619 154.38 41.5169L147.932 44.1852ZM157.765 41.7889C157.164 40.1835 155.334 37.2155 151.593 37.2155C147.877 37.2155 144.791 40.1286 144.791 44.403C144.791 48.4325 147.851 51.5906 151.947 51.5906C155.252 51.5906 157.164 49.5765 157.957 48.4054L155.499 46.7716C154.679 47.9697 153.56 48.7593 151.947 48.7593C150.336 48.7593 149.189 48.024 148.452 46.581L158.093 42.6063L157.765 41.7889ZM80.9494 39.4209V42.4701H88.2693C88.0508 44.1853 87.4772 45.4374 86.603 46.3088C85.5374 47.3703 83.8713 48.5414 80.9493 48.5414C76.4424 48.5414 72.9192 44.9206 72.9192 40.4283C72.9192 35.9361 76.4424 32.3148 80.9493 32.3148C83.3803 32.3148 85.1553 33.2679 86.4664 34.4931L88.6249 32.3418C86.7943 30.5997 84.3637 29.2656 80.9493 29.2656C74.7754 29.2656 69.5859 34.2752 69.5859 40.4283C69.5859 46.5808 74.7754 51.5906 80.9493 51.5906C84.2811 51.5906 86.7944 50.5014 88.7607 48.4596C90.782 46.4448 91.4104 43.6135 91.4104 41.3262C91.4104 40.6192 91.3553 39.9657 91.2461 39.4209H80.9494ZM99.7334 48.7591C97.5477 48.7591 95.663 46.9622 95.663 44.403C95.663 41.8166 97.5477 40.0475 99.7334 40.0475C101.918 40.0475 103.803 41.8166 103.803 44.403C103.803 46.9622 101.918 48.7591 99.7334 48.7591ZM99.7334 37.2155C95.7444 37.2155 92.4946 40.2375 92.4946 44.403C92.4946 48.5414 95.7444 51.5906 99.7334 51.5906C103.721 51.5906 106.971 48.5414 106.971 44.403C106.971 40.2375 103.721 37.2155 99.7334 37.2155ZM115.523 48.7591C113.339 48.7591 111.453 46.9622 111.453 44.403C111.453 41.8166 113.339 40.0475 115.523 40.0475C117.708 40.0475 119.592 41.8166 119.592 44.403C119.592 46.9622 117.708 48.7591 115.523 48.7591ZM115.523 37.2155C111.535 37.2155 108.285 40.2375 108.285 44.403C108.285 48.5414 111.535 51.5906 115.523 51.5906C119.512 51.5906 122.762 48.5414 122.762 44.403C122.762 40.2375 119.512 37.2155 115.523 37.2155Z" fill="white"/>
<path d="M35.1242 33.2825L17.0752 52.3783C17.0759 52.3823 17.0772 52.3856 17.0779 52.3896C17.6314 54.4632 19.5315 55.99 21.7866 55.99C22.688 55.99 23.5344 55.7471 24.2602 55.3207L24.3178 55.287L44.6353 43.6008L35.1251 33.2822" fill="#EB3131"/>
<path d="M53.3853 30.0316L53.368 30.0198L44.5963 24.9512L34.7139 33.7166L44.6306 43.6L53.356 38.5818C54.8858 37.7586 55.9243 36.1512 55.9243 34.2975C55.9243 32.4571 54.8997 30.8576 53.3852 30.0317" fill="#F6B60B"/>
<path d="M17.0723 16.1348C16.9638 16.5336 16.9067 16.9513 16.9067 17.3852V51.1293C16.9067 51.5623 16.9631 51.9815 17.073 52.3789L35.745 33.771L17.073 16.1352" fill="#5778C5"/>
<path d="M35.2571 34.2573L44.5998 24.9475L24.3052 13.219C23.5675 12.7786 22.7066 12.5244 21.7853 12.5244C19.5303 12.5244 17.6276 14.054 17.0739 16.13C17.0732 16.132 17.0732 16.1334 17.0732 16.1352L35.257 34.2577" fill="#3BAD49"/>
<path d="M80.3556 16.9861H75.4098V18.206H79.1159C79.0152 19.2016 78.6178 19.9832 77.9476 20.5509C77.2774 21.1187 76.4217 21.4038 75.4098 21.4038C74.2998 21.4038 73.3593 21.0183 72.5886 20.2526C71.8335 19.471 71.4495 18.5045 71.4495 17.3401C71.4495 16.1757 71.8335 15.2092 72.5886 14.4276C73.3594 13.6619 74.2998 13.279 75.4098 13.279C75.9794 13.279 76.5225 13.3767 77.0204 13.5906C77.5185 13.8044 77.9184 14.1028 78.2311 14.4858L79.1715 13.5484C78.745 13.0651 78.2046 12.6955 77.5342 12.4261C76.864 12.1567 76.1647 12.0274 75.4096 12.0274C73.9289 12.0274 72.6733 12.5396 71.648 13.5616C70.6228 14.586 70.1089 15.8483 70.1089 17.3401C70.1089 18.8319 70.6228 20.0969 71.648 21.1188C72.6732 22.1406 73.9289 22.653 75.4096 22.653C76.9647 22.653 78.2045 22.1565 79.1582 21.1477C79.9979 20.3082 80.427 19.1727 80.427 17.7521C80.427 17.5118 80.3979 17.2556 80.3555 16.9863L80.3556 16.9861ZM82.2717 12.2543V22.4257H88.2293V21.1767H83.5829V17.9501H87.7738V16.7301H83.5829V13.506H88.2293V12.2543L82.2717 12.2543ZM96.5834 13.506V12.2543H89.5712V13.506H92.4218V22.4257H93.733V13.506H96.5834ZM102.932 12.2543H101.621V22.4257H102.932V12.2543ZM111.587 13.506V12.2543H104.575V13.506H107.425V22.4257H108.737V13.506H111.587ZM124.819 13.5773C123.807 12.5396 122.568 12.0273 121.087 12.0273C119.603 12.0273 118.364 12.5396 117.351 13.5615C116.339 14.5702 115.842 15.835 115.842 17.34C115.842 18.845 116.34 20.11 117.351 21.1187C118.363 22.1405 119.603 22.6529 121.087 22.6529C122.554 22.6529 123.807 22.1405 124.819 21.1187C125.831 20.11 126.329 18.8451 126.329 17.34C126.329 15.8482 125.831 14.5859 124.819 13.5773ZM118.292 14.4276C119.047 13.6618 119.974 13.2789 121.087 13.2789C122.197 13.2789 123.124 13.6619 123.866 14.4276C124.621 15.1801 124.991 16.1622 124.991 17.34C124.991 18.5204 124.621 19.4999 123.866 20.2525C123.124 21.0182 122.197 21.4037 121.087 21.4037C119.974 21.4037 119.047 21.0182 118.292 20.2525C117.553 19.4841 117.182 18.5204 117.182 17.34C117.182 16.1623 117.553 15.1959 118.292 14.4276ZM129.445 16.0911L129.389 14.1291H129.445L134.632 22.4256H136.001V12.2542H134.69V18.2059L134.745 20.168H134.69L129.731 12.2542H128.133V22.4256H129.445V16.0911Z" fill="white" stroke="white" stroke-width="0.316243" stroke-miterlimit="10"/>
</g>
<defs>
<clipPath id="clip0_586_6">
<rect width="228.887" height="67.5986" fill="white" transform="translate(0 0.456055)"/>
</clipPath>
</defs>
</svg>
