<svg width="1512" height="304" viewBox="0 0 1512 304" fill="none" xmlns="http://www.w3.org/2000/svg">
<path d="M710.134 726.557V659.7L641.795 623.295V694.871L578.147 728.786V658.466L510.982 694.243L446.161 659.721V594.119C448.131 593.643 449.585 591.998 449.585 590.029C449.585 589.639 449.514 589.271 449.397 588.925L511.544 555.81L512.131 555.507V482.697L444.988 518.474L378.995 483.303L313.002 518.453L248.181 483.909V414.844L315.347 379.067L248.181 343.29V271.714L180.429 307.816L179.843 308.119V377.184L119.455 345C119.548 344.654 119.642 344.286 119.642 343.896C119.642 341.927 118.188 340.282 116.218 339.805V203.883L181.625 169.036L182.211 168.733V95.9239L114.459 132.026L113.873 132.329V202.649L49.0524 237.193L-14.5957 203.277L49.6387 169.058L50.225 168.755V95.9455L-17.5271 132.047L-18.1134 132.35V271.736L-78.5017 239.552C-78.4079 239.205 -78.3141 238.837 -78.3141 238.448C-78.3141 236.478 -79.7681 234.833 -81.738 234.357V167.5L-146.559 132.956L-82.9106 99.0406L-81.738 99.6682V98.4129L-80.5654 97.7852L-81.738 97.1575V26.8371L-144.471 -6.58084C-144.378 -6.92712 -144.284 -7.29504 -144.284 -7.68463C-144.284 -10.0222 -146.348 -11.9268 -148.88 -11.9268C-151.413 -11.9268 -153.477 -10.0222 -153.477 -7.68463C-153.477 -5.71506 -152.023 -4.07013 -150.053 -3.59399V62.0082L-217.148 97.8069L-151.155 132.956L-215.39 167.197L-215.976 167.5V237.82L-217.148 238.448L-215.976 239.076V309.396L-151.202 343.918L-215.436 378.136L-216.023 378.439V451.249L-148.271 415.147L-147.684 414.844V345.757H-147.637V274.225L-86.1001 241.435C-85.5372 241.954 -84.8102 242.344 -84.0128 242.539V309.396L-19.1922 343.918L-83.4266 378.136L-84.0128 378.439V448.782L-145.503 481.55C-146.348 480.771 -147.497 480.295 -148.763 480.295C-151.296 480.295 -153.36 482.2 -153.36 484.537C-153.36 486.507 -151.906 488.151 -149.936 488.628V624.464L-215.436 659.375L-216.023 659.678V732.488L-215.929 732.423V801.553L-149.936 836.702V837.957L-148.763 837.33L-147.591 837.957V836.702L-82.1836 801.856L-81.5973 801.553V728.743L-145.48 762.789C-146.324 762.01 -147.473 761.533 -148.74 761.533C-150.006 761.533 -151.179 762.01 -151.999 762.789L-212.435 730.583L-149.912 697.273V697.338L-82.7465 661.561L-15.5807 697.338V625.741L49.7559 590.916L50.3422 590.613V523.755C52.3122 523.279 53.7662 521.634 53.7662 519.665C53.7662 517.327 51.7024 515.423 49.1696 515.423C46.6368 515.423 44.5731 517.327 44.5731 519.665C44.5731 520.054 44.6435 520.422 44.7607 520.769L-17.3864 553.884L-17.9727 554.187V623.23L-81.5504 589.358V449.95L-16.8001 415.45L50.3657 451.227V379.673L111.903 346.883C112.466 347.402 113.193 347.792 113.99 347.987V414.844L176.724 448.262C176.63 448.608 176.536 448.976 176.536 449.366C176.536 449.756 176.606 450.124 176.724 450.47L114.577 483.585L113.99 483.888V624.442L52.8281 657.038C51.9839 655.955 50.6236 655.241 49.0758 655.241C46.543 655.241 44.4793 657.146 44.4793 659.483C44.4793 661.453 45.9333 663.098 47.9032 663.574V732.466L113.896 697.317V766.382L182.235 802.786V729.977L117.485 695.477L181.156 661.539L242.717 694.33C242.623 694.676 242.529 695.044 242.529 695.434C242.529 697.771 244.593 699.676 247.126 699.676C249.659 699.676 251.722 697.771 251.722 695.434C251.722 693.464 250.268 691.819 248.298 691.343V555.442L313.119 520.898L376.767 554.814L312.533 589.033L311.946 589.336V659.656L310.774 660.284L311.946 660.912V729.977L246.54 764.823L245.953 765.126V837.936L313.705 801.834L314.292 801.531V732.466L377.94 766.382V767.637L379.112 767.009L446.278 802.786V734.695C447.076 734.5 447.802 734.111 448.365 733.591L509.903 766.382V837.936L575.896 802.786L643.648 766.706L644.234 766.403V697.338L704.623 729.522C704.529 729.869 704.435 730.237 704.435 730.626C704.435 732.964 706.499 734.868 709.031 734.868C711.564 734.868 713.628 732.964 713.628 730.626C713.628 728.657 712.174 727.012 710.204 726.536L710.134 726.557ZM-15.6744 133.584L47.9736 99.6682V167.478L-15.6744 201.394V133.584ZM-150.053 413.61L-213.701 447.526V379.716L-150.053 345.801V413.61ZM-83.9659 732.509V800.319L-147.614 834.235V769.888C-145.644 769.412 -144.19 767.767 -144.19 765.797C-144.19 765.408 -144.26 765.04 -144.378 764.693L-83.9894 732.509H-83.9659ZM-149.959 769.888V834.235L-213.607 800.319V732.509L-153.219 764.693C-153.313 765.04 -153.407 765.408 -153.407 765.797C-153.407 767.767 -151.953 769.412 -149.983 769.888H-149.959ZM575.802 730.02L512.154 763.936V696.126L575.802 662.21V729.999V730.02ZM443.839 726.579C443.042 726.774 442.315 727.141 441.752 727.683L381.387 695.52L443.863 662.232V726.579H443.839ZM380.191 624.572V556.762L440.579 588.946C440.486 589.293 440.392 589.661 440.392 590.05C440.392 592.02 441.846 593.665 443.816 594.141V658.488L380.168 624.572H380.191ZM443.839 585.938C443.042 586.133 442.315 586.522 441.752 587.042L381.387 554.879L443.863 521.591V585.938H443.839ZM379.018 626.433L442.667 660.349L413.751 675.759L379.018 694.265L315.37 660.349L344.286 644.939L379.018 626.433ZM380.191 697.381L440.579 729.566C440.486 729.912 440.392 730.28 440.392 730.669C440.392 731.059 440.462 731.427 440.579 731.773L380.191 763.958V697.381ZM509.809 554.251L448.271 587.042C447.709 586.522 446.982 586.133 446.184 585.938V520.336L509.832 486.42V554.23L509.809 554.251ZM182.235 445.319V380.972L245.883 414.888V482.697L185.495 450.513C185.588 450.167 185.682 449.799 185.682 449.409C185.682 447.44 184.228 445.795 182.258 445.319H182.235ZM182.235 453.5C183.032 453.305 183.759 452.916 184.322 452.396L244.687 484.559L182.235 517.847V453.5ZM247.056 413.004L183.407 379.089L214.622 362.466L247.056 345.195L310.704 379.11L247.056 413.026V413.004ZM182.235 309.396L245.883 275.48V343.29L182.235 377.206V309.396ZM116.242 133.606L179.89 99.6899V167.5L116.242 201.415V133.606ZM113.896 272.991L93.0713 284.094L50.2484 306.907V239.097L113.896 205.181V272.991ZM47.9032 377.206L16.0792 360.259L-15.7448 343.312V275.502L16.0792 292.449L47.9032 309.396V377.206ZM-15.7448 205.181L47.9032 239.097V306.907L16.0792 289.96L-15.7448 273.013V205.203V205.181ZM-84.0832 234.379C-84.8806 234.574 -85.6076 234.942 -86.1704 235.483L-147.708 202.692V134.883L-84.0598 168.798V234.4L-84.0832 234.379ZM-84.0832 28.1357V95.9455L-147.731 62.0298V-3.57236C-146.934 -3.76715 -146.207 -4.13507 -145.644 -4.67618L-84.1067 28.1141L-84.0832 28.1357ZM-148.904 63.9128L-85.2558 97.8286L-147.731 131.117L-148.904 131.744L-150.076 131.117L-212.552 97.8286L-148.904 63.9128ZM-213.631 168.755L-149.983 134.839V202.649L-213.631 236.565V168.755ZM-213.631 240.331L-149.983 274.247V342.056L-213.631 308.141V240.331ZM-148.81 272.364L-212.458 238.448L-183.542 223.037L-148.81 204.532L-87.2492 237.322C-87.343 237.669 -87.4368 238.037 -87.4368 238.426C-87.4368 238.816 -87.3665 239.184 -87.2492 239.53L-148.81 272.342V272.364ZM-81.6442 242.539C-80.8469 242.344 -80.1199 241.976 -79.557 241.435L-18.0196 274.225V342.035L-81.6677 308.119V242.517L-81.6442 242.539ZM-81.6442 379.695L-17.9962 345.779V413.589L-81.6442 447.505V379.695ZM-147.567 488.628C-145.597 488.151 -144.143 486.507 -144.143 484.537C-144.143 484.147 -144.213 483.779 -144.331 483.433L-83.9425 451.249V519.059L-147.591 552.974V488.628H-147.567ZM-83.919 589.379L-147.567 623.295V555.485L-83.919 521.569V589.379ZM-150.006 694.828L-213.654 728.743V660.933L-150.006 627.018V694.828ZM-147.567 625.784L-83.919 591.868V659.678L-147.567 693.594V625.784ZM-15.651 555.464L45.8864 522.673C46.4492 523.193 47.1762 523.582 47.9736 523.777V589.379L-15.6744 623.295V555.485L-15.651 555.464ZM-17.9493 626.996V693.594L-81.5973 659.678V591.868L-18.0196 625.741V627.018H-17.9727L-17.9493 626.996ZM47.9736 447.461L-15.6744 413.546V345.736L16.1496 362.683L47.9736 379.63V447.44V447.461ZM50.3188 377.141V309.331L86.6924 289.96L113.967 275.437V339.784C111.997 340.26 110.543 341.905 110.543 343.874C110.543 344.264 110.613 344.632 110.73 344.978L50.3422 377.162L50.3188 377.141ZM116.312 413.546V347.943C117.109 347.749 117.836 347.381 118.399 346.84L179.937 379.63V445.232C179.139 445.427 178.412 445.795 177.849 446.336L116.312 413.546ZM116.312 485.121L177.849 452.331C178.412 452.851 179.139 453.24 179.937 453.435V519.037L178.764 519.665L116.289 552.953V485.143L116.312 485.121ZM116.312 625.741L179.96 591.825V659.635L116.312 693.551V625.741ZM179.96 589.336L116.312 623.252V555.442L179.96 521.526V589.336ZM50.225 728.7V663.574C52.1949 663.098 53.6489 661.453 53.6489 659.483C53.6489 659.354 53.6255 659.224 53.602 659.094L113.85 626.996V694.806L50.2015 728.722L50.225 728.7ZM179.843 799.02L116.195 765.105V697.295L179.843 731.211V799.02ZM245.93 691.343C245.132 691.538 244.405 691.906 243.843 692.447L182.305 659.656V591.847L245.953 625.762V691.343H245.93ZM182.282 589.336V521.526L245.93 555.442V623.252L182.282 589.336ZM247.102 553.559L183.454 519.643L247.079 485.727L248.252 486.355L310.727 519.643L247.079 553.559H247.102ZM379.065 485.749L442.713 519.665L380.238 552.953L379.065 553.581L377.893 552.953L315.417 519.665L379.065 485.749ZM314.245 590.613L377.893 556.697V624.507L314.245 658.423V590.613ZM311.9 800.319L248.252 834.235V766.425L311.9 732.509V800.319ZM314.245 729.999V662.189L377.893 696.104V763.914L314.245 729.999ZM381.411 765.776L441.775 733.613C442.338 734.133 443.065 734.522 443.863 734.717V799.064L381.387 765.776H381.411ZM446.231 726.514V662.167L509.879 696.083V763.893L449.491 731.708C449.585 731.362 449.679 730.994 449.679 730.605C449.679 728.635 448.225 726.99 446.255 726.514H446.231ZM512.224 834.191V766.403L575.872 732.488V800.297L512.224 834.213V834.191ZM641.842 765.148L578.194 799.064V731.254L641.842 697.338V765.148ZM644.187 694.828V627.018L707.836 660.933V726.536C707.038 726.73 706.311 727.098 705.748 727.639L644.211 694.849L644.187 694.828ZM1569.19 286.151L1503.2 251.001L1567.44 216.782L1568.02 216.479V146.159L1569.19 145.531L1568.02 144.904V74.5831L1503.25 40.0614L1567.51 5.82101L1568.09 5.51801V-67.2915L1500.34 -31.1897L1499.75 -30.8867V38.2H1499.71V109.733L1438.17 142.523C1437.61 142.003 1436.88 141.614 1436.08 141.419V4.26266L1370.09 -30.8867V-101.207L1307.36 -134.625C1307.47 -134.993 1307.54 -135.361 1307.54 -135.751C1307.54 -136.14 1307.47 -136.508 1307.36 -136.854L1369.5 -169.969L1370.09 -170.272V-239.316L1433.67 -205.443V-63.5688L1497.55 -97.6143C1498.39 -96.8352 1499.54 -96.359 1500.81 -96.359C1503.34 -96.359 1505.41 -98.2637 1505.41 -100.601C1505.41 -102.571 1503.95 -104.216 1501.98 -104.692V-240.528L1567.48 -275.439L1568.07 -275.742V-348.508L1501.98 -313.294V-313.359L1434.82 -277.582L1367.65 -313.359V-241.762L1302.31 -206.937L1301.73 -206.634V-139.776C1299.76 -139.3 1298.3 -137.655 1298.3 -135.686C1298.3 -133.716 1299.76 -132.071 1301.73 -131.595V-64.7375L1367.72 -29.5881V39.477L1304.07 73.3928V4.32761L1238.08 -30.8218V-32.0771L1236.91 -31.4495L1235.73 -32.0771V-30.8218L1170.33 4.0246L1169.74 4.32761V77.1371L1233.62 43.0915C1234.47 43.8707 1235.62 44.3469 1236.88 44.3469C1238.15 44.3469 1239.32 43.8707 1240.14 43.0915L1301.68 75.8818V217.778L1368.85 182.001L1433.67 216.523L1498.49 251.066L1434.84 284.982L1433.67 284.354V285.609L1432.49 286.237L1433.67 286.865V357.185L1499.66 392.335V457.937C1497.69 458.413 1496.24 460.058 1496.24 462.028C1496.24 464.365 1498.3 466.27 1500.83 466.27C1503.37 466.27 1505.43 464.365 1505.43 462.028C1505.43 461.638 1505.36 461.27 1505.24 460.924L1567.39 427.809L1567.98 427.506V354.696L1501.98 389.846V322.036L1569.15 286.259L1569.19 286.151ZM1502.1 -29.653L1565.75 -63.5688V4.24103L1502.1 38.1568V-29.653ZM1565.68 215.202L1502.03 249.118V181.308L1565.68 147.393V215.202ZM1565.68 143.627L1502.03 109.711V41.9011L1565.68 75.8168V143.627ZM1500.86 111.594L1564.5 145.51L1535.59 160.92L1500.86 179.425L1439.3 146.635C1439.39 146.289 1439.48 145.921 1439.48 145.531C1439.48 145.142 1439.41 144.774 1439.3 144.427L1500.86 111.637V111.594ZM1433.69 75.8168V141.397C1432.89 141.592 1432.17 141.982 1431.6 142.501L1401.89 126.658L1370.07 109.711V41.9011L1401.89 58.8481L1433.71 75.7952L1433.69 75.8168ZM1435.99 -205.443L1499.64 -239.359V-171.549L1435.99 -137.634V-205.443ZM1435.99 -67.3131V-135.123L1499.64 -169.039V-104.692C1497.67 -104.216 1496.21 -102.571 1496.21 -100.601C1496.21 -100.212 1496.28 -99.8437 1496.4 -99.4974L1436.01 -67.3131H1435.99ZM1502.08 -310.892L1565.72 -344.807V-276.998L1502.08 -243.082V-310.892ZM1499.64 -241.848L1435.99 -207.932V-275.742L1499.64 -309.658V-241.848ZM1370.02 -309.658L1433.67 -275.742V-207.932L1370.09 -241.805V-243.082H1370.04V-309.636L1370.02 -309.658ZM1367.72 -239.337V-171.528L1306.18 -138.737C1305.62 -139.257 1304.89 -139.646 1304.1 -139.841V-205.443L1367.74 -239.359L1367.72 -239.337ZM1304.07 -66.0362V-131.638C1304.87 -131.833 1305.6 -132.201 1306.16 -132.742L1367.72 -99.9519V-32.1421L1304.07 -66.0578V-66.0362ZM1433.69 5.53967V73.3494L1401.87 56.4024L1370.04 39.4554V-28.3544L1433.69 5.56131V5.53967ZM1172.11 73.3494V5.53967L1235.76 -28.3761V35.9708C1233.79 36.4469 1232.33 38.0918 1232.33 40.0614C1232.33 40.451 1232.4 40.8189 1232.52 41.1652L1172.13 73.3494H1172.11ZM1238.1 35.9708V-28.3761L1301.75 5.53967V73.3494L1241.36 41.1869C1241.46 40.8406 1241.55 40.4726 1241.55 40.083C1241.55 38.1135 1240.1 36.4685 1238.13 35.9924L1238.1 35.9708ZM1304.1 75.8601L1367.74 41.9444V109.754L1304.1 143.67V75.8601ZM1304.1 146.181L1367.74 112.265V180.075L1304.1 213.99V146.181ZM1370.09 180.096V112.287L1401.91 129.234L1430.48 144.449C1430.38 144.795 1430.29 145.163 1430.29 145.553C1430.29 147.523 1431.74 149.167 1433.71 149.644V213.99L1370.07 180.075L1370.09 180.096ZM1436.08 149.644C1436.88 149.449 1437.61 149.081 1438.17 148.54L1499.71 181.33V249.14L1436.06 215.224V149.622L1436.08 149.644ZM1499.73 252.906L1500.9 252.278L1502.08 252.906L1564.55 286.194L1500.9 320.11L1437.26 286.194L1499.73 252.906ZM1436.08 288.077L1499.73 321.993V389.802L1436.08 355.887V288.077ZM1565.7 358.397V426.207L1504.16 458.997C1503.6 458.478 1502.87 458.088 1502.08 457.894V392.292L1565.72 358.376L1565.7 358.397ZM1175.58 -65.3652C1175.58 -65.7548 1175.51 -66.1227 1175.39 -66.469L1237.54 -99.5839L1238.13 -99.8869V-240.485L1299.29 -273.08C1300.13 -271.998 1301.49 -271.284 1303.04 -271.284C1305.57 -271.284 1307.64 -273.188 1307.64 -275.526C1307.64 -277.495 1306.18 -279.14 1304.21 -279.616V-348.508L1238.22 -313.359V-382.424L1169.88 -418.829V-345.998L1234.63 -311.498L1170.96 -277.56L1109.4 -310.351C1109.49 -310.697 1109.59 -311.065 1109.59 -311.454C1109.59 -313.792 1107.52 -315.697 1104.99 -315.697C1102.46 -315.697 1100.39 -313.792 1100.39 -311.454C1100.39 -309.485 1101.85 -307.84 1103.82 -307.364V-243.017V-171.441L1039 -136.898L975.35 -170.813L1039.58 -205.032L1040.17 -205.335V-275.656L1041.34 -276.283L1040.17 -276.911V-345.976L1105.58 -380.823L1106.16 -381.126V-454L1038.41 -417.898L1037.83 -417.595V-348.53L974.177 -382.446V-383.701L973.004 -383.074L905.839 -418.851V-350.759C905.041 -350.565 904.314 -350.175 903.751 -349.656L842.214 -382.446V-454L776.221 -418.851L708.469 -382.77L707.882 -382.467V-313.402L644.234 -347.318V-348.573L643.062 -347.946L641.889 -348.573V-347.318L577.069 -312.796L509.903 -348.573V-277.019L446.255 -243.104V-312.169L377.916 -348.573L311.923 -383.723V-312.147L250.386 -279.357C249.541 -280.136 248.392 -280.612 247.126 -280.612C244.593 -280.612 242.529 -278.707 242.529 -276.37C242.529 -274.032 244.593 -272.128 247.126 -272.128C248.416 -272.128 249.565 -272.604 250.386 -273.383L311.923 -240.593V-169.017L379.675 -205.119L380.261 -205.422V-274.487L443.909 -240.571V-169.017L507.792 -203.063C508.355 -202.543 509.082 -202.154 509.879 -201.959V-135.101L578.218 -98.6965V-169.017L644.211 -133.868V-206.677L579.39 -241.199L643.015 -275.093L710.181 -239.316V-310.892L773.829 -344.807V-206.677L708.422 -171.831L707.836 -171.528V-98.7182L771.718 -132.764C772.562 -131.985 773.711 -131.508 774.978 -131.508C777.511 -131.508 779.574 -133.413 779.574 -135.751C779.574 -137.72 778.12 -139.365 776.15 -139.841V-205.443L841.557 -240.29L842.144 -240.593V-309.658L905.792 -275.742V-210.14C903.822 -209.664 902.368 -208.019 902.368 -206.049C902.368 -205.66 902.438 -205.292 902.555 -204.946L840.408 -171.831L839.822 -171.528V-98.7182L906.988 -134.495L972.981 -99.3459L1038.97 -134.495L1104.97 -99.3459L1169.79 -133.889V-69.5424C1167.82 -69.0663 1166.36 -67.4214 1166.36 -65.4518C1166.36 -63.1142 1168.43 -61.2096 1170.96 -61.2096C1173.49 -61.2096 1175.56 -63.1142 1175.56 -65.4518L1175.58 -65.3652ZM1235.78 -101.142L1174.24 -68.3521C1173.68 -68.8715 1172.95 -69.2611 1172.16 -69.4559V-135.058L1173.33 -135.686L1235.8 -168.974V-101.164L1235.78 -101.142ZM1106.16 -239.273L1169.81 -205.357V-137.547L1106.16 -171.463V-239.273ZM1172.16 -205.357L1235.8 -239.273V-171.463L1172.16 -137.547V-205.357ZM1235.8 -241.762L1172.16 -207.846V-275.656L1235.8 -309.571V-241.762ZM1301.89 -344.721V-279.595C1299.92 -279.119 1298.47 -277.474 1298.47 -275.504C1298.47 -275.374 1298.49 -275.244 1298.51 -275.115L1238.27 -243.017V-310.827L1301.92 -344.742L1301.89 -344.721ZM1172.27 -415.041L1235.92 -381.126V-313.316L1172.27 -347.231V-415.085V-415.041ZM1106.19 -307.364C1106.98 -307.559 1107.71 -307.926 1108.27 -308.468L1169.81 -275.677V-207.868L1106.16 -241.783V-307.385L1106.19 -307.364ZM973.051 -242.389L909.403 -276.305L938.319 -291.715L973.051 -310.221L1036.7 -276.305L1007.78 -260.895L973.051 -242.389ZM908.231 -342.513C909.028 -342.708 909.755 -343.076 910.318 -343.617L970.683 -311.454L908.207 -278.166V-342.513H908.231ZM971.879 -313.316L911.49 -345.5C911.584 -345.846 911.678 -346.214 911.678 -346.604C911.678 -346.993 911.608 -347.361 911.49 -347.708L971.879 -379.892V-313.316ZM971.879 -240.506V-172.696L911.49 -204.881C911.584 -205.227 911.678 -205.595 911.678 -205.985C911.678 -207.954 910.224 -209.599 908.254 -210.075V-274.422L971.902 -240.506H971.879ZM908.231 -201.872C909.028 -202.067 909.755 -202.457 910.318 -202.976L970.683 -170.813L908.207 -137.525V-201.872H908.231ZM1037.85 -206.591L974.2 -172.675V-240.485L1037.85 -274.4V-206.591ZM1040.19 -416.297L1103.84 -450.212V-382.403L1040.19 -348.487V-416.34V-416.297ZM1037.85 -345.976V-278.166L974.2 -312.082V-379.892L1037.85 -345.976ZM970.683 -381.753L910.318 -349.591C909.755 -350.11 909.028 -350.5 908.231 -350.694V-415.106L970.706 -381.818L970.683 -381.753ZM839.822 -450.234V-382.424L776.174 -348.508V-416.318L839.822 -450.234ZM641.866 -344.786V-276.976L578.218 -243.06V-310.87L641.866 -344.786ZM512.248 -344.786L575.896 -310.87V-243.06L544.072 -260.007L512.248 -276.954V-344.764V-344.786ZM575.896 -172.761L544.072 -189.708L515.508 -204.924C515.602 -205.27 515.695 -205.638 515.695 -206.028C515.695 -207.997 514.241 -209.642 512.271 -210.118V-274.465L544.095 -257.518L575.919 -240.571V-172.761H575.896ZM443.933 -243.082L380.285 -276.998V-344.807L443.933 -310.892V-243.082ZM314.315 -379.957L377.963 -346.041V-278.231L314.315 -312.147V-379.957ZM251.582 -277.452L313.143 -310.242L376.791 -276.327L347.875 -260.916L313.143 -242.411L251.582 -275.201C251.675 -275.547 251.769 -275.915 251.769 -276.305C251.769 -276.695 251.699 -277.063 251.582 -277.409V-277.452ZM377.963 -206.655L314.315 -172.74V-240.55L377.963 -274.465V-206.655ZM446.302 -172.761V-240.571L509.95 -274.487V-210.14C507.98 -209.664 506.526 -208.019 506.526 -206.049C506.526 -205.66 506.596 -205.292 506.713 -204.946L446.325 -172.761H446.302ZM575.919 -102.441L512.271 -136.357V-201.959C513.069 -202.154 513.796 -202.521 514.359 -203.063L544.072 -187.219L575.896 -170.272V-102.463L575.919 -102.441ZM641.913 -137.59L578.265 -171.506V-239.316L641.913 -205.4V-137.59ZM707.906 -243.06L644.258 -276.976V-344.786L707.906 -310.87V-243.06ZM710.251 -313.381V-381.19L773.899 -415.106V-347.296L710.251 -313.381ZM839.869 -379.935V-312.147L776.221 -278.231V-346.019L839.869 -379.935ZM710.251 -102.419V-170.229L773.899 -204.145V-139.798C771.929 -139.322 770.475 -137.677 770.475 -135.707C770.475 -135.318 770.545 -134.95 770.663 -134.603L710.274 -102.419H710.251ZM839.869 -241.805L776.221 -207.889V-275.699L839.869 -309.615V-241.805ZM842.214 -379.935L902.602 -347.773C902.508 -347.426 902.415 -347.058 902.415 -346.669C902.415 -344.699 903.869 -343.054 905.839 -342.578V-278.231L842.191 -312.147V-379.957L842.214 -379.935ZM842.214 -170.229L903.751 -203.019C904.314 -202.5 905.041 -202.11 905.839 -201.915V-136.313L842.191 -102.398V-170.207L842.214 -170.229ZM973.004 -101.792L909.356 -135.707L971.832 -168.995L973.004 -169.623L974.177 -168.995L1036.65 -135.707L973.004 -101.792ZM1041.34 -135.707L1104.99 -169.623L1168.64 -135.707L1104.99 -101.792L1041.34 -135.707Z" fill="url(#paint0_linear_563_2610)"/>
<defs>
<linearGradient id="paint0_linear_563_2610" x1="98.7232" y1="1019.74" x2="1172.2" y2="-658.787" gradientUnits="userSpaceOnUse">
<stop stop-color="#C8CACC"/>
<stop offset="0.14" stop-color="#D4D6D7"/>
<stop offset="0.38" stop-color="#E4E5E5"/>
<stop offset="0.57" stop-color="#EAEBEB"/>
<stop offset="0.75" stop-color="#EEEEEE"/>
<stop offset="0.93" stop-color="#FAFAFA"/>
<stop offset="0.98" stop-color="white"/>
</linearGradient>
</defs>
</svg>
