<svg width="645" height="118" viewBox="0 0 645 118" fill="none" xmlns="http://www.w3.org/2000/svg">
<path d="M14.0734 86.5396L13.8923 86.9308L13.8984 86.9335L14.0734 86.5396ZM4.49644 79.0785L4.14958 79.3345L4.15356 79.3397L4.49644 79.0785ZM0.710184 68.7219V68.2909H0.253026L0.279871 68.7473L0.710184 68.7219ZM16.412 68.7219L16.8397 68.6685L16.7925 68.2909H16.412V68.7219ZM19.8642 74.624L19.5995 74.9644L19.6055 74.9689L19.8642 74.624ZM34.4524 75.1808L34.2062 74.8269L34.1989 74.8322L34.4524 75.1808ZM33.8956 66.1607L33.6972 66.5433L33.7055 66.5477L33.7141 66.5516L33.8956 66.1607ZM24.2072 62.8198L24.3183 62.4032L24.3086 62.4009L24.2072 62.8198ZM12.8485 59.3677L12.6849 59.7665L12.6884 59.7679L12.8485 59.3677ZM5.27596 53.911L4.94723 54.1899L4.95217 54.1956L5.27596 53.911ZM5.05324 34.6456L4.7018 34.3959L4.69749 34.4022L5.05324 34.6456ZM13.5166 27.964L13.343 27.5695L13.3401 27.5708L13.5166 27.964ZM44.1408 31.0821L43.8621 31.411L43.8654 31.4137L44.1408 31.0821ZM51.3792 45.8931V46.3241H51.8421L51.8091 45.8623L51.3792 45.8931ZM36.4569 45.8931L36.0276 45.9321L36.0632 46.3241H36.4569V45.8931ZM33.3388 40.1023L33.0628 40.4335L33.0703 40.4397L33.078 40.4455L33.3388 40.1023ZM19.5301 39.4341L19.2909 39.0754L19.2829 39.081L19.5301 39.4341ZM20.421 48.5657L20.2173 48.9458L20.2282 48.9513L20.421 48.5657ZM30.1093 51.7952L30.0031 52.2129L30.0048 52.2133L30.1093 51.7952ZM48.5952 60.8154L48.2623 61.0895L48.2714 61.0999L48.5952 60.8154ZM51.936 70.6151H52.3671L52.367 70.6072L51.936 70.6151ZM48.9293 80.1921L48.5778 79.9424L48.5735 79.9487L48.9293 80.1921ZM40.4659 86.8737L40.6357 87.2699L40.6395 87.2682L40.4659 86.8737ZM27.6594 88.7812C22.6623 88.7812 18.1947 87.8996 14.2485 86.1457L13.8984 86.9335C17.9702 88.7432 22.5598 89.6433 27.6594 89.6433V88.7812ZM14.2545 86.1484C10.3011 84.3181 7.16731 81.8727 4.83932 78.8172L4.15356 79.3397C6.57695 82.5204 9.82785 85.0491 13.8923 86.9308L14.2545 86.1484ZM4.84326 78.8225C2.59025 75.77 1.3582 72.3976 1.1405 68.6966L0.279871 68.7473C0.507607 72.6188 1.79973 76.1507 4.14962 79.3344L4.84326 78.8225ZM0.710184 69.153H16.412V68.2909H0.710184V69.153ZM15.9843 68.7754C16.2963 71.272 17.5109 73.3398 19.5995 74.9643L20.1288 74.2838C18.2085 72.7902 17.1216 70.9233 16.8397 68.6685L15.9843 68.7754ZM19.6055 74.9689C21.7711 76.5931 24.4275 77.3937 27.548 77.3937V76.5316C24.5809 76.5316 22.1147 75.7731 20.1228 74.2792L19.6055 74.9689ZM27.548 77.3937C30.5679 77.3937 32.9716 76.7908 34.7059 75.5295L34.1989 74.8322C32.6666 75.9466 30.4675 76.5316 27.548 76.5316V77.3937ZM34.6986 75.5347C36.5056 74.2776 37.4447 72.6309 37.4447 70.6151H36.5826C36.5826 72.3112 35.8142 73.7084 34.2062 74.827L34.6986 75.5347ZM37.4447 70.6151C37.4447 69.5342 37.163 68.5734 36.5873 67.7509C36.014 66.9319 35.1674 66.2759 34.0771 65.7697L33.7141 66.5516C34.7025 67.0105 35.415 67.5795 35.881 68.2453C36.3447 68.9076 36.5826 69.6915 36.5826 70.6151H37.4447ZM34.094 65.778C32.0458 64.716 28.7785 63.5927 24.3183 62.4033L24.0962 63.2363C28.5448 64.4226 31.7364 65.5266 33.6972 66.5433L34.094 65.778ZM24.3086 62.4009C19.7172 61.29 15.9524 60.145 13.0086 58.9674L12.6884 59.7679C15.6838 60.9661 19.4915 62.1224 24.1059 63.2388L24.3086 62.4009ZM13.0121 58.9689C10.1808 57.8073 7.71076 56.0286 5.59976 53.6265L4.95217 54.1956C7.1471 56.6932 9.72538 58.5523 12.6849 59.7665L13.0121 58.9689ZM5.60465 53.6321C3.60943 51.2806 2.58893 48.0858 2.58893 43.9999H1.72681C1.72681 48.2289 2.78504 51.6415 4.94728 54.1899L5.60465 53.6321ZM2.58893 43.9999C2.58893 40.6718 3.52775 37.6386 5.40899 34.8891L4.69749 34.4022C2.71823 37.295 1.72681 40.4979 1.72681 43.9999H2.58893ZM5.40463 34.8953C7.35826 32.1458 10.1146 29.964 13.6932 28.3573L13.3401 27.5708C9.6431 29.2306 6.7572 31.5033 4.70185 34.396L5.40463 34.8953ZM13.6902 28.3586C17.3366 26.7542 21.6183 25.9452 26.5458 25.9452V25.083C21.5251 25.083 17.1207 25.9073 13.343 27.5695L13.6902 28.3586ZM26.5458 25.9452C33.8228 25.9452 39.5795 27.7817 43.8621 31.411L44.4194 30.7533C39.9417 26.9585 33.9684 25.083 26.5458 25.083V25.9452ZM43.8654 31.4137C48.1458 34.9687 50.5112 39.792 50.9492 45.9238L51.8091 45.8623C51.3562 39.5217 48.8961 34.4711 44.4162 30.7505L43.8654 31.4137ZM51.3792 45.462H36.4569V46.3241H51.3792V45.462ZM36.8862 45.854C36.6532 43.2911 35.5578 41.2474 33.5996 39.7591L33.078 40.4455C34.8318 41.7784 35.8152 43.5952 36.0276 45.9321L36.8862 45.854ZM33.6147 39.7712C31.7341 38.204 29.2132 37.444 26.1004 37.444V38.3062C29.0753 38.3062 31.3799 39.031 33.0628 40.4335L33.6147 39.7712ZM26.1004 37.444C23.2344 37.444 20.9482 37.9707 19.291 39.0755L19.7692 39.7928C21.23 38.8189 23.324 38.3062 26.1004 38.3062V37.444ZM19.2829 39.081C17.6796 40.2033 16.8718 41.7846 16.8718 43.7772H17.7339C17.7339 42.0578 18.411 40.7437 19.7773 39.7873L19.2829 39.081ZM16.8718 43.7772C16.8718 44.8921 17.1518 45.8942 17.7212 46.7686C18.2888 47.6402 19.1292 48.3627 20.2174 48.9457L20.6245 48.1857C19.6341 47.6551 18.9154 47.0227 18.4436 46.2982C17.9737 45.5764 17.7339 44.741 17.7339 43.7772H16.8718ZM20.2282 48.9513C22.3496 50.0119 25.6155 51.0974 30.0031 52.2129L30.2155 51.3774C25.8428 50.2657 22.6499 49.1982 20.6138 48.1802L20.2282 48.9513ZM30.0048 52.2133C34.4475 53.324 38.1008 54.4689 40.9704 55.6461L41.2976 54.8485C38.3765 53.6501 34.6801 52.4935 30.2139 51.377L30.0048 52.2133ZM40.9704 55.6461C43.797 56.8058 46.2268 58.6176 48.2624 61.0894L48.9279 60.5413C46.8061 57.9648 44.2618 56.0646 41.2976 54.8485L40.9704 55.6461ZM48.2714 61.0999C50.3413 63.4554 51.4321 66.6152 51.505 70.6229L52.367 70.6072C52.2914 66.4485 51.1549 63.0752 48.919 60.5308L48.2714 61.0999ZM51.5049 70.6151C51.5049 74.092 50.5289 77.1965 48.5779 79.9424L49.2806 80.4417C51.3386 77.5454 52.367 74.2652 52.367 70.6151H51.5049ZM48.5735 79.9487C46.6965 82.6919 43.9445 84.8721 40.2923 86.4791L40.6395 87.2682C44.4112 85.6087 47.3015 83.3345 49.285 80.4355L48.5735 79.9487ZM40.2961 86.4775C36.7231 88.0088 32.5144 88.7812 27.6594 88.7812V89.6433C32.6042 89.6433 36.9331 88.8567 40.6357 87.2699L40.2961 86.4775ZM74.7252 35.4252H74.2942V36.7761L75.0766 35.6748L74.7252 35.4252ZM82.9659 28.4095L83.1684 28.79L83.1712 28.7885L82.9659 28.4095ZM109.358 29.4117L109.133 29.7791L109.136 29.7808L109.358 29.4117ZM119.492 40.5478L119.108 40.7429L119.111 40.75L119.492 40.5478ZM119.492 73.9559L119.109 73.7585L119.108 73.7607L119.492 73.9559ZM109.358 85.2033L109.131 84.837L109.128 84.8388L109.358 85.2033ZM83.0773 86.4283L82.8714 86.807L82.8748 86.8088L83.0773 86.4283ZM74.7252 79.4125L75.0679 79.151L74.2942 78.1372V79.4125H74.7252ZM74.7252 117.609V118.04H75.1563V117.609H74.7252ZM59.1348 117.609H58.7037V118.04H59.1348V117.609ZM59.1348 26.5163V26.0853H58.7037V26.5163H59.1348ZM74.7252 26.5163H75.1563V26.0853H74.7252V26.5163ZM105.015 47.5635L104.636 47.7685L104.643 47.7807L105.015 47.5635ZM99.0018 41.3273L98.7867 41.7009L98.7915 41.7036L99.0018 41.3273ZM82.9659 41.4386L83.181 41.8122L83.1845 41.8102L82.9659 41.4386ZM76.9525 47.6748L76.5775 47.462L76.5732 47.4698L76.9525 47.6748ZM76.9525 67.0515L76.5732 67.2566L76.5776 67.2643L76.9525 67.0515ZM82.9659 73.3991L82.7425 73.7677L82.749 73.7717L82.7556 73.7754L82.9659 73.3991ZM99.0018 73.2877L98.7832 72.9161L98.7784 72.9191L99.0018 73.2877ZM105.015 66.9402L104.64 66.7274L104.636 66.7352L105.015 66.9402ZM75.0766 35.6748C77.0371 32.9156 79.7298 30.6191 83.1683 28.79L82.7635 28.0289C79.2235 29.9119 76.4223 32.2925 74.3738 35.1755L75.0766 35.6748ZM83.1712 28.7885C86.6646 26.8962 90.6387 25.9452 95.1042 25.9452V25.083C90.5124 25.083 86.3943 26.0622 82.7606 28.0304L83.1712 28.7885ZM95.1042 25.9452C100.301 25.9452 104.973 27.2249 109.133 29.779L109.584 29.0444C105.28 26.4017 100.45 25.083 95.1042 25.083V25.9452ZM109.136 29.7808C113.367 32.3343 116.691 35.9835 119.108 40.7429L119.876 40.3526C117.393 35.4607 113.961 31.6859 109.581 29.0426L109.136 29.7808ZM119.111 40.75C121.597 45.4291 122.847 50.8883 122.847 57.1405H123.709C123.709 50.7717 122.435 45.1691 119.873 40.3455L119.111 40.75ZM122.847 57.1405C122.847 63.3922 121.597 68.928 119.109 73.7585L119.875 74.1533C122.435 69.1841 123.709 63.5095 123.709 57.1405H122.847ZM119.108 73.7607C116.691 78.521 113.365 82.2088 109.131 84.837L109.586 85.5695C113.963 82.8524 117.393 79.042 119.876 74.151L119.108 73.7607ZM109.128 84.8388C104.969 87.4656 100.298 88.7812 95.1042 88.7812V89.6433C100.452 89.6433 105.284 88.2863 109.589 85.5677L109.128 84.8388ZM95.1042 88.7812C90.6358 88.7812 86.6981 87.866 83.2797 86.0477L82.8748 86.8088C86.435 88.7025 90.5153 89.6433 95.1042 89.6433V88.7812ZM83.2831 86.0495C79.9163 84.2197 77.1806 81.9195 75.0679 79.151L74.3826 79.6741C76.5758 82.5479 79.4082 84.9248 82.8714 86.807L83.2831 86.0495ZM74.2942 79.4125V117.609H75.1563V79.4125H74.2942ZM74.7252 117.178H59.1348V118.04H74.7252V117.178ZM59.5658 117.609V26.5163H58.7037V117.609H59.5658ZM59.1348 26.9474H74.7252V26.0853H59.1348V26.9474ZM74.2942 26.5163V35.4252H75.1563V26.5163H74.2942ZM107.785 57.1405C107.785 53.3674 106.992 50.0969 105.388 47.3463L104.643 47.7807C106.157 50.3753 106.923 53.4895 106.923 57.1405H107.785ZM105.394 47.3585C103.874 44.5456 101.813 42.4047 99.2121 40.951L98.7915 41.7036C101.239 43.071 103.187 45.0875 104.636 47.7684L105.394 47.3585ZM99.2169 40.9537C96.6999 39.5045 93.9528 38.7804 90.9839 38.7804V39.6425C93.8057 39.6425 96.4039 40.3289 98.7867 41.7008L99.2169 40.9537ZM90.9839 38.7804C88.0829 38.7804 85.3351 39.5449 82.7474 41.0671L83.1845 41.8102C85.645 40.3628 88.2426 39.6425 90.9839 39.6425V38.7804ZM82.7508 41.0651C80.2267 42.5184 78.17 44.6563 76.5776 47.462L77.3273 47.8876C78.853 45.1996 80.8053 43.18 83.181 41.8122L82.7508 41.0651ZM76.5732 47.4698C75.0485 50.2906 74.2942 53.5931 74.2942 57.3632H75.1563C75.1563 53.7092 75.8868 50.5528 77.3317 47.8798L76.5732 47.4698ZM74.2942 57.3632C74.2942 61.1333 75.0485 64.4358 76.5732 67.2565L77.3317 66.8466C75.8868 64.1735 75.1563 61.0171 75.1563 57.3632H74.2942ZM76.5776 67.2643C78.1691 70.0685 80.2233 72.2409 82.7425 73.7677L83.1893 73.0304C80.8087 71.5876 78.8538 69.5283 77.3273 66.8388L76.5776 67.2643ZM82.7556 73.7754C85.3424 75.2209 88.0872 75.946 90.9839 75.946V75.0839C88.2383 75.0839 85.6378 74.3984 83.1762 73.0228L82.7556 73.7754ZM90.9839 75.946C93.9571 75.946 96.7072 75.1825 99.2252 73.6564L98.7784 72.9191C96.3966 74.3626 93.8013 75.0839 90.9839 75.0839V75.946ZM99.2204 73.6593C101.817 72.132 103.875 69.9564 105.394 67.1452L104.636 66.7352C103.186 69.4177 101.235 71.4739 98.7833 72.9162L99.2204 73.6593ZM105.39 67.153C106.993 64.3294 107.785 60.9865 107.785 57.1405H106.923C106.923 60.8669 106.156 64.0572 104.64 66.7274L105.39 67.153ZM185.914 62.0403V62.4714H186.279L186.339 62.1112L185.914 62.0403ZM140.813 62.0403V61.6093H140.344L140.383 62.0761L140.813 62.0403ZM145.49 72.5082L145.198 72.8256L145.49 72.5082ZM167.985 68.8333V68.4022H167.717L167.598 68.6428L167.985 68.8333ZM184.8 68.8333L185.213 68.9572L185.38 68.4022H184.8V68.8333ZM174.555 83.5329L174.814 83.8777L174.817 83.8753L174.555 83.5329ZM139.922 85.3147L139.708 85.689L139.715 85.6928L139.922 85.3147ZM128.897 74.0672L128.518 74.2716L128.52 74.2761L128.897 74.0672ZM128.897 40.5478L128.518 40.3434L128.897 40.5478ZM139.811 29.4117L140.02 29.7885V29.7885L139.811 29.4117ZM171.66 29.3003L171.452 29.6783L171.455 29.6797L171.66 29.3003ZM182.462 40.1023L182.082 40.3071L182.086 40.3142L182.462 40.1023ZM170.212 51.5724V52.0035H170.651L170.643 51.5645L170.212 51.5724ZM165.869 41.9954L165.586 42.3209L165.591 42.3252L165.869 41.9954ZM145.713 41.8841L145.998 42.2068L145.999 42.2063L145.713 41.8841ZM140.924 51.5724L140.497 51.5115L140.427 52.0035H140.924V51.5724ZM185.928 56.0269C185.928 58.2356 185.781 60.2158 185.489 61.9695L186.339 62.1112C186.641 60.3013 186.79 58.2726 186.79 56.0269H185.928ZM185.914 61.6093H140.813V62.4714H185.914V61.6093ZM140.383 62.0761C140.762 66.6158 142.356 70.2142 145.198 72.8256L145.782 72.1908C143.13 69.7539 141.606 66.3737 141.242 62.0045L140.383 62.0761ZM145.198 72.8256C148.031 75.4286 151.516 76.7255 155.624 76.7255V75.8634C151.714 75.8634 148.443 74.6361 145.782 72.1908L145.198 72.8256ZM155.624 76.7255C158.582 76.7255 161.14 76.0899 163.28 74.7982C165.421 73.5059 167.116 71.5733 168.371 69.0238L167.598 68.6428C166.404 71.0674 164.814 72.8654 162.834 74.0601C160.854 75.2555 158.457 75.8634 155.624 75.8634V76.7255ZM167.985 69.2644H184.8V68.4022H167.985V69.2644ZM184.387 68.7094C182.632 74.5594 179.271 79.3836 174.293 83.1905L174.817 83.8753C179.935 79.9611 183.405 74.9856 185.213 68.9572L184.387 68.7094ZM174.296 83.188C169.335 86.9095 163.23 88.7812 155.958 88.7812V89.6433C163.385 89.6433 169.679 87.7288 174.814 83.8777L174.296 83.188ZM155.958 88.7812C150.084 88.7812 144.811 87.4969 140.129 84.9365L139.715 85.6928C144.536 88.3292 149.953 89.6433 155.958 89.6433V88.7812ZM140.136 84.9404C135.529 82.3079 131.91 78.6167 129.274 73.8584L128.52 74.2761C131.23 79.169 134.961 82.9761 139.708 85.6889L140.136 84.9404ZM129.277 73.8629C126.717 69.109 125.431 63.6132 125.431 57.3632H124.569C124.569 63.7341 125.881 69.3743 128.518 74.2716L129.277 73.8629ZM125.431 57.3632C125.431 51.038 126.717 45.5053 129.277 40.7521L128.518 40.3434C125.88 45.2415 124.569 50.919 124.569 57.3632H125.431ZM129.277 40.7521C131.837 35.9972 135.417 32.3459 140.02 29.7885L139.601 29.0349C134.85 31.6744 131.154 35.4471 128.518 40.3434L129.277 40.7521ZM140.02 29.7885C144.625 27.2303 149.933 25.9452 155.958 25.9452V25.083C149.807 25.083 144.351 26.3963 139.601 29.0349L140.02 29.7885ZM155.958 25.9452C161.759 25.9452 166.92 27.1929 171.452 29.6783L171.867 28.9224C167.193 26.3594 161.887 25.083 155.958 25.083V25.9452ZM171.455 29.6797C176.058 32.1639 179.598 35.7039 182.082 40.307L182.841 39.8976C180.277 35.1465 176.616 31.4851 171.864 28.921L171.455 29.6797ZM182.086 40.3142C184.643 44.844 185.928 50.0773 185.928 56.0269H186.79C186.79 49.9495 185.477 44.5664 182.837 39.8904L182.086 40.3142ZM170.643 51.5645C170.567 47.4434 169.072 44.1291 166.147 41.6657L165.591 42.3252C168.308 44.6132 169.709 47.6836 169.781 51.5804L170.643 51.5645ZM166.152 41.67C163.245 39.1454 159.689 37.8895 155.512 37.8895V38.7516C159.502 38.7516 162.851 39.9456 165.586 42.3209L166.152 41.67ZM155.512 37.8895C151.555 37.8895 148.184 39.1102 145.426 41.5619L145.999 42.2063C148.586 39.9065 151.748 38.7516 155.512 38.7516V37.8895ZM145.427 41.5614C142.737 43.9441 141.103 47.275 140.497 51.5115L141.351 51.6334C141.934 47.555 143.492 44.427 145.998 42.2068L145.427 41.5614ZM140.924 52.0035H170.212V51.1414H140.924V52.0035ZM192.029 40.6591L192.407 40.8659L192.408 40.8635L192.029 40.6591ZM202.831 29.5231L203.042 29.8985L203.047 29.8958L202.831 29.5231ZM237.575 31.3048L237.311 31.6454L237.316 31.6497L237.575 31.3048ZM247.709 47.3407V47.7718H248.259L248.127 47.2373L247.709 47.3407ZM230.893 47.3407L230.484 47.4771L230.583 47.7718H230.893V47.3407ZM226.328 41.1046L226.069 41.4494L226.076 41.4545L226.083 41.4594L226.328 41.1046ZM207.953 43.6658L208.287 43.938L208.29 43.9342L207.953 43.6658ZM207.953 71.0605L207.616 71.3289L207.619 71.3326L207.953 71.0605ZM230.893 67.3856V66.9546H230.585L230.486 67.2461L230.893 67.3856ZM247.709 67.3856L248.126 67.4923L248.264 66.9546H247.709V67.3856ZM237.575 83.3102L237.84 83.6501L237.575 83.3102ZM202.831 85.3147L202.614 85.6875L202.619 85.69L202.831 85.3147ZM192.029 74.1786L191.649 74.383L191.65 74.3854L192.029 74.1786ZM188.562 57.3632C188.562 51.0378 189.849 45.5434 192.407 40.8659L191.65 40.4523C189.012 45.2776 187.7 50.9192 187.7 57.3632H188.562ZM192.408 40.8635C194.969 36.1068 198.513 32.4553 203.042 29.8984L202.619 29.1477C197.942 31.7877 194.285 35.5602 191.649 40.4548L192.408 40.8635ZM203.047 29.8958C207.577 27.2657 212.772 25.9452 218.644 25.9452V25.083C212.637 25.083 207.29 26.4352 202.614 29.1503L203.047 29.8958ZM218.644 25.9452C226.216 25.9452 232.427 27.8553 237.311 31.6454L237.839 30.9643C232.774 27.0334 226.365 25.083 218.644 25.083V25.9452ZM237.316 31.6497C242.275 35.3687 245.603 40.6234 247.29 47.4442L248.127 47.2373C246.399 40.2494 242.972 34.8134 237.834 30.96L237.316 31.6497ZM247.709 46.9097H230.893V47.7718H247.709V46.9097ZM231.302 47.2044C230.384 44.4503 228.808 42.2918 226.572 40.7497L226.083 41.4594C228.153 42.8869 229.621 44.8859 230.484 47.4771L231.302 47.2044ZM226.586 40.7597C224.419 39.1342 221.725 38.3349 218.532 38.3349V39.197C221.576 39.197 224.079 39.9568 226.069 41.4494L226.586 40.7597ZM218.532 38.3349C213.957 38.3349 210.302 40.0204 207.616 43.3975L208.29 43.9342C210.801 40.7781 214.199 39.197 218.532 39.197V38.3349ZM207.619 43.3937C204.935 46.6906 203.624 51.3676 203.624 57.3632H204.487C204.487 51.4803 205.774 47.0257 208.287 43.938L207.619 43.3937ZM203.624 57.3632C203.624 63.2869 204.936 67.9604 207.616 71.3289L208.29 70.7922C205.773 67.6275 204.487 63.1694 204.487 57.3632H203.624ZM207.619 71.3326C210.306 74.6346 213.96 76.2801 218.532 76.2801V75.418C214.195 75.418 210.797 73.8711 208.287 70.7884L207.619 71.3326ZM218.532 76.2801C221.752 76.2801 224.45 75.56 226.599 74.0888C228.75 72.6162 230.312 70.4166 231.301 67.5251L230.486 67.2461C229.544 69.9969 228.081 72.029 226.112 73.3775C224.14 74.7274 221.624 75.418 218.532 75.418V76.2801ZM230.893 67.8167H247.709V66.9546H230.893V67.8167ZM247.291 67.2789C245.605 73.8756 242.277 79.0988 237.31 82.9702L237.84 83.6501C242.97 79.652 246.397 74.2589 248.126 67.4923L247.291 67.2789ZM237.31 82.9702C232.351 86.8356 226.138 88.7812 218.644 88.7812V89.6433C226.294 89.6433 232.703 87.6542 237.84 83.6501L237.31 82.9702ZM218.644 88.7812C212.769 88.7812 207.573 87.4968 203.042 84.9393L202.619 85.69C207.294 88.3293 212.64 89.6433 218.644 89.6433V88.7812ZM203.047 84.9419C198.513 82.3095 194.968 78.6554 192.407 73.9718L191.65 74.3854C194.286 79.2046 197.942 82.9745 202.614 85.6874L203.047 84.9419ZM192.408 73.9742C189.849 69.2211 188.562 63.6883 188.562 57.3632H187.7C187.7 63.8074 189.012 69.4849 191.649 74.383L192.408 73.9742ZM254.534 16.6053L254.229 16.9101L254.235 16.9164L254.242 16.9225L254.534 16.6053ZM254.534 3.57609L254.832 3.8873L254.832 3.88704L254.534 3.57609ZM268.231 3.57609L267.926 3.88089L267.932 3.88724L267.939 3.89331L268.231 3.57609ZM268.231 16.6053L268.529 16.9165L268.529 16.9162L268.231 16.6053ZM269.122 26.5163H269.553V26.0853H269.122V26.5163ZM269.122 88.21V88.6411H269.553V88.21H269.122ZM253.531 88.21H253.1V88.6411H253.531V88.21ZM253.531 26.5163V26.0853H253.1V26.5163H253.531ZM261.438 18.7355C258.789 18.7355 256.594 17.9156 254.825 16.288L254.242 16.9225C256.185 18.71 258.593 19.5976 261.438 19.5976V18.7355ZM254.838 16.3005C253.14 14.6023 252.292 12.5231 252.292 10.035H251.43C251.43 12.7437 252.363 15.0447 254.229 16.9101L254.838 16.3005ZM252.292 10.035C252.292 7.54713 253.14 5.50884 254.832 3.8873L254.235 3.26487C252.364 5.05839 251.43 7.32604 251.43 10.035H252.292ZM254.832 3.88704C256.602 2.1879 258.794 1.33449 261.438 1.33449V0.47238C258.588 0.47238 256.177 1.40074 254.235 3.26513L254.832 3.88704ZM261.438 1.33449C264.082 1.33449 266.233 2.18765 267.926 3.88089L268.536 3.27128C266.665 1.40099 264.288 0.47238 261.438 0.47238V1.33449ZM267.939 3.89331C269.703 5.51645 270.584 7.553 270.584 10.035H271.446C271.446 7.32017 270.47 5.05077 268.523 3.25886L267.939 3.89331ZM270.584 10.035C270.584 12.5173 269.703 14.5947 267.932 16.2943L268.529 16.9162C270.471 15.0523 271.446 12.7495 271.446 10.035H270.584ZM267.933 16.294C266.24 17.9157 264.087 18.7355 261.438 18.7355V19.5976C264.282 19.5976 266.658 18.7099 268.529 16.9165L267.933 16.294ZM268.691 26.5163V88.21H269.553V26.5163H268.691ZM269.122 87.779H253.531V88.6411H269.122V87.779ZM253.962 88.21V26.5163H253.1V88.21H253.962ZM253.531 26.9474H269.122V26.0853H253.531V26.9474ZM278.592 40.5478L278.21 40.3479L278.208 40.3526L278.592 40.5478ZM288.726 29.4117L288.503 29.0426L288.5 29.0444L288.726 29.4117ZM315.118 28.2981L314.912 28.6769L314.916 28.6787L315.118 28.2981ZM323.47 35.3138L323.123 35.5695L323.901 36.6255V35.3138H323.47ZM323.47 26.5163V26.0853H323.039V26.5163H323.47ZM339.172 26.5163H339.603V26.0853H339.172V26.5163ZM339.172 88.21V88.6411H339.603V88.21H339.172ZM323.47 88.21H323.039V88.6411H323.47V88.21ZM323.47 79.1898H323.901V77.8099L323.116 78.9445L323.47 79.1898ZM315.118 86.4283L315.321 86.8088L315.324 86.8073L315.118 86.4283ZM288.726 85.2033L288.496 85.5678L288.499 85.5695L288.726 85.2033ZM278.592 73.9559L278.206 74.1487L278.21 74.1557L278.592 73.9559ZM321.243 47.6748L320.864 47.8798L320.866 47.8842L321.243 47.6748ZM315.23 41.4386L315.011 41.8103L315.019 41.8149L315.23 41.4386ZM299.082 41.3273L298.867 40.9537L299.082 41.3273ZM293.069 47.5635L292.694 47.3507L292.692 47.3541L293.069 47.5635ZM293.069 66.9402L292.687 67.141L292.694 67.153L293.069 66.9402ZM299.082 73.2877L298.859 73.6564L298.864 73.6593L299.082 73.2877ZM315.23 73.3991L315.44 73.7755L315.448 73.7706L315.23 73.3991ZM321.243 67.1629L321.62 67.3723L321.622 67.3679L321.243 67.1629ZM275.348 57.1405C275.348 50.9617 276.562 45.4994 278.976 40.7429L278.208 40.3526C275.723 45.2473 274.486 50.8468 274.486 57.1405H275.348ZM278.974 40.7475C281.466 35.984 284.792 32.3329 288.951 29.779L288.5 29.0444C284.196 31.6874 280.767 35.4603 278.21 40.348L278.974 40.7475ZM288.949 29.7808C293.184 27.2249 297.895 25.9452 303.091 25.9452V25.083C297.746 25.083 292.88 26.4017 288.503 29.0426L288.949 29.7808ZM303.091 25.9452C307.636 25.9452 311.571 26.861 314.912 28.6768L315.324 27.9194C311.835 26.0232 307.753 25.083 303.091 25.083V25.9452ZM314.916 28.6787C318.356 30.5083 321.087 32.8066 323.123 35.5695L323.817 35.0581C321.696 32.1788 318.86 29.7999 315.321 27.9175L314.916 28.6787ZM323.901 35.3138V26.5163H323.039V35.3138H323.901ZM323.47 26.9474H339.172V26.0853H323.47V26.9474ZM338.741 26.5163V88.21H339.603V26.5163H338.741ZM339.172 87.779H323.47V88.6411H339.172V87.779ZM323.901 88.21V79.1898H323.039V88.21H323.901ZM323.116 78.9445C321.155 81.7763 318.426 84.1463 314.913 86.0492L315.324 86.8073C318.938 84.8497 321.776 82.3941 323.825 79.4352L323.116 78.9445ZM314.916 86.0477C311.498 87.8655 307.524 88.7812 302.98 88.7812V89.6433C307.642 89.6433 311.76 88.7031 315.321 86.8088L314.916 86.0477ZM302.98 88.7812C297.861 88.7812 293.189 87.4662 288.953 84.837L288.499 85.5695C292.875 88.2857 297.705 89.6433 302.98 89.6433V88.7812ZM288.956 84.8388C284.794 82.2103 281.466 78.5205 278.974 73.7561L278.21 74.1557C280.766 79.0425 284.194 82.851 288.496 85.5677L288.956 84.8388ZM278.978 73.7631C276.562 68.9316 275.348 63.3942 275.348 57.1405H274.486C274.486 63.5076 275.722 69.1805 278.207 74.1487L278.978 73.7631ZM323.901 57.3632C323.901 53.5209 323.148 50.2157 321.62 47.4655L320.866 47.8842C322.308 50.4792 323.039 53.6329 323.039 57.3632H323.901ZM321.622 47.4698C320.102 44.657 318.041 42.516 315.44 41.0623L315.019 41.8149C317.466 43.1824 319.415 45.1989 320.864 47.8798L321.622 47.4698ZM315.448 41.0671C312.859 39.5438 310.074 38.7804 307.1 38.7804V39.6425C309.918 39.6425 312.552 40.3639 315.011 41.8102L315.448 41.0671ZM307.1 38.7804C304.131 38.7804 301.384 39.5045 298.867 40.9537L299.297 41.7008C301.68 40.3289 304.279 39.6425 307.1 39.6425V38.7804ZM298.867 40.9537C296.343 42.407 294.287 44.5449 292.694 47.3507L293.444 47.7762C294.969 45.0882 296.922 43.0687 299.298 41.7008L298.867 40.9537ZM292.692 47.3541C291.165 50.1032 290.411 53.3708 290.411 57.1405H291.273C291.273 53.4861 292.003 50.369 293.446 47.7728L292.692 47.3541ZM290.411 57.1405C290.411 60.9109 291.165 64.2484 292.688 67.1409L293.45 66.7394C292.003 63.9896 291.273 60.794 291.273 57.1405H290.411ZM292.694 67.153C294.286 69.9572 296.34 72.1296 298.859 73.6564L299.306 72.9191C296.925 71.4763 294.97 69.417 293.444 66.7274L292.694 67.153ZM298.864 73.6593C301.452 75.1815 304.199 75.946 307.1 75.946V75.0839C304.359 75.0839 301.762 74.3636 299.301 72.9162L298.864 73.6593ZM307.1 75.946C310.069 75.946 312.851 75.2219 315.44 73.7754L315.019 73.0228C312.56 74.3974 309.922 75.0839 307.1 75.0839V75.946ZM315.448 73.7706C318.042 72.2451 320.1 70.109 321.62 67.3722L320.866 66.9536C319.417 69.5621 317.466 71.5835 315.011 73.0275L315.448 73.7706ZM321.622 67.3679C323.148 64.546 323.901 61.2059 323.901 57.3632H323.039C323.039 61.093 322.308 64.2861 320.864 66.9579L321.622 67.3679ZM364.39 5.8033H364.822V5.37224H364.39V5.8033ZM364.39 88.21V88.6411H364.822V88.21H364.39ZM348.8 88.21H348.369V88.6411H348.8V88.21ZM348.8 5.8033V5.37224H348.369V5.8033H348.8ZM363.959 5.8033V88.21H364.822V5.8033H363.959ZM364.39 87.779H348.8V88.6411H364.39V87.779ZM349.231 88.21V5.8033H348.369V88.21H349.231ZM348.8 6.23436H364.39V5.37224H348.8V6.23436ZM394.797 40.5478L394.415 40.3479L394.413 40.3526L394.797 40.5478ZM405.042 29.4117L405.265 29.7808L405.042 29.4117ZM430.878 28.1867L430.688 28.5739L430.695 28.577L430.878 28.1867ZM439.564 35.0911L439.218 35.3483L439.995 36.3932V35.0911H439.564ZM439.564 5.8033V5.37224H439.133V5.8033H439.564ZM455.377 5.8033H455.808V5.37224H455.377V5.8033ZM455.377 88.21V88.6411H455.808V88.21H455.377ZM439.564 88.21H439.133V88.6411H439.564V88.21ZM439.564 79.0785H439.995V77.5938L439.2 78.8476L439.564 79.0785ZM431.435 86.4283L431.232 86.0477L431.435 86.4283ZM405.042 85.2033L405.269 84.837L405.042 85.2033ZM394.797 73.9559L394.411 74.1487L394.415 74.1557L394.797 73.9559ZM437.448 47.6748L437.069 47.8798L437.071 47.8842L437.448 47.6748ZM431.435 41.4386L431.216 41.8103L431.224 41.8149L431.435 41.4386ZM415.287 41.3273L415.072 40.9537L415.287 41.3273ZM409.274 47.5635L408.899 47.3507L408.897 47.3541L409.274 47.5635ZM409.274 66.9402L408.892 67.141L408.899 67.153L409.274 66.9402ZM415.287 73.2877L415.064 73.6564L415.069 73.6593L415.287 73.2877ZM431.435 73.3991L431.645 73.7755L431.653 73.7706L431.435 73.3991ZM437.448 67.1629L437.825 67.3723L437.827 67.3679L437.448 67.1629ZM391.553 57.1405C391.553 50.9617 392.766 45.4994 395.181 40.7429L394.413 40.3526C391.928 45.2473 390.691 50.8468 390.691 57.1405H391.553ZM395.179 40.7475C397.67 35.9859 401.032 32.335 405.265 29.7808L404.819 29.0426C400.44 31.6852 396.973 35.4584 394.415 40.348L395.179 40.7475ZM405.265 29.7808C409.5 27.2249 414.211 25.9452 419.408 25.9452V25.083C414.062 25.083 409.196 26.4017 404.819 29.0426L405.265 29.7808ZM419.408 25.9452C423.35 25.9452 427.109 26.8207 430.688 28.5739L431.067 27.7996C427.371 25.9893 423.483 25.083 419.408 25.083V25.9452ZM430.695 28.577C434.275 30.2578 437.112 32.5163 439.218 35.3483L439.91 34.8339C437.71 31.8752 434.756 29.5308 431.061 27.7965L430.695 28.577ZM439.995 35.0911V5.8033H439.133V35.0911H439.995ZM439.564 6.23436H455.377V5.37224H439.564V6.23436ZM454.946 5.8033V88.21H455.808V5.8033H454.946ZM455.377 87.779H439.564V88.6411H455.377V87.779ZM439.995 88.21V79.0785H439.133V88.21H439.995ZM439.2 78.8476C437.313 81.8224 434.662 84.2233 431.232 86.0477L431.637 86.8088C435.186 84.9212 437.954 82.4222 439.928 79.3093L439.2 78.8476ZM431.232 86.0477C427.815 87.8655 423.84 88.7812 419.296 88.7812V89.6433C423.958 89.6433 428.076 88.7031 431.637 86.8088L431.232 86.0477ZM419.296 88.7812C414.178 88.7812 409.505 87.4662 405.269 84.837L404.815 85.5695C409.191 88.2857 414.021 89.6433 419.296 89.6433V88.7812ZM405.269 84.837C401.034 82.2081 397.67 78.5187 395.179 73.7561L394.415 74.1557C396.972 79.0443 400.439 82.8532 404.815 85.5695L405.269 84.837ZM395.183 73.7631C392.767 68.9316 391.553 63.3942 391.553 57.1405H390.691C390.691 63.5076 391.927 69.1805 394.411 74.1487L395.183 73.7631ZM440.106 57.3632C440.106 53.5209 439.353 50.2157 437.825 47.4655L437.071 47.8842C438.513 50.4792 439.244 53.6329 439.244 57.3632H440.106ZM437.827 47.4698C436.307 44.657 434.246 42.516 431.645 41.0623L431.224 41.8149C433.671 43.1824 435.62 45.1989 437.069 47.8798L437.827 47.4698ZM431.653 41.0671C429.064 39.5438 426.278 38.7804 423.305 38.7804V39.6425C426.123 39.6425 428.757 40.3639 431.216 41.8102L431.653 41.0671ZM423.305 38.7804C420.336 38.7804 417.589 39.5045 415.072 40.9537L415.502 41.7008C417.885 40.3289 420.483 39.6425 423.305 39.6425V38.7804ZM415.072 40.9537C412.548 42.407 410.491 44.5449 408.899 47.3507L409.649 47.7762C411.174 45.0882 413.127 43.0687 415.502 41.7008L415.072 40.9537ZM408.897 47.3541C407.37 50.1032 406.616 53.3708 406.616 57.1405H407.478C407.478 53.4861 408.208 50.369 409.651 47.7728L408.897 47.3541ZM406.616 57.1405C406.616 60.9109 407.37 64.2484 408.892 67.1409L409.655 66.7394C408.208 63.9896 407.478 60.794 407.478 57.1405H406.616ZM408.899 67.153C410.491 69.9572 412.545 72.1296 415.064 73.6564L415.511 72.9191C413.13 71.4763 411.175 69.417 409.649 66.7274L408.899 67.153ZM415.069 73.6593C417.657 75.1815 420.404 75.946 423.305 75.946V75.0839C420.564 75.0839 417.966 74.3636 415.506 72.9162L415.069 73.6593ZM423.305 75.946C426.274 75.946 429.056 75.2219 431.645 73.7754L431.224 73.0228C428.764 74.3974 426.127 75.0839 423.305 75.0839V75.946ZM431.653 73.7706C434.247 72.2451 436.304 70.109 437.825 67.3722L437.071 66.9536C435.622 69.5621 433.671 71.5835 431.216 73.0275L431.653 73.7706ZM437.827 67.3679C439.353 64.546 440.106 61.2059 440.106 57.3632H439.244C439.244 61.093 438.513 64.2861 437.069 66.9579L437.827 67.3679ZM464.671 40.5478L464.289 40.3479L464.286 40.3526L464.671 40.5478ZM474.805 29.4117L474.582 29.0426L474.579 29.0444L474.805 29.4117ZM501.197 28.2981L500.991 28.6769L500.995 28.6787L501.197 28.2981ZM509.549 35.3138L509.202 35.5695L509.98 36.6255V35.3138H509.549ZM509.549 26.5163V26.0853H509.118V26.5163H509.549ZM525.251 26.5163H525.682V26.0853H525.251V26.5163ZM525.251 88.21V88.6411H525.682V88.21H525.251ZM509.549 88.21H509.118V88.6411H509.549V88.21ZM509.549 79.1898H509.98V77.8099L509.195 78.9445L509.549 79.1898ZM501.197 86.4283L501.4 86.8088L501.402 86.8073L501.197 86.4283ZM474.805 85.2033L474.574 85.5678L474.577 85.5695L474.805 85.2033ZM464.671 73.9559L464.285 74.1487L464.289 74.1557L464.671 73.9559ZM507.322 47.6748L506.943 47.8798L506.945 47.8842L507.322 47.6748ZM501.308 41.4386L501.09 41.8103L501.098 41.8149L501.308 41.4386ZM485.161 41.3273L484.946 40.9537L485.161 41.3273ZM479.148 47.5635L478.773 47.3507L478.771 47.3541L479.148 47.5635ZM479.148 66.9402L478.766 67.141L478.773 67.153L479.148 66.9402ZM485.161 73.2877L484.938 73.6564L484.943 73.6593L485.161 73.2877ZM501.308 73.3991L501.519 73.7755L501.527 73.7706L501.308 73.3991ZM507.322 67.1629L507.699 67.3723L507.701 67.3679L507.322 67.1629ZM461.427 57.1405C461.427 50.9617 462.64 45.4994 465.055 40.7429L464.286 40.3526C461.801 45.2473 460.565 50.8468 460.565 57.1405H461.427ZM465.053 40.7475C467.544 35.984 470.871 32.3329 475.03 29.779L474.579 29.0444C470.275 31.6874 466.846 35.4603 464.289 40.348L465.053 40.7475ZM475.027 29.7808C479.263 27.2249 483.974 25.9452 489.17 25.9452V25.083C483.825 25.083 478.958 26.4017 474.582 29.0426L475.027 29.7808ZM489.17 25.9452C493.714 25.9452 497.65 26.861 500.991 28.6768L501.403 27.9194C497.914 26.0232 493.832 25.083 489.17 25.083V25.9452ZM500.995 28.6787C504.434 30.5083 507.166 32.8066 509.202 35.5695L509.896 35.0581C507.775 32.1788 504.938 29.7999 501.399 27.9175L500.995 28.6787ZM509.98 35.3138V26.5163H509.118V35.3138H509.98ZM509.549 26.9474H525.251V26.0853H509.549V26.9474ZM524.82 26.5163V88.21H525.682V26.5163H524.82ZM525.251 87.779H509.549V88.6411H525.251V87.779ZM509.98 88.21V79.1898H509.118V88.21H509.98ZM509.195 78.9445C507.234 81.7763 504.505 84.1463 500.992 86.0492L501.402 86.8073C505.016 84.8497 507.855 82.3941 509.904 79.4352L509.195 78.9445ZM500.995 86.0477C497.577 87.8655 493.603 88.7812 489.059 88.7812V89.6433C493.721 89.6433 497.838 88.7031 501.399 86.8088L500.995 86.0477ZM489.059 88.7812C483.94 88.7812 479.268 87.4662 475.032 84.837L474.577 85.5695C478.953 88.2857 483.784 89.6433 489.059 89.6433V88.7812ZM475.035 84.8388C470.873 82.2103 467.545 78.5205 465.053 73.7561L464.289 74.1557C466.845 79.0425 470.273 82.851 474.574 85.5677L475.035 84.8388ZM465.056 73.7631C462.641 68.9316 461.427 63.3942 461.427 57.1405H460.565C460.565 63.5076 461.801 69.1805 464.285 74.1487L465.056 73.7631ZM509.98 57.3632C509.98 53.5209 509.227 50.2157 507.699 47.4655L506.945 47.8842C508.387 50.4792 509.118 53.6329 509.118 57.3632H509.98ZM507.701 47.4698C506.181 44.657 504.12 42.516 501.519 41.0623L501.098 41.8149C503.545 43.1824 505.494 45.1989 506.943 47.8798L507.701 47.4698ZM501.527 41.0671C498.937 39.5438 496.152 38.7804 493.179 38.7804V39.6425C495.997 39.6425 498.631 40.3639 501.09 41.8102L501.527 41.0671ZM493.179 38.7804C490.21 38.7804 487.463 39.5045 484.946 40.9537L485.376 41.7008C487.759 40.3289 490.357 39.6425 493.179 39.6425V38.7804ZM484.946 40.9537C482.422 42.407 480.365 44.5449 478.773 47.3507L479.523 47.7762C481.048 45.0882 483.001 43.0687 485.376 41.7008L484.946 40.9537ZM478.771 47.3541C477.244 50.1032 476.489 53.3708 476.489 57.1405H477.352C477.352 53.4861 478.082 50.369 479.525 47.7728L478.771 47.3541ZM476.489 57.1405C476.489 60.9109 477.244 64.2484 478.766 67.1409L479.529 66.7394C478.082 63.9896 477.352 60.794 477.352 57.1405H476.489ZM478.773 67.153C480.364 69.9572 482.419 72.1296 484.938 73.6564L485.385 72.9191C483.004 71.4763 481.049 69.417 479.523 66.7274L478.773 67.153ZM484.943 73.6593C487.53 75.1815 490.278 75.946 493.179 75.946V75.0839C490.438 75.0839 487.84 74.3636 485.38 72.9162L484.943 73.6593ZM493.179 75.946C496.148 75.946 498.93 75.2219 501.519 73.7754L501.098 73.0228C498.638 74.3974 496.001 75.0839 493.179 75.0839V75.946ZM501.527 73.7706C504.12 72.2451 506.178 70.109 507.699 67.3722L506.945 66.9536C505.496 69.5621 503.545 71.5835 501.09 73.0275L501.527 73.7706ZM507.701 67.3679C509.226 64.546 509.98 61.2059 509.98 57.3632H509.118C509.118 61.093 508.387 64.2861 506.943 66.9579L507.701 67.3679ZM593.9 26.5163L594.297 26.6834L594.549 26.0853H593.9V26.5163ZM555.703 117.386V117.818H555.99L556.101 117.553L555.703 117.386ZM539.11 117.386L538.715 117.215L538.453 117.818H539.11V117.386ZM552.474 86.651L552.869 86.8229L552.942 86.6557L552.872 86.4871L552.474 86.651ZM527.752 26.5163V26.0853H527.108L527.353 26.6802L527.752 26.5163ZM545.235 26.5163L545.64 26.3669L545.536 26.0853H545.235V26.5163ZM561.16 69.6128L560.755 69.7622L561.157 70.8489L561.563 69.7641L561.16 69.6128ZM577.307 26.5163V26.0853H577.008L576.903 26.3651L577.307 26.5163ZM593.502 26.3493L555.306 117.219L556.101 117.553L594.297 26.6834L593.502 26.3493ZM555.703 116.955H539.11V117.818H555.703V116.955ZM539.506 117.558L552.869 86.8229L552.078 86.4791L538.715 117.215L539.506 117.558ZM552.872 86.4871L528.15 26.3524L527.353 26.6802L552.075 86.8149L552.872 86.4871ZM527.752 26.9474H545.235V26.0853H527.752V26.9474ZM544.831 26.6657L560.755 69.7622L561.564 69.4634L545.64 26.3669L544.831 26.6657ZM561.563 69.7641L577.711 26.6676L576.903 26.3651L560.756 69.4616L561.563 69.7641ZM577.307 26.9474H593.9V26.0853H577.307V26.9474ZM606.727 86.5396L606.546 86.9308L606.552 86.9335L606.727 86.5396ZM597.151 79.0785L596.804 79.3345L596.808 79.3397L597.151 79.0785ZM593.364 68.7219V68.2909H592.907L592.934 68.7473L593.364 68.7219ZM609.066 68.7219L609.494 68.6685L609.447 68.2909H609.066V68.7219ZM612.518 74.624L612.254 74.9644L612.26 74.9689L612.518 74.624ZM627.106 75.1808L626.86 74.8269L626.853 74.8322L627.106 75.1808ZM626.55 66.1607L626.351 66.5433L626.36 66.5477L626.368 66.5516L626.55 66.1607ZM616.861 62.8198L616.972 62.4032L616.963 62.4009L616.861 62.8198ZM605.503 59.3677L605.339 59.7665L605.342 59.7679L605.503 59.3677ZM597.93 53.911L597.601 54.1899L597.606 54.1956L597.93 53.911ZM597.707 34.6456L597.356 34.3959L597.352 34.4022L597.707 34.6456ZM606.171 27.964L605.997 27.5695L605.994 27.5708L606.171 27.964ZM636.795 31.0821L636.516 31.411L636.519 31.4137L636.795 31.0821ZM644.033 45.8931V46.3241H644.496L644.463 45.8623L644.033 45.8931ZM629.111 45.8931L628.682 45.9321L628.717 46.3241H629.111V45.8931ZM625.993 40.1023L625.717 40.4335L625.724 40.4397L625.732 40.4455L625.993 40.1023ZM612.184 39.4341L611.945 39.0754L611.937 39.081L612.184 39.4341ZM613.075 48.5657L612.871 48.9458L612.882 48.9513L613.075 48.5657ZM622.763 51.7952L622.657 52.2129L622.659 52.2133L622.763 51.7952ZM641.249 60.8154L640.916 61.0895L640.925 61.0999L641.249 60.8154ZM644.59 70.6151H645.021L645.021 70.6072L644.59 70.6151ZM641.583 80.1921L641.232 79.9424L641.228 79.9487L641.583 80.1921ZM633.12 86.8737L633.29 87.2699L633.294 87.2682L633.12 86.8737ZM620.313 88.7812C615.316 88.7812 610.849 87.8996 606.903 86.1457L606.552 86.9335C610.624 88.7432 615.214 89.6433 620.313 89.6433V88.7812ZM606.909 86.1484C602.955 84.3181 599.821 81.8727 597.493 78.8172L596.808 79.3397C599.231 82.5204 602.482 85.0491 606.546 86.9308L606.909 86.1484ZM597.497 78.8225C595.244 75.77 594.012 72.3976 593.795 68.6966L592.934 68.7473C593.162 72.6188 594.454 76.1507 596.804 79.3344L597.497 78.8225ZM593.364 69.153H609.066V68.2909H593.364V69.153ZM608.638 68.7754C608.95 71.272 610.165 73.3398 612.254 74.9643L612.783 74.2838C610.863 72.7902 609.776 70.9233 609.494 68.6685L608.638 68.7754ZM612.26 74.9689C614.425 76.5931 617.082 77.3937 620.202 77.3937V76.5316C617.235 76.5316 614.769 75.7731 612.777 74.2792L612.26 74.9689ZM620.202 77.3937C623.222 77.3937 625.626 76.7908 627.36 75.5295L626.853 74.8322C625.321 75.9466 623.122 76.5316 620.202 76.5316V77.3937ZM627.353 75.5347C629.16 74.2776 630.099 72.6309 630.099 70.6151H629.237C629.237 72.3112 628.468 73.7084 626.86 74.827L627.353 75.5347ZM630.099 70.6151C630.099 69.5342 629.817 68.5734 629.241 67.7509C628.668 66.9319 627.821 66.2759 626.731 65.7697L626.368 66.5516C627.357 67.0105 628.069 67.5795 628.535 68.2453C628.999 68.9076 629.237 69.6915 629.237 70.6151H630.099ZM626.748 65.778C624.7 64.716 621.433 63.5927 616.972 62.4033L616.75 63.2363C621.199 64.4226 624.39 65.5266 626.351 66.5433L626.748 65.778ZM616.963 62.4009C612.371 61.29 608.606 60.145 605.663 58.9674L605.342 59.7679C608.338 60.9661 612.146 62.1224 616.76 63.2388L616.963 62.4009ZM605.666 58.9689C602.835 57.8073 600.365 56.0286 598.254 53.6265L597.606 54.1956C599.801 56.6932 602.379 58.5523 605.339 59.7665L605.666 58.9689ZM598.259 53.6321C596.263 51.2806 595.243 48.0858 595.243 43.9999H594.381C594.381 48.2289 595.439 51.6415 597.601 54.1899L598.259 53.6321ZM595.243 43.9999C595.243 40.6718 596.182 37.6386 598.063 34.8891L597.352 34.4022C595.372 37.295 594.381 40.4979 594.381 43.9999H595.243ZM598.059 34.8953C600.012 32.1458 602.769 29.964 606.347 28.3573L605.994 27.5708C602.297 29.2306 599.411 31.5033 597.356 34.396L598.059 34.8953ZM606.344 28.3586C609.991 26.7542 614.272 25.9452 619.2 25.9452V25.083C614.179 25.083 609.775 25.9073 605.997 27.5695L606.344 28.3586ZM619.2 25.9452C626.477 25.9452 632.234 27.7817 636.516 31.411L637.073 30.7533C632.596 26.9585 626.622 25.083 619.2 25.083V25.9452ZM636.519 31.4137C640.8 34.9687 643.165 39.792 643.603 45.9238L644.463 45.8623C644.01 39.5217 641.55 34.4711 637.07 30.7505L636.519 31.4137ZM644.033 45.462H629.111V46.3241H644.033V45.462ZM629.54 45.854C629.307 43.2911 628.212 41.2474 626.254 39.7591L625.732 40.4455C627.486 41.7784 628.469 43.5952 628.682 45.9321L629.54 45.854ZM626.269 39.7712C624.388 38.204 621.867 37.444 618.754 37.444V38.3062C621.729 38.3062 624.034 39.031 625.717 40.4335L626.269 39.7712ZM618.754 37.444C615.888 37.444 613.602 37.9707 611.945 39.0755L612.423 39.7928C613.884 38.8189 615.978 38.3062 618.754 38.3062V37.444ZM611.937 39.081C610.334 40.2033 609.526 41.7846 609.526 43.7772H610.388C610.388 42.0578 611.065 40.7437 612.431 39.7873L611.937 39.081ZM609.526 43.7772C609.526 44.8921 609.806 45.8942 610.375 46.7686C610.943 47.6402 611.783 48.3627 612.871 48.9457L613.279 48.1857C612.288 47.6551 611.569 47.0227 611.098 46.2982C610.628 45.5764 610.388 44.741 610.388 43.7772H609.526ZM612.882 48.9513C615.004 50.0119 618.27 51.0974 622.657 52.2129L622.87 51.3774C618.497 50.2657 615.304 49.1982 613.268 48.1802L612.882 48.9513ZM622.659 52.2133C627.102 53.324 630.755 54.4689 633.624 55.6461L633.952 54.8485C631.031 53.6501 627.334 52.4935 622.868 51.377L622.659 52.2133ZM633.624 55.6461C636.451 56.8058 638.881 58.6176 640.917 61.0894L641.582 60.5413C639.46 57.9648 636.916 56.0646 633.952 54.8485L633.624 55.6461ZM640.925 61.0999C642.995 63.4554 644.086 66.6152 644.159 70.6229L645.021 70.6072C644.945 66.4485 643.809 63.0752 641.573 60.5308L640.925 61.0999ZM644.159 70.6151C644.159 74.092 643.183 77.1965 641.232 79.9424L641.935 80.4417C643.993 77.5454 645.021 74.2652 645.021 70.6151H644.159ZM641.228 79.9487C639.351 82.6919 636.599 84.8721 632.946 86.4791L633.294 87.2682C637.065 85.6087 639.956 83.3345 641.939 80.4355L641.228 79.9487ZM632.95 86.4775C629.377 88.0088 625.168 88.7812 620.313 88.7812V89.6433C625.258 89.6433 629.587 88.8567 633.29 87.2699L632.95 86.4775Z" fill="url(#paint0_linear_70_2663)"/>
<defs>
<linearGradient id="paint0_linear_70_2663" x1="323.036" y1="7.21002" x2="323.036" y2="89.2651" gradientUnits="userSpaceOnUse">
<stop stop-color="#DDAB6C"/>
<stop offset="0.9999" stop-color="#DDAB6C" stop-opacity="0"/>
<stop offset="1" stop-color="#DDAB6C" stop-opacity="0"/>
</linearGradient>
</defs>
</svg>
