<svg width="645" height="118" viewBox="0 0 645 118" fill="none" xmlns="http://www.w3.org/2000/svg">
<path d="M27.1238 89.1922C22.0754 89.1922 17.5468 88.3014 13.5378 86.5196C9.52882 84.6636 6.33648 82.1765 3.96079 79.0584C1.65935 75.9404 0.39726 72.4882 0.174539 68.7019H15.8764C16.1733 71.0776 17.324 73.045 19.3285 74.604C21.4073 76.1631 23.9686 76.9426 27.0124 76.9426C29.982 76.9426 32.2835 76.3487 33.9168 75.1608C35.6243 73.973 36.478 72.4511 36.478 70.5951C36.478 68.5906 35.4387 67.1058 33.36 66.1406C31.3555 65.1013 28.126 63.9877 23.6716 62.7998C19.0687 61.6862 15.2824 60.5355 12.3128 59.3476C9.41746 58.1598 6.89329 56.3409 4.74032 53.891C2.66159 51.4411 1.62222 48.1374 1.62222 43.9799C1.62222 40.5649 2.58735 37.4468 4.5176 34.6256C6.52208 31.8045 9.34322 29.5773 12.981 27.944C16.693 26.3107 21.0361 25.4941 26.0102 25.4941C33.36 25.4941 39.2249 27.3501 43.6051 31.0621C47.9853 34.6999 50.3981 39.6369 50.8435 45.873H35.9212C35.6985 43.4231 34.6592 41.4929 32.8031 40.0823C31.0214 38.5975 28.6086 37.8551 25.5647 37.8551C22.7436 37.8551 20.5535 38.3748 18.9945 39.4141C17.5096 40.4535 16.7672 41.9012 16.7672 43.7572C16.7672 45.8359 17.8066 47.4321 19.8853 48.5457C21.9641 49.5851 25.1935 50.6615 29.5737 51.7751C34.0281 52.8887 37.703 54.0395 40.5984 55.2273C43.4937 56.4152 45.9808 58.2712 48.0595 60.7953C50.2125 63.2453 51.3261 66.5118 51.4003 70.5951C51.4003 74.1586 50.3981 77.3509 48.3936 80.1721C46.4634 82.9932 43.6422 85.2204 39.9302 86.8537C36.2924 88.4127 32.0236 89.1922 27.1238 89.1922ZM74.1896 35.4052C76.1941 32.584 78.941 30.2455 82.4303 28.3894C85.9938 26.4592 90.0399 25.4941 94.5686 25.4941C99.8396 25.4941 104.591 26.7933 108.823 29.3917C113.129 31.9901 116.507 35.7021 118.956 40.5277C121.481 45.2791 122.743 50.81 122.743 57.1204C122.743 63.4309 121.481 69.036 118.956 73.9359C116.507 78.7615 113.129 82.5106 108.823 85.1833C104.591 87.8559 99.8396 89.1922 94.5686 89.1922C90.0399 89.1922 86.0309 88.2642 82.5416 86.4082C79.1266 84.5522 76.3426 82.2137 74.1896 79.3925V117.589H58.5991V26.4963H74.1896V35.4052ZM106.818 57.1204C106.818 53.4084 106.039 50.2161 104.48 47.5434C102.995 44.7966 100.99 42.7178 98.4662 41.3073C96.0162 39.8967 93.3436 39.1914 90.4482 39.1914C87.6271 39.1914 84.9544 39.9338 82.4303 41.4186C79.9803 42.8292 77.9759 44.9079 76.4168 47.6548C74.932 50.4017 74.1896 53.6311 74.1896 57.3432C74.1896 61.0552 74.932 64.2846 76.4168 67.0315C77.9759 69.7784 79.9803 71.8943 82.4303 73.3791C84.9544 74.7896 87.6271 75.4949 90.4482 75.4949C93.3436 75.4949 96.0162 74.7525 98.4662 73.2677C100.99 71.7829 102.995 69.667 104.48 66.9202C106.039 64.1733 106.818 60.9067 106.818 57.1204ZM185.824 56.0068C185.824 58.234 185.675 60.2385 185.378 62.0203H140.277C140.648 66.4747 142.207 69.964 144.954 72.4882C147.701 75.0124 151.079 76.2744 155.088 76.2744C160.879 76.2744 164.999 73.7874 167.449 68.8133H184.265C182.483 74.7525 179.068 79.6524 174.019 83.5129C168.971 87.2991 162.772 89.1922 155.422 89.1922C149.483 89.1922 144.138 87.893 139.386 85.2946C134.709 82.622 131.034 78.8728 128.362 74.0472C125.763 69.2216 124.464 63.6536 124.464 57.3432C124.464 50.9585 125.763 45.3534 128.362 40.5277C130.96 35.7021 134.598 31.9901 139.275 29.3917C143.952 26.7933 149.335 25.4941 155.422 25.4941C161.287 25.4941 166.521 26.7562 171.124 29.2803C175.801 31.8045 179.402 35.4052 181.926 40.0823C184.524 44.6852 185.824 49.9934 185.824 56.0068ZM169.676 51.5524C169.602 47.5434 168.154 44.3511 165.333 41.9754C162.512 39.5255 159.06 38.3005 154.977 38.3005C151.116 38.3005 147.85 39.4884 145.177 41.8641C142.579 44.1655 140.982 47.395 140.389 51.5524H169.676ZM187.595 57.3432C187.595 50.9585 188.895 45.3905 191.493 40.6391C194.091 35.8135 197.692 32.1015 202.295 29.5031C206.898 26.8304 212.169 25.4941 218.108 25.4941C225.755 25.4941 232.065 27.4243 237.039 31.2848C242.088 35.0711 245.466 40.4164 247.173 47.3207H230.358C229.467 44.6481 227.945 42.5693 225.792 41.0845C223.713 39.5255 221.115 38.746 217.997 38.746C213.542 38.746 210.016 40.3793 207.417 43.6458C204.819 46.8382 203.52 51.4039 203.52 57.3432C203.52 63.2081 204.819 67.7739 207.417 71.0405C210.016 74.2328 213.542 75.829 217.997 75.829C224.307 75.829 228.427 73.0079 230.358 67.3656H247.173C245.466 74.0472 242.088 79.3554 237.039 83.2901C231.991 87.2249 225.681 89.1922 218.108 89.1922C212.169 89.1922 206.898 87.893 202.295 85.2946C197.692 82.622 194.091 78.91 191.493 74.1586C188.895 69.333 187.595 63.7278 187.595 57.3432ZM260.902 19.1465C258.155 19.1465 255.854 18.2928 253.998 16.5852C252.216 14.8035 251.325 12.6134 251.325 10.015C251.325 7.41656 252.216 5.26359 253.998 3.55607C255.854 1.7743 258.155 0.883417 260.902 0.883417C263.649 0.883417 265.913 1.7743 267.695 3.55607C269.551 5.26359 270.479 7.41656 270.479 10.015C270.479 12.6134 269.551 14.8035 267.695 16.5852C265.913 18.2928 263.649 19.1465 260.902 19.1465ZM268.586 26.4963V88.19H252.996V26.4963H268.586ZM274.382 57.1204C274.382 50.8843 275.607 45.3534 278.056 40.5277C280.581 35.7021 283.959 31.9901 288.19 29.3917C292.496 26.7933 297.285 25.4941 302.556 25.4941C307.159 25.4941 311.168 26.4221 314.583 28.2781C318.072 30.1341 320.856 32.4727 322.935 35.2938V26.4963H338.637V88.19H322.935V79.1698C320.93 82.0652 318.146 84.478 314.583 86.4082C311.093 88.2642 307.047 89.1922 302.444 89.1922C297.248 89.1922 292.496 87.8559 288.19 85.1833C283.959 82.5106 280.581 78.7615 278.056 73.9359C275.607 69.036 274.382 63.4309 274.382 57.1204ZM322.935 57.3432C322.935 53.5569 322.192 50.3275 320.708 47.6548C319.223 44.9079 317.218 42.8292 314.694 41.4186C312.17 39.9338 309.46 39.1914 306.565 39.1914C303.669 39.1914 300.997 39.8967 298.547 41.3073C296.097 42.7178 294.092 44.7966 292.533 47.5434C291.049 50.2161 290.306 53.4084 290.306 57.1204C290.306 60.8325 291.049 64.099 292.533 66.9202C294.092 69.667 296.097 71.7829 298.547 73.2677C301.071 74.7525 303.744 75.4949 306.565 75.4949C309.46 75.4949 312.17 74.7896 314.694 73.3791C317.218 71.8943 319.223 69.8155 320.708 67.1429C322.192 64.396 322.935 61.1294 322.935 57.3432ZM363.855 5.78328V88.19H348.264V5.78328H363.855ZM390.586 57.1204C390.586 50.8843 391.811 45.3534 394.261 40.5277C396.786 35.7021 400.201 31.9901 404.507 29.3917C408.812 26.7933 413.601 25.4941 418.872 25.4941C422.881 25.4941 426.704 26.385 430.342 28.1667C433.98 29.8743 436.875 32.1757 439.028 35.0711V5.78328H454.841V88.19H439.028V79.0584C437.098 82.1023 434.388 84.5522 430.899 86.4082C427.41 88.2642 423.364 89.1922 418.761 89.1922C413.564 89.1922 408.812 87.8559 404.507 85.1833C400.201 82.5106 396.786 78.7615 394.261 73.9359C391.811 69.036 390.586 63.4309 390.586 57.1204ZM439.14 57.3432C439.14 53.5569 438.397 50.3275 436.912 47.6548C435.428 44.9079 433.423 42.8292 430.899 41.4186C428.375 39.9338 425.665 39.1914 422.77 39.1914C419.874 39.1914 417.202 39.8967 414.752 41.3073C412.302 42.7178 410.297 44.7966 408.738 47.5434C407.253 50.2161 406.511 53.4084 406.511 57.1204C406.511 60.8325 407.253 64.099 408.738 66.9202C410.297 69.667 412.302 71.7829 414.752 73.2677C417.276 74.7525 419.948 75.4949 422.77 75.4949C425.665 75.4949 428.375 74.7896 430.899 73.3791C433.423 71.8943 435.428 69.8155 436.912 67.1429C438.397 64.396 439.14 61.1294 439.14 57.3432ZM460.46 57.1204C460.46 50.8843 461.685 45.3534 464.135 40.5277C466.659 35.7021 470.037 31.9901 474.269 29.3917C478.575 26.7933 483.363 25.4941 488.634 25.4941C493.237 25.4941 497.246 26.4221 500.661 28.2781C504.151 30.1341 506.935 32.4727 509.013 35.2938V26.4963H524.715V88.19H509.013V79.1698C507.009 82.0652 504.225 84.478 500.661 86.4082C497.172 88.2642 493.126 89.1922 488.523 89.1922C483.326 89.1922 478.575 87.8559 474.269 85.1833C470.037 82.5106 466.659 78.7615 464.135 73.9359C461.685 69.036 460.46 63.4309 460.46 57.1204ZM509.013 57.3432C509.013 53.5569 508.271 50.3275 506.786 47.6548C505.301 44.9079 503.297 42.8292 500.773 41.4186C498.249 39.9338 495.539 39.1914 492.643 39.1914C489.748 39.1914 487.075 39.8967 484.626 41.3073C482.176 42.7178 480.171 44.7966 478.612 47.5434C477.127 50.2161 476.385 53.4084 476.385 57.1204C476.385 60.8325 477.127 64.099 478.612 66.9202C480.171 69.667 482.176 71.7829 484.626 73.2677C487.15 74.7525 489.822 75.4949 492.643 75.4949C495.539 75.4949 498.249 74.7896 500.773 73.3791C503.297 71.8943 505.301 69.8155 506.786 67.1429C508.271 64.396 509.013 61.1294 509.013 57.3432ZM593.364 26.4963L555.168 117.366H538.575L551.938 86.631L527.216 26.4963H544.7L560.624 69.5928L576.771 26.4963H593.364ZM619.778 89.1922C614.729 89.1922 610.201 88.3014 606.192 86.5196C602.183 84.6636 598.991 82.1765 596.615 79.0584C594.313 75.9404 593.051 72.4882 592.829 68.7019H608.53C608.827 71.0776 609.978 73.045 611.983 74.604C614.061 76.1631 616.623 76.9426 619.666 76.9426C622.636 76.9426 624.938 76.3487 626.571 75.1608C628.278 73.973 629.132 72.4511 629.132 70.5951C629.132 68.5906 628.093 67.1058 626.014 66.1406C624.01 65.1013 620.78 63.9877 616.326 62.7998C611.723 61.6862 607.936 60.5355 604.967 59.3476C602.072 58.1598 599.547 56.3409 597.394 53.891C595.316 51.4411 594.276 48.1374 594.276 43.9799C594.276 40.5649 595.241 37.4468 597.172 34.6256C599.176 31.8045 601.997 29.5773 605.635 27.944C609.347 26.3107 613.69 25.4941 618.664 25.4941C626.014 25.4941 631.879 27.3501 636.259 31.0621C640.639 34.6999 643.052 39.6369 643.498 45.873H628.575C628.353 43.4231 627.313 41.4929 625.457 40.0823C623.675 38.5975 621.263 37.8551 618.219 37.8551C615.398 37.8551 613.208 38.3748 611.649 39.4141C610.164 40.4535 609.421 41.9012 609.421 43.7572C609.421 45.8359 610.461 47.4321 612.539 48.5457C614.618 49.5851 617.848 50.6615 622.228 51.7751C626.682 52.8887 630.357 54.0395 633.252 55.2273C636.148 56.4152 638.635 58.2712 640.714 60.7953C642.867 63.2453 643.98 66.5118 644.054 70.5951C644.054 74.1586 643.052 77.3509 641.048 80.1721C639.117 82.9932 636.296 85.2204 632.584 86.8537C628.946 88.4127 624.678 89.1922 619.778 89.1922Z" fill="#DDAB6C"/>
</svg>
