<svg width="80" height="80" viewBox="0 0 80 80" fill="none" xmlns="http://www.w3.org/2000/svg">
<path d="M78.7921 34.3278C78.3121 31.0318 77.4241 27.8238 76.1121 24.7358C74.1361 20.0638 71.3121 15.8718 67.7121 12.2798C64.1121 8.6798 59.9201 5.8558 55.2561 3.8798C52.1761 2.5758 48.9601 1.6798 45.6721 1.2078C43.8081 0.935805 41.9121 0.799805 40.0001 0.799805C39.8241 0.799805 39.6401 0.799805 39.4641 0.799805C34.3601 0.863805 29.4081 1.9038 24.7361 3.8798C20.0641 5.8558 15.8721 8.6798 12.2801 12.2798C8.9201 15.6398 6.2401 19.5118 4.2881 23.8158C4.1521 24.1198 4.0161 24.4318 3.8801 24.7438C2.70411 27.5278 1.86411 30.4158 1.36011 33.3678C1.01611 35.3678 0.832105 37.4078 0.808105 39.4638C0.808105 39.6398 0.808105 39.8158 0.808105 39.9998C0.808105 41.9118 0.944105 43.8078 1.21611 45.6718C1.69611 48.9678 2.58411 52.1758 3.8961 55.2638C5.8721 59.9358 8.6961 64.1278 12.2961 67.7198C15.8961 71.3198 20.0881 74.1438 24.7521 76.1198C27.8401 77.4238 31.0481 78.3198 34.3441 78.7998C36.2081 79.0718 38.1041 79.2078 40.0161 79.2078C40.1921 79.2078 40.3681 79.2078 40.5521 79.2078C43.8081 79.1678 47.0001 78.7278 50.1041 77.9038C51.8641 77.4398 53.5921 76.8478 55.2801 76.1278C56.6881 75.5358 58.0481 74.8638 59.3601 74.1118C62.4161 72.3758 65.2241 70.2398 67.7361 67.7278C71.3361 64.1278 74.1601 59.9358 76.1361 55.2718C78.1121 50.5998 79.1441 45.6478 79.2161 40.5438C79.2161 40.3678 79.2161 40.1918 79.2161 40.0078C79.2001 38.0878 79.0641 36.1918 78.7921 34.3278ZM72.5921 33.9278C67.4881 33.9918 62.5361 35.0318 57.8641 37.0078C57.5841 37.1278 57.3041 37.2478 57.0241 37.3758C55.4241 34.7838 53.5361 32.3838 51.3521 30.1998C48.6801 27.5278 45.6721 25.2798 42.3921 23.4878C42.6001 23.0398 42.8081 22.5918 43.0001 22.1358C44.9761 17.4638 46.0081 12.5118 46.0801 7.4078C59.5121 9.8958 70.1041 20.4878 72.5921 33.9278ZM40.0001 6.8558C40.0081 6.8558 40.0161 6.8558 40.0241 6.8558C40.0241 6.8638 40.0241 6.8718 40.0241 6.8798C40.0241 11.9358 38.8881 16.7278 36.8641 21.0158C32.6321 19.4958 28.1841 18.7278 23.6321 18.7278C20.1921 18.7278 16.8161 19.1678 13.5441 20.0398C19.6001 12.0238 29.1921 6.8558 40.0001 6.8558ZM6.8561 39.9998C6.8561 35.8238 7.6321 31.8318 9.0401 28.1518C13.4481 25.9918 18.4001 24.7678 23.6321 24.7678C27.1441 24.7678 30.5361 25.3198 33.7121 26.3278C27.6881 34.6318 17.9121 40.0238 6.8801 40.0238C6.8721 40.0238 6.8641 40.0238 6.8561 40.0238C6.8561 40.0158 6.8561 40.0078 6.8561 39.9998ZM7.4081 46.0718C12.5121 46.0078 17.4641 44.9678 22.1361 42.9918C26.8081 41.0158 31.0001 38.1918 34.5921 34.5918C36.3921 32.7918 38.0001 30.8398 39.4081 28.7598C44.4321 31.4798 48.6721 35.4718 51.7041 40.2878C49.4481 41.7598 47.3361 43.4718 45.4081 45.4078C41.8081 49.0078 38.9841 53.1998 37.0081 57.8638C35.0321 62.5358 34.0001 67.4878 33.9281 72.5918C20.4881 70.1038 9.8961 59.5118 7.4081 46.0718ZM40.0001 73.1438C39.9921 73.1438 39.9841 73.1438 39.9761 73.1438C39.9761 73.1358 39.9761 73.1278 39.9761 73.1198C39.9761 61.7358 45.7201 51.6878 54.4641 45.7198C55.9601 49.4958 56.7761 53.6078 56.7761 57.9118C56.7761 62.0878 56.0001 66.0798 54.5921 69.7598C50.1921 71.9278 45.2401 73.1438 40.0001 73.1438ZM73.1441 39.9998C73.1441 49.7278 68.9521 58.4798 62.2721 64.5438C62.6401 62.3678 62.8321 60.1598 62.8321 57.9118C62.8321 52.6638 61.8081 47.5678 59.7921 42.7598C63.8721 40.9678 68.3761 39.9678 73.1201 39.9678C73.1281 39.9678 73.1361 39.9678 73.1441 39.9678C73.1441 39.9838 73.1441 39.9918 73.1441 39.9998Z" fill="white"/>
</svg>
