<svg width="50" height="41" viewBox="0 0 50 41" fill="none" xmlns="http://www.w3.org/2000/svg">
<path d="M38.2432 1.04892C38.0744 1.11052 36.3592 2.76412 34.4144 4.70892C32.4856 6.65452 30.8312 8.24732 30.7552 8.24732C30.6784 8.24732 29.4072 7.34412 27.9216 6.22572C26.436 5.12332 24.92 4.08172 24.5368 3.89772C22.684 3.05532 19.9576 3.95852 18.5792 5.87292C18.3344 6.20972 15.3024 11.7233 11.8256 18.1241C8.34956 24.5257 4.47516 31.6625 3.21996 33.9753C1.96396 36.2881 0.89196 38.4009 0.84636 38.6769C0.78476 39.0753 0.84636 39.2433 1.22956 39.6417C1.81116 40.2233 2.34716 40.2393 2.92956 39.6721C3.17436 39.4425 6.97276 32.5969 11.8888 23.4849C21.0304 6.59292 21 6.62412 22.3624 6.27132C23.1128 6.05692 23.848 6.27132 23.7104 6.65452C23.664 6.77692 21.1376 11.3409 18.1056 16.7617C14.2768 23.6225 12.592 26.7769 12.592 27.0993C12.592 28.0337 13.8632 28.6609 14.6136 28.0945C14.7664 27.9873 17.3392 23.5001 20.3408 18.1097C23.3424 12.7345 25.8384 8.27772 25.9 8.20172C25.9616 8.14012 26.972 8.81452 28.1512 9.70252C31.2144 11.9993 30.632 12.1673 35.104 7.71132L38.7032 4.12732L41.0152 6.40892C44.0936 9.47212 43.7416 9.47212 46.7736 6.43932C49.3312 3.89692 49.4992 3.59132 48.8104 2.76412C48.4888 2.38092 48.2744 2.27372 47.8456 2.27372C47.3552 2.27372 47.1256 2.44252 45.6096 3.95852L43.9096 5.64332L41.6128 3.34652C39.3312 1.08012 38.8712 0.773717 38.2432 1.04892Z" fill="white"/>
</svg>
