<svg width="89" height="88" viewBox="0 0 89 88" fill="none" xmlns="http://www.w3.org/2000/svg">
<circle cx="44.8317" cy="43.9801" r="43.9801" fill="#DDAB6C"/>
<path d="M40.0862 60.7283C39.1925 60.7019 38.4107 61.4606 38.4019 62.3625C38.3931 63.2531 39.1146 63.993 40.0108 64.0093C40.9246 64.0256 41.6586 63.336 41.6837 62.4379C41.7089 61.5159 40.9975 60.7547 40.0862 60.7271V60.7283Z" fill="#141414"/>
<path d="M25.4082 61.377H65.3458V48.8965H70.338V63.8731C70.338 64.5351 70.075 65.17 69.6069 65.6381C69.1388 66.1062 68.5039 66.3692 67.8419 66.3692H22.9121C22.2501 66.3692 21.6152 66.1062 21.1471 65.6381C20.679 65.17 20.416 64.5351 20.416 63.8731V48.8965H25.4082V61.377ZM45.377 38.9121H37.8887C35.5251 38.9105 33.1947 39.4691 31.0886 40.542C28.9825 41.615 27.1608 43.1719 25.7726 45.085C26.6587 40.5358 29.099 36.4362 32.6755 33.4886C36.2521 30.5409 40.7423 28.9286 45.377 28.9278V18.9434L65.3458 33.9199L45.377 48.8965V38.9121Z" fill="white"/>
</svg>
