<svg width="88" height="88" viewBox="0 0 88 88" fill="none" xmlns="http://www.w3.org/2000/svg">
<circle cx="43.9801" cy="43.9801" r="43.9801" fill="#DDAB6C"/>
<g clip-path="url(#clip0_532_31)">
<path d="M62.9086 19.3982C62.9086 19.1507 62.9071 18.9017 62.8893 18.6543C62.8253 17.7523 62.4964 16.9621 61.9355 16.2509C61.2376 15.3668 60.2748 14.9583 59.2392 14.6616H33.5175C30.7052 15.2714 29.6532 17.3288 29.7305 19.7844C29.8124 22.377 29.7335 24.9757 29.7618 27.5713C29.7677 28.1006 29.6189 28.3556 29.1145 28.5717C22.4542 31.4343 19.2207 39.2928 21.9542 46.0287C22.4438 47.2348 23.1476 48.353 23.8172 49.6382C23.7517 49.6874 23.5702 49.7977 23.4199 49.9378C18.2744 54.7654 13.1318 59.5959 7.99076 64.4264C7.83898 64.5695 7.68274 64.7142 7.55626 64.8782C7.24378 65.2852 7.26312 65.7846 7.58602 66.132C7.90892 66.4794 8.41931 66.5435 8.83446 66.2662C9.02195 66.1395 9.18861 65.9785 9.35526 65.8219C13.8877 61.5684 18.4187 57.3118 22.9512 53.0583C23.6996 52.3546 24.4526 51.6539 25.2219 50.9353C26.4182 52.0385 27.7098 52.9465 29.1874 53.5488C29.6264 53.7277 29.7648 53.9573 29.7633 54.4284C29.7439 59.2008 29.7454 63.9717 29.7543 68.7441C29.7603 71.4188 31.5816 73.2898 34.2139 73.2928C42.2923 73.3047 50.3707 73.3077 58.4491 73.2779C59.1306 73.2749 59.8701 73.1199 60.4832 72.8262C62.2271 71.9868 62.922 70.4959 62.9205 68.586C62.9086 52.1906 62.9131 35.7952 62.9131 19.3997L62.9086 19.3982ZM49.2398 17.6151C49.4094 17.5987 49.582 17.6121 49.7532 17.6121C50.7323 17.6002 51.2099 17.9207 51.2084 18.5737C51.2054 19.2268 50.7159 19.5563 49.7472 19.5533C49.5582 19.5533 49.3648 19.5533 49.1788 19.5235C48.6416 19.434 48.2904 19.0464 48.2919 18.5678C48.2934 18.0594 48.6758 17.6688 49.2398 17.6151ZM42.5557 17.6062C43.1628 17.5883 43.7699 17.6017 44.377 17.6017C45.0034 17.6032 45.6299 17.5883 46.2548 17.6076C46.8768 17.6285 47.2637 17.9863 47.2935 18.5186C47.3232 19.0657 46.9319 19.5205 46.2995 19.5369C45.0287 19.5712 43.7565 19.5697 42.4857 19.5369C41.8399 19.5205 41.4635 19.0956 41.4813 18.5335C41.4992 17.9729 41.8861 17.6226 42.5542 17.6032L42.5557 17.6062ZM22.9199 41.0416C22.9259 34.5994 28.2098 29.3112 34.635 29.3202C41.0781 29.3291 46.3367 34.6069 46.3263 41.0521C46.3159 47.5107 41.0572 52.781 34.6246 52.781C28.2083 52.781 22.914 47.4719 22.9199 41.0431V41.0416ZM46.3203 70.3468C44.1821 70.3364 42.4351 68.586 42.4381 66.454C42.4396 64.331 44.2044 62.5568 46.3233 62.5449C48.4616 62.533 50.2412 64.3295 50.2234 66.4854C50.207 68.6323 48.4631 70.3572 46.3203 70.3468ZM60.9281 59.581H31.7215V54.4255C36.5664 55.3111 40.8132 54.1362 44.3056 50.6594C46.9944 47.9818 48.2666 44.6735 48.2741 40.8612C48.2904 33.0579 40.8058 25.7047 31.7245 27.6369V22.5127H60.9266V59.5795L60.9281 59.581Z" fill="white"/>
<path d="M46.3793 64.4981C45.3213 64.4668 44.3958 65.3673 44.3853 66.4377C44.3749 67.4948 45.229 68.3729 46.29 68.3923C47.3718 68.4117 48.2408 67.5932 48.2705 66.5272C48.3003 65.4329 47.4581 64.5294 46.3793 64.4966V64.4981Z" fill="white"/>
</g>
<defs>
<clipPath id="clip0_532_31">
<rect width="55.586" height="58.6402" fill="white" transform="translate(7.32959 14.6606)"/>
</clipPath>
</defs>
</svg>
