<svg width="88" height="89" viewBox="0 0 88 89" fill="none" xmlns="http://www.w3.org/2000/svg">
<circle cx="43.9801" cy="44.673" r="43.9801" fill="#DDAB6C"/>
<path d="M62.1858 24.3418H59.6327V19.2539H54.5265V24.3418H34.1019V19.2539H28.9957V24.3418H26.4426C23.6087 24.3418 21.362 26.6314 21.362 29.4298L21.3364 65.0453C21.3364 67.8437 23.6087 70.1333 26.4426 70.1333H62.1858C64.9942 70.1333 67.292 67.8437 67.292 65.0453V29.4298C67.292 26.6314 64.9942 24.3418 62.1858 24.3418ZM62.1858 65.0453H26.4426V39.6057H62.1858V65.0453ZM62.1858 34.5177H26.4426V29.4298H62.1858V34.5177ZM44.3142 47.2376H57.0796V59.9574H44.3142V47.2376Z" fill="white"/>
</svg>
