<svg width="89" height="89" viewBox="0 0 89 89" fill="none" xmlns="http://www.w3.org/2000/svg">
<circle cx="44.6325" cy="44.673" r="43.9801" fill="#DDAB6C"/>
<g clip-path="url(#clip0_533_53)">
<path d="M42.1626 16.6558L62.625 23.0485C63.1957 23.2267 63.6945 23.5826 64.0486 24.0643C64.4027 24.546 64.5936 25.1283 64.5933 25.7262V30.6749H70.201C70.9446 30.6749 71.6578 30.9703 72.1836 31.4962C72.7094 32.022 73.0048 32.7352 73.0048 33.4788V39.0865H36.5549V33.4788C36.5549 32.7352 36.8504 32.022 37.3762 31.4962C37.902 30.9703 38.6152 30.6749 39.3588 30.6749H58.9856V27.787L42.1626 22.527L25.3396 27.787V48.5466C25.3392 50.2632 25.7328 51.9569 26.4902 53.4974C27.2476 55.0379 28.3484 56.384 29.708 57.4319L30.2379 57.8133L42.1626 65.9472L52.7667 58.7133H39.3588C38.6152 58.7133 37.902 58.4179 37.3762 57.8921C36.8504 57.3663 36.5549 56.6531 36.5549 55.9095V44.6941H73.0048V55.9095C73.0048 56.6531 72.7094 57.3663 72.1836 57.8921C71.6578 58.4179 70.9446 58.7133 70.201 58.7133L61.1726 58.7161C60.0875 60.1461 58.7697 61.4078 57.2473 62.4452L42.1626 72.7325L27.078 62.448C24.8139 60.9044 22.9613 58.831 21.681 56.4083C20.4007 53.9856 19.7316 51.2868 19.7319 48.5466V25.7262C19.7323 25.1288 19.9234 24.5471 20.2775 24.066C20.6315 23.5848 21.13 23.2293 21.7002 23.0513L42.1626 16.6558Z" fill="white"/>
</g>
<defs>
<clipPath id="clip0_533_53">
<rect width="67.2921" height="67.2921" fill="white" transform="translate(11.3203 11.0474)"/>
</clipPath>
</defs>
</svg>
