<svg width="80" height="70" viewBox="0 0 80 70" fill="none" xmlns="http://www.w3.org/2000/svg">
<path d="M74.456 54.1844C74.456 54.1844 72.416 60.8404 67.432 60.2964C65.464 60.0804 63.744 58.4884 62 56.6404C66.784 50.7284 69.656 43.2004 69.656 35.0004C69.656 15.9844 54.24 0.568359 35.224 0.568359C16.216 0.568359 0.800049 15.9844 0.800049 35.0004C0.800049 54.0164 16.216 69.4324 35.232 69.4324C43.384 69.4324 50.872 66.5924 56.768 61.8564C59.432 63.8004 61.28 66.9204 68.168 67.1124C77.88 67.3844 79.2 58.7604 79.2 58.7604L74.456 54.1844ZM35.408 7.33636C40.544 7.33636 44.712 11.5044 44.712 16.6404C44.712 21.7764 40.552 25.9444 35.408 25.9444C30.272 25.9444 26.104 21.7844 26.104 16.6404C26.104 11.5044 30.264 7.33636 35.408 7.33636ZM38.776 34.9844C38.776 36.9444 37.192 38.5284 35.232 38.5284C33.272 38.5284 31.688 36.9364 31.688 34.9844C31.688 33.0324 33.272 31.4404 35.232 31.4404C37.184 31.4404 38.776 33.0244 38.776 34.9844ZM17.04 44.3444C11.904 44.3444 7.73605 40.1764 7.73605 35.0404C7.73605 29.9044 11.904 25.7364 17.04 25.7364C22.176 25.7364 26.344 29.9044 26.344 35.0404C26.344 40.1764 22.176 44.3444 17.04 44.3444ZM35.408 62.6644C30.272 62.6644 26.104 58.4964 26.104 53.3604C26.104 48.2244 30.264 44.0564 35.408 44.0564C40.544 44.0564 44.712 48.2244 44.712 53.3604C44.712 58.4964 40.544 62.6644 35.408 62.6644ZM53.68 44.3444C48.544 44.3444 44.376 40.1764 44.376 35.0404C44.376 29.9044 48.544 25.7364 53.68 25.7364C58.816 25.7364 62.984 29.9044 62.984 35.0404C62.976 40.1764 58.816 44.3444 53.68 44.3444Z" fill="white"/>
</svg>
